<svg xmlns="http://www.w3.org/2000/svg" xmlns:xlink="http://www.w3.org/1999/xlink" width="65.587" height="51.766" viewBox="0 0 65.587 51.766">
  <defs>
    <clipPath id="clip-path">
      <rect id="Ret칙ngulo_317" data-name="Ret칙ngulo 317" width="65.587" height="51.766" transform="translate(211 764)" fill="#0e4848" stroke="#707070" stroke-width="1"/>
    </clipPath>
  </defs>
  <g id="Grupo_de_m치scara_53" data-name="Grupo de m치scara 53" transform="translate(-211 -764)" clip-path="url(#clip-path)">
    <g id="noun-monthly-calendar-2082239" transform="translate(194.819 764.371)">
      <path id="Caminho_1894" data-name="Caminho 1894" d="M15.7,18.549H76.511V20.47H15.7Z" transform="translate(2.197 -5.8)" fill="#0e4848"/>
      <path id="Caminho_1895" data-name="Caminho 1895" d="M74.089,61.279H19.042A3.845,3.845,0,0,1,15.2,57.437V17.108a3.845,3.845,0,0,1,3.841-3.841h5.044v3.575a1.923,1.923,0,0,0,1.921,1.921h1.8a1.923,1.923,0,0,0,1.921-1.921V13.267h7.8v3.575a1.923,1.923,0,0,0,1.921,1.921h1.8a1.923,1.923,0,0,0,1.921-1.921V13.267h7.8v3.575A1.923,1.923,0,0,0,52.9,18.762h1.8a1.923,1.923,0,0,0,1.921-1.921V13.267h6.84v3.575a1.923,1.923,0,0,0,1.921,1.921h1.8A1.923,1.923,0,0,0,69.1,16.842V13.267h4.983a3.845,3.845,0,0,1,3.841,3.841V57.437a3.843,3.843,0,0,1-3.839,3.841ZM19.042,15.187a1.923,1.923,0,0,0-1.921,1.921V57.437a1.923,1.923,0,0,0,1.921,1.921H74.089a1.923,1.923,0,0,0,1.921-1.921V17.11a1.923,1.923,0,0,0-1.921-1.921H71.028v1.654a3.845,3.845,0,0,1-3.841,3.841h-1.8a3.845,3.845,0,0,1-3.841-3.841V15.189h-3v1.654A3.845,3.845,0,0,1,54.7,20.684H52.9a3.845,3.845,0,0,1-3.841-3.841V15.189H45.1v1.654a3.845,3.845,0,0,1-3.841,3.841h-1.8a3.845,3.845,0,0,1-3.841-3.841V15.189H31.655v1.654a3.845,3.845,0,0,1-3.841,3.841h-1.8a3.845,3.845,0,0,1-3.841-3.841V15.189Z" transform="translate(1.739 -10.608)" fill="#0e4848"/>
      <path id="Caminho_1896" data-name="Caminho 1896" d="M21.764,18.869a.96.96,0,0,1-.961-.961V12.836a.961.961,0,0,1,1.921,0v5.073A.961.961,0,0,1,21.764,18.869Z" transform="translate(6.839 -11.875)" fill="#0e4848"/>
      <path id="Caminho_1897" data-name="Caminho 1897" d="M28.8,18.869a.96.96,0,0,1-.961-.961V12.836a.961.961,0,0,1,1.921,0v5.073A.961.961,0,0,1,28.8,18.869Z" transform="translate(13.246 -11.875)" fill="#0e4848"/>
      <path id="Caminho_1898" data-name="Caminho 1898" d="M35.842,18.869a.96.96,0,0,1-.961-.961V12.836a.961.961,0,1,1,1.921,0v5.073A.961.961,0,0,1,35.842,18.869Z" transform="translate(19.653 -11.875)" fill="#0e4848"/>
      <path id="Caminho_1899" data-name="Caminho 1899" d="M42.378,18.869a.96.96,0,0,1-.961-.961V12.836a.961.961,0,1,1,1.921,0v5.073A.961.961,0,0,1,42.378,18.869Z" transform="translate(25.601 -11.875)" fill="#0e4848"/>
      <path id="Caminho_1900" data-name="Caminho 1900" d="M25.494,22.628h6.722V29.16H25.494Z" transform="translate(11.108 -2.088)" fill="#0e4848"/>
      <path id="Caminho_1901" data-name="Caminho 1901" d="M33.035,22.628h6.723V29.16H33.035Z" transform="translate(17.973 -2.088)" fill="#0e4848"/>
      <path id="Caminho_1902" data-name="Caminho 1902" d="M40.577,22.628H47.3V29.16H40.577Z" transform="translate(24.837 -2.088)" fill="#0e4848"/>
      <path id="Caminho_1903" data-name="Caminho 1903" d="M25.494,29.667h6.722v7.492H25.494Z" transform="translate(11.108 4.319)" fill="#0e4848"/>
      <path id="Caminho_1904" data-name="Caminho 1904" d="M18.958,29.667H25.68v7.492H18.958Z" transform="translate(5.159 4.319)" fill="#0e4848"/>
      <path id="Caminho_1905" data-name="Caminho 1905" d="M33.035,29.667h6.723v7.492H33.035Z" transform="translate(17.973 4.319)" fill="#0e4848"/>
      <path id="Caminho_1906" data-name="Caminho 1906" d="M40.577,29.667H47.3v7.492H40.577Z" transform="translate(24.837 4.319)" fill="#0e4848"/>
      <g id="Grupo_1289" data-name="Grupo 1289" transform="translate(0.147 84.196)">
        <path id="Caminho_1907" data-name="Caminho 1907" d="M3.1,1.505a2.282,2.282,0,0,1-.52.193,2.337,2.337,0,0,1-.563.067A1.922,1.922,0,0,1,.637,1.277,1.749,1.749,0,0,1,.125-.049,1.745,1.745,0,0,1,.637-1.375a1.918,1.918,0,0,1,1.385-.49,2.337,2.337,0,0,1,.563.067,2.281,2.281,0,0,1,.52.193v.724a2.059,2.059,0,0,0-.5-.249,1.635,1.635,0,0,0-.514-.08A.962.962,0,0,0,1.336-.9a1.231,1.231,0,0,0-.276.852A1.236,1.236,0,0,0,1.336.8a.965.965,0,0,0,.758.308,1.673,1.673,0,0,0,.514-.078A2,2,0,0,0,3.1.782Z" transform="translate(-0.125 1.866)" fill="#0e4848"/>
      </g>
      <g id="Grupo_1290" data-name="Grupo 1290" transform="translate(3.838 85.07)">
        <path id="Caminho_1908" data-name="Caminho 1908" d="M2.163-.629A1.16,1.16,0,0,0,1.94-.7a.917.917,0,0,0-.217-.027.612.612,0,0,0-.5.209.892.892,0,0,0-.174.592V1.282H.212V-1.344h.839v.431a1.066,1.066,0,0,1,.37-.375,1,1,0,0,1,.5-.121.893.893,0,0,1,.091.005c.033,0,.082.007.145.013Z" transform="translate(-0.212 1.408)" fill="#0e4848"/>
      </g>
      <g id="Grupo_1291" data-name="Grupo 1291" transform="translate(6.008 85.07)">
        <path id="Caminho_1909" data-name="Caminho 1909" d="M2.927-.039V.2H.963a.624.624,0,0,0,.214.442.792.792,0,0,0,.512.147A1.976,1.976,0,0,0,2.23.714,2.865,2.865,0,0,0,2.8.475v.646a3.538,3.538,0,0,1-.595.169,3.088,3.088,0,0,1-.595.059A1.585,1.585,0,0,1,.5.987,1.309,1.309,0,0,1,.108-.028,1.323,1.323,0,0,1,.5-1.039a1.483,1.483,0,0,1,1.067-.37,1.336,1.336,0,0,1,.991.375,1.346,1.346,0,0,1,.372.994ZM2.064-.318A.531.531,0,0,0,1.925-.7.48.48,0,0,0,1.56-.848a.572.572,0,0,0-.4.137.628.628,0,0,0-.19.394Z" transform="translate(-0.108 1.408)" fill="#0e4848"/>
      </g>
      <g id="Grupo_1292" data-name="Grupo 1292" transform="translate(9.264 85.07)">
        <path id="Caminho_1910" data-name="Caminho 1910" d="M1.483.1a.723.723,0,0,0-.4.088A.3.3,0,0,0,.955.451.312.312,0,0,0,1.062.7a.449.449,0,0,0,.295.088.529.529,0,0,0,.4-.169A.594.594,0,0,0,1.919.2V.1ZM2.764-.216v1.5H1.919V.893a1.084,1.084,0,0,1-.381.348,1.136,1.136,0,0,1-.514.107.933.933,0,0,1-.662-.236A.807.807,0,0,1,.108.494.758.758,0,0,1,.424-.181a1.806,1.806,0,0,1,1-.217h.5V-.465a.31.31,0,0,0-.158-.289,1,1,0,0,0-.49-.094,2.256,2.256,0,0,0-.5.054,1.738,1.738,0,0,0-.429.161v-.64a5.107,5.107,0,0,1,.539-.1,4.4,4.4,0,0,1,.547-.035,1.515,1.515,0,0,1,1.024.281,1.161,1.161,0,0,1,.316.911Z" transform="translate(-0.108 1.408)" fill="#0e4848"/>
      </g>
      <g id="Grupo_1293" data-name="Grupo 1293" transform="translate(12.362 84.389)">
        <path id="Caminho_1911" data-name="Caminho 1911" d="M1.29-1.765v.745h.866v.6H1.29V.7a.324.324,0,0,0,.072.247.451.451,0,0,0,.287.064h.431v.6H1.363A.985.985,0,0,1,.655,1.4.98.98,0,0,1,.449.7V-.42H.034v-.6H.449v-.745Z" transform="translate(-0.034 1.765)" fill="#0e4848"/>
      </g>
      <g id="Grupo_1294" data-name="Grupo 1294" transform="translate(14.8 85.07)">
        <path id="Caminho_1912" data-name="Caminho 1912" d="M2.927-.039V.2H.963a.624.624,0,0,0,.214.442.792.792,0,0,0,.512.147A1.976,1.976,0,0,0,2.23.714,2.865,2.865,0,0,0,2.8.475v.646a3.538,3.538,0,0,1-.595.169,3.088,3.088,0,0,1-.595.059A1.585,1.585,0,0,1,.5.987,1.309,1.309,0,0,1,.108-.028,1.323,1.323,0,0,1,.5-1.039a1.483,1.483,0,0,1,1.067-.37,1.336,1.336,0,0,1,.991.375,1.346,1.346,0,0,1,.372.994ZM2.064-.318A.531.531,0,0,0,1.925-.7.48.48,0,0,0,1.56-.848a.572.572,0,0,0-.4.137.628.628,0,0,0-.19.394Z" transform="translate(-0.108 1.408)" fill="#0e4848"/>
      </g>
      <g id="Grupo_1295" data-name="Grupo 1295" transform="translate(18.067 84.11)">
        <path id="Caminho_1913" data-name="Caminho 1913" d="M2.086-.5V-1.911H2.93v3.65H2.086V1.358a1.105,1.105,0,0,1-.381.34,1.056,1.056,0,0,1-.485.107.976.976,0,0,1-.8-.386A1.528,1.528,0,0,1,.114.429,1.533,1.533,0,0,1,.424-.565a.976.976,0,0,1,.8-.386,1.024,1.024,0,0,1,.482.11A1.162,1.162,0,0,1,2.086-.5ZM1.534,1.2a.476.476,0,0,0,.41-.2A.978.978,0,0,0,2.086.429a.967.967,0,0,0-.142-.571.475.475,0,0,0-.41-.2.473.473,0,0,0-.41.2A.962.962,0,0,0,.982.429.973.973,0,0,0,1.124,1a.474.474,0,0,0,.41.2Z" transform="translate(-0.114 1.911)" fill="#0e4848"/>
      </g>
      <g id="Grupo_1296" data-name="Grupo 1296" transform="translate(23.364 84.11)">
        <path id="Caminho_1914" data-name="Caminho 1914" d="M1.608,1.2A.478.478,0,0,0,2.021,1,.978.978,0,0,0,2.163.429a.967.967,0,0,0-.142-.571.477.477,0,0,0-.413-.2.483.483,0,0,0-.415.2.971.971,0,0,0-.142.571A.968.968,0,0,0,1.193,1a.481.481,0,0,0,.415.2ZM1.051-.5a1.189,1.189,0,0,1,.383-.338,1.039,1.039,0,0,1,.485-.11.981.981,0,0,1,.8.386,1.537,1.537,0,0,1,.311.994,1.531,1.531,0,0,1-.311.991.981.981,0,0,1-.8.386A1.064,1.064,0,0,1,1.434,1.7a1.16,1.16,0,0,1-.383-.34v.381H.212v-3.65h.839Z" transform="translate(-0.212 1.911)" fill="#0e4848"/>
      </g>
      <g id="Grupo_1297" data-name="Grupo 1297" transform="translate(26.456 85.134)">
        <path id="Caminho_1915" data-name="Caminho 1915" d="M.031-1.375H.87L1.577.407l.6-1.782h.839L1.912,1.5a1.4,1.4,0,0,1-.389.611.912.912,0,0,1-.584.177H.452V1.736H.714a.542.542,0,0,0,.311-.07.438.438,0,0,0,.153-.241L1.2,1.353Z" transform="translate(-0.031 1.375)" fill="#0e4848"/>
      </g>
      <g id="Grupo_1298" data-name="Grupo 1298" transform="translate(31.641 84.26)">
        <path id="Caminho_1916" data-name="Caminho 1916" d="M.231-1.832h.9v3.5h-.9Z" transform="translate(-0.231 1.832)" fill="#0e4848"/>
      </g>
      <g id="Grupo_1299" data-name="Grupo 1299" transform="translate(33.191 85.07)">
        <path id="Caminho_1917" data-name="Caminho 1917" d="M2.426-1.261v.683a1.305,1.305,0,0,0-.343-.174,1.137,1.137,0,0,0-.356-.056A.726.726,0,0,0,1.177-.6a.794.794,0,0,0-.2.573.8.8,0,0,0,.2.573.729.729,0,0,0,.549.2A1.223,1.223,0,0,0,2.1.692,1.1,1.1,0,0,0,2.426.518V1.2a2.27,2.27,0,0,1-.4.107,2.236,2.236,0,0,1-.407.038A1.594,1.594,0,0,1,.507.985a1.3,1.3,0,0,1-.4-1.013,1.3,1.3,0,0,1,.4-1.016,1.6,1.6,0,0,1,1.112-.364,2.236,2.236,0,0,1,.407.038,2.242,2.242,0,0,1,.4.11Z" transform="translate(-0.108 1.408)" fill="#0e4848"/>
      </g>
      <g id="Grupo_1300" data-name="Grupo 1300" transform="translate(36.038 85.069)">
        <path id="Caminho_1918" data-name="Caminho 1918" d="M1.555-.808a.5.5,0,0,0-.426.2.967.967,0,0,0-.147.579A.967.967,0,0,0,1.129.55a.5.5,0,0,0,.426.2.485.485,0,0,0,.418-.2A.971.971,0,0,0,2.12-.028a.971.971,0,0,0-.147-.579A.483.483,0,0,0,1.555-.808Zm0-.6a1.463,1.463,0,0,1,1.058.367A1.338,1.338,0,0,1,2.994-.028,1.342,1.342,0,0,1,2.613.984a1.468,1.468,0,0,1-1.058.364A1.479,1.479,0,0,1,.491.984,1.334,1.334,0,0,1,.108-.028,1.33,1.33,0,0,1,.491-1.041,1.475,1.475,0,0,1,1.555-1.408Z" transform="translate(-0.108 1.408)" fill="#0e4848"/>
      </g>
      <g id="Grupo_1301" data-name="Grupo 1301" transform="translate(39.535 85.07)">
        <path id="Caminho_1919" data-name="Caminho 1919" d="M2.851-.318v1.6H2.007V.057a4.491,4.491,0,0,0-.016-.469A.5.5,0,0,0,1.938-.6.342.342,0,0,0,1.8-.728a.394.394,0,0,0-.19-.046.485.485,0,0,0-.413.2.917.917,0,0,0-.15.56V1.282H.212V-1.344h.839v.383a1.34,1.34,0,0,1,.4-.338,1.021,1.021,0,0,1,.472-.11.852.852,0,0,1,.691.281,1.225,1.225,0,0,1,.236.809Z" transform="translate(-0.212 1.408)" fill="#0e4848"/>
      </g>
      <g id="Grupo_1302" data-name="Grupo 1302" transform="translate(42.573 84.26)">
        <path id="Caminho_1920" data-name="Caminho 1920" d="M.013-1.832H3.239v.681H2.079V1.668h-.9V-1.151H.013Z" transform="translate(-0.013 1.832)" fill="#0e4848"/>
      </g>
      <g id="Grupo_1303" data-name="Grupo 1303" transform="translate(46.229 85.07)">
        <path id="Caminho_1921" data-name="Caminho 1921" d="M2.163-.629A1.16,1.16,0,0,0,1.94-.7a.917.917,0,0,0-.217-.027.612.612,0,0,0-.5.209.892.892,0,0,0-.174.592V1.282H.212V-1.344h.839v.431a1.066,1.066,0,0,1,.37-.375,1,1,0,0,1,.5-.121.893.893,0,0,1,.091.005c.033,0,.082.007.145.013Z" transform="translate(-0.212 1.408)" fill="#0e4848"/>
      </g>
      <g id="Grupo_1304" data-name="Grupo 1304" transform="translate(48.4 85.07)">
        <path id="Caminho_1922" data-name="Caminho 1922" d="M1.483.1a.723.723,0,0,0-.4.088A.3.3,0,0,0,.955.451.312.312,0,0,0,1.062.7a.449.449,0,0,0,.295.088.529.529,0,0,0,.4-.169A.594.594,0,0,0,1.919.2V.1ZM2.764-.216v1.5H1.919V.893a1.084,1.084,0,0,1-.381.348,1.136,1.136,0,0,1-.514.107.933.933,0,0,1-.662-.236A.807.807,0,0,1,.108.494.758.758,0,0,1,.424-.181a1.806,1.806,0,0,1,1-.217h.5V-.465a.31.31,0,0,0-.158-.289,1,1,0,0,0-.49-.094,2.256,2.256,0,0,0-.5.054,1.738,1.738,0,0,0-.429.161v-.64a5.107,5.107,0,0,1,.539-.1,4.4,4.4,0,0,1,.547-.035,1.515,1.515,0,0,1,1.024.281,1.161,1.161,0,0,1,.316.911Z" transform="translate(-0.108 1.408)" fill="#0e4848"/>
      </g>
      <g id="Grupo_1305" data-name="Grupo 1305" transform="translate(51.639 85.07)">
        <path id="Caminho_1923" data-name="Caminho 1923" d="M2.426-1.261v.683a1.305,1.305,0,0,0-.343-.174,1.137,1.137,0,0,0-.356-.056A.726.726,0,0,0,1.177-.6a.794.794,0,0,0-.2.573.8.8,0,0,0,.2.573.729.729,0,0,0,.549.2A1.223,1.223,0,0,0,2.1.692,1.1,1.1,0,0,0,2.426.518V1.2a2.27,2.27,0,0,1-.4.107,2.236,2.236,0,0,1-.407.038A1.594,1.594,0,0,1,.507.985a1.3,1.3,0,0,1-.4-1.013,1.3,1.3,0,0,1,.4-1.016,1.6,1.6,0,0,1,1.112-.364,2.236,2.236,0,0,1,.407.038,2.242,2.242,0,0,1,.4.11Z" transform="translate(-0.108 1.408)" fill="#0e4848"/>
      </g>
      <g id="Grupo_1306" data-name="Grupo 1306" transform="translate(54.685 84.11)">
        <path id="Caminho_1924" data-name="Caminho 1924" d="M.212-1.911h.839V.078l.965-.965h.975L1.71.319l1.383,1.42H2.074L1.051.643v1.1H.212Z" transform="translate(-0.212 1.911)" fill="#0e4848"/>
      </g>
      <g id="Grupo_1307" data-name="Grupo 1307" transform="translate(0 88.912)">
        <path id="Caminho_1925" data-name="Caminho 1925" d="M2.087-1.911v.552H1.623a.376.376,0,0,0-.249.064.3.3,0,0,0-.07.225v.182h.718v.6H1.3V1.739H.466V-.287H.048v-.6H.466v-.182A.8.8,0,0,1,.7-1.7a1.116,1.116,0,0,1,.742-.206Z" transform="translate(-0.048 1.911)" fill="#0e4848"/>
      </g>
      <g id="Grupo_1308" data-name="Grupo 1308" transform="translate(2.403 89.871)">
        <path id="Caminho_1926" data-name="Caminho 1926" d="M2.163-.629A1.16,1.16,0,0,0,1.94-.7a.917.917,0,0,0-.217-.027.612.612,0,0,0-.5.209.892.892,0,0,0-.174.592V1.282H.212V-1.344h.839v.431a1.066,1.066,0,0,1,.37-.375,1,1,0,0,1,.5-.121.893.893,0,0,1,.091.005c.033,0,.082.007.145.013Z" transform="translate(-0.212 1.408)" fill="#0e4848"/>
      </g>
      <g id="Grupo_1309" data-name="Grupo 1309" transform="translate(4.573 89.871)">
        <path id="Caminho_1927" data-name="Caminho 1927" d="M1.555-.808a.5.5,0,0,0-.426.2.967.967,0,0,0-.147.579A.967.967,0,0,0,1.129.55a.5.5,0,0,0,.426.2.485.485,0,0,0,.418-.2A.971.971,0,0,0,2.12-.028a.971.971,0,0,0-.147-.579A.483.483,0,0,0,1.555-.808Zm0-.6a1.463,1.463,0,0,1,1.058.367A1.338,1.338,0,0,1,2.994-.028,1.342,1.342,0,0,1,2.613.984a1.468,1.468,0,0,1-1.058.364A1.479,1.479,0,0,1,.491.984,1.334,1.334,0,0,1,.108-.028,1.33,1.33,0,0,1,.491-1.041,1.475,1.475,0,0,1,1.555-1.408Z" transform="translate(-0.108 1.408)" fill="#0e4848"/>
      </g>
      <g id="Grupo_1310" data-name="Grupo 1310" transform="translate(8.064 89.871)">
        <path id="Caminho_1928" data-name="Caminho 1928" d="M2.648-.907a1.138,1.138,0,0,1,.378-.372.935.935,0,0,1,.482-.129.849.849,0,0,1,.689.281,1.214,1.214,0,0,1,.238.809v1.6H3.591V-.149c0-.023,0-.055,0-.1a.746.746,0,0,0-.083-.4.289.289,0,0,0-.263-.126.418.418,0,0,0-.37.2,1.029,1.029,0,0,0-.134.568V1.282H1.9V-.087a1.3,1.3,0,0,0-.075-.56.286.286,0,0,0-.268-.126.421.421,0,0,0-.372.2,1.012,1.012,0,0,0-.131.565V1.282H.209V-1.344h.844v.383A1.091,1.091,0,0,1,1.407-1.3a.889.889,0,0,1,.442-.113.891.891,0,0,1,.482.131.827.827,0,0,1,.316.37Z" transform="translate(-0.209 1.408)" fill="#0e4848"/>
      </g>
      <g id="Grupo_1311" data-name="Grupo 1311" transform="translate(14.405 89.191)">
        <path id="Caminho_1929" data-name="Caminho 1929" d="M1.29-1.765v.745h.866v.6H1.29V.7a.324.324,0,0,0,.072.247.451.451,0,0,0,.287.064h.431v.6H1.363A.985.985,0,0,1,.655,1.4.98.98,0,0,1,.449.7V-.42H.034v-.6H.449v-.745Z" transform="translate(-0.034 1.765)" fill="#0e4848"/>
      </g>
      <g id="Grupo_1312" data-name="Grupo 1312" transform="translate(17.04 88.912)">
        <path id="Caminho_1930" data-name="Caminho 1930" d="M2.851.139v1.6H2.007V.52A4.561,4.561,0,0,0,1.991.045a.5.5,0,0,0-.054-.19A.342.342,0,0,0,1.8-.271a.394.394,0,0,0-.19-.046.485.485,0,0,0-.413.2.917.917,0,0,0-.15.56V1.739H.212v-3.65h.839V-.5a1.34,1.34,0,0,1,.4-.338,1.021,1.021,0,0,1,.472-.11.852.852,0,0,1,.691.281,1.225,1.225,0,0,1,.236.809Z" transform="translate(-0.212 1.911)" fill="#0e4848"/>
      </g>
      <g id="Grupo_1313" data-name="Grupo 1313" transform="translate(20.261 89.871)">
        <path id="Caminho_1931" data-name="Caminho 1931" d="M2.927-.039V.2H.963a.624.624,0,0,0,.214.442.792.792,0,0,0,.512.147A1.976,1.976,0,0,0,2.23.714,2.865,2.865,0,0,0,2.8.475v.646a3.538,3.538,0,0,1-.595.169,3.088,3.088,0,0,1-.595.059A1.585,1.585,0,0,1,.5.987,1.309,1.309,0,0,1,.108-.028,1.323,1.323,0,0,1,.5-1.039a1.483,1.483,0,0,1,1.067-.37,1.336,1.336,0,0,1,.991.375,1.346,1.346,0,0,1,.372.994ZM2.064-.318A.531.531,0,0,0,1.925-.7.48.48,0,0,0,1.56-.848a.572.572,0,0,0-.4.137.628.628,0,0,0-.19.394Z" transform="translate(-0.108 1.408)" fill="#0e4848"/>
      </g>
      <g id="Grupo_1314" data-name="Grupo 1314" transform="translate(25.425 89.062)">
        <path id="Caminho_1932" data-name="Caminho 1932" d="M.231-1.832H1.239L2.512.569v-2.4h.855v3.5H2.359L1.086-.733v2.4H.231Z" transform="translate(-0.231 1.832)" fill="#0e4848"/>
      </g>
      <g id="Grupo_1315" data-name="Grupo 1315" transform="translate(29.208 89.871)">
        <path id="Caminho_1933" data-name="Caminho 1933" d="M1.555-.808a.5.5,0,0,0-.426.2.967.967,0,0,0-.147.579A.967.967,0,0,0,1.129.55a.5.5,0,0,0,.426.2.485.485,0,0,0,.418-.2A.971.971,0,0,0,2.12-.028a.971.971,0,0,0-.147-.579A.483.483,0,0,0,1.555-.808Zm0-.6a1.463,1.463,0,0,1,1.058.367A1.338,1.338,0,0,1,2.994-.028,1.342,1.342,0,0,1,2.613.984a1.468,1.468,0,0,1-1.058.364A1.479,1.479,0,0,1,.491.984,1.334,1.334,0,0,1,.108-.028,1.33,1.33,0,0,1,.491-1.041,1.475,1.475,0,0,1,1.555-1.408Z" transform="translate(-0.108 1.408)" fill="#0e4848"/>
      </g>
      <g id="Grupo_1316" data-name="Grupo 1316" transform="translate(32.676 89.936)">
        <path id="Caminho_1934" data-name="Caminho 1934" d="M.2.228v-1.6H1.04v.263c0,.143,0,.322,0,.536s0,.358,0,.429a4.512,4.512,0,0,0,.016.458.528.528,0,0,0,.056.2A.369.369,0,0,0,1.244.64a.4.4,0,0,0,.19.043.488.488,0,0,0,.413-.2A.92.92,0,0,0,2-.078v-1.3h.839V1.251H2V.871a1.32,1.32,0,0,1-.4.34,1.029,1.029,0,0,1-.469.107.858.858,0,0,1-.691-.279A1.213,1.213,0,0,1,.2.228Z" transform="translate(-0.196 1.375)" fill="#0e4848"/>
      </g>
      <g id="Grupo_1317" data-name="Grupo 1317" transform="translate(36.124 89.871)">
        <path id="Caminho_1935" data-name="Caminho 1935" d="M2.851-.318v1.6H2.007V.057a4.491,4.491,0,0,0-.016-.469A.5.5,0,0,0,1.938-.6.342.342,0,0,0,1.8-.728a.394.394,0,0,0-.19-.046.485.485,0,0,0-.413.2.917.917,0,0,0-.15.56V1.282H.212V-1.344h.839v.383a1.34,1.34,0,0,1,.4-.338,1.021,1.021,0,0,1,.472-.11.852.852,0,0,1,.691.281,1.225,1.225,0,0,1,.236.809Z" transform="translate(-0.212 1.408)" fill="#0e4848"/>
      </g>
      <g id="Grupo_1318" data-name="Grupo 1318" transform="translate(41.252 89.062)">
        <path id="Caminho_1936" data-name="Caminho 1936" d="M.231-1.832h1.5a1.558,1.558,0,0,1,1.024.3,1.032,1.032,0,0,1,.359.844,1.038,1.038,0,0,1-.359.847,1.558,1.558,0,0,1-1.024.3h-.6V1.668h-.9Zm.9.654V-.2h.5a.583.583,0,0,0,.4-.129.459.459,0,0,0,.145-.362.455.455,0,0,0-.145-.362.593.593,0,0,0-.4-.126Z" transform="translate(-0.231 1.832)" fill="#0e4848"/>
      </g>
      <g id="Grupo_1319" data-name="Grupo 1319" transform="translate(44.734 89.871)">
        <path id="Caminho_1937" data-name="Caminho 1937" d="M2.163-.629A1.16,1.16,0,0,0,1.94-.7a.917.917,0,0,0-.217-.027.612.612,0,0,0-.5.209.892.892,0,0,0-.174.592V1.282H.212V-1.344h.839v.431a1.066,1.066,0,0,1,.37-.375,1,1,0,0,1,.5-.121.893.893,0,0,1,.091.005c.033,0,.082.007.145.013Z" transform="translate(-0.212 1.408)" fill="#0e4848"/>
      </g>
      <g id="Grupo_1320" data-name="Grupo 1320" transform="translate(46.903 89.871)">
        <path id="Caminho_1938" data-name="Caminho 1938" d="M1.555-.808a.5.5,0,0,0-.426.2.967.967,0,0,0-.147.579A.967.967,0,0,0,1.129.55a.5.5,0,0,0,.426.2.485.485,0,0,0,.418-.2A.971.971,0,0,0,2.12-.028a.971.971,0,0,0-.147-.579A.483.483,0,0,0,1.555-.808Zm0-.6a1.463,1.463,0,0,1,1.058.367A1.338,1.338,0,0,1,2.994-.028,1.342,1.342,0,0,1,2.613.984a1.468,1.468,0,0,1-1.058.364A1.479,1.479,0,0,1,.491.984,1.334,1.334,0,0,1,.108-.028,1.33,1.33,0,0,1,.491-1.041,1.475,1.475,0,0,1,1.555-1.408Z" transform="translate(-0.108 1.408)" fill="#0e4848"/>
      </g>
      <g id="Grupo_1321" data-name="Grupo 1321" transform="translate(49.835 88.912)">
        <path id="Caminho_1939" data-name="Caminho 1939" d="M.481-.887H1.32V1.691a1.158,1.158,0,0,1-.255.807.94.94,0,0,1-.734.279H-.084V2.224H.063A.41.41,0,0,0,.39,2.117a.7.7,0,0,0,.091-.426Zm0-1.024H1.32v.686H.481Z" transform="translate(0.084 1.911)" fill="#0e4848"/>
      </g>
      <g id="Grupo_1322" data-name="Grupo 1322" transform="translate(51.848 89.871)">
        <path id="Caminho_1940" data-name="Caminho 1940" d="M2.927-.039V.2H.963a.624.624,0,0,0,.214.442.792.792,0,0,0,.512.147A1.976,1.976,0,0,0,2.23.714,2.865,2.865,0,0,0,2.8.475v.646a3.538,3.538,0,0,1-.595.169,3.088,3.088,0,0,1-.595.059A1.585,1.585,0,0,1,.5.987,1.309,1.309,0,0,1,.108-.028,1.323,1.323,0,0,1,.5-1.039a1.483,1.483,0,0,1,1.067-.37,1.336,1.336,0,0,1,.991.375,1.346,1.346,0,0,1,.372.994ZM2.064-.318A.531.531,0,0,0,1.925-.7.48.48,0,0,0,1.56-.848a.572.572,0,0,0-.4.137.628.628,0,0,0-.19.394Z" transform="translate(-0.108 1.408)" fill="#0e4848"/>
      </g>
      <g id="Grupo_1323" data-name="Grupo 1323" transform="translate(55.105 89.871)">
        <path id="Caminho_1941" data-name="Caminho 1941" d="M2.426-1.261v.683a1.305,1.305,0,0,0-.343-.174,1.137,1.137,0,0,0-.356-.056A.726.726,0,0,0,1.177-.6a.794.794,0,0,0-.2.573.8.8,0,0,0,.2.573.729.729,0,0,0,.549.2A1.223,1.223,0,0,0,2.1.692,1.1,1.1,0,0,0,2.426.518V1.2a2.27,2.27,0,0,1-.4.107,2.236,2.236,0,0,1-.407.038A1.594,1.594,0,0,1,.507.985a1.3,1.3,0,0,1-.4-1.013,1.3,1.3,0,0,1,.4-1.016,1.6,1.6,0,0,1,1.112-.364,2.236,2.236,0,0,1,.407.038,2.242,2.242,0,0,1,.4.11Z" transform="translate(-0.108 1.408)" fill="#0e4848"/>
      </g>
      <g id="Grupo_1324" data-name="Grupo 1324" transform="translate(57.809 89.191)">
        <path id="Caminho_1942" data-name="Caminho 1942" d="M1.29-1.765v.745h.866v.6H1.29V.7a.324.324,0,0,0,.072.247.451.451,0,0,0,.287.064h.431v.6H1.363A.985.985,0,0,1,.655,1.4.98.98,0,0,1,.449.7V-.42H.034v-.6H.449v-.745Z" transform="translate(-0.034 1.765)" fill="#0e4848"/>
      </g>
    </g>
  </g>
</svg>
