<svg xmlns="http://www.w3.org/2000/svg" xmlns:xlink="http://www.w3.org/1999/xlink" width="58.698" height="62.612" viewBox="0 0 58.698 62.612">
  <defs>
    <clipPath id="clip-path">
      <rect id="Ret칙ngulo_86" data-name="Ret칙ngulo 86" width="58.698" height="62.612" transform="translate(149 3021)" fill="#0e4848" stroke="#0e4848" stroke-width="1"/>
    </clipPath>
  </defs>
  <g id="Grupo_de_m치scara_9" data-name="Grupo de m치scara 9" transform="translate(-149 -3021)" clip-path="url(#clip-path)">
    <g id="noun-microscope-1028207" transform="translate(151.579 3023.609)">
      <path id="Caminho_348" data-name="Caminho 348" d="M8.527,43.134H59.788V37.549H20.165A14.815,14.815,0,0,0,8.527,43.134M60.719,45H6.729a.931.931,0,0,1-.789-1.424,16.681,16.681,0,0,1,14.225-7.884H60.719a.93.93,0,0,1,.931.931v7.447a.931.931,0,0,1-.931.931" transform="translate(-5.799 10.856)" fill="#0e4848" fill-rule="evenodd"/>
      <path id="Caminho_349" data-name="Caminho 349" d="M24.074,28.862h1.862V23.277H24.074Zm2.793,1.862H23.143a.931.931,0,0,1-.931-.931V22.346a.931.931,0,0,1,.931-.931h3.724a.931.931,0,0,1,.931.931v7.447A.931.931,0,0,1,26.866,30.723Z" transform="translate(-0.802 6.511)" fill="#0e4848" fill-rule="evenodd"/>
      <path id="Caminho_350" data-name="Caminho 350" d="M29.782,27h1.862V23.277H29.782Zm2.793,1.862H28.852a.931.931,0,0,1-.931-.931V22.346a.931.931,0,0,1,.931-.931h3.724a.931.931,0,0,1,.931.931v5.585A.931.931,0,0,1,32.575,28.862Z" transform="translate(0.936 6.511)" fill="#0e4848" fill-rule="evenodd"/>
      <path id="Caminho_351" data-name="Caminho 351" d="M24.787,5.591h7.447V1.867H24.787Zm8.378,1.862H23.856a.931.931,0,0,1-.931-.931V.937a.931.931,0,0,1,.931-.931h9.309A.931.931,0,0,1,34.1.937V6.522A.931.931,0,0,1,33.165,7.453Z" transform="translate(-0.585 -0.006)" fill="#0e4848" fill-rule="evenodd"/>
      <path id="Caminho_352" data-name="Caminho 352" d="M34.219,10.431a3.723,3.723,0,1,0,3.724,3.724,3.727,3.727,0,0,0-3.724-3.724m0,9.309A5.585,5.585,0,1,1,39.8,14.155a5.591,5.591,0,0,1-5.585,5.585" transform="translate(1.153 2.601)" fill="#0e4848" fill-rule="evenodd"/>
      <path id="Caminho_353" data-name="Caminho 353" d="M34.747,28.49H23.577A2.8,2.8,0,0,1,20.785,25.7V7.08a2.8,2.8,0,0,1,2.792-2.792h11.17A2.8,2.8,0,0,1,37.539,7.08V10.8a.931.931,0,1,1-1.862,0V7.08a.932.932,0,0,0-.931-.931H23.577a.932.932,0,0,0-.931.931V25.7a.933.933,0,0,0,.931.931h11.17a.933.933,0,0,0,.931-.931V20.112a.931.931,0,1,1,1.862,0V25.7a2.8,2.8,0,0,1-2.792,2.792" transform="translate(-1.237 1.298)" fill="#0e4848" fill-rule="evenodd"/>
      <path id="Caminho_354" data-name="Caminho 354" d="M46.63,29.7a1.862,1.862,0,1,0,1.862,1.862A1.863,1.863,0,0,0,46.63,29.7m0,5.585a3.724,3.724,0,1,1,3.724-3.724,3.727,3.727,0,0,1-3.724,3.724" transform="translate(5.498 8.466)" fill="#0e4848" fill-rule="evenodd"/>
      <path id="Caminho_355" data-name="Caminho 355" d="M47.926,34.972A.931.931,0,0,1,47,34.041V21.408a4.645,4.645,0,0,0-2.477-4.114l-8.431-4.464a.931.931,0,1,1,.871-1.646l8.431,4.464a6.5,6.5,0,0,1,3.467,5.759V34.041a.931.931,0,0,1-.931.931" transform="translate(3.271 3.364)" fill="#0e4848" fill-rule="evenodd"/>
      <path id="Caminho_356" data-name="Caminho 356" d="M48.614,43.692H43.029a.931.931,0,0,1-.931-.931V24.017a4.663,4.663,0,0,0-2.728-4.236l-5.491-2.5a.93.93,0,1,1,.77-1.694l5.491,2.5a6.528,6.528,0,0,1,3.82,5.931V41.831h3.724V37.936a.931.931,0,1,1,1.862,0v4.826a.931.931,0,0,1-.931.931" transform="translate(2.583 4.713)" fill="#0e4848" fill-rule="evenodd"/>
      <path id="Caminho_357" data-name="Caminho 357" d="M21.219,36.556H37.974V34.695H21.219Zm17.687,1.862H20.288a.931.931,0,0,1-.931-.931V33.764a.931.931,0,0,1,.931-.931H38.906a.931.931,0,0,1,.931.931v3.723A.931.931,0,0,1,38.906,38.418Z" transform="translate(-1.671 9.987)" fill="#0e4848" fill-rule="evenodd"/>
      <path id="Caminho_358" data-name="Caminho 358" d="M24.508,10.431H21.716a.931.931,0,0,1,0-1.862h2.792a.931.931,0,0,1,0,1.862" transform="translate(-1.237 2.601)" fill="#0e4848" fill-rule="evenodd"/>
      <path id="Caminho_359" data-name="Caminho 359" d="M25.439,14.713H21.716a.931.931,0,0,1,0-1.862h3.723a.931.931,0,1,1,0,1.862" transform="translate(-1.237 3.905)" fill="#0e4848" fill-rule="evenodd"/>
      <path id="Caminho_360" data-name="Caminho 360" d="M24.508,18.994H21.716a.931.931,0,0,1,0-1.862h2.792a.931.931,0,0,1,0,1.862" transform="translate(-1.237 5.208)" fill="#0e4848" fill-rule="evenodd"/>
      <g id="Grupo_207" data-name="Grupo 207" transform="translate(0.231 67.282)">
        <path id="Caminho_361" data-name="Caminho 361" d="M3.064.619a2.205,2.205,0,0,1-.5.189,2.259,2.259,0,0,1-.545.065A1.863,1.863,0,0,1,.673.4a1.7,1.7,0,0,1-.5-1.287,1.7,1.7,0,0,1,.5-1.287,1.86,1.86,0,0,1,1.344-.475,2.259,2.259,0,0,1,.545.065,2.243,2.243,0,0,1,.5.189v.7a1.849,1.849,0,0,0-.48-.242,1.591,1.591,0,0,0-.5-.078.94.94,0,0,0-.737.3,1.2,1.2,0,0,0-.268.827,1.193,1.193,0,0,0,.268.825.94.94,0,0,0,.737.3,1.614,1.614,0,0,0,.5-.076,1.883,1.883,0,0,0,.48-.244Z" transform="translate(-0.177 2.649)" fill="#0e4848"/>
      </g>
      <g id="Grupo_208" data-name="Grupo 208" transform="translate(3.807 68.132)">
        <path id="Caminho_362" data-name="Caminho 362" d="M2.19-1.244a1.014,1.014,0,0,0-.212-.074.972.972,0,0,0-.212-.024.6.6,0,0,0-.483.2.87.87,0,0,0-.17.577V.608H.3V-1.938h.813v.418a1.032,1.032,0,0,1,.36-.364A.986.986,0,0,1,1.96-2l.089,0,.139.014Z" transform="translate(-0.3 1.998)" fill="#0e4848"/>
      </g>
      <g id="Grupo_209" data-name="Grupo 209" transform="translate(5.91 68.132)">
        <path id="Caminho_363" data-name="Caminho 363" d="M2.886-.672v.233H.983a.609.609,0,0,0,.206.429.772.772,0,0,0,.5.143A1.932,1.932,0,0,0,2.211.057a2.744,2.744,0,0,0,.555-.23V.453a3.516,3.516,0,0,1-.578.165,2.968,2.968,0,0,1-.577.057A1.53,1.53,0,0,1,.536.323,1.269,1.269,0,0,1,.153-.662a1.285,1.285,0,0,1,.375-.979A1.447,1.447,0,0,1,1.565-2a1.3,1.3,0,0,1,.96.361,1.3,1.3,0,0,1,.361.965ZM2.05-.941a.516.516,0,0,0-.136-.374.464.464,0,0,0-.353-.143.55.55,0,0,0-.383.133.616.616,0,0,0-.184.383Z" transform="translate(-0.153 1.998)" fill="#0e4848"/>
      </g>
      <g id="Grupo_210" data-name="Grupo 210" transform="translate(9.067 68.132)">
        <path id="Caminho_364" data-name="Caminho 364" d="M1.485-.537A.688.688,0,0,0,1.1-.45.285.285,0,0,0,.974-.2a.3.3,0,0,0,.1.242.436.436,0,0,0,.288.087.512.512,0,0,0,.387-.165.574.574,0,0,0,.157-.412V-.537ZM2.729-.845V.608H1.908V.231a1.059,1.059,0,0,1-.369.337,1.072,1.072,0,0,1-.5.106A.9.9,0,0,1,.4.443a.783.783,0,0,1-.247-.6A.739.739,0,0,1,.46-.813a1.758,1.758,0,0,1,.968-.209h.48v-.063a.3.3,0,0,0-.154-.282.958.958,0,0,0-.474-.09,2.145,2.145,0,0,0-.486.052,1.664,1.664,0,0,0-.418.157V-1.87a4.628,4.628,0,0,1,.524-.1A4.222,4.222,0,0,1,1.428-2a1.485,1.485,0,0,1,.995.271,1.126,1.126,0,0,1,.306.882Z" transform="translate(-0.153 1.998)" fill="#0e4848"/>
      </g>
      <g id="Grupo_211" data-name="Grupo 211" transform="translate(12.07 67.469)">
        <path id="Caminho_365" data-name="Caminho 365" d="M1.266-2.506v.722H2.1V-1.2H1.266V-.121a.32.32,0,0,0,.07.241.45.45,0,0,0,.28.062h.418V.763h-.7a.944.944,0,0,1-.683-.2.944.944,0,0,1-.2-.683V-1.2h-.4v-.583h.4v-.722Z" transform="translate(-0.047 2.506)" fill="#0e4848"/>
      </g>
      <g id="Grupo_212" data-name="Grupo 212" transform="translate(14.432 68.132)">
        <path id="Caminho_366" data-name="Caminho 366" d="M2.886-.672v.233H.983a.609.609,0,0,0,.206.429.772.772,0,0,0,.5.143A1.932,1.932,0,0,0,2.211.057a2.744,2.744,0,0,0,.555-.23V.453a3.516,3.516,0,0,1-.578.165,2.968,2.968,0,0,1-.577.057A1.53,1.53,0,0,1,.536.323,1.269,1.269,0,0,1,.153-.662a1.285,1.285,0,0,1,.375-.979A1.447,1.447,0,0,1,1.565-2a1.3,1.3,0,0,1,.96.361,1.3,1.3,0,0,1,.361.965ZM2.05-.941a.516.516,0,0,0-.136-.374.464.464,0,0,0-.353-.143.55.55,0,0,0-.383.133.616.616,0,0,0-.184.383Z" transform="translate(-0.153 1.998)" fill="#0e4848"/>
      </g>
      <g id="Grupo_213" data-name="Grupo 213" transform="translate(17.599 67.202)">
        <path id="Caminho_367" data-name="Caminho 367" d="M2.074-1.347V-2.711h.818V.825H2.074V.458A1.1,1.1,0,0,1,1.7.787a1.007,1.007,0,0,1-.467.1A.95.95,0,0,1,.463.518a1.481,1.481,0,0,1-.3-.963,1.479,1.479,0,0,1,.3-.962.951.951,0,0,1,.773-.374.994.994,0,0,1,.466.106,1.1,1.1,0,0,1,.372.328ZM1.537.3a.463.463,0,0,0,.4-.19.945.945,0,0,0,.138-.556A.935.935,0,0,0,1.936-1a.462.462,0,0,0-.4-.192.459.459,0,0,0-.4.192A.935.935,0,0,0,1-.445a.945.945,0,0,0,.138.556A.459.459,0,0,0,1.537.3Z" transform="translate(-0.16 2.711)" fill="#0e4848"/>
      </g>
      <g id="Grupo_214" data-name="Grupo 214" transform="translate(22.733 67.202)">
        <path id="Caminho_368" data-name="Caminho 368" d="M1.655.3a.459.459,0,0,0,.4-.19A.945.945,0,0,0,2.19-.445.935.935,0,0,0,2.052-1a.458.458,0,0,0-.4-.192.47.47,0,0,0-.4.192.93.93,0,0,0-.139.553.937.937,0,0,0,.139.555A.469.469,0,0,0,1.655.3ZM1.113-1.347a1.1,1.1,0,0,1,.372-.328,1.019,1.019,0,0,1,.472-.106.947.947,0,0,1,.772.374,1.482,1.482,0,0,1,.3.962,1.483,1.483,0,0,1-.3.963.946.946,0,0,1-.772.374A1.018,1.018,0,0,1,1.485.786,1.113,1.113,0,0,1,1.113.458V.825H.3V-2.711h.813Z" transform="translate(-0.3 2.711)" fill="#0e4848"/>
      </g>
      <g id="Grupo_215" data-name="Grupo 215" transform="translate(25.73 68.192)">
        <path id="Caminho_369" data-name="Caminho 369" d="M.044-1.952H.856L1.541-.223l.581-1.729h.814L1.866.835a1.357,1.357,0,0,1-.375.594.892.892,0,0,1-.567.17H.453V1.065H.708A.527.527,0,0,0,1.007,1,.425.425,0,0,0,1.154.762l.024-.07Z" transform="translate(-0.044 1.952)" fill="#0e4848"/>
      </g>
      <g id="Grupo_216" data-name="Grupo 216" transform="translate(30.756 67.344)">
        <path id="Caminho_370" data-name="Caminho 370" d="M1.687-1.288A.471.471,0,0,0,2-1.379a.33.33,0,0,0,.108-.268A.333.333,0,0,0,2-1.914a.467.467,0,0,0-.312-.092H1.2v.718ZM1.716.2a.6.6,0,0,0,.4-.111.412.412,0,0,0,.133-.336.407.407,0,0,0-.132-.331.608.608,0,0,0-.4-.111H1.2V.2Zm.814-1.22a.769.769,0,0,1,.436.3.916.916,0,0,1,.155.54.844.844,0,0,1-.333.732A1.718,1.718,0,0,1,1.779.792H.328V-2.6H1.641a1.881,1.881,0,0,1,1.024.214.766.766,0,0,1,.317.684.747.747,0,0,1-.116.421.679.679,0,0,1-.336.258Z" transform="translate(-0.328 2.602)" fill="#0e4848"/>
      </g>
      <g id="Grupo_217" data-name="Grupo 217" transform="translate(34.075 68.132)">
        <path id="Caminho_371" data-name="Caminho 371" d="M2.886-.672v.233H.983a.609.609,0,0,0,.206.429.772.772,0,0,0,.5.143A1.932,1.932,0,0,0,2.211.057a2.744,2.744,0,0,0,.555-.23V.453a3.516,3.516,0,0,1-.578.165,2.968,2.968,0,0,1-.577.057A1.53,1.53,0,0,1,.536.323,1.269,1.269,0,0,1,.153-.662a1.285,1.285,0,0,1,.375-.979A1.447,1.447,0,0,1,1.565-2a1.3,1.3,0,0,1,.96.361,1.3,1.3,0,0,1,.361.965ZM2.05-.941a.516.516,0,0,0-.136-.374.464.464,0,0,0-.353-.143.55.55,0,0,0-.383.133.616.616,0,0,0-.184.383Z" transform="translate(-0.153 1.998)" fill="#0e4848"/>
      </g>
      <g id="Grupo_218" data-name="Grupo 218" transform="translate(37.423 68.132)">
        <path id="Caminho_372" data-name="Caminho 372" d="M2.859-.941V.608H2.041V-.578a4.367,4.367,0,0,0-.016-.455.464.464,0,0,0-.051-.184.336.336,0,0,0-.13-.124.382.382,0,0,0-.185-.044.472.472,0,0,0-.4.2.9.9,0,0,0-.146.545V.608H.3V-1.938h.813v.374A1.257,1.257,0,0,1,1.5-1.892.99.99,0,0,1,1.96-2a.827.827,0,0,1,.67.271,1.187,1.187,0,0,1,.228.786Z" transform="translate(-0.3 1.998)" fill="#0e4848"/>
      </g>
      <g id="Grupo_219" data-name="Grupo 219" transform="translate(42.394 67.344)">
        <path id="Caminho_373" data-name="Caminho 373" d="M1.2-1.939V.131h.314a1.15,1.15,0,0,0,.819-.266,1.009,1.009,0,0,0,.284-.773,1,1,0,0,0-.282-.768,1.163,1.163,0,0,0-.821-.263ZM.328-2.6H1.25A4.427,4.427,0,0,1,2.4-2.491a1.507,1.507,0,0,1,.648.374,1.459,1.459,0,0,1,.355.529,1.881,1.881,0,0,1,.116.68A1.915,1.915,0,0,1,3.4-.222,1.439,1.439,0,0,1,3.05.307,1.536,1.536,0,0,1,2.4.683,4.465,4.465,0,0,1,1.25.792H.328Z" transform="translate(-0.328 2.602)" fill="#0e4848"/>
      </g>
      <g id="Grupo_220" data-name="Grupo 220" transform="translate(46.029 68.132)">
        <path id="Caminho_374" data-name="Caminho 374" d="M1.485-.537A.688.688,0,0,0,1.1-.45.285.285,0,0,0,.974-.2a.3.3,0,0,0,.1.242.436.436,0,0,0,.288.087.512.512,0,0,0,.387-.165.574.574,0,0,0,.157-.412V-.537ZM2.729-.845V.608H1.908V.231a1.059,1.059,0,0,1-.369.337,1.072,1.072,0,0,1-.5.106A.9.9,0,0,1,.4.443a.783.783,0,0,1-.247-.6A.739.739,0,0,1,.46-.813a1.758,1.758,0,0,1,.968-.209h.48v-.063a.3.3,0,0,0-.154-.282.958.958,0,0,0-.474-.09,2.145,2.145,0,0,0-.486.052,1.664,1.664,0,0,0-.418.157V-1.87a4.628,4.628,0,0,1,.524-.1A4.222,4.222,0,0,1,1.428-2a1.485,1.485,0,0,1,.995.271,1.126,1.126,0,0,1,.306.882Z" transform="translate(-0.153 1.998)" fill="#0e4848"/>
      </g>
      <g id="Grupo_221" data-name="Grupo 221" transform="translate(49.04 68.192)">
        <path id="Caminho_375" data-name="Caminho 375" d="M.053-1.952H.868L1.5-.192l.632-1.76H2.95l-1,2.546H1.055Z" transform="translate(-0.053 1.952)" fill="#0e4848"/>
      </g>
      <g id="Grupo_222" data-name="Grupo 222" transform="translate(52.395 67.202)">
        <path id="Caminho_376" data-name="Caminho 376" d="M.3-1.721h.813V.825H.3Zm0-.99h.813v.664H.3Z" transform="translate(-0.3 2.711)" fill="#0e4848"/>
      </g>
      <g id="Grupo_223" data-name="Grupo 223" transform="translate(53.84 68.132)">
        <path id="Caminho_377" data-name="Caminho 377" d="M2.323-1.859v.619A3,3,0,0,0,1.818-1.4a2.066,2.066,0,0,0-.458-.055.782.782,0,0,0-.345.059A.187.187,0,0,0,.9-1.222a.166.166,0,0,0,.086.151.81.81,0,0,0,.306.078l.144.021a1.723,1.723,0,0,1,.84.261.7.7,0,0,1,.217.57.693.693,0,0,1-.3.612,1.6,1.6,0,0,1-.9.2A3.463,3.463,0,0,1,.777.634,4.436,4.436,0,0,1,.223.515V-.1a2.3,2.3,0,0,0,.5.177,2.318,2.318,0,0,0,.52.059A.778.778,0,0,0,1.6.068a.213.213,0,0,0,.12-.2A.177.177,0,0,0,1.637-.29a.878.878,0,0,0-.33-.084L1.164-.392A1.5,1.5,0,0,1,.4-.643.692.692,0,0,1,.185-1.2a.684.684,0,0,1,.277-.6A1.49,1.49,0,0,1,1.313-2a3.428,3.428,0,0,1,.472.035,5.215,5.215,0,0,1,.539.1Z" transform="translate(-0.185 1.998)" fill="#0e4848"/>
      </g>
    </g>
  </g>
</svg>
