<svg xmlns="http://www.w3.org/2000/svg" xmlns:xlink="http://www.w3.org/1999/xlink" width="235" height="210" viewBox="0 0 235 210">
  <defs>
    <clipPath id="clip-path">
      <rect id="Ret칙ngulo_330" data-name="Ret칙ngulo 330" width="235" height="210" transform="translate(-2683 722)" fill="#15605f" stroke="#707070" stroke-width="1"/>
    </clipPath>
  </defs>
  <g id="Grupo_de_m치scara_58" data-name="Grupo de m치scara 58" transform="translate(2683 -722)" clip-path="url(#clip-path)">
    <g id="noun-arrow-2335663" transform="translate(-2692.733 728)">
      <path id="Caminho_2046" data-name="Caminho 2046" d="M180.717,92.645,91.729,3.657a12.877,12.877,0,0,0-17.98,0,12.877,12.877,0,0,0,0,17.98L153.9,101.788,73.748,181.939a12.714,12.714,0,0,0,17.98,17.98l88.988-89.293a12.877,12.877,0,0,0,0-17.98Z" fill="#15605f" fill-rule="evenodd"/>
      <g id="Grupo_1404" data-name="Grupo 1404" transform="translate(70.093 208.146)">
        <path id="Caminho_2047" data-name="Caminho 2047" d="M1.022-.062A.8.8,0,0,1,.858,0,.749.749,0,0,1,.676.023.623.623,0,0,1,.233-.131a.564.564,0,0,1-.159-.42.555.555,0,0,1,.159-.42A.613.613,0,0,1,.676-1.13a.75.75,0,0,1,.182.023.57.57,0,0,1,.165.062v.227A.637.637,0,0,0,.863-.892.5.5,0,0,0,.7-.92a.32.32,0,0,0-.244.1.4.4,0,0,0-.085.273.389.389,0,0,0,.085.267.315.315,0,0,0,.244.1A.584.584,0,0,0,.863-.21a.792.792,0,0,0,.159-.08Z" fill="#15605f"/>
      </g>
      <g id="Grupo_1405" data-name="Grupo 1405" transform="translate(71.212 208.146)">
        <path id="Caminho_2048" data-name="Caminho 2048" d="M.744-.608A.257.257,0,0,0,.676-.631.551.551,0,0,0,.608-.636a.194.194,0,0,0-.159.068.261.261,0,0,0-.057.182V0H.131V-.835H.392v.142A.3.3,0,0,1,.511-.812.318.318,0,0,1,.67-.852H.7a.389.389,0,0,1,.045.006Z" fill="#15605f"/>
      </g>
      <g id="Grupo_1406" data-name="Grupo 1406" transform="translate(71.963 208.146)">
        <path id="Caminho_2049" data-name="Caminho 2049" d="M.96-.42v.08H.335A.215.215,0,0,0,.4-.2a.25.25,0,0,0,.165.045.639.639,0,0,0,.17-.023A.957.957,0,0,0,.92-.256v.2A1.254,1.254,0,0,1,.727,0,.826.826,0,0,1,.54.023.49.49,0,0,1,.193-.091.425.425,0,0,1,.068-.415.42.42,0,0,1,.187-.733.47.47,0,0,1,.528-.852a.424.424,0,0,1,.312.119A.424.424,0,0,1,.96-.42ZM.687-.506A.173.173,0,0,0,.642-.63.158.158,0,0,0,.528-.676.19.19,0,0,0,.4-.63a.188.188,0,0,0-.057.125Z" fill="#15605f"/>
      </g>
      <g id="Grupo_1407" data-name="Grupo 1407" transform="translate(72.997 208.146)">
        <path id="Caminho_2050" data-name="Caminho 2050" d="M.5-.375a.236.236,0,0,0-.125.028.1.1,0,0,0-.04.085.1.1,0,0,0,.034.08A.132.132,0,0,0,.46-.153.172.172,0,0,0,.585-.2.2.2,0,0,0,.642-.346V-.375Zm.409-.1V0H.642V-.125a.344.344,0,0,1-.125.114A.334.334,0,0,1,.358.023a.292.292,0,0,1-.21-.074.265.265,0,0,1-.08-.2.244.244,0,0,1,.1-.216A.582.582,0,0,1,.483-.534H.642V-.551a.1.1,0,0,0-.051-.1A.349.349,0,0,0,.432-.676a.7.7,0,0,0-.159.017.521.521,0,0,0-.136.051v-.2c.057-.011.114-.02.17-.028A1.5,1.5,0,0,1,.483-.852a.474.474,0,0,1,.324.091.351.351,0,0,1,.1.284Z" fill="#15605f"/>
      </g>
      <g id="Grupo_1408" data-name="Grupo 1408" transform="translate(74.025 208.146)">
        <path id="Caminho_2051" data-name="Caminho 2051" d="M.42-1.068v.233H.693v.193H.42V-.29a.106.106,0,0,0,.023.08.163.163,0,0,0,.091.017H.67V0H.443A.327.327,0,0,1,.216-.062.327.327,0,0,1,.153-.29V-.642H.023V-.835H.153v-.233Z" fill="#15605f"/>
      </g>
      <g id="Grupo_1409" data-name="Grupo 1409" transform="translate(74.753 208.146)">
        <path id="Caminho_2052" data-name="Caminho 2052" d="M.96-.42v.08H.335A.215.215,0,0,0,.4-.2a.25.25,0,0,0,.165.045.639.639,0,0,0,.17-.023A.957.957,0,0,0,.92-.256v.2A1.254,1.254,0,0,1,.727,0,.826.826,0,0,1,.54.023.49.49,0,0,1,.193-.091.425.425,0,0,1,.068-.415.42.42,0,0,1,.187-.733.47.47,0,0,1,.528-.852a.424.424,0,0,1,.312.119A.424.424,0,0,1,.96-.42ZM.687-.506A.173.173,0,0,0,.642-.63.158.158,0,0,0,.528-.676.19.19,0,0,0,.4-.63a.188.188,0,0,0-.057.125Z" fill="#15605f"/>
      </g>
      <g id="Grupo_1410" data-name="Grupo 1410" transform="translate(75.787 208.146)">
        <path id="Caminho_2053" data-name="Caminho 2053" d="M.693-.71v-.449H.96V0H.693V-.119a.317.317,0,0,1-.119.108A.338.338,0,0,1,.42.023.323.323,0,0,1,.165-.1a.5.5,0,0,1-.1-.318.478.478,0,0,1,.1-.312A.32.32,0,0,1,.42-.852a.338.338,0,0,1,.153.034A.329.329,0,0,1,.693-.71ZM.517-.17A.151.151,0,0,0,.648-.233.309.309,0,0,0,.693-.415.312.312,0,0,0,.648-.6.154.154,0,0,0,.517-.659.152.152,0,0,0,.386-.6a.339.339,0,0,0-.04.182.335.335,0,0,0,.04.182A.149.149,0,0,0,.517-.17Z" fill="#15605f"/>
      </g>
      <g id="Grupo_1411" data-name="Grupo 1411" transform="translate(77.407 208.146)">
        <path id="Caminho_2054" data-name="Caminho 2054" d="M.574-.17A.136.136,0,0,0,.7-.233.309.309,0,0,0,.744-.415.312.312,0,0,0,.7-.6.139.139,0,0,0,.574-.659.158.158,0,0,0,.437-.6a.3.3,0,0,0-.045.182.3.3,0,0,0,.045.182A.154.154,0,0,0,.574-.17ZM.392-.71A.369.369,0,0,1,.517-.818.338.338,0,0,1,.67-.852a.305.305,0,0,1,.25.125.465.465,0,0,1,.1.312A.483.483,0,0,1,.92-.1.308.308,0,0,1,.67.023.338.338,0,0,1,.517-.011.354.354,0,0,1,.392-.119V0H.131V-1.159H.392Z" fill="#15605f"/>
      </g>
      <g id="Grupo_1412" data-name="Grupo 1412" transform="translate(78.499 208.146)">
        <path id="Caminho_2055" data-name="Caminho 2055" d="M.017-.835H.284l.227.568L.7-.835H.966L.613.08A.438.438,0,0,1,.488.273.281.281,0,0,1,.307.329H.153V.153h.08a.166.166,0,0,0,.1-.023A.138.138,0,0,0,.381.057L.392.034Z" fill="#15605f"/>
      </g>
      <g id="Grupo_1413" data-name="Grupo 1413" transform="translate(80.023 208.146)">
        <path id="Caminho_2056" data-name="Caminho 2056" d="M1.136-.085A.963.963,0,0,1,.914,0,1.307,1.307,0,0,1,.676.023.623.623,0,0,1,.233-.131a.564.564,0,0,1-.159-.42A.55.55,0,0,1,.239-.977.64.64,0,0,1,.693-1.13a1.035,1.035,0,0,1,.21.023.7.7,0,0,1,.193.062v.227A.746.746,0,0,0,.909-.892.629.629,0,0,0,.727-.92a.362.362,0,0,0-.267.1.37.37,0,0,0-.091.273A.379.379,0,0,0,.46-.278a.341.341,0,0,0,.256.091A.445.445,0,0,0,.8-.193.24.24,0,0,0,.863-.21V-.426H.693V-.613h.443Z" fill="#15605f"/>
      </g>
      <g id="Grupo_1414" data-name="Grupo 1414" transform="translate(81.272 208.146)">
        <path id="Caminho_2057" data-name="Caminho 2057" d="M.966-.506V0H.7V-.386C.7-.457.7-.507.693-.534A.178.178,0,0,0,.676-.6.1.1,0,0,0,.63-.636.093.093,0,0,0,.574-.653a.162.162,0,0,0-.136.068.292.292,0,0,0-.045.176V0H.131V-1.159H.392V-.71A.43.43,0,0,1,.523-.818.323.323,0,0,1,.67-.852a.273.273,0,0,1,.222.091.387.387,0,0,1,.074.256Z" fill="#15605f"/>
      </g>
      <g id="Grupo_1415" data-name="Grupo 1415" transform="translate(82.358 208.146)">
        <path id="Caminho_2058" data-name="Caminho 2058" d="M.131-.835H.392V0H.131Zm0-.324H.392v.222H.131Z" fill="#15605f"/>
      </g>
      <g id="Grupo_1416" data-name="Grupo 1416" transform="translate(82.88 208.146)">
        <path id="Caminho_2059" data-name="Caminho 2059" d="M.017-.835H.284l.227.568L.7-.835H.966L.613.08A.438.438,0,0,1,.488.273.281.281,0,0,1,.307.329H.153V.153h.08a.166.166,0,0,0,.1-.023A.138.138,0,0,0,.381.057L.392.034Z" fill="#15605f"/>
      </g>
      <g id="Grupo_1417" data-name="Grupo 1417" transform="translate(83.874 208.146)">
        <path id="Caminho_2060" data-name="Caminho 2060" d="M.5-.375a.236.236,0,0,0-.125.028.1.1,0,0,0-.04.085.1.1,0,0,0,.034.08A.132.132,0,0,0,.46-.153.172.172,0,0,0,.585-.2.2.2,0,0,0,.642-.346V-.375Zm.409-.1V0H.642V-.125a.344.344,0,0,1-.125.114A.334.334,0,0,1,.358.023a.292.292,0,0,1-.21-.074.265.265,0,0,1-.08-.2.244.244,0,0,1,.1-.216A.582.582,0,0,1,.483-.534H.642V-.551a.1.1,0,0,0-.051-.1A.349.349,0,0,0,.432-.676a.7.7,0,0,0-.159.017.521.521,0,0,0-.136.051v-.2c.057-.011.114-.02.17-.028A1.5,1.5,0,0,1,.483-.852a.474.474,0,0,1,.324.091.351.351,0,0,1,.1.284Z" fill="#15605f"/>
      </g>
      <g id="Grupo_1418" data-name="Grupo 1418" transform="translate(84.902 208.146)">
        <path id="Caminho_2061" data-name="Caminho 2061" d="M.42-1.068v.233H.693v.193H.42V-.29a.106.106,0,0,0,.023.08.163.163,0,0,0,.091.017H.67V0H.443A.327.327,0,0,1,.216-.062.327.327,0,0,1,.153-.29V-.642H.023V-.835H.153v-.233Z" fill="#15605f"/>
      </g>
      <g id="Grupo_1419" data-name="Grupo 1419" transform="translate(85.631 208.146)">
        <path id="Caminho_2062" data-name="Caminho 2062" d="M.778-.807v.2A.842.842,0,0,0,.613-.659.715.715,0,0,0,.466-.676a.253.253,0,0,0-.119.023A.06.06,0,0,0,.312-.6a.049.049,0,0,0,.028.045.291.291,0,0,0,.1.028l.045.006a.607.607,0,0,1,.273.085.226.226,0,0,1,.074.187.223.223,0,0,1-.1.2.507.507,0,0,1-.29.068A.947.947,0,0,1,.267.006,1.371,1.371,0,0,1,.091-.028v-.2A.771.771,0,0,0,.256-.17a.867.867,0,0,0,.17.017A.23.23,0,0,0,.54-.176a.07.07,0,0,0,.04-.062A.063.063,0,0,0,.551-.3a.282.282,0,0,0-.1-.028L.4-.329a.514.514,0,0,1-.25-.08A.234.234,0,0,1,.08-.591.224.224,0,0,1,.17-.79.5.5,0,0,1,.449-.852,1.184,1.184,0,0,1,.6-.841c.053.009.111.02.176.034Z" fill="#15605f"/>
      </g>
      <g id="Grupo_1420" data-name="Grupo 1420" transform="translate(87.068 208.146)">
        <path id="Caminho_2063" data-name="Caminho 2063" d="M.142-1.108H.506l.25.591.256-.591h.364V0H1.1V-.812l-.256.6H.665l-.256-.6V0H.142Z" fill="#15605f"/>
      </g>
      <g id="Grupo_1421" data-name="Grupo 1421" transform="translate(88.584 208.146)">
        <path id="Caminho_2064" data-name="Caminho 2064" d="M.119-.324V-.835H.386v.392A1.224,1.224,0,0,0,.392-.3a.157.157,0,0,0,.017.062.176.176,0,0,0,.04.04.149.149,0,0,0,.062.011A.151.151,0,0,0,.642-.244.3.3,0,0,0,.687-.42V-.835H.954V0H.687V-.119a.366.366,0,0,1-.125.108A.327.327,0,0,1,.415.023.287.287,0,0,1,.193-.062.4.4,0,0,1,.119-.324Z" fill="#15605f"/>
      </g>
      <g id="Grupo_1422" data-name="Grupo 1422" transform="translate(89.669 208.146)">
        <path id="Caminho_2065" data-name="Caminho 2065" d="M.131-.835H.392v.818a.365.365,0,0,1-.08.256A.3.3,0,0,1,.08.329H-.051V.153h.045A.138.138,0,0,0,.1.119.231.231,0,0,0,.131-.017Zm0-.324H.392v.222H.131Z" fill="#15605f"/>
      </g>
      <g id="Grupo_1423" data-name="Grupo 1423" transform="translate(90.19 208.146)">
        <path id="Caminho_2066" data-name="Caminho 2066" d="M.42-1.068v.233H.693v.193H.42V-.29a.106.106,0,0,0,.023.08.163.163,0,0,0,.091.017H.67V0H.443A.327.327,0,0,1,.216-.062.327.327,0,0,1,.153-.29V-.642H.023V-.835H.153v-.233Z" fill="#15605f"/>
      </g>
      <g id="Grupo_1424" data-name="Grupo 1424" transform="translate(90.919 208.146)">
        <path id="Caminho_2067" data-name="Caminho 2067" d="M.5-.375a.236.236,0,0,0-.125.028.1.1,0,0,0-.04.085.1.1,0,0,0,.034.08A.132.132,0,0,0,.46-.153.172.172,0,0,0,.585-.2.2.2,0,0,0,.642-.346V-.375Zm.409-.1V0H.642V-.125a.344.344,0,0,1-.125.114A.334.334,0,0,1,.358.023a.292.292,0,0,1-.21-.074.265.265,0,0,1-.08-.2.244.244,0,0,1,.1-.216A.582.582,0,0,1,.483-.534H.642V-.551a.1.1,0,0,0-.051-.1A.349.349,0,0,0,.432-.676a.7.7,0,0,0-.159.017.521.521,0,0,0-.136.051v-.2c.057-.011.114-.02.17-.028A1.5,1.5,0,0,1,.483-.852a.474.474,0,0,1,.324.091.351.351,0,0,1,.1.284Z" fill="#15605f"/>
      </g>
      <g id="Grupo_1425" data-name="Grupo 1425" transform="translate(91.949 208.146)">
        <path id="Caminho_2068" data-name="Caminho 2068" d="M.574-.17A.136.136,0,0,0,.7-.233.309.309,0,0,0,.744-.415.312.312,0,0,0,.7-.6.139.139,0,0,0,.574-.659.158.158,0,0,0,.437-.6a.3.3,0,0,0-.045.182.3.3,0,0,0,.045.182A.154.154,0,0,0,.574-.17ZM.392-.71A.369.369,0,0,1,.517-.818.338.338,0,0,1,.67-.852a.305.305,0,0,1,.25.125.465.465,0,0,1,.1.312A.483.483,0,0,1,.92-.1.308.308,0,0,1,.67.023.338.338,0,0,1,.517-.011.354.354,0,0,1,.392-.119V0H.131V-1.159H.392Z" fill="#15605f"/>
      </g>
      <g id="Grupo_1426" data-name="Grupo 1426" transform="translate(93.039 208.146)">
        <path id="Caminho_2069" data-name="Caminho 2069" d="M.5-.375a.236.236,0,0,0-.125.028.1.1,0,0,0-.04.085.1.1,0,0,0,.034.08A.132.132,0,0,0,.46-.153.172.172,0,0,0,.585-.2.2.2,0,0,0,.642-.346V-.375Zm.409-.1V0H.642V-.125a.344.344,0,0,1-.125.114A.334.334,0,0,1,.358.023a.292.292,0,0,1-.21-.074.265.265,0,0,1-.08-.2.244.244,0,0,1,.1-.216A.582.582,0,0,1,.483-.534H.642V-.551a.1.1,0,0,0-.051-.1A.349.349,0,0,0,.432-.676a.7.7,0,0,0-.159.017.521.521,0,0,0-.136.051v-.2c.057-.011.114-.02.17-.028A1.5,1.5,0,0,1,.483-.852a.474.474,0,0,1,.324.091.351.351,0,0,1,.1.284Z" fill="#15605f"/>
      </g>
      <g id="Grupo_1427" data-name="Grupo 1427" transform="translate(70.093 209.67)">
        <path id="Caminho_2070" data-name="Caminho 2070" d="M.676-1.159v.176H.528a.113.113,0,0,0-.08.023.08.08,0,0,0-.023.068v.057H.653v.193H.426V0H.159V-.642H.028V-.835H.159V-.892a.246.246,0,0,1,.074-.2.357.357,0,0,1,.239-.068Z" fill="#15605f"/>
      </g>
      <g id="Grupo_1428" data-name="Grupo 1428" transform="translate(70.756 209.67)">
        <path id="Caminho_2071" data-name="Caminho 2071" d="M.744-.608A.257.257,0,0,0,.676-.631.551.551,0,0,0,.608-.636a.194.194,0,0,0-.159.068.261.261,0,0,0-.057.182V0H.131V-.835H.392v.142A.3.3,0,0,1,.511-.812.318.318,0,0,1,.67-.852H.7a.389.389,0,0,1,.045.006Z" fill="#15605f"/>
      </g>
      <g id="Grupo_1429" data-name="Grupo 1429" transform="translate(71.508 209.67)">
        <path id="Caminho_2072" data-name="Caminho 2072" d="M.523-.665A.162.162,0,0,0,.386-.6a.3.3,0,0,0-.045.182.3.3,0,0,0,.045.182A.165.165,0,0,0,.523-.17.158.158,0,0,0,.659-.233.309.309,0,0,0,.7-.415.312.312,0,0,0,.659-.6.155.155,0,0,0,.523-.665Zm0-.187a.454.454,0,0,1,.335.119.413.413,0,0,1,.125.318.43.43,0,0,1-.125.324A.463.463,0,0,1,.523.023.461.461,0,0,1,.187-.091.437.437,0,0,1,.068-.415.42.42,0,0,1,.187-.733.452.452,0,0,1,.523-.852Z" fill="#15605f"/>
      </g>
      <g id="Grupo_1430" data-name="Grupo 1430" transform="translate(72.555 209.67)">
        <path id="Caminho_2073" data-name="Caminho 2073" d="M.9-.693a.367.367,0,0,1,.119-.119.325.325,0,0,1,.153-.04.273.273,0,0,1,.222.091.387.387,0,0,1,.074.256V0H1.2V-.483A.238.238,0,0,0,1.17-.613a.087.087,0,0,0-.08-.04.131.131,0,0,0-.119.062.339.339,0,0,0-.04.182V0H.665V-.432A.375.375,0,0,0,.636-.613a.092.092,0,0,0-.085-.04.141.141,0,0,0-.119.062.339.339,0,0,0-.04.182V0H.125V-.835H.392V-.71A.339.339,0,0,1,.506-.818.288.288,0,0,1,.648-.852.25.25,0,0,1,.8-.807a.256.256,0,0,1,.1.114Z" fill="#15605f"/>
      </g>
      <g id="Grupo_1431" data-name="Grupo 1431" transform="translate(74.672 209.67)">
        <path id="Caminho_2074" data-name="Caminho 2074" d="M.42-1.068v.233H.693v.193H.42V-.29a.106.106,0,0,0,.023.08.163.163,0,0,0,.091.017H.67V0H.443A.327.327,0,0,1,.216-.062.327.327,0,0,1,.153-.29V-.642H.023V-.835H.153v-.233Z" fill="#15605f"/>
      </g>
      <g id="Grupo_1432" data-name="Grupo 1432" transform="translate(75.401 209.67)">
        <path id="Caminho_2075" data-name="Caminho 2075" d="M.966-.506V0H.7V-.386C.7-.457.7-.507.693-.534A.178.178,0,0,0,.676-.6.1.1,0,0,0,.63-.636.093.093,0,0,0,.574-.653a.162.162,0,0,0-.136.068.292.292,0,0,0-.045.176V0H.131V-1.159H.392V-.71A.43.43,0,0,1,.523-.818.323.323,0,0,1,.67-.852a.273.273,0,0,1,.222.091.387.387,0,0,1,.074.256Z" fill="#15605f"/>
      </g>
      <g id="Grupo_1433" data-name="Grupo 1433" transform="translate(76.485 209.67)">
        <path id="Caminho_2076" data-name="Caminho 2076" d="M.96-.42v.08H.335A.215.215,0,0,0,.4-.2a.25.25,0,0,0,.165.045.639.639,0,0,0,.17-.023A.957.957,0,0,0,.92-.256v.2A1.254,1.254,0,0,1,.727,0,.826.826,0,0,1,.54.023.49.49,0,0,1,.193-.091.425.425,0,0,1,.068-.415.42.42,0,0,1,.187-.733.47.47,0,0,1,.528-.852a.424.424,0,0,1,.312.119A.424.424,0,0,1,.96-.42ZM.687-.506A.173.173,0,0,0,.642-.63.158.158,0,0,0,.528-.676.19.19,0,0,0,.4-.63a.188.188,0,0,0-.057.125Z" fill="#15605f"/>
      </g>
      <g id="Grupo_1434" data-name="Grupo 1434" transform="translate(78.05 209.67)">
        <path id="Caminho_2077" data-name="Caminho 2077" d="M.142-1.108H.46l.4.761v-.761h.273V0H.812l-.4-.761V0H.142Z" fill="#15605f"/>
      </g>
      <g id="Grupo_1435" data-name="Grupo 1435" transform="translate(79.326 209.67)">
        <path id="Caminho_2078" data-name="Caminho 2078" d="M.523-.665A.162.162,0,0,0,.386-.6a.3.3,0,0,0-.045.182.3.3,0,0,0,.045.182A.165.165,0,0,0,.523-.17.158.158,0,0,0,.659-.233.309.309,0,0,0,.7-.415.312.312,0,0,0,.659-.6.155.155,0,0,0,.523-.665Zm0-.187a.454.454,0,0,1,.335.119.413.413,0,0,1,.125.318.43.43,0,0,1-.125.324A.463.463,0,0,1,.523.023.461.461,0,0,1,.187-.091.437.437,0,0,1,.068-.415.42.42,0,0,1,.187-.733.452.452,0,0,1,.523-.852Z" fill="#15605f"/>
      </g>
      <g id="Grupo_1436" data-name="Grupo 1436" transform="translate(80.372 209.67)">
        <path id="Caminho_2079" data-name="Caminho 2079" d="M.119-.324V-.835H.386v.392A1.224,1.224,0,0,0,.392-.3a.157.157,0,0,0,.017.062.176.176,0,0,0,.04.04.149.149,0,0,0,.062.011A.151.151,0,0,0,.642-.244.3.3,0,0,0,.687-.42V-.835H.954V0H.687V-.119a.366.366,0,0,1-.125.108A.327.327,0,0,1,.415.023.287.287,0,0,1,.193-.062.4.4,0,0,1,.119-.324Z" fill="#15605f"/>
      </g>
      <g id="Grupo_1437" data-name="Grupo 1437" transform="translate(81.457 209.67)">
        <path id="Caminho_2080" data-name="Caminho 2080" d="M.966-.506V0H.7V-.386C.7-.457.7-.507.693-.534A.178.178,0,0,0,.676-.6.1.1,0,0,0,.63-.636.093.093,0,0,0,.574-.653a.162.162,0,0,0-.136.068.292.292,0,0,0-.045.176V0H.131V-.835H.392V-.71A.43.43,0,0,1,.523-.818.323.323,0,0,1,.67-.852a.273.273,0,0,1,.222.091.387.387,0,0,1,.074.256Z" fill="#15605f"/>
      </g>
      <g id="Grupo_1438" data-name="Grupo 1438" transform="translate(83.072 209.67)">
        <path id="Caminho_2081" data-name="Caminho 2081" d="M.142-1.108H.613a.477.477,0,0,1,.324.1.317.317,0,0,1,.114.261.338.338,0,0,1-.114.273.492.492,0,0,1-.324.091H.426V0H.142Zm.284.2v.312H.585A.169.169,0,0,0,.71-.631.162.162,0,0,0,.755-.75.146.146,0,0,0,.71-.863.176.176,0,0,0,.585-.9Z" fill="#15605f"/>
      </g>
      <g id="Grupo_1439" data-name="Grupo 1439" transform="translate(84.189 209.67)">
        <path id="Caminho_2082" data-name="Caminho 2082" d="M.744-.608A.257.257,0,0,0,.676-.631.551.551,0,0,0,.608-.636a.194.194,0,0,0-.159.068.261.261,0,0,0-.057.182V0H.131V-.835H.392v.142A.3.3,0,0,1,.511-.812.318.318,0,0,1,.67-.852H.7a.389.389,0,0,1,.045.006Z" fill="#15605f"/>
      </g>
      <g id="Grupo_1440" data-name="Grupo 1440" transform="translate(84.94 209.67)">
        <path id="Caminho_2083" data-name="Caminho 2083" d="M.523-.665A.162.162,0,0,0,.386-.6a.3.3,0,0,0-.045.182.3.3,0,0,0,.045.182A.165.165,0,0,0,.523-.17.158.158,0,0,0,.659-.233.309.309,0,0,0,.7-.415.312.312,0,0,0,.659-.6.155.155,0,0,0,.523-.665Zm0-.187a.454.454,0,0,1,.335.119.413.413,0,0,1,.125.318.43.43,0,0,1-.125.324A.463.463,0,0,1,.523.023.461.461,0,0,1,.187-.091.437.437,0,0,1,.068-.415.42.42,0,0,1,.187-.733.452.452,0,0,1,.523-.852Z" fill="#15605f"/>
      </g>
      <g id="Grupo_1441" data-name="Grupo 1441" transform="translate(85.987 209.67)">
        <path id="Caminho_2084" data-name="Caminho 2084" d="M.131-.835H.392v.818a.365.365,0,0,1-.08.256A.3.3,0,0,1,.08.329H-.051V.153h.045A.138.138,0,0,0,.1.119.231.231,0,0,0,.131-.017Zm0-.324H.392v.222H.131Z" fill="#15605f"/>
      </g>
      <g id="Grupo_1442" data-name="Grupo 1442" transform="translate(86.51 209.67)">
        <path id="Caminho_2085" data-name="Caminho 2085" d="M.96-.42v.08H.335A.215.215,0,0,0,.4-.2a.25.25,0,0,0,.165.045.639.639,0,0,0,.17-.023A.957.957,0,0,0,.92-.256v.2A1.254,1.254,0,0,1,.727,0,.826.826,0,0,1,.54.023.49.49,0,0,1,.193-.091.425.425,0,0,1,.068-.415.42.42,0,0,1,.187-.733.47.47,0,0,1,.528-.852a.424.424,0,0,1,.312.119A.424.424,0,0,1,.96-.42ZM.687-.506A.173.173,0,0,0,.642-.63.158.158,0,0,0,.528-.676.19.19,0,0,0,.4-.63a.188.188,0,0,0-.057.125Z" fill="#15605f"/>
      </g>
      <g id="Grupo_1443" data-name="Grupo 1443" transform="translate(87.543 209.67)">
        <path id="Caminho_2086" data-name="Caminho 2086" d="M.8-.807v.216A.53.53,0,0,0,.687-.642.283.283,0,0,0,.579-.665.225.225,0,0,0,.4-.6a.244.244,0,0,0-.062.182A.253.253,0,0,0,.4-.233.232.232,0,0,0,.579-.17.418.418,0,0,0,.7-.187.281.281,0,0,0,.8-.244v.222A.8.8,0,0,1,.67.011.757.757,0,0,1,.545.023.5.5,0,0,1,.193-.091.425.425,0,0,1,.068-.415.408.408,0,0,1,.193-.733.487.487,0,0,1,.545-.852.757.757,0,0,1,.67-.841.979.979,0,0,1,.8-.807Z" fill="#15605f"/>
      </g>
      <g id="Grupo_1444" data-name="Grupo 1444" transform="translate(88.447 209.67)">
        <path id="Caminho_2087" data-name="Caminho 2087" d="M.42-1.068v.233H.693v.193H.42V-.29a.106.106,0,0,0,.023.08.163.163,0,0,0,.091.017H.67V0H.443A.327.327,0,0,1,.216-.062.327.327,0,0,1,.153-.29V-.642H.023V-.835H.153v-.233Z" fill="#15605f"/>
      </g>
    </g>
  </g>
</svg>
