<svg xmlns="http://www.w3.org/2000/svg" xmlns:xlink="http://www.w3.org/1999/xlink" width="469" height="311" viewBox="0 0 469 311">
  <defs>
    <clipPath id="clip-path">
      <rect id="Retângulo_135" data-name="Retângulo 135" width="469" height="311" transform="translate(1390 5813)" fill="#fff" stroke="#707070" stroke-width="1"/>
    </clipPath>
  </defs>
  <g id="Grupo_de_máscara_15" data-name="Grupo de máscara 15" transform="translate(-1390 -5813)" opacity="0.88" clip-path="url(#clip-path)">
    <g id="undraw_biking_kc-4-f_1_" data-name="undraw_biking_kc-4-f (1)" transform="translate(1401.38 5813)">
      <path id="Caminho_620" data-name="Caminho 620" d="M276.855,240.931l-2.38,53.305s6.187,50.45,4.759,51.877-5.235,4.283-2.38,7.615,13.326,5.711,13.8,3.808,1.428-56.161,1.428-56.161l3.332-64.252Z" transform="translate(-62.444 -58.673)" fill="#2f2e41"/>
      <path id="Caminho_621" data-name="Caminho 621" d="M276.855,240.931l-2.38,53.305s6.187,50.45,4.759,51.877-5.235,4.283-2.38,7.615,13.326,5.711,13.8,3.808,1.428-56.161,1.428-56.161l3.332-64.252Z" transform="translate(-62.444 -58.673)" opacity="0.2"/>
      <path id="Caminho_622" data-name="Caminho 622" d="M279.234,352.776s-11.9,9.043-13.326,9.043-14.278,4.283-5.235,6.187,30.936.952,31.412-1.9-1.428-11.522-1.428-11.522Z" transform="translate(-62.444 -58.673)" fill="#2f2e41"/>
      <path id="Caminho_623" data-name="Caminho 623" d="M279.234,352.776s-11.9,9.043-13.326,9.043-14.278,4.283-5.235,6.187,30.936.952,31.412-1.9-1.428-11.522-1.428-11.522Z" transform="translate(-62.444 -58.673)" opacity="0.2"/>
      <path id="Caminho_624" data-name="Caminho 624" d="M249.726,200.952s-5.235,1.9-5.235,3.332-4.759,19.514-5.711,20.465-1.428,5.235-1.428,5.235-4.759,10.947-3.808,10.947,9.043-1.9,9.519,0,4.283-11.9,4.283-11.9l8.091-16.182Z" transform="translate(-62.444 -58.673)" fill="#016968"/>
      <path id="Caminho_625" data-name="Caminho 625" d="M233.544,242.835s1.428,10.471,5.235,11.423,0-13.326,0-13.326Z" transform="translate(-62.444 -58.673)" fill="#ffb8b8"/>
      <path id="Caminho_626" data-name="Caminho 626" d="M245.919,195.241s2.856,6.187,4.283,9.519,14.754-8.567,14.754-8.567-7.139-5.235-7.139-7.615S245.919,195.241,245.919,195.241Z" transform="translate(-62.444 -58.673)" fill="#ffb8b8"/>
      <path id="Caminho_627" data-name="Caminho 627" d="M108.629,349.948c3.192,11.8,14.124,19.106,14.124,19.106s5.758-11.822,2.566-23.621-14.124-19.106-14.124-19.106S105.437,338.149,108.629,349.948Z" transform="translate(-62.444 -58.673)" fill="#3f3d56"/>
      <path id="Caminho_628" data-name="Caminho 628" d="M113.319,347.412c8.758,8.526,9.828,21.632,9.828,21.632s-13.13-.717-21.889-9.243-9.828-21.632-9.828-21.632S104.56,338.886,113.319,347.412Z" transform="translate(-62.444 -58.673)" fill="#016968"/>
      <path id="Caminho_629" data-name="Caminho 629" d="M222.122,369.434a43.31,43.31,0,1,1,43.31-43.31A43.31,43.31,0,0,1,222.122,369.434Zm0-85.669a42.359,42.359,0,1,0,42.359,42.359A42.359,42.359,0,0,0,222.122,283.765Z" transform="translate(-62.444 -58.673)" fill="#2f2e41"/>
      <path id="Caminho_630" data-name="Caminho 630" d="M355.385,369.434a43.31,43.31,0,1,1,43.31-43.31,43.31,43.31,0,0,1-43.31,43.31Zm0-85.669a42.359,42.359,0,1,0,42.359,42.359A42.359,42.359,0,0,0,355.385,283.765Z" transform="translate(-62.444 -58.673)" fill="#2f2e41"/>
      <circle id="Elipse_26" data-name="Elipse 26" cx="2.856" cy="2.856" r="2.856" transform="translate(156.822 264.596)" fill="#2f2e41"/>
      <circle id="Elipse_27" data-name="Elipse 27" cx="2.856" cy="2.856" r="2.856" transform="translate(291.037 264.596)" fill="#2f2e41"/>
      <path id="Caminho_631" data-name="Caminho 631" d="M163.923,263.355l-.876-.374,24.875-58.36,70.539,1.439.137.214,34.744,54.257-.8.514L257.933,207l-69.387-1.416Z" fill="#2f2e41"/>
      <path id="Caminho_632" data-name="Caminho 632" d="M238.029,274.2l18.282-64.469.916.259-17.889,63.083,47.831-6.1.12.945Z" fill="#2f2e41"/>
      <rect id="Retângulo_136" data-name="Retângulo 136" width="0.952" height="70.004" transform="matrix(0.714, -0.7, 0.7, 0.714, 185.515, 219.713)" fill="#2f2e41"/>
      <rect id="Retângulo_137" data-name="Retângulo 137" width="10.853" height="0.952" transform="matrix(0.263, -0.965, 0.965, 0.263, 258.215, 204.977)" fill="#2f2e41"/>
      <path id="Caminho_633" data-name="Caminho 633" d="M189.65,201.877l-.929-.211,2.248-9.889H183V185.59h.952v5.235h8.211Z" fill="#2f2e41"/>
      <path id="Caminho_634" data-name="Caminho 634" d="M306.363,243.786s0-2.856,6.187-1.428,25.225,5.235,26.653,4.759.952,2.856-5.235,4.283-13.326-1.9-14.754-2.856S306.363,243.786,306.363,243.786Z" transform="translate(-62.444 -58.673)" fill="#2f2e41"/>
      <rect id="Retângulo_138" data-name="Retângulo 138" width="12.374" height="4.759" transform="translate(214.411 270.307)" fill="#016968"/>
      <path id="Caminho_635" data-name="Caminho 635" d="M301.128,341.83a9.519,9.519,0,1,1,9.519-9.519A9.519,9.519,0,0,1,301.128,341.83Zm0-18.086a8.567,8.567,0,1,0,8.567,8.567,8.567,8.567,0,0,0-8.567-8.567Z" transform="translate(-62.444 -58.673)" fill="#2f2e41"/>
      <circle id="Elipse_28" data-name="Elipse 28" cx="11.423" cy="11.423" r="11.423" transform="translate(176.335 118.483)" fill="#ffb8b8"/>
      <path id="Caminho_636" data-name="Caminho 636" d="M286.374,241.883s-32.84,19.038-32.364,25.225,25.225,39.979,25.225,39.979,1.9,9.995,3.808,9.995,13.8,4.283,14.278,1.428-3.808-6.187-3.332-8.091-20.941-36.647-20.941-36.647,45.836-17.134,36.244-31.888S286.374,241.883,286.374,241.883Z" transform="translate(-62.444 -58.673)" fill="#2f2e41"/>
      <path id="Caminho_637" data-name="Caminho 637" d="M287.325,315.177s-5.711,1.428-6.663,3.332-17.61,8.091-12.85,9.519,32.364,1.9,33.316.952,0-12-3.808-11.949S289.229,318.509,287.325,315.177Z" transform="translate(-62.444 -58.673)" fill="#2f2e41"/>
      <path id="Caminho_638" data-name="Caminho 638" d="M250.2,206.187,260.911,193.1s12.136-3.57,17.372,3.57,19.514,24.749,24.273,28.556,11.423,18.562,9.043,19.038-15.706-5.235-20.941-1.428-15.23,4.283-15.706,2.38-29.032-33.792-29.032-38.075,3.043-5.2,3.043-5.2Z" transform="translate(-62.444 -58.673)" fill="#016968"/>
      <rect id="Retângulo_139" data-name="Retângulo 139" width="18.086" height="2.856" rx="1.428" transform="matrix(0.943, 0.333, -0.333, 0.943, 177.805, 179.8)" fill="#2f2e41"/>
      <path id="Caminho_639" data-name="Caminho 639" d="M223.55,238.075s-16.658,4.759-15.23,9.995,16.658-6.187,16.658-6.187Z" transform="translate(-62.444 -58.673)" fill="#ffb8b8"/>
      <path id="Caminho_640" data-name="Caminho 640" d="M266.86,196.668s-6.663,5.711-8.091,12.374S250.2,227.6,250.2,227.6l-29.032,9.519s-1.9,9.043.952,9.043,34.744-6.663,35.7-8.091,21.417-28.556,21.417-28.556S281.138,194.765,266.86,196.668Z" transform="translate(-62.444 -58.673)" fill="#016968"/>
      <path id="Caminho_641" data-name="Caminho 641" d="M243.107,175.357a2.253,2.253,0,0,1-.981.492.7.7,0,0,1-.811-.562,2.909,2.909,0,0,1-1.113,1.428c-.545.284-1.388.046-1.466-.564a2.572,2.572,0,0,1-.592,1.25.887.887,0,0,1-1.247.042,32.033,32.033,0,0,1,.166,3.97,5.054,5.054,0,0,0,1.428,3.6c1.459,1.27,3.652.956,5.571.716a1.691,1.691,0,0,1,.873.048c.718.306.686,1.306.7,2.087a5.8,5.8,0,0,0,5.078,5.507,2.907,2.907,0,0,0,2.161-.527c.545-.462.823-1.214,1.447-1.561,1.015-.564,2.247.259,2.989,1.152s1.474,1.993,2.624,2.156c1.521.216,2.68-1.334,3.248-2.761a16.1,16.1,0,0,0-.32-12.508C259.683,172.395,248.833,171.3,243.107,175.357Z" transform="translate(-62.444 -58.673)" fill="#2f2e41"/>
      <path id="Caminho_642" data-name="Caminho 642" d="M444.094,369.415l-.846-.437c10.986-21.238,5.111-48.819-1.751-68.217a209.077,209.077,0,0,0-17.742-37.444l.8-.508a210.144,210.144,0,0,1,17.834,37.635C449.32,320.018,455.236,347.874,444.094,369.415Z" transform="translate(-62.444 -58.673)" fill="#2f2e41"/>
      <rect id="Retângulo_140" data-name="Retângulo 140" width="34.353" height="0.952" transform="translate(383.622 238.099) rotate(-79.645)" fill="#2f2e41"/>
      <rect id="Retângulo_141" data-name="Retângulo 141" width="0.952" height="46.809" transform="matrix(0.732, -0.681, 0.681, 0.732, 348.039, 233.745)" fill="#2f2e41"/>
      <rect id="Retângulo_142" data-name="Retângulo 142" width="27.609" height="0.952" transform="translate(389.889 293.116) rotate(-54.137)" fill="#2f2e41"/>
      <circle id="Elipse_29" data-name="Elipse 29" cx="4.759" cy="4.759" r="4.759" transform="translate(387.89 185.828)" fill="#016968"/>
      <circle id="Elipse_30" data-name="Elipse 30" cx="4.759" cy="4.759" r="4.759" transform="translate(336.013 222.475)" fill="#3f3d56"/>
      <circle id="Elipse_31" data-name="Elipse 31" cx="4.759" cy="4.759" r="4.759" transform="translate(356.954 227.235)" fill="#3f3d56"/>
      <circle id="Elipse_32" data-name="Elipse 32" cx="4.759" cy="4.759" r="4.759" transform="translate(347.436 245.796)" fill="#016968"/>
      <circle id="Elipse_33" data-name="Elipse 33" cx="4.759" cy="4.759" r="4.759" transform="translate(406.928 257.695)" fill="#3f3d56"/>
      <circle id="Elipse_34" data-name="Elipse 34" cx="4.759" cy="4.759" r="4.759" transform="translate(391.222 262.93)" fill="#3f3d56"/>
      <circle id="Elipse_35" data-name="Elipse 35" cx="4.759" cy="4.759" r="4.759" transform="translate(402.168 278.16)" fill="#3f3d56"/>
      <circle id="Elipse_36" data-name="Elipse 36" cx="4.759" cy="4.759" r="4.759" transform="translate(352.195 191.539)" fill="#3f3d56"/>
      <rect id="Retângulo_143" data-name="Retângulo 143" width="429.773" height="0.952" transform="translate(0 310.048)" fill="#2f2e41"/>
      <rect id="Retângulo_144" data-name="Retângulo 144" width="46.642" height="46.642" transform="matrix(0.866, 0.5, -0.5, 0.866, 33.347, 188.174)" fill="#f2f2f2"/>
      <path id="Caminho_643" data-name="Caminho 643" d="M113.846,318.682a10.471,10.471,0,1,1,10.471-10.471A10.471,10.471,0,0,1,113.846,318.682Zm0-19.989a9.519,9.519,0,1,0,9.519,9.519,9.519,9.519,0,0,0-9.519-9.519Z" transform="translate(-62.444 -58.673)" fill="#3f3d56"/>
    </g>
  </g>
</svg>
