<svg xmlns="http://www.w3.org/2000/svg" xmlns:xlink="http://www.w3.org/1999/xlink" width="39.876" height="55.826" viewBox="0 0 39.876 55.826">
  <defs>
    <clipPath id="clip-path">
      <rect id="Ret칙ngulo_59" data-name="Ret칙ngulo 59" width="39.876" height="55.826" transform="translate(979 2182)" fill="#15605f" stroke="#15605f" stroke-width="1"/>
    </clipPath>
  </defs>
  <g id="Grupo_de_m치scara_4" data-name="Grupo de m치scara 4" transform="translate(-979 -2182)" clip-path="url(#clip-path)">
    <g id="noun-cardiology-2144622" transform="translate(971.862 2188.38)">
      <path id="Caminho_164" data-name="Caminho 164" d="M30.248,19.386c.029-.056.052-.114.083-.167A4.2,4.2,0,0,1,32.907,17.4l.649-.116.078-.656a4.191,4.191,0,0,0-.879-2.988A21.521,21.521,0,0,1,35,12.925l.651-.169.017-.672a3.55,3.55,0,0,0-1-2.419,4.522,4.522,0,0,0-3.367-1.2h-.1l-.091.02c-.046.009-.278.063-.636.173V6.744l-.224-.16a4.021,4.021,0,0,0-2.648-.759,2.077,2.077,0,0,0-1.369.887l-.1.138v3.964A15.913,15.913,0,0,0,24.1,12.521V4.546l-.245-.158c-.138-.087-3.358-2.111-5.037.129l-.105.142v6.524c-.006,0-.009,0-.013,0-1.171-.155-3.544.163-4.151,2.478a.889.889,0,0,0,.395.98,8.738,8.738,0,0,1,1.411,1.113,13.622,13.622,0,0,0-4.288-.108.9.9,0,0,0-.367.142,2.8,2.8,0,0,0-1.221,2.029,2.579,2.579,0,0,0,1.169,2.135.843.843,0,0,0,.562.19,2.844,2.844,0,0,1,1.777.934c1,1.011,2.148,3.258,1.994,8.22a14.382,14.382,0,0,0,2.731,7.493v9.158a.534.534,0,0,0,1.068,0V38.218a17.367,17.367,0,0,0,2.939,2.831c.1.077.21.149.313.223v4.672a.534.534,0,0,0,1.068,0V41.965a17.97,17.97,0,0,0,2.047,1.028v2.951a.534.534,0,0,0,1.068,0V43.417c.706.257,1.442.483,2.2.679v1.847a.534.534,0,0,0,1.068,0v-1.6a29.021,29.021,0,0,0,6.026.625c.208,0,.414,0,.621-.007,2.8-.058,6.778-4.682,7.432-10,.514-4.184-.683-11.737-14.316-15.584ZM27.212,7.2a.967.967,0,0,1,.576-.324,2.744,2.744,0,0,1,1.627.433V9.036a16.3,16.3,0,0,0-2.2,1.089ZM23.029,5.148V13.69c-.181.222-.361.453-.537.693a6.8,6.8,0,0,0-2.714-2.708V5.031c.915-.989,2.617-.223,3.251.117ZM42.8,34.756c-.584,4.734-4.145,8.4-5.7,8.437-5.237.111-10.206-1.223-13.306-3.562C19.4,36.324,17.7,31.3,17.757,29.352c.14-4.488-.7-7.692-2.5-9.524a4.739,4.739,0,0,0-2.7-1.437.8.8,0,0,1-.3-.507.893.893,0,0,1,.307-.512,13.233,13.233,0,0,1,5.4.617.89.89,0,0,0,1.182-1c-.272-1.484-1.734-2.768-2.619-3.421a2.166,2.166,0,0,1,1.823-.637,5.16,5.16,0,0,1,2.859,2.9c1.05,2.847-.608,6.336-.624,6.371a.889.889,0,0,0,1.6.778A11.988,11.988,0,0,0,23.216,16.5a14.345,14.345,0,0,1,8.192-6.258c1.534.026,2.12.661,2.344,1.18-3.75,1.1-6.314,2.832-7.629,5.145a6.691,6.691,0,0,0-.766,4.868.888.888,0,0,0,.852.64.91.91,0,0,0,.25-.035.891.891,0,0,0,.606-1.1,4.971,4.971,0,0,1,.6-3.492,8.1,8.1,0,0,1,3.348-3.019,2.048,2.048,0,0,1,.834,1.431,5.821,5.821,0,0,0-3.033,2.425c-1.017,1.692-1.1,3.9-.235,6.558a.89.89,0,0,0,.845.616.9.9,0,0,0,.276-.044.889.889,0,0,0,.571-1.12,8.649,8.649,0,0,1-.484-3.19c12.329,3.489,13.449,10.035,13,13.652Z" transform="translate(-0.763 -3.467)" fill="#15605f"/>
      <path id="Caminho_165" data-name="Caminho 165" d="M28.126,31.455a5.023,5.023,0,0,1-4.712-5.061,4.431,4.431,0,0,0-.733-2.1c.358-.8,1.212-2.967.69-4.458A2.022,2.022,0,0,0,22.3,18.625a.534.534,0,0,0-.453.967.97.97,0,0,1,.523.6,5.461,5.461,0,0,1-.447,3.157A10.025,10.025,0,0,0,19.1,21.354a.534.534,0,0,0-.433.975c.035.016,3.509,1.6,3.688,4.14a6.1,6.1,0,0,0,5.679,6.051l.05,0a.535.535,0,0,0,.048-1.068Z" transform="translate(3.92 5.522)" fill="#15605f"/>
      <path id="Caminho_166" data-name="Caminho 166" d="M30.584,29.174a7.722,7.722,0,0,1-2.792-2.73,11.24,11.24,0,0,1,2.137-3.582.533.533,0,1,0-.686-.817,10.011,10.011,0,0,0-2.077,3.168,4.16,4.16,0,0,1-.321-1.991,5.749,5.749,0,0,0-1.234-4.517.533.533,0,0,0-.774.733,4.7,4.7,0,0,1,.949,3.657,6.061,6.061,0,0,0,.921,3.606.307.307,0,0,1,.022.041,8.663,8.663,0,0,0,3.413,3.4.527.527,0,0,0,.22.048.534.534,0,0,0,.222-1.02Z" transform="translate(7.697 5.502)" fill="#15605f"/>
      <g id="Grupo_40" data-name="Grupo 40" transform="translate(0 59.257)">
        <path id="Caminho_167" data-name="Caminho 167" d="M3.089,1.123a2.213,2.213,0,0,1-.511.193,2.358,2.358,0,0,1-.555.065A1.9,1.9,0,0,1,.652.9a1.732,1.732,0,0,1-.5-1.311,1.73,1.73,0,0,1,.5-1.311,1.9,1.9,0,0,1,1.37-.483,2.358,2.358,0,0,1,.555.065,2.279,2.279,0,0,1,.511.192v.715A1.95,1.95,0,0,0,2.6-1.483a1.628,1.628,0,0,0-.507-.078.953.953,0,0,0-.75.306,1.216,1.216,0,0,0-.273.842,1.219,1.219,0,0,0,.273.842.955.955,0,0,0,.75.3A1.617,1.617,0,0,0,2.6.655,1.925,1.925,0,0,0,3.089.408Z" transform="translate(-0.148 2.207)" fill="#15605f"/>
      </g>
      <g id="Grupo_41" data-name="Grupo 41" transform="translate(3.643 60.12)">
        <path id="Caminho_168" data-name="Caminho 168" d="M2.177-.9a1.056,1.056,0,0,0-.217-.075A1,1,0,0,0,1.743-1a.606.606,0,0,0-.492.205A.891.891,0,0,0,1.08-.2V.991H.25V-1.6h.83v.425a1.053,1.053,0,0,1,.367-.371.987.987,0,0,1,.5-.118q.042,0,.091,0l.142.014Z" transform="translate(-0.25 1.666)" fill="#15605f"/>
      </g>
      <g id="Grupo_42" data-name="Grupo 42" transform="translate(5.788 60.12)">
        <path id="Caminho_169" data-name="Caminho 169" d="M2.912-.312v.235H.973a.616.616,0,0,0,.211.439.789.789,0,0,0,.505.145A1.983,1.983,0,0,0,2.225.43,2.785,2.785,0,0,0,2.789.195v.64A3.665,3.665,0,0,1,2.2,1a3.079,3.079,0,0,1-.588.057A1.563,1.563,0,0,1,.517.7a1.3,1.3,0,0,1-.389-1,1.311,1.311,0,0,1,.383-1,1.471,1.471,0,0,1,1.055-.364,1.322,1.322,0,0,1,.979.368,1.335,1.335,0,0,1,.367.985ZM2.059-.589a.529.529,0,0,0-.137-.38.475.475,0,0,0-.361-.145.562.562,0,0,0-.391.136.617.617,0,0,0-.187.389Z" transform="translate(-0.128 1.666)" fill="#15605f"/>
      </g>
      <g id="Grupo_43" data-name="Grupo 43" transform="translate(9.005 60.12)">
        <path id="Caminho_170" data-name="Caminho 170" d="M1.486-.177a.7.7,0,0,0-.391.089.292.292,0,0,0-.131.26.3.3,0,0,0,.106.246.439.439,0,0,0,.293.089A.523.523,0,0,0,1.756.339a.586.586,0,0,0,.16-.421v-.1ZM2.752-.489V.991H1.916V.606A1.066,1.066,0,0,1,1.54.952a1.1,1.1,0,0,1-.507.107A.921.921,0,0,1,.378.824.8.8,0,0,1,.128.213.75.75,0,0,1,.442-.456,1.78,1.78,0,0,1,1.427-.67h.489V-.735a.308.308,0,0,0-.155-.287.976.976,0,0,0-.483-.092,2.216,2.216,0,0,0-.5.053A1.667,1.667,0,0,0,.356-.9v-.632a4.726,4.726,0,0,1,.534-.1,4.206,4.206,0,0,1,.537-.035,1.5,1.5,0,0,1,1.012.278,1.145,1.145,0,0,1,.312.9Z" transform="translate(-0.128 1.666)" fill="#15605f"/>
      </g>
      <g id="Grupo_44" data-name="Grupo 44" transform="translate(12.064 59.446)">
        <path id="Caminho_171" data-name="Caminho 171" d="M1.281-2.089v.738h.856v.593H1.281v1.1a.323.323,0,0,0,.071.244A.457.457,0,0,0,1.638.65h.425v.593H1.353a.964.964,0,0,1-.7-.205.967.967,0,0,1-.2-.7v-1.1H.039v-.593H.452v-.738Z" transform="translate(-0.039 2.089)" fill="#15605f"/>
      </g>
      <g id="Grupo_45" data-name="Grupo 45" transform="translate(14.473 60.12)">
        <path id="Caminho_172" data-name="Caminho 172" d="M2.912-.312v.235H.973a.616.616,0,0,0,.211.439.789.789,0,0,0,.505.145A1.983,1.983,0,0,0,2.225.43,2.785,2.785,0,0,0,2.789.195v.64A3.665,3.665,0,0,1,2.2,1a3.079,3.079,0,0,1-.588.057A1.563,1.563,0,0,1,.517.7a1.3,1.3,0,0,1-.389-1,1.311,1.311,0,0,1,.383-1,1.471,1.471,0,0,1,1.055-.364,1.322,1.322,0,0,1,.979.368,1.335,1.335,0,0,1,.367.985ZM2.059-.589a.529.529,0,0,0-.137-.38.475.475,0,0,0-.361-.145.562.562,0,0,0-.391.136.617.617,0,0,0-.187.389Z" transform="translate(-0.128 1.666)" fill="#15605f"/>
      </g>
      <g id="Grupo_46" data-name="Grupo 46" transform="translate(17.699 59.172)">
        <path id="Caminho_173" data-name="Caminho 173" d="M2.084-.87V-2.26h.833v3.6H2.084V.969a1.13,1.13,0,0,1-.379.336,1.018,1.018,0,0,1-.477.107.969.969,0,0,1-.788-.382A1.512,1.512,0,0,1,.133.05,1.509,1.509,0,0,1,.441-.931a.97.97,0,0,1,.788-.382A1.008,1.008,0,0,1,1.7-1.2a1.141,1.141,0,0,1,.38.333ZM1.538.809A.47.47,0,0,0,1.944.614.957.957,0,0,0,2.084.05a.961.961,0,0,0-.14-.566A.47.47,0,0,0,1.538-.71a.468.468,0,0,0-.4.195A.961.961,0,0,0,.993.05a.957.957,0,0,0,.14.564A.468.468,0,0,0,1.538.809Z" transform="translate(-0.133 2.26)" fill="#15605f"/>
      </g>
      <g id="Grupo_47" data-name="Grupo 47" transform="translate(22.932 59.172)">
        <path id="Caminho_174" data-name="Caminho 174" d="M1.63.809A.467.467,0,0,0,2.036.614.957.957,0,0,0,2.177.05a.961.961,0,0,0-.14-.566A.467.467,0,0,0,1.63-.71a.474.474,0,0,0-.409.2A.954.954,0,0,0,1.08.05a.952.952,0,0,0,.142.564A.475.475,0,0,0,1.63.809ZM1.08-.87A1.126,1.126,0,0,1,1.458-1.2a1.027,1.027,0,0,1,.48-.109.968.968,0,0,1,.788.382A1.51,1.51,0,0,1,3.034.05a1.512,1.512,0,0,1-.308.981.967.967,0,0,1-.788.382,1.04,1.04,0,0,1-.48-.107A1.133,1.133,0,0,1,1.08.969v.376H.25v-3.6h.83Z" transform="translate(-0.25 2.26)" fill="#15605f"/>
      </g>
      <g id="Grupo_48" data-name="Grupo 48" transform="translate(25.987 60.183)">
        <path id="Caminho_175" data-name="Caminho 175" d="M.036-1.626h.83l.7,1.759.593-1.759h.83L1.895,1.214a1.376,1.376,0,0,1-.385.605.905.905,0,0,1-.578.174H.454V1.447h.26a.542.542,0,0,0,.306-.068.436.436,0,0,0,.149-.24l.023-.072Z" transform="translate(-0.036 1.626)" fill="#15605f"/>
      </g>
      <g id="Grupo_49" data-name="Grupo 49" transform="translate(31.109 59.319)">
        <path id="Caminho_176" data-name="Caminho 176" d="M.273-2.168h.892V-.905L2.451-2.168H3.486L1.82-.531,3.656,1.29H2.541L1.165-.072V1.29H.273Z" transform="translate(-0.273 2.168)" fill="#15605f"/>
      </g>
      <g id="Grupo_50" data-name="Grupo 50" transform="translate(34.406 60.183)">
        <path id="Caminho_177" data-name="Caminho 177" d="M.036-1.626h.83l.7,1.759.593-1.759h.83L1.895,1.214a1.376,1.376,0,0,1-.385.605.905.905,0,0,1-.578.174H.454V1.447h.26a.542.542,0,0,0,.306-.068.436.436,0,0,0,.149-.24l.023-.072Z" transform="translate(-0.036 1.626)" fill="#15605f"/>
      </g>
      <g id="Grupo_51" data-name="Grupo 51" transform="translate(37.839 59.173)">
        <path id="Caminho_178" data-name="Caminho 178" d="M.25-2.26h.83v3.6H.25Z" transform="translate(-0.25 2.26)" fill="#15605f"/>
      </g>
      <g id="Grupo_52" data-name="Grupo 52" transform="translate(39.465 59.173)">
        <path id="Caminho_179" data-name="Caminho 179" d="M.25-1.249h.83V1.345H.25Zm0-1.011h.83v.677H.25Z" transform="translate(-0.25 2.26)" fill="#15605f"/>
      </g>
      <g id="Grupo_53" data-name="Grupo 53" transform="translate(40.896 60.12)">
        <path id="Caminho_180" data-name="Caminho 180" d="M2.912-.312v.235H.973a.616.616,0,0,0,.211.439.789.789,0,0,0,.505.145A1.983,1.983,0,0,0,2.225.43,2.785,2.785,0,0,0,2.789.195v.64A3.665,3.665,0,0,1,2.2,1a3.079,3.079,0,0,1-.588.057A1.563,1.563,0,0,1,.517.7a1.3,1.3,0,0,1-.389-1,1.311,1.311,0,0,1,.383-1,1.471,1.471,0,0,1,1.055-.364,1.322,1.322,0,0,1,.979.368,1.335,1.335,0,0,1,.367.985ZM2.059-.589a.529.529,0,0,0-.137-.38.475.475,0,0,0-.361-.145.562.562,0,0,0-.391.136.617.617,0,0,0-.187.389Z" transform="translate(-0.128 1.666)" fill="#15605f"/>
      </g>
      <g id="Grupo_54" data-name="Grupo 54" transform="translate(45.997 59.319)">
        <path id="Caminho_181" data-name="Caminho 181" d="M.273-2.168h.892V-.849H2.481V-2.168h.892V1.29H2.481V-.177H1.165V1.29H.273Z" transform="translate(-0.273 2.168)" fill="#15605f"/>
      </g>
      <g id="Grupo_55" data-name="Grupo 55" transform="translate(49.735 60.12)">
        <path id="Caminho_182" data-name="Caminho 182" d="M1.486-.177a.7.7,0,0,0-.391.089.292.292,0,0,0-.131.26.3.3,0,0,0,.106.246.439.439,0,0,0,.293.089A.523.523,0,0,0,1.756.339a.586.586,0,0,0,.16-.421v-.1ZM2.752-.489V.991H1.916V.606A1.066,1.066,0,0,1,1.54.952a1.1,1.1,0,0,1-.507.107A.921.921,0,0,1,.378.824.8.8,0,0,1,.128.213.75.75,0,0,1,.442-.456,1.78,1.78,0,0,1,1.427-.67h.489V-.735a.308.308,0,0,0-.155-.287.976.976,0,0,0-.483-.092,2.216,2.216,0,0,0-.5.053A1.667,1.667,0,0,0,.356-.9v-.632a4.726,4.726,0,0,1,.534-.1,4.206,4.206,0,0,1,.537-.035,1.5,1.5,0,0,1,1.012.278,1.145,1.145,0,0,1,.312.9Z" transform="translate(-0.128 1.666)" fill="#15605f"/>
      </g>
      <g id="Grupo_56" data-name="Grupo 56" transform="translate(53.131 60.12)">
        <path id="Caminho_183" data-name="Caminho 183" d="M2.859-.588V.991H2.024V-.217q0-.336-.015-.463a.481.481,0,0,0-.053-.189.346.346,0,0,0-.131-.125.391.391,0,0,0-.19-.045.479.479,0,0,0-.407.2.911.911,0,0,0-.148.554V.991H.25V-1.6h.83v.379a1.278,1.278,0,0,1,.4-.333,1,1,0,0,1,.466-.109.842.842,0,0,1,.682.276,1.209,1.209,0,0,1,.234.8Z" transform="translate(-0.25 1.666)" fill="#15605f"/>
      </g>
      <g id="Grupo_57" data-name="Grupo 57" transform="translate(56.313 60.12)">
        <path id="Caminho_184" data-name="Caminho 184" d="M1.486-.177a.7.7,0,0,0-.391.089.292.292,0,0,0-.131.26.3.3,0,0,0,.106.246.439.439,0,0,0,.293.089A.523.523,0,0,0,1.756.339a.586.586,0,0,0,.16-.421v-.1ZM2.752-.489V.991H1.916V.606A1.066,1.066,0,0,1,1.54.952a1.1,1.1,0,0,1-.507.107A.921.921,0,0,1,.378.824.8.8,0,0,1,.128.213.75.75,0,0,1,.442-.456,1.78,1.78,0,0,1,1.427-.67h.489V-.735a.308.308,0,0,0-.155-.287.976.976,0,0,0-.483-.092,2.216,2.216,0,0,0-.5.053A1.667,1.667,0,0,0,.356-.9v-.632a4.726,4.726,0,0,1,.534-.1,4.206,4.206,0,0,1,.537-.035,1.5,1.5,0,0,1,1.012.278,1.145,1.145,0,0,1,.312.9Z" transform="translate(-0.128 1.666)" fill="#15605f"/>
      </g>
    </g>
  </g>
</svg>
