<svg xmlns="http://www.w3.org/2000/svg" xmlns:xlink="http://www.w3.org/1999/xlink" width="18" height="19.161" viewBox="0 0 18 19.161">
  <defs>
    <clipPath id="clip-path">
      <rect id="Ret칙ngulo_206" data-name="Ret칙ngulo 206" width="18" height="19.161" transform="translate(1355 3935)" fill="#c8c8c8" stroke="#707070" stroke-width="1"/>
    </clipPath>
  </defs>
  <g id="Grupo_de_m치scara_39" data-name="Grupo de m치scara 39" transform="translate(-1355 -3935)" clip-path="url(#clip-path)">
    <g id="noun-checked-4370315" transform="translate(1353.963 3935.871)">
      <path id="Caminho_1400" data-name="Caminho 1400" d="M22.866,22.539a8.308,8.308,0,1,1,8.308-8.308,8.315,8.315,0,0,1-8.308,8.308Zm0-15.872a7.564,7.564,0,1,0,7.564,7.564,7.571,7.571,0,0,0-7.564-7.564Z" transform="translate(-12.843 -5.923)" fill="#c8c8c8"/>
      <path id="Caminho_1401" data-name="Caminho 1401" d="M38.637,28.242l-3.286,3.286a.371.371,0,0,1-.525,0l-2.1-2.1a.371.371,0,1,1,.525-.525l1.579,1.579a.371.371,0,0,0,.525,0l2.761-2.762a.371.371,0,0,1,.525.525Z" transform="translate(-25.656 -21.312)" fill="#c8c8c8"/>
      <g id="Grupo_898" data-name="Grupo 898" transform="translate(0.006 18.778)">
        <path id="Caminho_1402" data-name="Caminho 1402" d="M.154-.363.133-.356l-.022,0a.08.08,0,0,1-.057-.02A.072.072,0,0,1,.033-.427.071.071,0,0,1,.053-.481.079.079,0,0,1,.111-.5l.022,0L.154-.49v.03a.085.085,0,0,0-.02-.01.062.062,0,0,0-.021,0,.04.04,0,0,0-.031.013.05.05,0,0,0-.011.035.05.05,0,0,0,.011.035A.041.041,0,0,0,.113-.38a.071.071,0,0,0,.021,0,.074.074,0,0,0,.02-.011Z" transform="translate(-0.033 0.501)" fill="#c8c8c8"/>
      </g>
      <g id="Grupo_899" data-name="Grupo 899" transform="translate(0.156 18.813)">
        <path id="Caminho_1403" data-name="Caminho 1403" d="M.136-.346l-.009,0H.118A.025.025,0,0,0,.1-.341a.038.038,0,0,0-.007.024v.049H.056V-.375H.091v.017A.039.039,0,0,1,.105-.373.041.041,0,0,1,.126-.378h.01Z" transform="translate(-0.056 0.378)" fill="#c8c8c8"/>
      </g>
      <g id="Grupo_900" data-name="Grupo 900" transform="translate(0.245 18.813)">
        <path id="Caminho_1404" data-name="Caminho 1404" d="M.144-.322v.01H.064a.028.028,0,0,0,.009.018.033.033,0,0,0,.021.006.088.088,0,0,0,.022,0A.111.111,0,0,0,.139-.3v.026a.108.108,0,0,1-.024.007l-.024,0A.065.065,0,0,1,.045-.28.054.054,0,0,1,.029-.322.054.054,0,0,1,.045-.363.061.061,0,0,1,.088-.378a.054.054,0,0,1,.04.015.055.055,0,0,1,.015.041ZM.109-.334A.02.02,0,0,0,.1-.349.019.019,0,0,0,.088-.355a.024.024,0,0,0-.016.006.026.026,0,0,0-.008.016Z" transform="translate(-0.029 0.378)" fill="#c8c8c8"/>
      </g>
      <g id="Grupo_901" data-name="Grupo 901" transform="translate(0.378 18.813)">
        <path id="Caminho_1405" data-name="Caminho 1405" d="M.085-.316a.029.029,0,0,0-.016,0A.012.012,0,0,0,.064-.3a.013.013,0,0,0,0,.01.02.02,0,0,0,.012,0A.022.022,0,0,0,.1-.295.023.023,0,0,0,.1-.312v0ZM.137-.329v.061H.1V-.284A.042.042,0,0,1,.087-.27a.044.044,0,0,1-.021,0,.039.039,0,0,1-.027-.01A.034.034,0,0,1,.029-.3.032.032,0,0,1,.042-.328.073.073,0,0,1,.083-.337H.1v0A.012.012,0,0,0,.1-.351a.039.039,0,0,0-.02,0l-.021,0L.038-.346V-.372l.022,0,.022,0a.062.062,0,0,1,.042.012.047.047,0,0,1,.013.037Z" transform="translate(-0.029 0.378)" fill="#c8c8c8"/>
      </g>
      <g id="Grupo_902" data-name="Grupo 902" transform="translate(0.504 18.785)">
        <path id="Caminho_1406" data-name="Caminho 1406" d="M.061-.474v.031H.1v.024H.061v.046a.014.014,0,0,0,0,.01.023.023,0,0,0,.012,0H.093v.025H.064A.04.04,0,0,1,.035-.345.04.04,0,0,1,.026-.373V-.419H.01V-.443H.026V-.474Z" transform="translate(-0.01 0.474)" fill="#c8c8c8"/>
      </g>
      <g id="Grupo_903" data-name="Grupo 903" transform="translate(0.603 18.813)">
        <path id="Caminho_1407" data-name="Caminho 1407" d="M.144-.322v.01H.064a.028.028,0,0,0,.009.018.033.033,0,0,0,.021.006.088.088,0,0,0,.022,0A.111.111,0,0,0,.139-.3v.026a.108.108,0,0,1-.024.007l-.024,0A.065.065,0,0,1,.045-.28.054.054,0,0,1,.029-.322.054.054,0,0,1,.045-.363.061.061,0,0,1,.088-.378a.054.054,0,0,1,.04.015.055.055,0,0,1,.015.041ZM.109-.334A.02.02,0,0,0,.1-.349.019.019,0,0,0,.088-.355a.024.024,0,0,0-.016.006.026.026,0,0,0-.008.016Z" transform="translate(-0.029 0.378)" fill="#c8c8c8"/>
      </g>
      <g id="Grupo_904" data-name="Grupo 904" transform="translate(0.737 18.774)">
        <path id="Caminho_1408" data-name="Caminho 1408" d="M.111-.455V-.513H.146v.149H.111V-.38A.048.048,0,0,1,.1-.366a.042.042,0,0,1-.02,0A.041.041,0,0,1,.043-.377.064.064,0,0,1,.031-.418a.063.063,0,0,1,.012-.04A.041.041,0,0,1,.076-.474a.041.041,0,0,1,.019,0,.05.05,0,0,1,.016.014ZM.088-.386A.019.019,0,0,0,.105-.394.04.04,0,0,0,.111-.418.037.037,0,0,0,.105-.441.019.019,0,0,0,.088-.449a.02.02,0,0,0-.017.008.039.039,0,0,0-.006.023.043.043,0,0,0,.006.024A.02.02,0,0,0,.088-.386Z" transform="translate(-0.031 0.513)" fill="#c8c8c8"/>
      </g>
      <g id="Grupo_905" data-name="Grupo 905" transform="translate(0.952 18.774)">
        <path id="Caminho_1409" data-name="Caminho 1409" d="M.113-.386A.019.019,0,0,0,.13-.394.04.04,0,0,0,.136-.418.037.037,0,0,0,.13-.441.019.019,0,0,0,.113-.449.02.02,0,0,0,.1-.441a.039.039,0,0,0-.006.023A.043.043,0,0,0,.1-.394.02.02,0,0,0,.113-.386ZM.091-.455A.046.046,0,0,1,.106-.469a.044.044,0,0,1,.02,0,.041.041,0,0,1,.032.016.062.062,0,0,1,.013.04.062.062,0,0,1-.013.041.04.04,0,0,1-.032.016.044.044,0,0,1-.02,0A.043.043,0,0,1,.091-.38v.016H.056V-.513H.091Z" transform="translate(-0.056 0.513)" fill="#c8c8c8"/>
      </g>
      <g id="Grupo_906" data-name="Grupo 906" transform="translate(1.079 18.816)">
        <path id="Caminho_1410" data-name="Caminho 1410" d="M.008-.368H.042L.071-.3.1-.368H.13L.084-.251a.06.06,0,0,1-.016.025.038.038,0,0,1-.024.007H.025V-.242H.036a.023.023,0,0,0,.013,0,.02.02,0,0,0,.006-.01v0Z" transform="translate(-0.008 0.368)" fill="#c8c8c8"/>
      </g>
      <g id="Grupo_907" data-name="Grupo 907" transform="translate(1.29 18.78)">
        <path id="Caminho_1411" data-name="Caminho 1411" d="M.062-.491H.123a.064.064,0,0,1,.042.012.042.042,0,0,1,.015.034A.043.043,0,0,1,.165-.41.066.066,0,0,1,.123-.4H.1v.05H.062ZM.1-.465v.04h.02A.024.024,0,0,0,.135-.43.019.019,0,0,0,.141-.445.018.018,0,0,0,.135-.46.024.024,0,0,0,.119-.465Z" transform="translate(-0.062 0.491)" fill="#c8c8c8"/>
      </g>
      <g id="Grupo_908" data-name="Grupo 908" transform="translate(1.424 18.813)">
        <path id="Caminho_1412" data-name="Caminho 1412" d="M.088-.353A.02.02,0,0,0,.07-.345a.039.039,0,0,0-.006.023A.043.043,0,0,0,.07-.3.02.02,0,0,0,.088-.29.021.021,0,0,0,.105-.3.04.04,0,0,0,.111-.322.037.037,0,0,0,.105-.345.02.02,0,0,0,.088-.353Zm0-.025a.058.058,0,0,1,.043.015.054.054,0,0,1,.016.041A.056.056,0,0,1,.131-.28a.059.059,0,0,1-.043.015A.06.06,0,0,1,.045-.28.055.055,0,0,1,.029-.322.053.053,0,0,1,.045-.363.059.059,0,0,1,.088-.378Z" transform="translate(-0.029 0.378)" fill="#c8c8c8"/>
      </g>
      <g id="Grupo_909" data-name="Grupo 909" transform="translate(1.565 18.816)">
        <path id="Caminho_1413" data-name="Caminho 1413" d="M.052-.3V-.368H.087v.05c0,.009,0,.015,0,.019a.015.015,0,0,0,0,.008L.1-.286l.008,0A.02.02,0,0,0,.12-.293.038.038,0,0,0,.126-.316V-.368H.16v.107H.126V-.277a.053.053,0,0,1-.017.014.041.041,0,0,1-.019,0A.036.036,0,0,1,.062-.27.052.052,0,0,1,.052-.3Z" transform="translate(-0.052 0.368)" fill="#c8c8c8"/>
      </g>
      <g id="Grupo_910" data-name="Grupo 910" transform="translate(1.706 18.813)">
        <path id="Caminho_1414" data-name="Caminho 1414" d="M.091-.284v.057H.056V-.375H.091v.016A.046.046,0,0,1,.106-.373a.044.044,0,0,1,.02,0,.041.041,0,0,1,.032.016.062.062,0,0,1,.013.04.062.062,0,0,1-.013.041.04.04,0,0,1-.032.016.044.044,0,0,1-.02,0A.043.043,0,0,1,.091-.284ZM.113-.353A.02.02,0,0,0,.1-.345a.039.039,0,0,0-.006.023A.043.043,0,0,0,.1-.3.02.02,0,0,0,.113-.29.019.019,0,0,0,.13-.3.04.04,0,0,0,.136-.322.037.037,0,0,0,.13-.345.019.019,0,0,0,.113-.353Z" transform="translate(-0.056 0.378)" fill="#c8c8c8"/>
      </g>
      <g id="Grupo_911" data-name="Grupo 911" transform="translate(1.84 18.813)">
        <path id="Caminho_1415" data-name="Caminho 1415" d="M.125-.372v.026L.1-.353l-.02,0-.015,0a.007.007,0,0,0,0,.007.007.007,0,0,0,0,.007l.013,0H.087a.071.071,0,0,1,.035.011A.029.029,0,0,1,.132-.3a.029.029,0,0,1-.013.026.067.067,0,0,1-.037.008l-.022,0L.036-.272V-.3L.057-.29l.022,0a.031.031,0,0,0,.015,0A.009.009,0,0,0,.1-.3a.008.008,0,0,0,0-.007l-.013,0H.076A.063.063,0,0,1,.044-.321.029.029,0,0,1,.035-.344.028.028,0,0,1,.046-.369.062.062,0,0,1,.082-.378l.02,0,.023,0Z" transform="translate(-0.035 0.378)" fill="#c8c8c8"/>
      </g>
      <g id="Grupo_912" data-name="Grupo 912" transform="translate(0 18.97)">
        <path id="Caminho_1416" data-name="Caminho 1416" d="M.1-.513V-.49H.078a.017.017,0,0,0-.011,0,.012.012,0,0,0,0,.009v.008h.03v.024H.064v.083H.03V-.447H.013V-.471H.03V-.479A.032.032,0,0,1,.04-.5.047.047,0,0,1,.071-.513Z" transform="translate(-0.013 0.513)" fill="#c8c8c8"/>
      </g>
      <g id="Grupo_913" data-name="Grupo 913" transform="translate(0.098 19.009)">
        <path id="Caminho_1417" data-name="Caminho 1417" d="M.136-.346l-.009,0H.118A.025.025,0,0,0,.1-.341a.038.038,0,0,0-.007.024v.049H.056V-.375H.091v.017A.039.039,0,0,1,.105-.373.041.041,0,0,1,.126-.378h.01Z" transform="translate(-0.056 0.378)" fill="#c8c8c8"/>
      </g>
      <g id="Grupo_914" data-name="Grupo 914" transform="translate(0.186 19.009)">
        <path id="Caminho_1418" data-name="Caminho 1418" d="M.088-.353A.02.02,0,0,0,.07-.345a.039.039,0,0,0-.006.023A.043.043,0,0,0,.07-.3.02.02,0,0,0,.088-.29.021.021,0,0,0,.105-.3.04.04,0,0,0,.111-.322.037.037,0,0,0,.105-.345.02.02,0,0,0,.088-.353Zm0-.025a.058.058,0,0,1,.043.015.054.054,0,0,1,.016.041A.056.056,0,0,1,.131-.28a.059.059,0,0,1-.043.015A.06.06,0,0,1,.045-.28.055.055,0,0,1,.029-.322.053.053,0,0,1,.045-.363.059.059,0,0,1,.088-.378Z" transform="translate(-0.029 0.378)" fill="#c8c8c8"/>
      </g>
      <g id="Grupo_915" data-name="Grupo 915" transform="translate(0.329 19.009)">
        <path id="Caminho_1419" data-name="Caminho 1419" d="M.156-.358A.043.043,0,0,1,.171-.372a.038.038,0,0,1,.02-.006.033.033,0,0,1,.027.012.047.047,0,0,1,.01.032v.065H.194V-.33a.031.031,0,0,0,0-.017A.012.012,0,0,0,.18-.352a.018.018,0,0,0-.016.008.043.043,0,0,0-.005.023v.053H.125V-.324a.049.049,0,0,0,0-.023A.011.011,0,0,0,.111-.352.017.017,0,0,0,.1-.344a.043.043,0,0,0-.005.023v.053H.056V-.375H.091v.016A.042.042,0,0,1,.1-.373a.039.039,0,0,1,.018,0,.035.035,0,0,1,.02.006.034.034,0,0,1,.013.015Z" transform="translate(-0.056 0.378)" fill="#c8c8c8"/>
      </g>
      <g id="Grupo_916" data-name="Grupo 916" transform="translate(0.588 18.981)">
        <path id="Caminho_1420" data-name="Caminho 1420" d="M.061-.474v.031H.1v.024H.061v.046a.014.014,0,0,0,0,.01.023.023,0,0,0,.012,0H.093v.025H.064A.04.04,0,0,1,.035-.345.04.04,0,0,1,.026-.373V-.419H.01V-.443H.026V-.474Z" transform="translate(-0.01 0.474)" fill="#c8c8c8"/>
      </g>
      <g id="Grupo_917" data-name="Grupo 917" transform="translate(0.695 18.97)">
        <path id="Caminho_1421" data-name="Caminho 1421" d="M.164-.429v.065H.129v-.05c0-.009,0-.016,0-.019a.017.017,0,0,0,0-.008A.011.011,0,0,0,.121-.446l-.007,0A.02.02,0,0,0,.1-.439a.041.041,0,0,0-.006.023v.053H.056V-.513H.091v.058A.047.047,0,0,1,.107-.469a.042.042,0,0,1,.019,0,.034.034,0,0,1,.028.012.047.047,0,0,1,.01.032Z" transform="translate(-0.056 0.513)" fill="#c8c8c8"/>
      </g>
      <g id="Grupo_918" data-name="Grupo 918" transform="translate(0.826 19.009)">
        <path id="Caminho_1422" data-name="Caminho 1422" d="M.144-.322v.01H.064a.028.028,0,0,0,.009.018.033.033,0,0,0,.021.006.088.088,0,0,0,.022,0A.111.111,0,0,0,.139-.3v.026a.108.108,0,0,1-.024.007l-.024,0A.065.065,0,0,1,.045-.28.054.054,0,0,1,.029-.322.054.054,0,0,1,.045-.363.061.061,0,0,1,.088-.378a.054.054,0,0,1,.04.015.055.055,0,0,1,.015.041ZM.109-.334A.02.02,0,0,0,.1-.349.019.019,0,0,0,.088-.355a.024.024,0,0,0-.016.006.026.026,0,0,0-.008.016Z" transform="translate(-0.029 0.378)" fill="#c8c8c8"/>
      </g>
      <g id="Grupo_919" data-name="Grupo 919" transform="translate(1.037 18.976)">
        <path id="Caminho_1423" data-name="Caminho 1423" d="M.062-.491H.1l.051.1v-.1H.19v.143H.148L.1-.447v.1H.062Z" transform="translate(-0.062 0.491)" fill="#c8c8c8"/>
      </g>
      <g id="Grupo_920" data-name="Grupo 920" transform="translate(1.191 19.009)">
        <path id="Caminho_1424" data-name="Caminho 1424" d="M.088-.353A.02.02,0,0,0,.07-.345a.039.039,0,0,0-.006.023A.043.043,0,0,0,.07-.3.02.02,0,0,0,.088-.29.021.021,0,0,0,.105-.3.04.04,0,0,0,.111-.322.037.037,0,0,0,.105-.345.02.02,0,0,0,.088-.353Zm0-.025a.058.058,0,0,1,.043.015.054.054,0,0,1,.016.041A.056.056,0,0,1,.131-.28a.059.059,0,0,1-.043.015A.06.06,0,0,1,.045-.28.055.055,0,0,1,.029-.322.053.053,0,0,1,.045-.363.059.059,0,0,1,.088-.378Z" transform="translate(-0.029 0.378)" fill="#c8c8c8"/>
      </g>
      <g id="Grupo_921" data-name="Grupo 921" transform="translate(1.332 19.012)">
        <path id="Caminho_1425" data-name="Caminho 1425" d="M.052-.3V-.368H.087v.05c0,.009,0,.015,0,.019a.015.015,0,0,0,0,.008L.1-.286l.008,0A.02.02,0,0,0,.12-.293.038.038,0,0,0,.126-.316V-.368H.16v.107H.126V-.277a.053.053,0,0,1-.017.014.041.041,0,0,1-.019,0A.036.036,0,0,1,.062-.27.052.052,0,0,1,.052-.3Z" transform="translate(-0.052 0.368)" fill="#c8c8c8"/>
      </g>
      <g id="Grupo_922" data-name="Grupo 922" transform="translate(1.473 19.009)">
        <path id="Caminho_1426" data-name="Caminho 1426" d="M.164-.334v.065H.129v-.05c0-.009,0-.016,0-.019a.017.017,0,0,0,0-.008A.011.011,0,0,0,.121-.35l-.007,0A.02.02,0,0,0,.1-.344a.041.041,0,0,0-.006.023v.053H.056V-.375H.091v.016A.047.047,0,0,1,.107-.373a.042.042,0,0,1,.019,0,.034.034,0,0,1,.028.012.047.047,0,0,1,.01.032Z" transform="translate(-0.056 0.378)" fill="#c8c8c8"/>
      </g>
      <g id="Grupo_923" data-name="Grupo 923" transform="translate(1.682 18.976)">
        <path id="Caminho_1427" data-name="Caminho 1427" d="M.062-.491H.123a.064.064,0,0,1,.042.012.042.042,0,0,1,.015.034A.043.043,0,0,1,.165-.41.066.066,0,0,1,.123-.4H.1v.05H.062ZM.1-.465v.04h.02A.024.024,0,0,0,.135-.43.019.019,0,0,0,.141-.445.018.018,0,0,0,.135-.46.024.024,0,0,0,.119-.465Z" transform="translate(-0.062 0.491)" fill="#c8c8c8"/>
      </g>
      <g id="Grupo_924" data-name="Grupo 924" transform="translate(1.824 19.009)">
        <path id="Caminho_1428" data-name="Caminho 1428" d="M.136-.346l-.009,0H.118A.025.025,0,0,0,.1-.341a.038.038,0,0,0-.007.024v.049H.056V-.375H.091v.017A.039.039,0,0,1,.105-.373.041.041,0,0,1,.126-.378h.01Z" transform="translate(-0.056 0.378)" fill="#c8c8c8"/>
      </g>
      <g id="Grupo_925" data-name="Grupo 925" transform="translate(1.913 19.009)">
        <path id="Caminho_1429" data-name="Caminho 1429" d="M.088-.353A.02.02,0,0,0,.07-.345a.039.039,0,0,0-.006.023A.043.043,0,0,0,.07-.3.02.02,0,0,0,.088-.29.021.021,0,0,0,.105-.3.04.04,0,0,0,.111-.322.037.037,0,0,0,.105-.345.02.02,0,0,0,.088-.353Zm0-.025a.058.058,0,0,1,.043.015.054.054,0,0,1,.016.041A.056.056,0,0,1,.131-.28a.059.059,0,0,1-.043.015A.06.06,0,0,1,.045-.28.055.055,0,0,1,.029-.322.053.053,0,0,1,.045-.363.059.059,0,0,1,.088-.378Z" transform="translate(-0.029 0.378)" fill="#c8c8c8"/>
      </g>
      <g id="Grupo_926" data-name="Grupo 926" transform="translate(2.032 18.97)">
        <path id="Caminho_1430" data-name="Caminho 1430" d="M0-.471H.035v.105a.046.046,0,0,1-.011.032.037.037,0,0,1-.03.012H-.023V-.344h.006A.016.016,0,0,0,0-.349.026.026,0,0,0,0-.366ZM0-.513H.035v.028H0Z" transform="translate(0.023 0.513)" fill="#c8c8c8"/>
      </g>
      <g id="Grupo_927" data-name="Grupo 927" transform="translate(2.114 19.009)">
        <path id="Caminho_1431" data-name="Caminho 1431" d="M.144-.322v.01H.064a.028.028,0,0,0,.009.018.033.033,0,0,0,.021.006.088.088,0,0,0,.022,0A.111.111,0,0,0,.139-.3v.026a.108.108,0,0,1-.024.007l-.024,0A.065.065,0,0,1,.045-.28.054.054,0,0,1,.029-.322.054.054,0,0,1,.045-.363.061.061,0,0,1,.088-.378a.054.054,0,0,1,.04.015.055.055,0,0,1,.015.041ZM.109-.334A.02.02,0,0,0,.1-.349.019.019,0,0,0,.088-.355a.024.024,0,0,0-.016.006.026.026,0,0,0-.008.016Z" transform="translate(-0.029 0.378)" fill="#c8c8c8"/>
      </g>
      <g id="Grupo_928" data-name="Grupo 928" transform="translate(2.247 19.009)">
        <path id="Caminho_1432" data-name="Caminho 1432" d="M.123-.372v.027L.109-.351l-.015,0a.029.029,0,0,0-.022.008.032.032,0,0,0-.008.023A.033.033,0,0,0,.073-.3.029.029,0,0,0,.095-.29l.015,0A.039.039,0,0,0,.123-.3v.028l-.016,0-.017,0A.065.065,0,0,1,.045-.28.054.054,0,0,1,.029-.322.052.052,0,0,1,.045-.363.064.064,0,0,1,.09-.378l.017,0,.016,0Z" transform="translate(-0.029 0.378)" fill="#c8c8c8"/>
      </g>
      <g id="Grupo_929" data-name="Grupo 929" transform="translate(2.358 18.981)">
        <path id="Caminho_1433" data-name="Caminho 1433" d="M.061-.474v.031H.1v.024H.061v.046a.014.014,0,0,0,0,.01.023.023,0,0,0,.012,0H.093v.025H.064A.04.04,0,0,1,.035-.345.04.04,0,0,1,.026-.373V-.419H.01V-.443H.026V-.474Z" transform="translate(-0.01 0.474)" fill="#c8c8c8"/>
      </g>
    </g>
  </g>
</svg>
