<svg xmlns="http://www.w3.org/2000/svg" xmlns:xlink="http://www.w3.org/1999/xlink" width="46.513" height="46.513" viewBox="0 0 46.513 46.513">
  <defs>
    <clipPath id="clip-path">
      <rect id="Ret칙ngulo_62" data-name="Ret칙ngulo 62" width="46.513" height="46.513" transform="translate(1461 2332)" fill="#15605f" stroke="#15605f" stroke-width="1"/>
    </clipPath>
  </defs>
  <g id="Grupo_de_m치scara_8" data-name="Grupo de m치scara 8" transform="translate(-1461 -2332)" clip-path="url(#clip-path)">
    <g id="noun-surgery-3382125_1_" data-name="noun-surgery-3382125 (1)" transform="translate(1463.454 2333.193)">
      <path id="Caminho_305" data-name="Caminho 305" d="M27.1,10.259a1.107,1.107,0,1,0-1.107-1.107A1.107,1.107,0,0,0,27.1,10.259Z" transform="translate(-0.907 0.074)" fill="#15605f"/>
      <path id="Caminho_306" data-name="Caminho 306" d="M31.431,10.259a1.107,1.107,0,1,0-1.107-1.107,1.107,1.107,0,0,0,1.107,1.107Z" transform="translate(-0.072 0.074)" fill="#15605f"/>
      <path id="Caminho_307" data-name="Caminho 307" d="M14.092,25.992H11.877a.738.738,0,0,0-.738.738v8.857a2.214,2.214,0,1,0,4.428,0V31.274a5.473,5.473,0,0,0-.681-4.681l-.182-.272h0a.738.738,0,0,0-.614-.329Zm.038,4.933a.738.738,0,0,0-.038.233v4.428a.738.738,0,0,1-1.476,0V27.468H13.7a4.007,4.007,0,0,1,.434,3.457Z" transform="translate(-3.768 3.531)" fill="#15605f"/>
      <path id="Caminho_308" data-name="Caminho 308" d="M16.09,35.587a2.213,2.213,0,0,0,3.69,1.648,2.214,2.214,0,1,0,2.032-3.792l-1.254-3.761.66-1.981a.738.738,0,0,0,.038-.233V25.992H18.3v1.476a.738.738,0,0,0,.038.233L19,29.682l-1.254,3.761a2.219,2.219,0,0,0-1.659,2.144Zm2.214.738a.738.738,0,1,1,.738-.738A.738.738,0,0,1,18.3,36.325Zm2.952,0a.738.738,0,1,1,.738-.738A.738.738,0,0,1,21.257,36.325ZM20.3,33.588a2.223,2.223,0,0,0-.524.35,2.222,2.222,0,0,0-.524-.35l.524-1.572Z" transform="translate(-2.814 3.531)" fill="#15605f"/>
      <path id="Caminho_309" data-name="Caminho 309" d="M23.732,30.623a.738.738,0,0,0-.216.522v5.9a.738.738,0,0,0,.738.738h2.952a.738.738,0,0,0,.738-.738V35.574H26.468v.738H24.992V31.451l.738-.738.954.954,1.044-1.044-1.26-1.26V27.455a.738.738,0,0,0-.408-.66l-1.476-.738-.66,1.32,1.068.534v1.452Z" transform="translate(-1.383 3.544)" fill="#15605f"/>
      <path id="Caminho_310" data-name="Caminho 310" d="M42.662,23.548l-4.589-.706h0a.733.733,0,0,1-.625-.729v-2.5c.127-.107.251-.218.37-.335a6.056,6.056,0,0,0,1.844-4.335V13.251l1.478-2.463a5.169,5.169,0,0,0,.736-2.658,6.9,6.9,0,0,0-6.892-6.892H31.056a6.9,6.9,0,0,0-3.276.827l.7,1.3a5.425,5.425,0,0,1,2.573-.649h3.93A5.422,5.422,0,0,1,40.4,8.13a3.693,3.693,0,0,1-.526,1.9l-.212.354v-.288a3.683,3.683,0,0,0-1.308-2.815l1.092-1.092L38.4,5.144,37,6.55A3.67,3.67,0,0,0,35.972,6.4H35.69l.942-1.884-1.32-.66L34.04,6.4H32.12l-.6-2.393-1.432.358L30.6,6.4h-.531a3.669,3.669,0,0,0-1.025.146L27.637,5.144,26.594,6.188l1.092,1.092a3.683,3.683,0,0,0-1.308,2.815v.288l-.212-.354a3.693,3.693,0,0,1-.526-1.9,5.406,5.406,0,0,1,1.949-4.161l-.946-1.134A6.879,6.879,0,0,0,24.163,8.13a5.171,5.171,0,0,0,.736,2.658l1.478,2.463v1.693h0a6.055,6.055,0,0,0,1.844,4.335c.119.117.243.228.37.335v2.5a.733.733,0,0,1-.625.729l-4.589.706A5.137,5.137,0,0,0,20,25.589l1.188.876h0a3.668,3.668,0,0,1,2.41-1.458l4.169-.641a11.789,11.789,0,0,0,10.5,0l4.169.641a3.67,3.67,0,0,1,3.129,3.647V42.264l-4.428-4.428V31.5H39.662v4.861l-3.168-3.168a.738.738,0,0,0-.522-.216H33.758V30.761a2.955,2.955,0,0,0-2.952-2.952H11.616a2.955,2.955,0,0,0-2.952,2.952V42.57a2.955,2.955,0,0,0,2.952,2.952h19.19a2.955,2.955,0,0,0,2.952-2.952V41.093H32.282V42.57a1.478,1.478,0,0,1-1.476,1.476H11.616A1.478,1.478,0,0,1,10.14,42.57V30.761a1.478,1.478,0,0,1,1.476-1.476h19.19a1.478,1.478,0,0,1,1.476,1.476v2.214h-.738a.738.738,0,0,0-.738.738v5.166a.738.738,0,0,0,.738.738h3.273l1.958,3.263.712,2.137,1.4-.467-.594-1.782,2.846-2.846,4.645,4.645a.738.738,0,0,0,1.26-.522V28.655a5.139,5.139,0,0,0-4.381-5.106ZM28.443,17.156c1.265.1,2.534.154,3.791.17l.019-1.476c-1.441-.019-2.9-.093-4.346-.219h0a4.363,4.363,0,0,1-.054-.687V13.866a50.326,50.326,0,0,0,10.333,0v1.078h0a4.364,4.364,0,0,1-.054.687c-1.407.123-2.827.2-4.229.217l.022,1.476c1.218-.018,2.447-.075,3.671-.169a3.528,3.528,0,0,0-.337.513h0a4.952,4.952,0,0,1-.459.527,5.089,5.089,0,0,1-1.13.848,5.755,5.755,0,0,1-2.94.643h0a5.093,5.093,0,0,1-4.289-2.531ZM35.972,7.88a2.217,2.217,0,0,1,2.214,2.214v2.287l-.119.013a48.816,48.816,0,0,1-10.1,0l-.119-.013V10.094A2.217,2.217,0,0,1,30.068,7.88Zm-6.41,15.645a2.208,2.208,0,0,0,.506-1.412V20.552a6.7,6.7,0,0,0,2.624.61,8.178,8.178,0,0,0,1.666-.1c.176-.031,1.615-.321,1.615-.506v1.561a2.208,2.208,0,0,0,.506,1.412,10.325,10.325,0,0,1-6.916,0ZM37.6,41.379,35.867,38.5a.738.738,0,0,0-.633-.358H32.282V34.45h3.385l4.428,4.428Z" transform="translate(-4.245 -1.237)" fill="#15605f"/>
      <path id="Caminho_311" data-name="Caminho 311" d="M29.992,23.718l.02.738a11.119,11.119,0,0,0,4.909-1.518l-.755-1.269h0a9.792,9.792,0,0,1-4.2,1.311Z" transform="translate(-0.14 2.699)" fill="#15605f"/>
      <g id="Grupo_174" data-name="Grupo 174" transform="translate(0.013 46.802)">
        <path id="Caminho_312" data-name="Caminho 312" d="M.3.037a.24.24,0,0,1-.05.018A.212.212,0,0,1,.2.062.189.189,0,0,1,.068.016.17.17,0,0,1,.019-.112.168.168,0,0,1,.068-.24.187.187,0,0,1,.2-.287a.212.212,0,0,1,.053.007A.26.26,0,0,1,.3-.262v.07A.2.2,0,0,0,.257-.216.147.147,0,0,0,.209-.224a.1.1,0,0,0-.074.03.117.117,0,0,0-.026.082A.119.119,0,0,0,.135-.03.1.1,0,0,0,.209,0,.166.166,0,0,0,.257-.008.174.174,0,0,0,.3-.033Z" transform="translate(-0.019 0.287)" fill="#15605f"/>
      </g>
      <g id="Grupo_175" data-name="Grupo 175" transform="translate(0.367 46.886)">
        <path id="Caminho_313" data-name="Caminho 313" d="M.221-.141.2-.149l-.021,0A.06.06,0,0,0,.13-.131a.089.089,0,0,0-.016.057V.042H.032V-.21H.114v.041A.092.092,0,0,1,.148-.2.1.1,0,0,1,.2-.217H.219Z" transform="translate(-0.032 0.217)" fill="#15605f"/>
      </g>
      <g id="Grupo_176" data-name="Grupo 176" transform="translate(0.577 46.886)">
        <path id="Caminho_314" data-name="Caminho 314" d="M.287-.085v.022H.1a.065.065,0,0,0,.021.043.077.077,0,0,0,.049.013A.208.208,0,0,0,.221-.012.262.262,0,0,0,.275-.036V.026A.254.254,0,0,1,.218.043.339.339,0,0,1,.162.048.153.153,0,0,1,.055.014a.128.128,0,0,1-.038-.1.127.127,0,0,1,.037-.1.144.144,0,0,1,.1-.036.128.128,0,0,1,.095.036.13.13,0,0,1,.036.1ZM.205-.112A.046.046,0,0,0,.191-.148.045.045,0,0,0,.156-.163a.055.055,0,0,0-.038.013A.061.061,0,0,0,.1-.112Z" transform="translate(-0.017 0.217)" fill="#15605f"/>
      </g>
      <g id="Grupo_177" data-name="Grupo 177" transform="translate(0.889 46.886)">
        <path id="Caminho_315" data-name="Caminho 315" d="M.148-.072A.067.067,0,0,0,.11-.062.028.028,0,0,0,.1-.037a.031.031,0,0,0,.009.024.047.047,0,0,0,.029.008A.052.052,0,0,0,.175-.022.055.055,0,0,0,.191-.062V-.072ZM.272-.1V.042H.191V0A.1.1,0,0,1,.154.038.1.1,0,0,1,.1.048.092.092,0,0,1,.04.026.08.08,0,0,1,.017-.033.075.075,0,0,1,.047-.1a.173.173,0,0,1,.1-.021H.191V-.126A.028.028,0,0,0,.175-.153.091.091,0,0,0,.129-.163.223.223,0,0,0,.08-.157a.2.2,0,0,0-.041.014V-.2A.364.364,0,0,1,.09-.213a.352.352,0,0,1,.053,0,.145.145,0,0,1,.1.028A.111.111,0,0,1,.272-.1Z" transform="translate(-0.017 0.217)" fill="#15605f"/>
      </g>
      <g id="Grupo_178" data-name="Grupo 178" transform="translate(1.187 46.82)">
        <path id="Caminho_316" data-name="Caminho 316" d="M.125-.272V-.2H.208v.057H.125v.108a.032.032,0,0,0,.007.024.055.055,0,0,0,.029.005H.2V.052H.133A.1.1,0,0,1,.065.033a.093.093,0,0,1-.02-.067V-.143H.006V-.2h.04V-.272Z" transform="translate(-0.006 0.272)" fill="#15605f"/>
      </g>
      <g id="Grupo_179" data-name="Grupo 179" transform="translate(1.421 46.886)">
        <path id="Caminho_317" data-name="Caminho 317" d="M.287-.085v.022H.1a.065.065,0,0,0,.021.043.077.077,0,0,0,.049.013A.208.208,0,0,0,.221-.012.262.262,0,0,0,.275-.036V.026A.254.254,0,0,1,.218.043.339.339,0,0,1,.162.048.153.153,0,0,1,.055.014a.128.128,0,0,1-.038-.1.127.127,0,0,1,.037-.1.144.144,0,0,1,.1-.036.128.128,0,0,1,.095.036.13.13,0,0,1,.036.1ZM.205-.112A.046.046,0,0,0,.191-.148.045.045,0,0,0,.156-.163a.055.055,0,0,0-.038.013A.061.061,0,0,0,.1-.112Z" transform="translate(-0.017 0.217)" fill="#15605f"/>
      </g>
      <g id="Grupo_180" data-name="Grupo 180" transform="translate(1.735 46.794)">
        <path id="Caminho_318" data-name="Caminho 318" d="M.207-.158V-.294h.08V.057H.207V.02A.114.114,0,0,1,.171.053.1.1,0,0,1,.124.063.1.1,0,0,1,.047.026a.15.15,0,0,1-.029-.1A.149.149,0,0,1,.047-.165.1.1,0,0,1,.124-.2a.1.1,0,0,1,.045.011.118.118,0,0,1,.038.033ZM.153.005a.045.045,0,0,0,.04-.018A.1.1,0,0,0,.207-.07.087.087,0,0,0,.193-.124a.045.045,0,0,0-.04-.02.046.046,0,0,0-.04.02A.092.092,0,0,0,.1-.07a.1.1,0,0,0,.013.057A.047.047,0,0,0,.153.005Z" transform="translate(-0.018 0.294)" fill="#15605f"/>
      </g>
      <g id="Grupo_181" data-name="Grupo 181" transform="translate(2.243 46.794)">
        <path id="Caminho_319" data-name="Caminho 319" d="M.166.005a.045.045,0,0,0,.04-.018A.1.1,0,0,0,.221-.07.087.087,0,0,0,.206-.124a.045.045,0,0,0-.04-.02.046.046,0,0,0-.04.02A.092.092,0,0,0,.114-.07a.1.1,0,0,0,.013.057A.047.047,0,0,0,.166.005ZM.114-.158A.108.108,0,0,1,.149-.191.1.1,0,0,1,.2-.2a.1.1,0,0,1,.076.037A.146.146,0,0,1,.3-.07a.147.147,0,0,1-.03.1A.1.1,0,0,1,.2.063.1.1,0,0,1,.149.053.1.1,0,0,1,.114.02V.057H.032V-.294H.114Z" transform="translate(-0.032 0.294)" fill="#15605f"/>
      </g>
      <g id="Grupo_182" data-name="Grupo 182" transform="translate(2.541 46.893)">
        <path id="Caminho_320" data-name="Caminho 320" d="M0-.211h.08l.069.17.058-.17h.08L.185.064A.141.141,0,0,1,.148.124.089.089,0,0,1,.091.141H.045V.087H.07A.055.055,0,0,0,.1.08.047.047,0,0,0,.115.058l0-.008Z" transform="translate(-0.004 0.211)" fill="#15605f"/>
      </g>
      <g id="Grupo_183" data-name="Grupo 183" transform="translate(3.035 46.886)">
        <path id="Caminho_321" data-name="Caminho 321" d="M.267-.169A.1.1,0,0,1,.3-.2.089.089,0,0,1,.35-.217a.079.079,0,0,1,.065.028.111.111,0,0,1,.024.076V.042H.356V-.09a.014.014,0,0,0,0-.005V-.1A.074.074,0,0,0,.35-.144.028.028,0,0,0,.325-.156a.042.042,0,0,0-.037.02.1.1,0,0,0-.012.054V.042H.194V-.09A.116.116,0,0,0,.186-.144.026.026,0,0,0,.161-.156a.04.04,0,0,0-.036.02.1.1,0,0,0-.012.054V.042H.032V-.21H.114v.037A.1.1,0,0,1,.147-.206.092.092,0,0,1,.19-.217.083.083,0,0,1,.236-.2a.079.079,0,0,1,.03.034Z" transform="translate(-0.032 0.217)" fill="#15605f"/>
      </g>
      <g id="Grupo_184" data-name="Grupo 184" transform="translate(3.497 46.886)">
        <path id="Caminho_322" data-name="Caminho 322" d="M.155-.159a.047.047,0,0,0-.041.02A.092.092,0,0,0,.1-.085a.1.1,0,0,0,.013.057A.048.048,0,0,0,.155-.01.049.049,0,0,0,.2-.028.1.1,0,0,0,.21-.085.087.087,0,0,0,.2-.139.048.048,0,0,0,.155-.159Zm0-.058a.137.137,0,0,1,.1.036.126.126,0,0,1,.037.1.132.132,0,0,1-.037.1.14.14,0,0,1-.1.034.142.142,0,0,1-.1-.034.13.13,0,0,1-.037-.1.125.125,0,0,1,.037-.1A.14.14,0,0,1,.155-.217Z" transform="translate(-0.017 0.217)" fill="#15605f"/>
      </g>
      <g id="Grupo_185" data-name="Grupo 185" transform="translate(3.832 46.886)">
        <path id="Caminho_323" data-name="Caminho 323" d="M.286-.112V.042H.2V-.076C.2-.1.2-.112.2-.12A.041.041,0,0,0,.2-.139.026.026,0,0,0,.185-.151.033.033,0,0,0,.168-.156a.047.047,0,0,0-.041.02.1.1,0,0,0-.013.054V.042H.032V-.21H.114v.037A.112.112,0,0,1,.152-.206.1.1,0,0,1,.2-.217a.08.08,0,0,1,.066.028.111.111,0,0,1,.024.076Z" transform="translate(-0.032 0.217)" fill="#15605f"/>
      </g>
      <g id="Grupo_186" data-name="Grupo 186" transform="translate(4.161 46.794)">
        <path id="Caminho_324" data-name="Caminho 324" d="M.032-.294H.114V-.1L.206-.2H.3L.177-.08.309.057h-.1l-.1-.105V.057H.032Z" transform="translate(-0.032 0.294)" fill="#15605f"/>
      </g>
      <g id="Grupo_187" data-name="Grupo 187" transform="translate(4.468 46.794)">
        <path id="Caminho_325" data-name="Caminho 325" d="M.032-.2H.114V.057H.032Zm0-.1H.114v.066H.032Z" transform="translate(-0.032 0.294)" fill="#15605f"/>
      </g>
      <g id="Grupo_188" data-name="Grupo 188" transform="translate(4.626 46.794)">
        <path id="Caminho_326" data-name="Caminho 326" d="M.032-.294H.114V-.1L.206-.2H.3L.177-.08.309.057h-.1l-.1-.105V.057H.032Z" transform="translate(-0.032 0.294)" fill="#15605f"/>
      </g>
      <g id="Grupo_189" data-name="Grupo 189" transform="translate(0 47.255)">
        <path id="Caminho_327" data-name="Caminho 327" d="M.2-.294v.053H.159a.039.039,0,0,0-.025.007.028.028,0,0,0-.007.021V-.2H.2v.057H.128v.2H.047v-.2H.008V-.2h.04V-.214A.076.076,0,0,1,.07-.274a.111.111,0,0,1,.072-.02Z" transform="translate(-0.008 0.294)" fill="#15605f"/>
      </g>
      <g id="Grupo_190" data-name="Grupo 190" transform="translate(0.23 47.347)">
        <path id="Caminho_328" data-name="Caminho 328" d="M.221-.141.2-.149l-.021,0A.06.06,0,0,0,.13-.131a.089.089,0,0,0-.016.057V.042H.032V-.21H.114v.041A.092.092,0,0,1,.148-.2.1.1,0,0,1,.2-.217H.219Z" transform="translate(-0.032 0.217)" fill="#15605f"/>
      </g>
      <g id="Grupo_191" data-name="Grupo 191" transform="translate(0.439 47.347)">
        <path id="Caminho_329" data-name="Caminho 329" d="M.155-.159a.047.047,0,0,0-.041.02A.092.092,0,0,0,.1-.085a.1.1,0,0,0,.013.057A.048.048,0,0,0,.155-.01.049.049,0,0,0,.2-.028.1.1,0,0,0,.21-.085.087.087,0,0,0,.2-.139.048.048,0,0,0,.155-.159Zm0-.058a.137.137,0,0,1,.1.036.126.126,0,0,1,.037.1.132.132,0,0,1-.037.1.14.14,0,0,1-.1.034.142.142,0,0,1-.1-.034.13.13,0,0,1-.037-.1.125.125,0,0,1,.037-.1A.14.14,0,0,1,.155-.217Z" transform="translate(-0.017 0.217)" fill="#15605f"/>
      </g>
      <g id="Grupo_192" data-name="Grupo 192" transform="translate(0.774 47.347)">
        <path id="Caminho_330" data-name="Caminho 330" d="M.267-.169A.1.1,0,0,1,.3-.2.089.089,0,0,1,.35-.217a.079.079,0,0,1,.065.028.111.111,0,0,1,.024.076V.042H.356V-.09a.014.014,0,0,0,0-.005V-.1A.074.074,0,0,0,.35-.144.028.028,0,0,0,.325-.156a.042.042,0,0,0-.037.02.1.1,0,0,0-.012.054V.042H.194V-.09A.116.116,0,0,0,.186-.144.026.026,0,0,0,.161-.156a.04.04,0,0,0-.036.02.1.1,0,0,0-.012.054V.042H.032V-.21H.114v.037A.1.1,0,0,1,.147-.206.092.092,0,0,1,.19-.217.083.083,0,0,1,.236-.2a.079.079,0,0,1,.03.034Z" transform="translate(-0.032 0.217)" fill="#15605f"/>
      </g>
      <g id="Grupo_193" data-name="Grupo 193" transform="translate(1.384 47.281)">
        <path id="Caminho_331" data-name="Caminho 331" d="M.125-.272V-.2H.208v.057H.125v.108a.032.032,0,0,0,.007.024.055.055,0,0,0,.029.005H.2V.052H.133A.1.1,0,0,1,.065.033a.093.093,0,0,1-.02-.067V-.143H.006V-.2h.04V-.272Z" transform="translate(-0.006 0.272)" fill="#15605f"/>
      </g>
      <g id="Grupo_194" data-name="Grupo 194" transform="translate(1.636 47.255)">
        <path id="Caminho_332" data-name="Caminho 332" d="M.286-.1V.057H.2V-.061C.2-.082.2-.1.2-.105A.041.041,0,0,0,.2-.124.026.026,0,0,0,.185-.136.033.033,0,0,0,.168-.141a.047.047,0,0,0-.041.02.1.1,0,0,0-.013.054V.057H.032V-.294H.114v.136A.112.112,0,0,1,.152-.191.1.1,0,0,1,.2-.2a.08.08,0,0,1,.066.028A.111.111,0,0,1,.286-.1Z" transform="translate(-0.032 0.294)" fill="#15605f"/>
      </g>
      <g id="Grupo_195" data-name="Grupo 195" transform="translate(1.946 47.347)">
        <path id="Caminho_333" data-name="Caminho 333" d="M.287-.085v.022H.1a.065.065,0,0,0,.021.043.077.077,0,0,0,.049.013A.208.208,0,0,0,.221-.012.262.262,0,0,0,.275-.036V.026A.254.254,0,0,1,.218.043.339.339,0,0,1,.162.048.153.153,0,0,1,.055.014a.128.128,0,0,1-.038-.1.127.127,0,0,1,.037-.1.144.144,0,0,1,.1-.036.128.128,0,0,1,.095.036.13.13,0,0,1,.036.1ZM.205-.112A.046.046,0,0,0,.191-.148.045.045,0,0,0,.156-.163a.055.055,0,0,0-.038.013A.061.061,0,0,0,.1-.112Z" transform="translate(-0.017 0.217)" fill="#15605f"/>
      </g>
      <g id="Grupo_196" data-name="Grupo 196" transform="translate(2.442 47.27)">
        <path id="Caminho_334" data-name="Caminho 334" d="M.035-.282h.1l.121.231V-.282H.337V.054H.24L.118-.176V.054H.035Z" transform="translate(-0.035 0.282)" fill="#15605f"/>
      </g>
      <g id="Grupo_197" data-name="Grupo 197" transform="translate(2.805 47.347)">
        <path id="Caminho_335" data-name="Caminho 335" d="M.155-.159a.047.047,0,0,0-.041.02A.092.092,0,0,0,.1-.085a.1.1,0,0,0,.013.057A.048.048,0,0,0,.155-.01.049.049,0,0,0,.2-.028.1.1,0,0,0,.21-.085.087.087,0,0,0,.2-.139.048.048,0,0,0,.155-.159Zm0-.058a.137.137,0,0,1,.1.036.126.126,0,0,1,.037.1.132.132,0,0,1-.037.1.14.14,0,0,1-.1.034.142.142,0,0,1-.1-.034.13.13,0,0,1-.037-.1.125.125,0,0,1,.037-.1A.14.14,0,0,1,.155-.217Z" transform="translate(-0.017 0.217)" fill="#15605f"/>
      </g>
      <g id="Grupo_198" data-name="Grupo 198" transform="translate(3.138 47.354)">
        <path id="Caminho_336" data-name="Caminho 336" d="M.03-.058V-.211H.112v.117c0,.02,0,.035,0,.045a.035.035,0,0,0,.005.018.042.042,0,0,0,.013.013.04.04,0,0,0,.018,0,.047.047,0,0,0,.04-.02A.09.09,0,0,0,.2-.087V-.211h.08V.041H.2V0a.124.124,0,0,1-.04.033A.1.1,0,0,1,.119.047.085.085,0,0,1,.052.021.122.122,0,0,1,.03-.058Z" transform="translate(-0.03 0.211)" fill="#15605f"/>
      </g>
      <g id="Grupo_199" data-name="Grupo 199" transform="translate(3.469 47.347)">
        <path id="Caminho_337" data-name="Caminho 337" d="M.286-.112V.042H.2V-.076C.2-.1.2-.112.2-.12A.041.041,0,0,0,.2-.139.026.026,0,0,0,.185-.151.033.033,0,0,0,.168-.156a.047.047,0,0,0-.041.02.1.1,0,0,0-.013.054V.042H.032V-.21H.114v.037A.112.112,0,0,1,.152-.206.1.1,0,0,1,.2-.217a.08.08,0,0,1,.066.028.111.111,0,0,1,.024.076Z" transform="translate(-0.032 0.217)" fill="#15605f"/>
      </g>
      <g id="Grupo_200" data-name="Grupo 200" transform="translate(3.962 47.27)">
        <path id="Caminho_338" data-name="Caminho 338" d="M.035-.282H.179a.151.151,0,0,1,.1.029.1.1,0,0,1,.034.08.1.1,0,0,1-.034.082.155.155,0,0,1-.1.028H.122V.054H.035Zm.087.063v.094H.17A.056.056,0,0,0,.208-.137.045.045,0,0,0,.223-.172.042.042,0,0,0,.208-.207.056.056,0,0,0,.17-.219Z" transform="translate(-0.035 0.282)" fill="#15605f"/>
      </g>
      <g id="Grupo_201" data-name="Grupo 201" transform="translate(4.296 47.347)">
        <path id="Caminho_339" data-name="Caminho 339" d="M.221-.141.2-.149l-.021,0A.06.06,0,0,0,.13-.131a.089.089,0,0,0-.016.057V.042H.032V-.21H.114v.041A.092.092,0,0,1,.148-.2.1.1,0,0,1,.2-.217H.219Z" transform="translate(-0.032 0.217)" fill="#15605f"/>
      </g>
      <g id="Grupo_202" data-name="Grupo 202" transform="translate(4.505 47.347)">
        <path id="Caminho_340" data-name="Caminho 340" d="M.155-.159a.047.047,0,0,0-.041.02A.092.092,0,0,0,.1-.085a.1.1,0,0,0,.013.057A.048.048,0,0,0,.155-.01.049.049,0,0,0,.2-.028.1.1,0,0,0,.21-.085.087.087,0,0,0,.2-.139.048.048,0,0,0,.155-.159Zm0-.058a.137.137,0,0,1,.1.036.126.126,0,0,1,.037.1.132.132,0,0,1-.037.1.14.14,0,0,1-.1.034.142.142,0,0,1-.1-.034.13.13,0,0,1-.037-.1.125.125,0,0,1,.037-.1A.14.14,0,0,1,.155-.217Z" transform="translate(-0.017 0.217)" fill="#15605f"/>
      </g>
      <g id="Grupo_203" data-name="Grupo 203" transform="translate(4.787 47.255)">
        <path id="Caminho_341" data-name="Caminho 341" d="M.041-.2H.122V.053A.108.108,0,0,1,.1.129a.087.087,0,0,1-.07.028H-.013V.1H0A.037.037,0,0,0,.032.092.06.06,0,0,0,.041.053Zm0-.1H.122v.066H.041Z" transform="translate(0.013 0.294)" fill="#15605f"/>
      </g>
      <g id="Grupo_204" data-name="Grupo 204" transform="translate(4.98 47.347)">
        <path id="Caminho_342" data-name="Caminho 342" d="M.287-.085v.022H.1a.065.065,0,0,0,.021.043.077.077,0,0,0,.049.013A.208.208,0,0,0,.221-.012.262.262,0,0,0,.275-.036V.026A.254.254,0,0,1,.218.043.339.339,0,0,1,.162.048.153.153,0,0,1,.055.014a.128.128,0,0,1-.038-.1.127.127,0,0,1,.037-.1.144.144,0,0,1,.1-.036.128.128,0,0,1,.095.036.13.13,0,0,1,.036.1ZM.205-.112A.046.046,0,0,0,.191-.148.045.045,0,0,0,.156-.163a.055.055,0,0,0-.038.013A.061.061,0,0,0,.1-.112Z" transform="translate(-0.017 0.217)" fill="#15605f"/>
      </g>
      <g id="Grupo_205" data-name="Grupo 205" transform="translate(5.293 47.347)">
        <path id="Caminho_343" data-name="Caminho 343" d="M.239-.2v.065A.137.137,0,0,0,.206-.153.126.126,0,0,0,.172-.159a.068.068,0,0,0-.053.02A.075.075,0,0,0,.1-.085a.077.077,0,0,0,.018.055.068.068,0,0,0,.053.02A.118.118,0,0,0,.208-.015.093.093,0,0,0,.239-.032V.034A.157.157,0,0,1,.2.044a.2.2,0,0,1-.04,0A.153.153,0,0,1,.055.014a.128.128,0,0,1-.038-.1.122.122,0,0,1,.038-.1A.15.15,0,0,1,.162-.217a.2.2,0,0,1,.04,0A.157.157,0,0,1,.239-.2Z" transform="translate(-0.017 0.217)" fill="#15605f"/>
      </g>
      <g id="Grupo_206" data-name="Grupo 206" transform="translate(5.553 47.281)">
        <path id="Caminho_344" data-name="Caminho 344" d="M.125-.272V-.2H.208v.057H.125v.108a.032.032,0,0,0,.007.024.055.055,0,0,0,.029.005H.2V.052H.133A.1.1,0,0,1,.065.033a.093.093,0,0,1-.02-.067V-.143H.006V-.2h.04V-.272Z" transform="translate(-0.006 0.272)" fill="#15605f"/>
      </g>
    </g>
  </g>
</svg>
