<svg xmlns="http://www.w3.org/2000/svg" xmlns:xlink="http://www.w3.org/1999/xlink" width="338.98" height="96.904" viewBox="0 0 338.98 96.904">
  <defs>
    <clipPath id="clip-path">
      <rect width="338.98" height="96.904" fill="none"/>
    </clipPath>
  </defs>
  <g id="Repetição_de_grade_32" data-name="Repetição de grade 32" transform="translate(0 0)" clip-path="url(#clip-path)">
    <g transform="translate(-7.61 -104.086)">
      <g id="Grupo_1032" data-name="Grupo 1032" transform="translate(-19 185.086)">
        <path id="Caminho_1568" data-name="Caminho 1568" d="M94.293,45.016a.188.188,0,0,1-.188-.175,6.652,6.652,0,0,0-6.616-6.164c-.2,0-.411.01-.626.03a.188.188,0,0,1-.181-.094,7.9,7.9,0,0,0-14.454,1.719.187.187,0,0,1-.185.136l-.05,0-.078,0a5.574,5.574,0,0,0-5.432,4.4.188.188,0,0,1-.184.149H53.689a.188.188,0,1,1,0-.376H66.148a5.954,5.954,0,0,1,5.76-4.551,8.28,8.28,0,0,1,15.04-1.766c.185-.014.367-.022.541-.022a7.029,7.029,0,0,1,6.991,6.514.188.188,0,0,1-.175.2Z" transform="translate(-26.891 -34.254)" fill="#cbcbcb"/>
        <path id="Caminho_1569" data-name="Caminho 1569" d="M92.053,47.429H61.187a.188.188,0,1,1,0-.376H92.053a.188.188,0,1,1,0,.376Z" transform="translate(-26.891 -34.254)" fill="#cbcbcb"/>
        <path id="Caminho_1570" data-name="Caminho 1570" d="M68.715,50.158H58.363a.188.188,0,0,1,0-.376H68.715a.188.188,0,0,1,0,.376Z" transform="translate(-26.891 -34.254)" fill="#cbcbcb"/>
      </g>
      <g id="Grupo_1033" data-name="Grupo 1033" transform="translate(279 112.086)">
        <path id="Caminho_1568-2" data-name="Caminho 1568" d="M94.293,45.016a.188.188,0,0,1-.188-.175,6.652,6.652,0,0,0-6.616-6.164c-.2,0-.411.01-.626.03a.188.188,0,0,1-.181-.094,7.9,7.9,0,0,0-14.454,1.719.187.187,0,0,1-.185.136l-.05,0-.078,0a5.574,5.574,0,0,0-5.432,4.4.188.188,0,0,1-.184.149H53.689a.188.188,0,1,1,0-.376H66.148a5.954,5.954,0,0,1,5.76-4.551,8.28,8.28,0,0,1,15.04-1.766c.185-.014.367-.022.541-.022a7.029,7.029,0,0,1,6.991,6.514.188.188,0,0,1-.175.2Z" transform="translate(-26.891 -34.254)" fill="#cbcbcb"/>
        <path id="Caminho_1569-2" data-name="Caminho 1569" d="M92.053,47.429H61.187a.188.188,0,1,1,0-.376H92.053a.188.188,0,1,1,0,.376Z" transform="translate(-26.891 -34.254)" fill="#cbcbcb"/>
        <path id="Caminho_1570-2" data-name="Caminho 1570" d="M68.715,50.158H58.363a.188.188,0,0,1,0-.376H68.715a.188.188,0,0,1,0,.376Z" transform="translate(-26.891 -34.254)" fill="#cbcbcb"/>
      </g>
      <g id="Grupo_1034" data-name="Grupo 1034" transform="translate(58 104.086)">
        <path id="Caminho_1568-3" data-name="Caminho 1568" d="M94.293,45.016a.188.188,0,0,1-.188-.175,6.652,6.652,0,0,0-6.616-6.164c-.2,0-.411.01-.626.03a.188.188,0,0,1-.181-.094,7.9,7.9,0,0,0-14.454,1.719.187.187,0,0,1-.185.136l-.05,0-.078,0a5.574,5.574,0,0,0-5.432,4.4.188.188,0,0,1-.184.149H53.689a.188.188,0,1,1,0-.376H66.148a5.954,5.954,0,0,1,5.76-4.551,8.28,8.28,0,0,1,15.04-1.766c.185-.014.367-.022.541-.022a7.029,7.029,0,0,1,6.991,6.514.188.188,0,0,1-.175.2Z" transform="translate(-26.891 -34.254)" fill="#cbcbcb"/>
        <path id="Caminho_1569-3" data-name="Caminho 1569" d="M92.053,47.429H61.187a.188.188,0,1,1,0-.376H92.053a.188.188,0,1,1,0,.376Z" transform="translate(-26.891 -34.254)" fill="#cbcbcb"/>
        <path id="Caminho_1570-3" data-name="Caminho 1570" d="M68.715,50.158H58.363a.188.188,0,0,1,0-.376H68.715a.188.188,0,0,1,0,.376Z" transform="translate(-26.891 -34.254)" fill="#cbcbcb"/>
      </g>
    </g>
  </g>
</svg>
