<svg xmlns="http://www.w3.org/2000/svg" xmlns:xlink="http://www.w3.org/1999/xlink" width="62.245" height="69.483" viewBox="0 0 62.245 69.483">
  <defs>
    <clipPath id="clip-path">
      <rect id="Ret칙ngulo_118" data-name="Ret칙ngulo 118" width="62.245" height="69.483" transform="translate(564 3019)" fill="#0e4848" stroke="#707070" stroke-width="1"/>
    </clipPath>
  </defs>
  <g id="Grupo_de_m치scara_11" data-name="Grupo de m치scara 11" transform="translate(-564 -3019)" clip-path="url(#clip-path)">
    <g id="noun-endoscopy-2925133" transform="translate(564.533 3023.343)">
      <path id="Caminho_507" data-name="Caminho 507" d="M34.3,30.8H33.67A5.4,5.4,0,0,0,28.275,36.2v9.836h5.711V37.706a1.19,1.19,0,0,1,1.9-.952L37.6,38.039a6.662,6.662,0,0,0,9.328-1.333,21.064,21.064,0,0,0,4.188-12.564V21.517A4.99,4.99,0,0,0,42.6,17.989L41.52,19.071a1.068,1.068,0,0,1-1.822-.755V9.864H33.987V20.017a5.418,5.418,0,0,0,2.159,4.316l.253.19a3.49,3.49,0,0,1-2.1,6.282ZM37.539,23l-.252-.19a3.507,3.507,0,0,1-1.4-2.792v-8.25h1.9v6.548a2.971,2.971,0,0,0,5.072,2.1l1.083-1.082a3.086,3.086,0,0,1,5.268,2.183v2.624a19.159,19.159,0,0,1-3.808,11.423,4.759,4.759,0,0,1-6.663.952l-1.713-1.285a3.094,3.094,0,0,0-4.95,2.475v6.425h-1.9V36.2a3.5,3.5,0,0,1,3.491-3.491H34.3A5.394,5.394,0,0,0,37.539,23Z" transform="translate(4.804 3.463)" fill="#0e4848"/>
      <path id="Caminho_508" data-name="Caminho 508" d="M37.482,21.042h1.9v1.9h-1.9Z" transform="translate(8.924 8.466)" fill="#0e4848"/>
      <path id="Caminho_509" data-name="Caminho 509" d="M39.454,17.1h1.9V19h-1.9Z" transform="translate(9.807 6.7)" fill="#0e4848"/>
      <path id="Caminho_510" data-name="Caminho 510" d="M38.139,23.673h1.9v1.9h-1.9Z" transform="translate(9.219 9.643)" fill="#0e4848"/>
      <path id="Caminho_511" data-name="Caminho 511" d="M36.167,26.3h1.9v1.9h-1.9Z" transform="translate(8.336 10.82)" fill="#0e4848"/>
      <path id="Caminho_512" data-name="Caminho 512" d="M40.112,19.727h1.9v1.9h-1.9Z" transform="translate(10.101 7.877)" fill="#0e4848"/>
      <path id="Caminho_513" data-name="Caminho 513" d="M64.935,10.176H26.609A7.612,7.612,0,1,0,15.1,14.652,13.344,13.344,0,0,0,5.918,27.31v6.663a4.765,4.765,0,0,0,4.759,4.759h.952V55.39a4.266,4.266,0,0,0,7.615,2.66,4.266,4.266,0,0,0,7.615-2.66V53.962H64.935ZM20.918,38.108,17.939,35.13a5.26,5.26,0,0,1-1.551-3.745,5.321,5.321,0,0,1,2.118-4.236l.571-.428,1.05,1.313A9.04,9.04,0,0,1,22.1,33.657a8.95,8.95,0,0,1-1.182,4.451ZM20.2,13.9v-.866a2.859,2.859,0,0,1,2.856-2.856h1.571A5.721,5.721,0,0,1,20.2,13.9ZM13.533,8.272a5.711,5.711,0,0,1,11.423,0h-1.9a4.765,4.765,0,0,0-4.759,4.759V13.9a5.716,5.716,0,0,1-4.759-5.625Zm2.38,49.5a2.382,2.382,0,0,1-2.38-2.38V22.55h-1.9V36.828h-.952a2.859,2.859,0,0,1-2.856-2.856V27.309A11.431,11.431,0,0,1,18.292,15.936V24.93l-.928.7a7.235,7.235,0,0,0-2.879,5.759,7.149,7.149,0,0,0,2.109,5.091l3.193,3.193c-.107.119-.209.241-.322.355l-1.172,1.171v14.2a2.382,2.382,0,0,1-2.38,2.38Zm9.043-35.219v32.84a2.38,2.38,0,0,1-4.759,0V41.983l.614-.614A10.831,10.831,0,0,0,24,33.658a10.944,10.944,0,0,0-2.39-6.813L20.2,25.073V15.937A11.432,11.432,0,0,1,30.667,27.311v6.663a2.859,2.859,0,0,1-2.856,2.856h-.952V22.551ZM63.031,52.059H26.859V38.733h.952a4.765,4.765,0,0,0,4.759-4.759V27.31a13.344,13.344,0,0,0-9.182-12.658,7.657,7.657,0,0,0,2.44-2.572h37.2Z" transform="translate(-5.202 -0.658)" fill="#0e4848"/>
      <path id="Caminho_514" data-name="Caminho 514" d="M24.33,9.864h1.9v1.9h-1.9Z" transform="translate(3.038 3.463)" fill="#0e4848"/>
      <path id="Caminho_515" data-name="Caminho 515" d="M26.961,9.864h1.9v1.9h-1.9Z" transform="translate(4.215 3.463)" fill="#0e4848"/>
      <path id="Caminho_516" data-name="Caminho 516" d="M29.591,9.864h1.9v1.9h-1.9Z" transform="translate(5.393 3.463)" fill="#0e4848"/>
      <path id="Caminho_517" data-name="Caminho 517" d="M24.33,12.494h9.519v1.9H24.33Z" transform="translate(3.038 4.64)" fill="#0e4848"/>
      <path id="Caminho_518" data-name="Caminho 518" d="M24.33,15.124h9.519v1.9H24.33Z" transform="translate(3.038 5.817)" fill="#0e4848"/>
      <path id="Caminho_519" data-name="Caminho 519" d="M42.742,33.536h1.9v1.9h-1.9Z" transform="translate(11.279 14.058)" fill="#0e4848"/>
      <path id="Caminho_520" data-name="Caminho 520" d="M40.112,33.536h1.9v1.9h-1.9Z" transform="translate(10.101 14.058)" fill="#0e4848"/>
      <path id="Caminho_521" data-name="Caminho 521" d="M37.482,33.536h1.9v1.9h-1.9Z" transform="translate(8.924 14.058)" fill="#0e4848"/>
      <path id="Caminho_522" data-name="Caminho 522" d="M21.7,33.536h1.9v1.9H21.7Z" transform="translate(1.861 14.058)" fill="#0e4848"/>
      <path id="Caminho_523" data-name="Caminho 523" d="M21.7,30.906h1.9v1.9H21.7Z" transform="translate(1.861 12.88)" fill="#0e4848"/>
      <path id="Caminho_524" data-name="Caminho 524" d="M21.7,28.276h1.9v1.9H21.7Z" transform="translate(1.861 11.703)" fill="#0e4848"/>
      <g id="Grupo_225" data-name="Grupo 225" transform="translate(0 70.714)">
        <path id="Caminho_525" data-name="Caminho 525" d="M3.116.9a2.273,2.273,0,0,1-.515.192,2.3,2.3,0,0,1-.556.066A1.911,1.911,0,0,1,.67.676,1.734,1.734,0,0,1,.163-.64,1.734,1.734,0,0,1,.67-1.956,1.91,1.91,0,0,1,2.045-2.44a2.364,2.364,0,0,1,.556.065,2.259,2.259,0,0,1,.515.194v.717a1.964,1.964,0,0,0-.491-.248,1.613,1.613,0,0,0-.508-.08.957.957,0,0,0-.753.308A1.221,1.221,0,0,0,1.09-.64,1.224,1.224,0,0,0,1.363.2a.958.958,0,0,0,.753.306A1.637,1.637,0,0,0,2.624.433a1.987,1.987,0,0,0,.491-.25Z" transform="translate(-0.163 2.44)" fill="#0e4848"/>
      </g>
      <g id="Grupo_226" data-name="Grupo 226" transform="translate(3.656 71.581)">
        <path id="Caminho_526" data-name="Caminho 526" d="M2.21-1.069a1.1,1.1,0,0,0-.219-.075.931.931,0,0,0-.216-.025.612.612,0,0,0-.495.206.9.9,0,0,0-.172.59v1.2H.276v-2.6h.833v.427a1.055,1.055,0,0,1,.367-.372,1.006,1.006,0,0,1,.5-.117c.027,0,.057,0,.09,0s.08.008.141.015Z" transform="translate(-0.276 1.841)" fill="#0e4848"/>
      </g>
      <g id="Grupo_227" data-name="Grupo 227" transform="translate(5.808 71.581)">
        <path id="Caminho_527" data-name="Caminho 527" d="M2.935-.485v.238H.989A.618.618,0,0,0,1.2.192a.789.789,0,0,0,.508.146A2,2,0,0,0,2.245.261,2.762,2.762,0,0,0,2.811.025V.666a3.472,3.472,0,0,1-.59.168,3.093,3.093,0,0,1-.59.058A1.57,1.57,0,0,1,.532.533,1.3,1.3,0,0,1,.141-.475a1.312,1.312,0,0,1,.384-1,1.478,1.478,0,0,1,1.059-.365,1.326,1.326,0,0,1,.982.371,1.334,1.334,0,0,1,.369.986ZM2.08-.76a.529.529,0,0,0-.139-.382.473.473,0,0,0-.36-.146.567.567,0,0,0-.394.136A.633.633,0,0,0,1-.76Z" transform="translate(-0.141 1.841)" fill="#0e4848"/>
      </g>
      <g id="Grupo_228" data-name="Grupo 228" transform="translate(9.036 71.581)">
        <path id="Caminho_528" data-name="Caminho 528" d="M1.5-.347a.7.7,0,0,0-.391.088A.293.293,0,0,0,.981,0a.308.308,0,0,0,.105.248A.443.443,0,0,0,1.38.338.522.522,0,0,0,1.774.17a.585.585,0,0,0,.161-.422v-.1ZM2.774-.662V.824H1.936V.438a1.083,1.083,0,0,1-.377.345A1.094,1.094,0,0,1,1.05.892.925.925,0,0,1,.393.656.8.8,0,0,1,.141.044.752.752,0,0,1,.455-.628a1.8,1.8,0,0,1,.989-.214h.491V-.908A.311.311,0,0,0,1.78-1.2a.987.987,0,0,0-.486-.092,2.156,2.156,0,0,0-.5.054,1.708,1.708,0,0,0-.428.16v-.634a4.476,4.476,0,0,1,.537-.1,4.337,4.337,0,0,1,.539-.034,1.507,1.507,0,0,1,1.016.279,1.15,1.15,0,0,1,.313.9Z" transform="translate(-0.141 1.841)" fill="#0e4848"/>
      </g>
      <g id="Grupo_229" data-name="Grupo 229" transform="translate(12.106 70.905)">
        <path id="Caminho_529" data-name="Caminho 529" d="M1.289-2.309v.739h.857v.595H1.289v1.1a.327.327,0,0,0,.071.246.454.454,0,0,0,.286.063h.428v.595H1.361a.966.966,0,0,1-.7-.206.966.966,0,0,1-.206-.7v-1.1H.043v-.595H.456v-.739Z" transform="translate(-0.043 2.309)" fill="#0e4848"/>
      </g>
      <g id="Grupo_230" data-name="Grupo 230" transform="translate(14.523 71.581)">
        <path id="Caminho_530" data-name="Caminho 530" d="M2.935-.485v.238H.989A.618.618,0,0,0,1.2.192a.789.789,0,0,0,.508.146A2,2,0,0,0,2.245.261,2.762,2.762,0,0,0,2.811.025V.666a3.472,3.472,0,0,1-.59.168,3.093,3.093,0,0,1-.59.058A1.57,1.57,0,0,1,.532.533,1.3,1.3,0,0,1,.141-.475a1.312,1.312,0,0,1,.384-1,1.478,1.478,0,0,1,1.059-.365,1.326,1.326,0,0,1,.982.371,1.334,1.334,0,0,1,.369.986ZM2.08-.76a.529.529,0,0,0-.139-.382.473.473,0,0,0-.36-.146.567.567,0,0,0-.394.136A.633.633,0,0,0,1-.76Z" transform="translate(-0.141 1.841)" fill="#0e4848"/>
      </g>
      <g id="Grupo_231" data-name="Grupo 231" transform="translate(17.761 70.631)">
        <path id="Caminho_531" data-name="Caminho 531" d="M2.1-1.1V-2.5h.836V1.118H2.1V.742a1.13,1.13,0,0,1-.379.337,1.032,1.032,0,0,1-.479.107A.972.972,0,0,1,.456.8,1.52,1.52,0,0,1,.148-.181a1.52,1.52,0,0,1,.308-.984.972.972,0,0,1,.79-.382,1.017,1.017,0,0,1,.478.109A1.131,1.131,0,0,1,2.1-1.1ZM1.555.581a.469.469,0,0,0,.408-.2A.959.959,0,0,0,2.1-.181a.964.964,0,0,0-.141-.568.47.47,0,0,0-.408-.2.471.471,0,0,0-.406.2.971.971,0,0,0-.139.568.966.966,0,0,0,.139.566.47.47,0,0,0,.406.2Z" transform="translate(-0.148 2.498)" fill="#0e4848"/>
      </g>
      <g id="Grupo_232" data-name="Grupo 232" transform="translate(23.01 70.631)">
        <path id="Caminho_532" data-name="Caminho 532" d="M1.661.581a.472.472,0,0,0,.408-.2A.959.959,0,0,0,2.21-.181a.964.964,0,0,0-.141-.568.473.473,0,0,0-.408-.2.475.475,0,0,0-.41.2.951.951,0,0,0-.143.566.955.955,0,0,0,.143.566.476.476,0,0,0,.41.2ZM1.109-1.1a1.127,1.127,0,0,1,.381-.335,1.03,1.03,0,0,1,.481-.109.973.973,0,0,1,.79.382,1.516,1.516,0,0,1,.309.984A1.516,1.516,0,0,1,2.761.8a.973.973,0,0,1-.79.382,1.03,1.03,0,0,1-.481-.109A1.145,1.145,0,0,1,1.109.742v.376H.276V-2.5h.833Z" transform="translate(-0.276 2.498)" fill="#0e4848"/>
      </g>
      <g id="Grupo_233" data-name="Grupo 233" transform="translate(26.075 71.644)">
        <path id="Caminho_533" data-name="Caminho 533" d="M.04-1.8H.873l.7,1.766L2.166-1.8H3L1.9,1.051a1.377,1.377,0,0,1-.386.607.908.908,0,0,1-.58.173H.458V1.286h.26a.543.543,0,0,0,.308-.068A.441.441,0,0,0,1.177.976L1.2.9Z" transform="translate(-0.04 1.798)" fill="#0e4848"/>
      </g>
      <g id="Grupo_234" data-name="Grupo 234" transform="translate(31.213 70.777)">
        <path id="Caminho_534" data-name="Caminho 534" d="M.3-2.4H2.717v.677H1.2v.646h1.43V-.4H1.2V.4H2.768v.677H.3Z" transform="translate(-0.302 2.397)" fill="#0e4848"/>
      </g>
      <g id="Grupo_235" data-name="Grupo 235" transform="translate(34.4 71.644)">
        <path id="Caminho_535" data-name="Caminho 535" d="M.257-.208V-1.8h.836v.26q0,.211,0,.53c0,.213,0,.355,0,.427,0,.21.005.36.015.452a.488.488,0,0,0,.058.2A.351.351,0,0,0,1.294.2a.4.4,0,0,0,.19.044.48.48,0,0,0,.408-.2.913.913,0,0,0,.15-.556V-1.8h.831V.8H2.042V.429a1.311,1.311,0,0,1-.4.335A.99.99,0,0,1,1.18.873.853.853,0,0,1,.492.6a1.212,1.212,0,0,1-.235-.8Z" transform="translate(-0.257 1.798)" fill="#0e4848"/>
      </g>
      <g id="Grupo_236" data-name="Grupo 236" transform="translate(37.62 71.581)">
        <path id="Caminho_536" data-name="Caminho 536" d="M2.439-1.7v.678A1.273,1.273,0,0,0,2.1-1.19a1.122,1.122,0,0,0-.354-.056.717.717,0,0,0-.544.2.788.788,0,0,0-.194.568A.791.791,0,0,0,1.2.093a.717.717,0,0,0,.544.2A1.172,1.172,0,0,0,2.116.239,1.11,1.11,0,0,0,2.439.066V.748a2.3,2.3,0,0,1-.4.107,2.221,2.221,0,0,1-.4.037A1.576,1.576,0,0,1,.539.53a1.29,1.29,0,0,1-.4-1,1.287,1.287,0,0,1,.4-1,1.576,1.576,0,0,1,1.1-.362,2.276,2.276,0,0,1,.4.036,2.348,2.348,0,0,1,.4.109Z" transform="translate(-0.141 1.841)" fill="#0e4848"/>
      </g>
      <g id="Grupo_237" data-name="Grupo 237" transform="translate(40.442 71.581)">
        <path id="Caminho_537" data-name="Caminho 537" d="M1.5-.347a.7.7,0,0,0-.391.088A.293.293,0,0,0,.981,0a.308.308,0,0,0,.105.248A.443.443,0,0,0,1.38.338.522.522,0,0,0,1.774.17a.585.585,0,0,0,.161-.422v-.1ZM2.774-.662V.824H1.936V.438a1.083,1.083,0,0,1-.377.345A1.094,1.094,0,0,1,1.05.892.925.925,0,0,1,.393.656.8.8,0,0,1,.141.044.752.752,0,0,1,.455-.628a1.8,1.8,0,0,1,.989-.214h.491V-.908A.311.311,0,0,0,1.78-1.2a.987.987,0,0,0-.486-.092,2.156,2.156,0,0,0-.5.054,1.708,1.708,0,0,0-.428.16v-.634a4.476,4.476,0,0,1,.537-.1,4.337,4.337,0,0,1,.539-.034,1.507,1.507,0,0,1,1.016.279,1.15,1.15,0,0,1,.313.9Z" transform="translate(-0.141 1.841)" fill="#0e4848"/>
      </g>
      <g id="Grupo_238" data-name="Grupo 238" transform="translate(43.849 70.631)">
        <path id="Caminho_538" data-name="Caminho 538" d="M.276-2.5h.833V1.118H.276Z" transform="translate(-0.276 2.498)" fill="#0e4848"/>
      </g>
      <g id="Grupo_239" data-name="Grupo 239" transform="translate(45.138 71.644)">
        <path id="Caminho_539" data-name="Caminho 539" d="M.04-1.8H.873l.7,1.766L2.166-1.8H3L1.9,1.051a1.377,1.377,0,0,1-.386.607.908.908,0,0,1-.58.173H.458V1.286h.26a.543.543,0,0,0,.308-.068A.441.441,0,0,0,1.177.976L1.2.9Z" transform="translate(-0.04 1.798)" fill="#0e4848"/>
      </g>
      <g id="Grupo_240" data-name="Grupo 240" transform="translate(48.582 71.581)">
        <path id="Caminho_540" data-name="Caminho 540" d="M1.109.448V1.813H.276V-1.778h.833V-1.4a1.127,1.127,0,0,1,.381-.335,1.03,1.03,0,0,1,.481-.109.973.973,0,0,1,.79.382,1.516,1.516,0,0,1,.309.984A1.516,1.516,0,0,1,2.761.51a.973.973,0,0,1-.79.382A1.03,1.03,0,0,1,1.49.783,1.145,1.145,0,0,1,1.109.448Zm.552-1.686a.475.475,0,0,0-.41.2.951.951,0,0,0-.143.566.955.955,0,0,0,.143.566.476.476,0,0,0,.41.2.472.472,0,0,0,.408-.2A.959.959,0,0,0,2.21-.475a.964.964,0,0,0-.141-.568.473.473,0,0,0-.408-.2Z" transform="translate(-0.276 1.841)" fill="#0e4848"/>
      </g>
    </g>
  </g>
</svg>
