<svg xmlns="http://www.w3.org/2000/svg" xmlns:xlink="http://www.w3.org/1999/xlink" width="32.055" height="69.767" viewBox="0 0 32.055 69.767">
  <defs>
    <clipPath id="clip-path">
      <rect id="Ret칙ngulo_61" data-name="Ret칙ngulo 61" width="32.055" height="69.767" transform="translate(1476 2013)" fill="none"/>
    </clipPath>
  </defs>
  <g id="Grupo_de_m치scara_6" data-name="Grupo de m치scara 6" transform="translate(-1476 -2013)" clip-path="url(#clip-path)">
    <g id="noun-pregnant-woman-3926216" transform="translate(1457.509 2018.657)">
      <path id="Caminho_221" data-name="Caminho 221" d="M17.215,45.044a.924.924,0,0,0,.263.712.947.947,0,0,0,.692.3h4.25l1,8.044a.961.961,0,0,0,.955.846h4.172A.948.948,0,0,0,29.5,54.1l.949-8.044h3.769a.962.962,0,0,0,.7-.3.975.975,0,0,0,.263-.712c0-.487-.641-11.8-2.711-15.6l4.012-8.755a.967.967,0,0,0,0-.84l-3.968-7.691a.9.9,0,0,0-.173-.237,2.829,2.829,0,0,0-.365-.321c-.1-1.346-.231-2.256-.244-2.346a.955.955,0,0,0-.519-.724c-4.185-2.09-7.691.776-8.973,2.564h0a.874.874,0,0,0-.147.334A14.733,14.733,0,0,1,20.3,15.054a21.733,21.733,0,0,0-1.673,3.173,2.637,2.637,0,0,0,.071,2.1,4.176,4.176,0,0,0,1.359,1.551,7.333,7.333,0,0,0-3.583,3.781c-1.628,4.019.641,8.871,1.224,10.037Zm10.461,7.98H25.2l-.84-6.967H28.5Zm6.846-32.688L30.24,29.629l-.884-.391,2.288-7.749h0a.955.955,0,0,0-.192-.891l-3.545-4.2-.058-.058c-.955-.961-.237-2.186.34-2.756s1.718-1.231,2.654-.417ZM18.293,26.425c.641-1.635,2.128-2.794,4.339-3.455a.962.962,0,0,0,.051-1.827,4.353,4.353,0,0,1-2.211-1.589.719.719,0,0,1,0-.641A20.313,20.313,0,0,1,22,16.048a17.287,17.287,0,0,0,1.923-3.98c.5-.641,2.782-3.282,5.948-2.038,0,.218.058.507.09.84a4.44,4.44,0,0,0-3.115,1.352c-1.436,1.429-2.019,3.75-.372,5.442l2.968,3.519c-.1.641-.179,1.224-.231,1.814L27.266,29.52a.949.949,0,0,0,.532,1.148l2.519,1.122h0a.937.937,0,0,0,.391.084.974.974,0,0,0,.57-.2c1.051,3.2,1.66,9.23,1.885,12.46H19.184l.442-8.589h0a.945.945,0,0,0-.115-.513c-.032-.051-2.737-5-1.218-8.608Z" transform="translate(6.003 4.722)" fill="#15605f" stroke="#707070" stroke-width="0.061"/>
      <path id="Caminho_222" data-name="Caminho 222" d="M24.211,13.453a6.122,6.122,0,0,0,6.1-5.768.642.642,0,0,1,.275.186c.148.167.558.878-.167,3.109h0a7.013,7.013,0,0,0,.4,5.833c1.923,3.422,6.544,4.487,6.736,4.557h.218a.961.961,0,0,0,.3-1.884,3.519,3.519,0,0,1-1.84-1.711c-.641-1.25-.558-2.9.16-4.929,1.41-3.98,1.487-7.179.211-9.236h0a5.191,5.191,0,0,0-3.955-2.384c-2.48-.308-3.846.5-4.557,1.4a6.115,6.115,0,1,0-3.9,10.825ZM32.429,3.134a3.276,3.276,0,0,1,2.564,1.481c.949,1.532.807,4.224-.384,7.589h0a8.919,8.919,0,0,0-.435,5.486A5.978,5.978,0,0,1,32.5,15.851a5.088,5.088,0,0,1-.244-4.282c.75-2.3.641-3.98-.231-4.993a2.81,2.81,0,0,0-1.923-.9,7.158,7.158,0,0,0-.333-.9l-.256-.776c.166-.372.788-1.134,2.916-.871Zm-8.217,0a4.2,4.2,0,0,1,4.2,4.207,7.7,7.7,0,0,1-1.238,2.969,7.7,7.7,0,0,1-2.977,1.221,4.2,4.2,0,0,1,.017-8.39Z" transform="translate(7.936 -1.158)" fill="#15605f" stroke="#707070" stroke-width="0.061"/>
      <g id="Grupo_93" data-name="Grupo 93" transform="translate(0.098 69.148)">
        <path id="Caminho_223" data-name="Caminho 223" d="M2.073.988a1.523,1.523,0,0,1-.347.129,1.56,1.56,0,0,1-.376.045A1.283,1.283,0,0,1,.426.836,1.167,1.167,0,0,1,.084-.049,1.165,1.165,0,0,1,.426-.934a1.28,1.28,0,0,1,.925-.327,1.56,1.56,0,0,1,.376.045,1.522,1.522,0,0,1,.347.129v.483a1.374,1.374,0,0,0-.331-.166A1.091,1.091,0,0,0,1.4-.825a.642.642,0,0,0-.506.207.822.822,0,0,0-.184.569A.825.825,0,0,0,.893.52.644.644,0,0,0,1.4.725,1.116,1.116,0,0,0,1.742.674,1.336,1.336,0,0,0,2.073.505Z" transform="translate(-0.084 1.261)" fill="#15605f" stroke="#707070" stroke-width="0.061"/>
      </g>
      <g id="Grupo_94" data-name="Grupo 94" transform="translate(2.561 69.731)">
        <path id="Caminho_224" data-name="Caminho 224" d="M1.445-.432A.774.774,0,0,0,1.3-.482.612.612,0,0,0,1.152-.5.408.408,0,0,0,.819-.36.6.6,0,0,0,.7.035V.843H.143V-.909H.7v.288A.712.712,0,0,1,.95-.872a.667.667,0,0,1,.336-.08.6.6,0,0,1,.061,0l.1.009Z" transform="translate(-0.143 0.952)" fill="#15605f" stroke="#707070" stroke-width="0.061"/>
      </g>
      <g id="Grupo_95" data-name="Grupo 95" transform="translate(4.01 69.731)">
        <path id="Caminho_225" data-name="Caminho 225" d="M1.954-.038V.123H.644a.417.417,0,0,0,.143.3.529.529,0,0,0,.342.1A1.319,1.319,0,0,0,1.489.464,1.912,1.912,0,0,0,1.87.3V.736a2.361,2.361,0,0,1-.4.113,2.061,2.061,0,0,1-.4.039A1.058,1.058,0,0,1,.336.647.874.874,0,0,1,.073-.031.883.883,0,0,1,.332-.705a.99.99,0,0,1,.712-.247.892.892,0,0,1,.662.25.9.9,0,0,1,.249.663ZM1.379-.224A.355.355,0,0,0,1.286-.48a.321.321,0,0,0-.243-.1.382.382,0,0,0-.265.091.419.419,0,0,0-.127.263Z" transform="translate(-0.073 0.952)" fill="#15605f" stroke="#707070" stroke-width="0.061"/>
      </g>
      <g id="Grupo_96" data-name="Grupo 96" transform="translate(6.183 69.731)">
        <path id="Caminho_226" data-name="Caminho 226" d="M.99.055A.483.483,0,0,0,.726.114.2.2,0,0,0,.638.289.208.208,0,0,0,.71.457a.3.3,0,0,0,.2.059A.353.353,0,0,0,1.173.4.4.4,0,0,0,1.282.119V.055Zm.855-.211v1H1.282V.584a.724.724,0,0,1-.254.232A.758.758,0,0,1,.685.888.623.623,0,0,1,.243.731.539.539,0,0,1,.073.318.506.506,0,0,1,.284-.133,1.205,1.205,0,0,1,.951-.278h.331V-.323a.207.207,0,0,0-.106-.193A.665.665,0,0,0,.849-.578a1.506,1.506,0,0,0-.336.036,1.16,1.16,0,0,0-.286.107V-.863A3.408,3.408,0,0,1,.586-.929,2.939,2.939,0,0,1,.951-.952a1.011,1.011,0,0,1,.683.188.775.775,0,0,1,.211.608Z" transform="translate(-0.073 0.952)" fill="#15605f" stroke="#707070" stroke-width="0.061"/>
      </g>
      <g id="Grupo_97" data-name="Grupo 97" transform="translate(8.251 69.277)">
        <path id="Caminho_227" data-name="Caminho 227" d="M.862-1.193v.5h.578v.4H.862V.449A.216.216,0,0,0,.91.613.3.3,0,0,0,1.1.656h.288v.4H.91A.658.658,0,0,1,.438.919.654.654,0,0,1,.3.449V-.3H.023V-.7H.3v-.5Z" transform="translate(-0.023 1.193)" fill="#15605f" stroke="#707070" stroke-width="0.061"/>
      </g>
      <g id="Grupo_98" data-name="Grupo 98" transform="translate(9.878 69.731)">
        <path id="Caminho_228" data-name="Caminho 228" d="M1.954-.038V.123H.644a.417.417,0,0,0,.143.3.529.529,0,0,0,.342.1A1.319,1.319,0,0,0,1.489.464,1.912,1.912,0,0,0,1.87.3V.736a2.361,2.361,0,0,1-.4.113,2.061,2.061,0,0,1-.4.039A1.058,1.058,0,0,1,.336.647.874.874,0,0,1,.073-.031.883.883,0,0,1,.332-.705a.99.99,0,0,1,.712-.247.892.892,0,0,1,.662.25.9.9,0,0,1,.249.663ZM1.379-.224A.355.355,0,0,0,1.286-.48a.321.321,0,0,0-.243-.1.382.382,0,0,0-.265.091.419.419,0,0,0-.127.263Z" transform="translate(-0.073 0.952)" fill="#15605f" stroke="#707070" stroke-width="0.061"/>
      </g>
      <g id="Grupo_99" data-name="Grupo 99" transform="translate(12.058 69.091)">
        <path id="Caminho_229" data-name="Caminho 229" d="M1.393-.353v-.939h.563V1.144H1.393V.89a.738.738,0,0,1-.254.227.7.7,0,0,1-.324.072A.652.652,0,0,1,.284.931,1.02,1.02,0,0,1,.077.269,1.023,1.023,0,0,1,.284-.394.652.652,0,0,1,.815-.652a.684.684,0,0,1,.322.073.776.776,0,0,1,.256.225ZM1.025.783A.318.318,0,0,0,1.3.652.653.653,0,0,0,1.393.269.645.645,0,0,0,1.3-.111a.317.317,0,0,0-.274-.132.316.316,0,0,0-.274.132A.642.642,0,0,0,.656.269.649.649,0,0,0,.751.652.317.317,0,0,0,1.025.783Z" transform="translate(-0.077 1.292)" fill="#15605f" stroke="#707070" stroke-width="0.061"/>
      </g>
      <g id="Grupo_100" data-name="Grupo 100" transform="translate(15.593 69.091)">
        <path id="Caminho_230" data-name="Caminho 230" d="M1.075.783A.319.319,0,0,0,1.35.652.653.653,0,0,0,1.445.269.645.645,0,0,0,1.35-.111a.319.319,0,0,0-.275-.132A.322.322,0,0,0,.8-.111.648.648,0,0,0,.7.269.646.646,0,0,0,.8.65a.321.321,0,0,0,.277.132ZM.7-.353A.794.794,0,0,1,.959-.578a.694.694,0,0,1,.324-.073.654.654,0,0,1,.533.258,1.026,1.026,0,0,1,.207.663,1.022,1.022,0,0,1-.207.662.654.654,0,0,1-.533.258.71.71,0,0,1-.324-.072A.774.774,0,0,1,.7.89v.254H.143V-1.292H.7Z" transform="translate(-0.143 1.292)" fill="#15605f" stroke="#707070" stroke-width="0.061"/>
      </g>
      <g id="Grupo_101" data-name="Grupo 101" transform="translate(17.657 69.774)">
        <path id="Caminho_231" data-name="Caminho 231" d="M.021-.929h.56L1.053.26l.4-1.189h.56L1.276.99a.936.936,0,0,1-.259.408.608.608,0,0,1-.39.118H.3V1.147H.477A.362.362,0,0,0,.684,1.1a.292.292,0,0,0,.1-.161L.8.891Z" transform="translate(-0.021 0.929)" fill="#15605f" stroke="#707070" stroke-width="0.061"/>
      </g>
      <g id="Grupo_102" data-name="Grupo 102" transform="translate(21.117 69.191)">
        <path id="Caminho_232" data-name="Caminho 232" d="M.156-1.239h.6V.641H1.816V1.1H.156Z" transform="translate(-0.156 1.239)" fill="#15605f" stroke="#707070" stroke-width="0.061"/>
      </g>
      <g id="Grupo_103" data-name="Grupo 103" transform="translate(23.002 69.731)">
        <path id="Caminho_233" data-name="Caminho 233" d="M.99.055A.483.483,0,0,0,.726.114.2.2,0,0,0,.638.289.208.208,0,0,0,.71.457a.3.3,0,0,0,.2.059A.353.353,0,0,0,1.173.4.4.4,0,0,0,1.282.119V.055Zm.855-.211v1H1.282V.584a.724.724,0,0,1-.254.232A.758.758,0,0,1,.685.888.623.623,0,0,1,.243.731.539.539,0,0,1,.073.318.506.506,0,0,1,.284-.133,1.205,1.205,0,0,1,.951-.278h.331V-.323a.207.207,0,0,0-.106-.193A.665.665,0,0,0,.849-.578a1.506,1.506,0,0,0-.336.036,1.16,1.16,0,0,0-.286.107V-.863A3.408,3.408,0,0,1,.586-.929,2.939,2.939,0,0,1,.951-.952a1.011,1.011,0,0,1,.683.188.775.775,0,0,1,.211.608Z" transform="translate(-0.073 0.952)" fill="#15605f" stroke="#707070" stroke-width="0.061"/>
      </g>
      <g id="Grupo_104" data-name="Grupo 104" transform="translate(25.297 69.731)">
        <path id="Caminho_234" data-name="Caminho 234" d="M1.445-.432A.774.774,0,0,0,1.3-.482.612.612,0,0,0,1.152-.5.408.408,0,0,0,.819-.36.6.6,0,0,0,.7.035V.843H.143V-.909H.7v.288A.712.712,0,0,1,.95-.872a.667.667,0,0,1,.336-.08.6.6,0,0,1,.061,0l.1.009Z" transform="translate(-0.143 0.952)" fill="#15605f" stroke="#707070" stroke-width="0.061"/>
      </g>
      <g id="Grupo_105" data-name="Grupo 105" transform="translate(26.773 69.731)">
        <path id="Caminho_235" data-name="Caminho 235" d="M1.56-.854v.426a2.069,2.069,0,0,0-.347-.113A1.457,1.457,0,0,0,.9-.578a.557.557,0,0,0-.238.039.13.13,0,0,0-.077.123.113.113,0,0,0,.059.1A.559.559,0,0,0,.852-.26l.1.014a1.2,1.2,0,0,1,.579.181.485.485,0,0,1,.148.392.477.477,0,0,1-.207.422A1.1,1.1,0,0,1,.855.888,2.525,2.525,0,0,1,.494.861,2.891,2.891,0,0,1,.115.779V.353A1.564,1.564,0,0,0,.457.477,1.643,1.643,0,0,0,.816.516.531.531,0,0,0,1.063.471.148.148,0,0,0,1.145.335.122.122,0,0,0,1.088.225.6.6,0,0,0,.861.167L.762.155A1.023,1.023,0,0,1,.238-.019.475.475,0,0,1,.088-.4a.471.471,0,0,1,.19-.413A1.021,1.021,0,0,1,.864-.952a2.249,2.249,0,0,1,.324.025,3.574,3.574,0,0,1,.372.073Z" transform="translate(-0.088 0.952)" fill="#15605f" stroke="#707070" stroke-width="0.061"/>
      </g>
      <g id="Grupo_106" data-name="Grupo 106" transform="translate(29.925 69.191)">
        <path id="Caminho_236" data-name="Caminho 236" d="M.156-1.239H.922L1.455.011l.535-1.25h.765V1.1h-.57V-.613L1.646.648H1.265L.727-.613V1.1H.156Z" transform="translate(-0.156 1.239)" fill="#15605f" stroke="#707070" stroke-width="0.061"/>
      </g>
      <g id="Grupo_107" data-name="Grupo 107" transform="translate(32.957 69.731)">
        <path id="Caminho_237" data-name="Caminho 237" d="M1.954-.038V.123H.644a.417.417,0,0,0,.143.3.529.529,0,0,0,.342.1A1.319,1.319,0,0,0,1.489.464,1.912,1.912,0,0,0,1.87.3V.736a2.361,2.361,0,0,1-.4.113,2.061,2.061,0,0,1-.4.039A1.058,1.058,0,0,1,.336.647.874.874,0,0,1,.073-.031.883.883,0,0,1,.332-.705a.99.99,0,0,1,.712-.247.892.892,0,0,1,.662.25.9.9,0,0,1,.249.663ZM1.379-.224A.355.355,0,0,0,1.286-.48a.321.321,0,0,0-.243-.1.382.382,0,0,0-.265.091.419.419,0,0,0-.127.263Z" transform="translate(-0.073 0.952)" fill="#15605f" stroke="#707070" stroke-width="0.061"/>
      </g>
      <g id="Grupo_108" data-name="Grupo 108" transform="translate(35.263 69.091)">
        <path id="Caminho_238" data-name="Caminho 238" d="M.143-.609H.7V1.144H.143Zm0-.683H.7v.458H.143Z" transform="translate(-0.143 1.292)" fill="#15605f" stroke="#707070" stroke-width="0.061"/>
      </g>
      <g id="Grupo_109" data-name="Grupo 109" transform="translate(36.229 69.731)">
        <path id="Caminho_239" data-name="Caminho 239" d="M1.954-.038V.123H.644a.417.417,0,0,0,.143.3.529.529,0,0,0,.342.1A1.319,1.319,0,0,0,1.489.464,1.912,1.912,0,0,0,1.87.3V.736a2.361,2.361,0,0,1-.4.113,2.061,2.061,0,0,1-.4.039A1.058,1.058,0,0,1,.336.647.874.874,0,0,1,.073-.031.883.883,0,0,1,.332-.705a.99.99,0,0,1,.712-.247.892.892,0,0,1,.662.25.9.9,0,0,1,.249.663ZM1.379-.224A.355.355,0,0,0,1.286-.48a.321.321,0,0,0-.243-.1.382.382,0,0,0-.265.091.419.419,0,0,0-.127.263Z" transform="translate(-0.073 0.952)" fill="#15605f" stroke="#707070" stroke-width="0.061"/>
      </g>
      <g id="Grupo_110" data-name="Grupo 110" transform="translate(38.535 69.731)">
        <path id="Caminho_240" data-name="Caminho 240" d="M1.445-.432A.774.774,0,0,0,1.3-.482.612.612,0,0,0,1.152-.5.408.408,0,0,0,.819-.36.6.6,0,0,0,.7.035V.843H.143V-.909H.7v.288A.712.712,0,0,1,.95-.872a.667.667,0,0,1,.336-.08.6.6,0,0,1,.061,0l.1.009Z" transform="translate(-0.143 0.952)" fill="#15605f" stroke="#707070" stroke-width="0.061"/>
      </g>
      <g id="Grupo_111" data-name="Grupo 111" transform="translate(39.888 69.277)">
        <path id="Caminho_241" data-name="Caminho 241" d="M.862-1.193v.5h.578v.4H.862V.449A.216.216,0,0,0,.91.613.3.3,0,0,0,1.1.656h.288v.4H.91A.658.658,0,0,1,.438.919.654.654,0,0,1,.3.449V-.3H.023V-.7H.3v-.5Z" transform="translate(-0.023 1.193)" fill="#15605f" stroke="#707070" stroke-width="0.061"/>
      </g>
      <g id="Grupo_112" data-name="Grupo 112" transform="translate(41.515 69.731)">
        <path id="Caminho_242" data-name="Caminho 242" d="M1.039-.552a.33.33,0,0,0-.284.134.645.645,0,0,0-.1.386.645.645,0,0,0,.1.386.331.331,0,0,0,.284.132A.323.323,0,0,0,1.318.355a.648.648,0,0,0,.1-.386.648.648,0,0,0-.1-.386A.323.323,0,0,0,1.039-.552Zm0-.4a.977.977,0,0,1,.706.245A.893.893,0,0,1,2-.031a.9.9,0,0,1-.254.676.98.98,0,0,1-.706.243A.987.987,0,0,1,.329.645.89.89,0,0,1,.073-.031.888.888,0,0,1,.329-.707.984.984,0,0,1,1.039-.952Z" transform="translate(-0.073 0.952)" fill="#15605f" stroke="#707070" stroke-width="0.061"/>
      </g>
      <g id="Grupo_113" data-name="Grupo 113" transform="translate(43.849 69.091)">
        <path id="Caminho_243" data-name="Caminho 243" d="M1.075.783A.319.319,0,0,0,1.35.652.653.653,0,0,0,1.445.269.645.645,0,0,0,1.35-.111a.319.319,0,0,0-.275-.132A.322.322,0,0,0,.8-.111.648.648,0,0,0,.7.269.646.646,0,0,0,.8.65a.321.321,0,0,0,.277.132ZM.7-.353A.794.794,0,0,1,.959-.578a.694.694,0,0,1,.324-.073.654.654,0,0,1,.533.258,1.026,1.026,0,0,1,.207.663,1.022,1.022,0,0,1-.207.662.654.654,0,0,1-.533.258.71.71,0,0,1-.324-.072A.774.774,0,0,1,.7.89v.254H.143V-1.292H.7Z" transform="translate(-0.143 1.292)" fill="#15605f" stroke="#707070" stroke-width="0.061"/>
      </g>
      <g id="Grupo_114" data-name="Grupo 114" transform="translate(46.011 69.731)">
        <path id="Caminho_244" data-name="Caminho 244" d="M1.954-.038V.123H.644a.417.417,0,0,0,.143.3.529.529,0,0,0,.342.1A1.319,1.319,0,0,0,1.489.464,1.912,1.912,0,0,0,1.87.3V.736a2.361,2.361,0,0,1-.4.113,2.061,2.061,0,0,1-.4.039A1.058,1.058,0,0,1,.336.647.874.874,0,0,1,.073-.031.883.883,0,0,1,.332-.705a.99.99,0,0,1,.712-.247.892.892,0,0,1,.662.25.9.9,0,0,1,.249.663ZM1.379-.224A.355.355,0,0,0,1.286-.48a.321.321,0,0,0-.243-.1.382.382,0,0,0-.265.091.419.419,0,0,0-.127.263Z" transform="translate(-0.073 0.952)" fill="#15605f" stroke="#707070" stroke-width="0.061"/>
      </g>
      <g id="Grupo_115" data-name="Grupo 115" transform="translate(48.317 69.731)">
        <path id="Caminho_245" data-name="Caminho 245" d="M1.445-.432A.774.774,0,0,0,1.3-.482.612.612,0,0,0,1.152-.5.408.408,0,0,0,.819-.36.6.6,0,0,0,.7.035V.843H.143V-.909H.7v.288A.712.712,0,0,1,.95-.872a.667.667,0,0,1,.336-.08.6.6,0,0,1,.061,0l.1.009Z" transform="translate(-0.143 0.952)" fill="#15605f" stroke="#707070" stroke-width="0.061"/>
      </g>
      <g id="Grupo_116" data-name="Grupo 116" transform="translate(49.765 69.731)">
        <path id="Caminho_246" data-name="Caminho 246" d="M1.954-.038V.123H.644a.417.417,0,0,0,.143.3.529.529,0,0,0,.342.1A1.319,1.319,0,0,0,1.489.464,1.912,1.912,0,0,0,1.87.3V.736a2.361,2.361,0,0,1-.4.113,2.061,2.061,0,0,1-.4.039A1.058,1.058,0,0,1,.336.647.874.874,0,0,1,.073-.031.883.883,0,0,1,.332-.705a.99.99,0,0,1,.712-.247.892.892,0,0,1,.662.25.9.9,0,0,1,.249.663ZM1.379-.224A.355.355,0,0,0,1.286-.48a.321.321,0,0,0-.243-.1.382.382,0,0,0-.265.091.419.419,0,0,0-.127.263Z" transform="translate(-0.073 0.952)" fill="#15605f" stroke="#707070" stroke-width="0.061"/>
      </g>
      <g id="Grupo_117" data-name="Grupo 117" transform="translate(52.071 69.731)">
        <path id="Caminho_247" data-name="Caminho 247" d="M1.9-.224V.843H1.341V.026a3,3,0,0,0-.011-.313.336.336,0,0,0-.036-.127A.228.228,0,0,0,1.206-.5a.263.263,0,0,0-.127-.03A.324.324,0,0,0,.8-.392a.612.612,0,0,0-.1.374V.843H.143V-.909H.7v.256A.9.9,0,0,1,.971-.879a.681.681,0,0,1,.315-.073.568.568,0,0,1,.461.188.817.817,0,0,1,.157.54Z" transform="translate(-0.143 0.952)" fill="#15605f" stroke="#707070" stroke-width="0.061"/>
      </g>
      <g id="Grupo_118" data-name="Grupo 118" transform="translate(54.249 69.731)">
        <path id="Caminho_248" data-name="Caminho 248" d="M1.56-.854v.426a2.069,2.069,0,0,0-.347-.113A1.457,1.457,0,0,0,.9-.578a.557.557,0,0,0-.238.039.13.13,0,0,0-.077.123.113.113,0,0,0,.059.1A.559.559,0,0,0,.852-.26l.1.014a1.2,1.2,0,0,1,.579.181.485.485,0,0,1,.148.392.477.477,0,0,1-.207.422A1.1,1.1,0,0,1,.855.888,2.525,2.525,0,0,1,.494.861,2.891,2.891,0,0,1,.115.779V.353A1.564,1.564,0,0,0,.457.477,1.643,1.643,0,0,0,.816.516.531.531,0,0,0,1.063.471.148.148,0,0,0,1.145.335.122.122,0,0,0,1.088.225.6.6,0,0,0,.861.167L.762.155A1.023,1.023,0,0,1,.238-.019.475.475,0,0,1,.088-.4a.471.471,0,0,1,.19-.413A1.021,1.021,0,0,1,.864-.952a2.249,2.249,0,0,1,.324.025,3.574,3.574,0,0,1,.372.073Z" transform="translate(-0.088 0.952)" fill="#15605f" stroke="#707070" stroke-width="0.061"/>
      </g>
      <g id="Grupo_119" data-name="Grupo 119" transform="translate(0 72.295)">
        <path id="Caminho_249" data-name="Caminho 249" d="M1.393-1.292v.368H1.084A.251.251,0,0,0,.918-.88a.2.2,0,0,0-.046.15v.122H1.35v.4H.871V1.144H.311V-.208H.032v-.4H.311V-.73A.531.531,0,0,1,.47-1.154a.745.745,0,0,1,.5-.138Z" transform="translate(-0.032 1.292)" fill="#15605f" stroke="#707070" stroke-width="0.061"/>
      </g>
      <g id="Grupo_120" data-name="Grupo 120" transform="translate(1.604 72.936)">
        <path id="Caminho_250" data-name="Caminho 250" d="M1.445-.432A.774.774,0,0,0,1.3-.482.612.612,0,0,0,1.152-.5.408.408,0,0,0,.819-.36.6.6,0,0,0,.7.035V.843H.143V-.909H.7v.288A.712.712,0,0,1,.95-.872a.667.667,0,0,1,.336-.08.6.6,0,0,1,.061,0l.1.009Z" transform="translate(-0.143 0.952)" fill="#15605f" stroke="#707070" stroke-width="0.061"/>
      </g>
      <g id="Grupo_121" data-name="Grupo 121" transform="translate(3.052 72.936)">
        <path id="Caminho_251" data-name="Caminho 251" d="M1.039-.552a.33.33,0,0,0-.284.134.645.645,0,0,0-.1.386.645.645,0,0,0,.1.386.331.331,0,0,0,.284.132A.323.323,0,0,0,1.318.355a.648.648,0,0,0,.1-.386.648.648,0,0,0-.1-.386A.323.323,0,0,0,1.039-.552Zm0-.4a.977.977,0,0,1,.706.245A.893.893,0,0,1,2-.031a.9.9,0,0,1-.254.676.98.98,0,0,1-.706.243A.987.987,0,0,1,.329.645.89.89,0,0,1,.073-.031.888.888,0,0,1,.329-.707.984.984,0,0,1,1.039-.952Z" transform="translate(-0.073 0.952)" fill="#15605f" stroke="#707070" stroke-width="0.061"/>
      </g>
      <g id="Grupo_122" data-name="Grupo 122" transform="translate(5.382 72.936)">
        <path id="Caminho_252" data-name="Caminho 252" d="M1.769-.618a.759.759,0,0,1,.252-.249.624.624,0,0,1,.322-.086.566.566,0,0,1,.46.188.81.81,0,0,1,.159.54V.843H2.4V-.112c0-.015,0-.037,0-.064a.5.5,0,0,0-.055-.268.193.193,0,0,0-.175-.084A.279.279,0,0,0,1.923-.4a.687.687,0,0,0-.089.379v.86H1.27V-.071a.871.871,0,0,0-.05-.374.191.191,0,0,0-.179-.084A.281.281,0,0,0,.792-.4.676.676,0,0,0,.7-.019V.843H.141V-.909H.7v.256A.728.728,0,0,1,.941-.877a.594.594,0,0,1,.3-.075.6.6,0,0,1,.322.088.552.552,0,0,1,.211.247Z" transform="translate(-0.141 0.952)" fill="#15605f" stroke="#707070" stroke-width="0.061"/>
      </g>
      <g id="Grupo_123" data-name="Grupo 123" transform="translate(9.614 72.481)">
        <path id="Caminho_253" data-name="Caminho 253" d="M.862-1.193v.5h.578v.4H.862V.449A.216.216,0,0,0,.91.613.3.3,0,0,0,1.1.656h.288v.4H.91A.658.658,0,0,1,.438.919.654.654,0,0,1,.3.449V-.3H.023V-.7H.3v-.5Z" transform="translate(-0.023 1.193)" fill="#15605f" stroke="#707070" stroke-width="0.061"/>
      </g>
      <g id="Grupo_124" data-name="Grupo 124" transform="translate(11.373 72.295)">
        <path id="Caminho_254" data-name="Caminho 254" d="M1.9.076V1.144H1.341V.33A3.044,3.044,0,0,0,1.331.014a.336.336,0,0,0-.036-.127A.228.228,0,0,0,1.206-.2a.263.263,0,0,0-.127-.03A.324.324,0,0,0,.8-.092.612.612,0,0,0,.7.282v.862H.143V-1.292H.7v.939A.9.9,0,0,1,.971-.578a.681.681,0,0,1,.315-.073.568.568,0,0,1,.461.188A.817.817,0,0,1,1.9.076Z" transform="translate(-0.143 1.292)" fill="#15605f" stroke="#707070" stroke-width="0.061"/>
      </g>
      <g id="Grupo_125" data-name="Grupo 125" transform="translate(13.522 72.936)">
        <path id="Caminho_255" data-name="Caminho 255" d="M1.954-.038V.123H.644a.417.417,0,0,0,.143.3.529.529,0,0,0,.342.1A1.319,1.319,0,0,0,1.489.464,1.912,1.912,0,0,0,1.87.3V.736a2.361,2.361,0,0,1-.4.113,2.061,2.061,0,0,1-.4.039A1.058,1.058,0,0,1,.336.647.874.874,0,0,1,.073-.031.883.883,0,0,1,.332-.705a.99.99,0,0,1,.712-.247.892.892,0,0,1,.662.25.9.9,0,0,1,.249.663ZM1.379-.224A.355.355,0,0,0,1.286-.48a.321.321,0,0,0-.243-.1.382.382,0,0,0-.265.091.419.419,0,0,0-.127.263Z" transform="translate(-0.073 0.952)" fill="#15605f" stroke="#707070" stroke-width="0.061"/>
      </g>
      <g id="Grupo_126" data-name="Grupo 126" transform="translate(16.969 72.396)">
        <path id="Caminho_256" data-name="Caminho 256" d="M.156-1.239H.829l.849,1.6v-1.6h.57V1.1H1.576L.727-.505V1.1H.156Z" transform="translate(-0.156 1.239)" fill="#15605f" stroke="#707070" stroke-width="0.061"/>
      </g>
      <g id="Grupo_127" data-name="Grupo 127" transform="translate(19.493 72.936)">
        <path id="Caminho_257" data-name="Caminho 257" d="M1.039-.552a.33.33,0,0,0-.284.134.645.645,0,0,0-.1.386.645.645,0,0,0,.1.386.331.331,0,0,0,.284.132A.323.323,0,0,0,1.318.355a.648.648,0,0,0,.1-.386.648.648,0,0,0-.1-.386A.323.323,0,0,0,1.039-.552Zm0-.4a.977.977,0,0,1,.706.245A.893.893,0,0,1,2-.031a.9.9,0,0,1-.254.676.98.98,0,0,1-.706.243A.987.987,0,0,1,.329.645.89.89,0,0,1,.073-.031.888.888,0,0,1,.329-.707.984.984,0,0,1,1.039-.952Z" transform="translate(-0.073 0.952)" fill="#15605f" stroke="#707070" stroke-width="0.061"/>
      </g>
      <g id="Grupo_128" data-name="Grupo 128" transform="translate(21.808 72.979)">
        <path id="Caminho_258" data-name="Caminho 258" d="M.133.14V-.929H.7v.175c0,.1,0,.215,0,.358s0,.239,0,.286A3.011,3.011,0,0,0,.7.2.353.353,0,0,0,.741.33.247.247,0,0,0,.832.415.27.27,0,0,0,.959.444.325.325,0,0,0,1.234.31a.614.614,0,0,0,.1-.374V-.929h.56V.823h-.56V.569A.881.881,0,0,1,1.066.8.687.687,0,0,1,.753.868.572.572,0,0,1,.292.682.81.81,0,0,1,.133.14Z" transform="translate(-0.133 0.929)" fill="#15605f" stroke="#707070" stroke-width="0.061"/>
      </g>
      <g id="Grupo_129" data-name="Grupo 129" transform="translate(24.109 72.936)">
        <path id="Caminho_259" data-name="Caminho 259" d="M1.9-.224V.843H1.341V.026a3,3,0,0,0-.011-.313.336.336,0,0,0-.036-.127A.228.228,0,0,0,1.206-.5a.263.263,0,0,0-.127-.03A.324.324,0,0,0,.8-.392a.612.612,0,0,0-.1.374V.843H.143V-.909H.7v.256A.9.9,0,0,1,.971-.879a.681.681,0,0,1,.315-.073.568.568,0,0,1,.461.188.817.817,0,0,1,.157.54Z" transform="translate(-0.143 0.952)" fill="#15605f" stroke="#707070" stroke-width="0.061"/>
      </g>
      <g id="Grupo_130" data-name="Grupo 130" transform="translate(27.531 72.396)">
        <path id="Caminho_260" data-name="Caminho 260" d="M.156-1.239h1a1.04,1.04,0,0,1,.683.2.688.688,0,0,1,.24.563.693.693,0,0,1-.24.565,1.04,1.04,0,0,1-.683.2h-.4V1.1h-.6Zm.6.436V-.15h.334a.389.389,0,0,0,.27-.086.306.306,0,0,0,.1-.241.3.3,0,0,0-.1-.241A.4.4,0,0,0,1.092-.8Z" transform="translate(-0.156 1.239)" fill="#15605f" stroke="#707070" stroke-width="0.061"/>
      </g>
      <g id="Grupo_131" data-name="Grupo 131" transform="translate(29.855 72.936)">
        <path id="Caminho_261" data-name="Caminho 261" d="M1.445-.432A.774.774,0,0,0,1.3-.482.612.612,0,0,0,1.152-.5.408.408,0,0,0,.819-.36.6.6,0,0,0,.7.035V.843H.143V-.909H.7v.288A.712.712,0,0,1,.95-.872a.667.667,0,0,1,.336-.08.6.6,0,0,1,.061,0l.1.009Z" transform="translate(-0.143 0.952)" fill="#15605f" stroke="#707070" stroke-width="0.061"/>
      </g>
      <g id="Grupo_132" data-name="Grupo 132" transform="translate(31.303 72.936)">
        <path id="Caminho_262" data-name="Caminho 262" d="M1.039-.552a.33.33,0,0,0-.284.134.645.645,0,0,0-.1.386.645.645,0,0,0,.1.386.331.331,0,0,0,.284.132A.323.323,0,0,0,1.318.355a.648.648,0,0,0,.1-.386.648.648,0,0,0-.1-.386A.323.323,0,0,0,1.039-.552Zm0-.4a.977.977,0,0,1,.706.245A.893.893,0,0,1,2-.031a.9.9,0,0,1-.254.676.98.98,0,0,1-.706.243A.987.987,0,0,1,.329.645.89.89,0,0,1,.073-.031.888.888,0,0,1,.329-.707.984.984,0,0,1,1.039-.952Z" transform="translate(-0.073 0.952)" fill="#15605f" stroke="#707070" stroke-width="0.061"/>
      </g>
      <g id="Grupo_133" data-name="Grupo 133" transform="translate(33.26 72.296)">
        <path id="Caminho_263" data-name="Caminho 263" d="M.32-.609H.88v1.72a.773.773,0,0,1-.17.538.627.627,0,0,1-.49.186H-.057V1.468h.1A.273.273,0,0,0,.26,1.4.468.468,0,0,0,.32,1.112Zm0-.683H.88v.458H.32Z" transform="translate(0.057 1.292)" fill="#15605f" stroke="#707070" stroke-width="0.061"/>
      </g>
      <g id="Grupo_134" data-name="Grupo 134" transform="translate(34.603 72.936)">
        <path id="Caminho_264" data-name="Caminho 264" d="M1.954-.038V.123H.644a.417.417,0,0,0,.143.3.529.529,0,0,0,.342.1A1.319,1.319,0,0,0,1.489.464,1.912,1.912,0,0,0,1.87.3V.736a2.361,2.361,0,0,1-.4.113,2.061,2.061,0,0,1-.4.039A1.058,1.058,0,0,1,.336.647.874.874,0,0,1,.073-.031.883.883,0,0,1,.332-.705a.99.99,0,0,1,.712-.247.892.892,0,0,1,.662.25.9.9,0,0,1,.249.663ZM1.379-.224A.355.355,0,0,0,1.286-.48a.321.321,0,0,0-.243-.1.382.382,0,0,0-.265.091.419.419,0,0,0-.127.263Z" transform="translate(-0.073 0.952)" fill="#15605f" stroke="#707070" stroke-width="0.061"/>
      </g>
      <g id="Grupo_135" data-name="Grupo 135" transform="translate(36.777 72.936)">
        <path id="Caminho_265" data-name="Caminho 265" d="M1.62-.854V-.4a.871.871,0,0,0-.229-.116.759.759,0,0,0-.238-.038.484.484,0,0,0-.367.138.53.53,0,0,0-.131.383A.533.533,0,0,0,.787.351a.487.487,0,0,0,.367.136A.816.816,0,0,0,1.4.45.734.734,0,0,0,1.62.334V.791a1.515,1.515,0,0,1-.266.072,1.493,1.493,0,0,1-.272.025A1.064,1.064,0,0,1,.34.645.867.867,0,0,1,.073-.031.871.871,0,0,1,.34-.709a1.066,1.066,0,0,1,.742-.243,1.493,1.493,0,0,1,.272.025,1.5,1.5,0,0,1,.266.073Z" transform="translate(-0.073 0.952)" fill="#15605f" stroke="#707070" stroke-width="0.061"/>
      </g>
      <g id="Grupo_136" data-name="Grupo 136" transform="translate(38.582 72.481)">
        <path id="Caminho_266" data-name="Caminho 266" d="M.862-1.193v.5h.578v.4H.862V.449A.216.216,0,0,0,.91.613.3.3,0,0,0,1.1.656h.288v.4H.91A.658.658,0,0,1,.438.919.654.654,0,0,1,.3.449V-.3H.023V-.7H.3v-.5Z" transform="translate(-0.023 1.193)" fill="#15605f" stroke="#707070" stroke-width="0.061"/>
      </g>
    </g>
  </g>
</svg>
