<svg xmlns="http://www.w3.org/2000/svg" xmlns:xlink="http://www.w3.org/1999/xlink" width="60" height="69" viewBox="0 0 60 69">
  <defs>
    <clipPath id="clip-path">
      <rect id="Ret칙ngulo_331" data-name="Ret칙ngulo 331" width="60" height="69" transform="translate(3578 4037)" fill="#15605f"/>
    </clipPath>
  </defs>
  <g id="Grupo_de_m치scara_59" data-name="Grupo de m치scara 59" transform="translate(-3578 -4037)" clip-path="url(#clip-path)">
    <g id="noun-list-1556759" transform="translate(3542.581 4018.128)">
      <path id="Caminho_2088" data-name="Caminho 2088" d="M45.2,22.872a2.178,2.178,0,1,0,0,4.356H90.942a2.178,2.178,0,1,0,0-4.356Zm0,19.6a2.178,2.178,0,1,0,0,4.356H90.942a2.178,2.178,0,1,0,0-4.356Zm0,19.6a2.178,2.178,0,1,0,0,4.356H90.942a2.178,2.178,0,1,0,0-4.356Zm0,19.6a2.178,2.178,0,1,0,0,4.356H90.942a2.178,2.178,0,1,0,0-4.356Z" fill="#15605f"/>
      <g id="Grupo_1445" data-name="Grupo 1445" transform="translate(13.614 125.25)">
        <path id="Caminho_2089" data-name="Caminho 2089" d="M3.65-.219A2.587,2.587,0,0,1,3.06,0a2.65,2.65,0,0,1-.638.076A2.18,2.18,0,0,1,.851-.477a1.983,1.983,0,0,1-.58-1.5,1.979,1.979,0,0,1,.58-1.5,2.175,2.175,0,0,1,1.571-.556,2.65,2.65,0,0,1,.638.076,2.587,2.587,0,0,1,.59.219v.821a2.336,2.336,0,0,0-.562-.283A1.854,1.854,0,0,0,2.5-3.3a1.091,1.091,0,0,0-.86.353,1.4,1.4,0,0,0-.313.966,1.4,1.4,0,0,0,.313.966,1.094,1.094,0,0,0,.86.349,1.9,1.9,0,0,0,.583-.088,2.27,2.27,0,0,0,.562-.286Z" fill="#15605f"/>
      </g>
      <g id="Grupo_1446" data-name="Grupo 1446" transform="translate(17.611 125.25)">
        <path id="Caminho_2090" data-name="Caminho 2090" d="M2.671-2.167a1.316,1.316,0,0,0-.252-.085,1.04,1.04,0,0,0-.246-.03.694.694,0,0,0-.565.237,1.012,1.012,0,0,0-.2.672V0H.459V-2.978H1.41v.489a1.209,1.209,0,0,1,.419-.425A1.134,1.134,0,0,1,2.4-3.051a1.013,1.013,0,0,1,.1.006c.038,0,.093.008.164.015Z" fill="#15605f"/>
      </g>
      <g id="Grupo_1447" data-name="Grupo 1447" transform="translate(20.297 125.25)">
        <path id="Caminho_2091" data-name="Caminho 2091" d="M3.431-1.5v.273H1.2a.708.708,0,0,0,.243.5.9.9,0,0,0,.58.167,2.241,2.241,0,0,0,.614-.088,3.249,3.249,0,0,0,.647-.27v.732a4.012,4.012,0,0,1-.675.191,3.5,3.5,0,0,1-.675.067A1.8,1.8,0,0,1,.681-.334,1.485,1.485,0,0,1,.234-1.486,1.5,1.5,0,0,1,.675-2.632a1.681,1.681,0,0,1,1.209-.419,1.515,1.515,0,0,1,1.124.425A1.527,1.527,0,0,1,3.431-1.5Zm-.979-.316a.6.6,0,0,0-.158-.435.545.545,0,0,0-.413-.167.649.649,0,0,0-.45.155.713.713,0,0,0-.216.447Z" fill="#15605f"/>
      </g>
      <g id="Grupo_1448" data-name="Grupo 1448" transform="translate(23.99 125.25)">
        <path id="Caminho_2092" data-name="Caminho 2092" d="M1.793-1.34a.82.82,0,0,0-.45.1.335.335,0,0,0-.149.3.353.353,0,0,0,.122.286.509.509,0,0,0,.334.1A.6.6,0,0,0,2.1-.748a.674.674,0,0,0,.185-.483V-1.34ZM3.246-1.7V0H2.288V-.441a1.23,1.23,0,0,1-.432.4,1.288,1.288,0,0,1-.583.122A1.058,1.058,0,0,1,.523-.191a.916.916,0,0,1-.289-.7.86.86,0,0,1,.359-.766,2.048,2.048,0,0,1,1.133-.246h.562v-.076a.352.352,0,0,0-.179-.328,1.129,1.129,0,0,0-.556-.106,2.559,2.559,0,0,0-.571.061A1.971,1.971,0,0,0,.5-2.173V-2.9a5.791,5.791,0,0,1,.611-.112,5,5,0,0,1,.62-.04,1.719,1.719,0,0,1,1.161.319A1.317,1.317,0,0,1,3.246-1.7Z" fill="#15605f"/>
      </g>
      <g id="Grupo_1449" data-name="Grupo 1449" transform="translate(27.664 125.25)">
        <path id="Caminho_2093" data-name="Caminho 2093" d="M1.5-3.823v.845H2.48V-2.3H1.5v1.264a.368.368,0,0,0,.082.28.512.512,0,0,0,.325.073h.489V0H1.58a1.118,1.118,0,0,1-.8-.234,1.112,1.112,0,0,1-.234-.8V-2.3H.073v-.681H.544v-.845Z" fill="#15605f"/>
      </g>
      <g id="Grupo_1450" data-name="Grupo 1450" transform="translate(30.268 125.25)">
        <path id="Caminho_2094" data-name="Caminho 2094" d="M3.431-1.5v.273H1.2a.708.708,0,0,0,.243.5.9.9,0,0,0,.58.167,2.241,2.241,0,0,0,.614-.088,3.249,3.249,0,0,0,.647-.27v.732a4.012,4.012,0,0,1-.675.191,3.5,3.5,0,0,1-.675.067A1.8,1.8,0,0,1,.681-.334,1.485,1.485,0,0,1,.234-1.486,1.5,1.5,0,0,1,.675-2.632a1.681,1.681,0,0,1,1.209-.419,1.515,1.515,0,0,1,1.124.425A1.527,1.527,0,0,1,3.431-1.5Zm-.979-.316a.6.6,0,0,0-.158-.435.545.545,0,0,0-.413-.167.649.649,0,0,0-.45.155.713.713,0,0,0-.216.447Z" fill="#15605f"/>
      </g>
      <g id="Grupo_1451" data-name="Grupo 1451" transform="translate(33.961 125.25)">
        <path id="Caminho_2095" data-name="Caminho 2095" d="M2.483-2.544v-1.6H3.44V0H2.483V-.432a1.253,1.253,0,0,1-.432.386A1.2,1.2,0,0,1,1.5.076,1.107,1.107,0,0,1,.6-.362,1.733,1.733,0,0,1,.246-1.486,1.738,1.738,0,0,1,.6-2.613a1.107,1.107,0,0,1,.9-.438,1.162,1.162,0,0,1,.547.125,1.318,1.318,0,0,1,.435.383ZM1.857-.614a.54.54,0,0,0,.465-.222,1.109,1.109,0,0,0,.161-.65,1.1,1.1,0,0,0-.161-.647.539.539,0,0,0-.465-.225.537.537,0,0,0-.465.225,1.091,1.091,0,0,0-.161.647,1.1,1.1,0,0,0,.161.65.538.538,0,0,0,.465.222Z" fill="#15605f"/>
      </g>
      <g id="Grupo_1452" data-name="Grupo 1452" transform="translate(39.755 125.25)">
        <path id="Caminho_2096" data-name="Caminho 2096" d="M2.042-.614A.543.543,0,0,0,2.51-.836a1.109,1.109,0,0,0,.161-.65,1.1,1.1,0,0,0-.161-.647.541.541,0,0,0-.468-.225.548.548,0,0,0-.471.225,1.1,1.1,0,0,0-.161.647,1.1,1.1,0,0,0,.161.647.546.546,0,0,0,.471.225ZM1.41-2.544a1.348,1.348,0,0,1,.435-.383,1.178,1.178,0,0,1,.55-.125,1.112,1.112,0,0,1,.906.438,1.743,1.743,0,0,1,.353,1.127A1.737,1.737,0,0,1,3.3-.362a1.112,1.112,0,0,1-.906.438,1.206,1.206,0,0,1-.55-.122A1.316,1.316,0,0,1,1.41-.432V0H.459V-4.139H1.41Z" fill="#15605f"/>
      </g>
      <g id="Grupo_1453" data-name="Grupo 1453" transform="translate(43.653 125.25)">
        <path id="Caminho_2097" data-name="Caminho 2097" d="M.067-2.978h.951l.8,2.021L2.5-2.978h.951L2.2.283a1.591,1.591,0,0,1-.441.693,1.034,1.034,0,0,1-.662.2H.544V.55h.3A.615.615,0,0,0,1.194.471.5.5,0,0,0,1.367.2L1.395.116Z" fill="#15605f"/>
      </g>
      <g id="Grupo_1454" data-name="Grupo 1454" transform="translate(49.099 125.25)">
        <path id="Caminho_2098" data-name="Caminho 2098" d="M.425-1.161V-2.978h.957v.3c0,.163,0,.365,0,.608s0,.406,0,.486a5.117,5.117,0,0,0,.018.52.6.6,0,0,0,.064.228.419.419,0,0,0,.155.146.458.458,0,0,0,.216.049A.553.553,0,0,0,2.3-.872a1.043,1.043,0,0,0,.17-.635V-2.978h.951V0H2.468V-.432a1.5,1.5,0,0,1-.456.386A1.167,1.167,0,0,1,1.48.076.973.973,0,0,1,.7-.24a1.376,1.376,0,0,1-.27-.921Z" fill="#15605f"/>
      </g>
      <g id="Grupo_1455" data-name="Grupo 1455" transform="translate(52.975 125.25)">
        <path id="Caminho_2099" data-name="Caminho 2099" d="M3.452-1.814V0H2.495V-1.389a5.093,5.093,0,0,0-.018-.532.572.572,0,0,0-.061-.216.388.388,0,0,0-.152-.143.446.446,0,0,0-.216-.052A.55.55,0,0,0,1.58-2.1a1.04,1.04,0,0,0-.17.635V0H.459V-2.978H1.41v.435a1.52,1.52,0,0,1,.456-.383A1.158,1.158,0,0,1,2.4-3.051a.966.966,0,0,1,.784.319,1.389,1.389,0,0,1,.267.918Z" fill="#15605f"/>
      </g>
      <g id="Grupo_1456" data-name="Grupo 1456" transform="translate(56.853 125.25)">
        <path id="Caminho_2100" data-name="Caminho 2100" d="M.459-4.139H1.41V0H.459Z" fill="#15605f"/>
      </g>
      <g id="Grupo_1457" data-name="Grupo 1457" transform="translate(58.719 125.25)">
        <path id="Caminho_2101" data-name="Caminho 2101" d="M.459-2.978H1.41V0H.459Zm0-1.161H1.41v.778H.459Z" fill="#15605f"/>
      </g>
      <g id="Grupo_1458" data-name="Grupo 1458" transform="translate(60.586 125.25)">
        <path id="Caminho_2102" data-name="Caminho 2102" d="M3.218-2.483a1.29,1.29,0,0,1,.428-.422,1.061,1.061,0,0,1,.547-.146.962.962,0,0,1,.781.319,1.377,1.377,0,0,1,.27.918V0H4.288V-1.623c0-.026,0-.062,0-.109A.847.847,0,0,0,4.2-2.188a.327.327,0,0,0-.3-.143.474.474,0,0,0-.419.225,1.167,1.167,0,0,0-.152.644V0H2.37V-1.553a1.48,1.48,0,0,0-.085-.635.325.325,0,0,0-.3-.143.478.478,0,0,0-.422.225,1.148,1.148,0,0,0-.149.641V0H.453V-2.978H1.41v.435a1.237,1.237,0,0,1,.4-.38,1.009,1.009,0,0,1,.5-.128A1.011,1.011,0,0,1,2.86-2.9a.938.938,0,0,1,.359.419Z" fill="#15605f"/>
      </g>
      <g id="Grupo_1459" data-name="Grupo 1459" transform="translate(66.26 125.25)">
        <path id="Caminho_2103" data-name="Caminho 2103" d="M.459-2.978H1.41V0H.459Zm0-1.161H1.41v.778H.459Z" fill="#15605f"/>
      </g>
      <g id="Grupo_1460" data-name="Grupo 1460" transform="translate(68.127 125.25)">
        <path id="Caminho_2104" data-name="Caminho 2104" d="M2.863-2.884v.775a1.48,1.48,0,0,0-.389-.2,1.289,1.289,0,0,0-.4-.064.823.823,0,0,0-.623.234.9.9,0,0,0-.222.65.905.905,0,0,0,.222.65A.827.827,0,0,0,2.07-.6a1.387,1.387,0,0,0,.422-.064,1.247,1.247,0,0,0,.371-.2v.778A2.574,2.574,0,0,1,2.41.033a2.536,2.536,0,0,1-.462.043A1.807,1.807,0,0,1,.687-.337,1.474,1.474,0,0,1,.234-1.486,1.479,1.479,0,0,1,.687-2.638a1.811,1.811,0,0,1,1.261-.413,2.536,2.536,0,0,1,.462.043,2.543,2.543,0,0,1,.453.125Z" fill="#15605f"/>
      </g>
      <g id="Grupo_1461" data-name="Grupo 1461" transform="translate(71.354 125.25)">
        <path id="Caminho_2105" data-name="Caminho 2105" d="M1.875-2.37a.561.561,0,0,0-.483.228,1.1,1.1,0,0,0-.167.656,1.1,1.1,0,0,0,.167.656A.563.563,0,0,0,1.875-.6.55.55,0,0,0,2.349-.83a1.1,1.1,0,0,0,.167-.656,1.1,1.1,0,0,0-.167-.656A.548.548,0,0,0,1.875-2.37Zm0-.681a1.659,1.659,0,0,1,1.2.416,1.518,1.518,0,0,1,.432,1.149A1.522,1.522,0,0,1,3.075-.337a1.665,1.665,0,0,1-1.2.413A1.678,1.678,0,0,1,.669-.337,1.513,1.513,0,0,1,.234-1.486,1.508,1.508,0,0,1,.669-2.635,1.672,1.672,0,0,1,1.875-3.051Z" fill="#15605f"/>
      </g>
      <g id="Grupo_1462" data-name="Grupo 1462" transform="translate(75.096 125.25)">
        <path id="Caminho_2106" data-name="Caminho 2106" d="M3.452-1.814V0H2.495V-1.389a5.093,5.093,0,0,0-.018-.532.572.572,0,0,0-.061-.216.388.388,0,0,0-.152-.143.446.446,0,0,0-.216-.052A.55.55,0,0,0,1.58-2.1a1.04,1.04,0,0,0-.17.635V0H.459V-2.978H1.41v.435a1.52,1.52,0,0,1,.456-.383A1.158,1.158,0,0,1,2.4-3.051a.966.966,0,0,1,.784.319,1.389,1.389,0,0,1,.267.918Z" fill="#15605f"/>
      </g>
      <g id="Grupo_1463" data-name="Grupo 1463" transform="translate(13.614 130.696)">
        <path id="Caminho_2107" data-name="Caminho 2107" d="M2.416-4.139v.626H1.89a.427.427,0,0,0-.283.073.336.336,0,0,0-.079.255v.207h.814V-2.3H1.529V0H.577V-2.3H.1v-.681H.577v-.207a.9.9,0,0,1,.27-.72,1.266,1.266,0,0,1,.842-.234Z" fill="#15605f"/>
      </g>
      <g id="Grupo_1464" data-name="Grupo 1464" transform="translate(15.984 130.696)">
        <path id="Caminho_2108" data-name="Caminho 2108" d="M2.671-2.167a1.316,1.316,0,0,0-.252-.085,1.04,1.04,0,0,0-.246-.03.694.694,0,0,0-.565.237,1.012,1.012,0,0,0-.2.672V0H.459V-2.978H1.41v.489a1.209,1.209,0,0,1,.419-.425A1.134,1.134,0,0,1,2.4-3.051a1.013,1.013,0,0,1,.1.006c.038,0,.093.008.164.015Z" fill="#15605f"/>
      </g>
      <g id="Grupo_1465" data-name="Grupo 1465" transform="translate(18.669 130.696)">
        <path id="Caminho_2109" data-name="Caminho 2109" d="M1.875-2.37a.561.561,0,0,0-.483.228,1.1,1.1,0,0,0-.167.656,1.1,1.1,0,0,0,.167.656A.563.563,0,0,0,1.875-.6.55.55,0,0,0,2.349-.83a1.1,1.1,0,0,0,.167-.656,1.1,1.1,0,0,0-.167-.656A.548.548,0,0,0,1.875-2.37Zm0-.681a1.659,1.659,0,0,1,1.2.416,1.518,1.518,0,0,1,.432,1.149A1.522,1.522,0,0,1,3.075-.337a1.665,1.665,0,0,1-1.2.413A1.678,1.678,0,0,1,.669-.337,1.513,1.513,0,0,1,.234-1.486,1.508,1.508,0,0,1,.669-2.635,1.672,1.672,0,0,1,1.875-3.051Z" fill="#15605f"/>
      </g>
      <g id="Grupo_1466" data-name="Grupo 1466" transform="translate(22.41 130.696)">
        <path id="Caminho_2110" data-name="Caminho 2110" d="M3.218-2.483a1.29,1.29,0,0,1,.428-.422,1.061,1.061,0,0,1,.547-.146.962.962,0,0,1,.781.319,1.377,1.377,0,0,1,.27.918V0H4.288V-1.623c0-.026,0-.062,0-.109A.847.847,0,0,0,4.2-2.188a.327.327,0,0,0-.3-.143.474.474,0,0,0-.419.225,1.167,1.167,0,0,0-.152.644V0H2.37V-1.553a1.48,1.48,0,0,0-.085-.635.325.325,0,0,0-.3-.143.478.478,0,0,0-.422.225,1.148,1.148,0,0,0-.149.641V0H.453V-2.978H1.41v.435a1.237,1.237,0,0,1,.4-.38,1.009,1.009,0,0,1,.5-.128A1.011,1.011,0,0,1,2.86-2.9a.938.938,0,0,1,.359.419Z" fill="#15605f"/>
      </g>
      <g id="Grupo_1467" data-name="Grupo 1467" transform="translate(29.981 130.696)">
        <path id="Caminho_2111" data-name="Caminho 2111" d="M1.5-3.823v.845H2.48V-2.3H1.5v1.264a.368.368,0,0,0,.082.28.512.512,0,0,0,.325.073h.489V0H1.58a1.118,1.118,0,0,1-.8-.234,1.112,1.112,0,0,1-.234-.8V-2.3H.073v-.681H.544v-.845Z" fill="#15605f"/>
      </g>
      <g id="Grupo_1468" data-name="Grupo 1468" transform="translate(32.583 130.696)">
        <path id="Caminho_2112" data-name="Caminho 2112" d="M3.452-1.814V0H2.495V-1.383a5.172,5.172,0,0,0-.018-.538.572.572,0,0,0-.061-.216.388.388,0,0,0-.152-.143.446.446,0,0,0-.216-.052A.55.55,0,0,0,1.58-2.1a1.04,1.04,0,0,0-.17.635V0H.459V-4.139H1.41v1.6a1.52,1.52,0,0,1,.456-.383A1.158,1.158,0,0,1,2.4-3.051a.966.966,0,0,1,.784.319,1.389,1.389,0,0,1,.267.918Z" fill="#15605f"/>
      </g>
      <g id="Grupo_1469" data-name="Grupo 1469" transform="translate(36.46 130.696)">
        <path id="Caminho_2113" data-name="Caminho 2113" d="M3.431-1.5v.273H1.2a.708.708,0,0,0,.243.5.9.9,0,0,0,.58.167,2.241,2.241,0,0,0,.614-.088,3.249,3.249,0,0,0,.647-.27v.732a4.012,4.012,0,0,1-.675.191,3.5,3.5,0,0,1-.675.067A1.8,1.8,0,0,1,.681-.334,1.485,1.485,0,0,1,.234-1.486,1.5,1.5,0,0,1,.675-2.632a1.681,1.681,0,0,1,1.209-.419,1.515,1.515,0,0,1,1.124.425A1.527,1.527,0,0,1,3.431-1.5Zm-.979-.316a.6.6,0,0,0-.158-.435.545.545,0,0,0-.413-.167.649.649,0,0,0-.45.155.713.713,0,0,0-.216.447Z" fill="#15605f"/>
      </g>
      <g id="Grupo_1470" data-name="Grupo 1470" transform="translate(42.05 130.696)">
        <path id="Caminho_2114" data-name="Caminho 2114" d="M.5-3.969H1.644L3.087-1.246V-3.969h.969V0H2.914L1.471-2.723V0H.5Z" fill="#15605f"/>
      </g>
      <g id="Grupo_1471" data-name="Grupo 1471" transform="translate(46.607 130.696)">
        <path id="Caminho_2115" data-name="Caminho 2115" d="M1.875-2.37a.561.561,0,0,0-.483.228,1.1,1.1,0,0,0-.167.656,1.1,1.1,0,0,0,.167.656A.563.563,0,0,0,1.875-.6.55.55,0,0,0,2.349-.83a1.1,1.1,0,0,0,.167-.656,1.1,1.1,0,0,0-.167-.656A.548.548,0,0,0,1.875-2.37Zm0-.681a1.659,1.659,0,0,1,1.2.416,1.518,1.518,0,0,1,.432,1.149A1.522,1.522,0,0,1,3.075-.337a1.665,1.665,0,0,1-1.2.413A1.678,1.678,0,0,1,.669-.337,1.513,1.513,0,0,1,.234-1.486,1.508,1.508,0,0,1,.669-2.635,1.672,1.672,0,0,1,1.875-3.051Z" fill="#15605f"/>
      </g>
      <g id="Grupo_1472" data-name="Grupo 1472" transform="translate(50.349 130.696)">
        <path id="Caminho_2116" data-name="Caminho 2116" d="M.425-1.161V-2.978h.957v.3c0,.163,0,.365,0,.608s0,.406,0,.486a5.117,5.117,0,0,0,.018.52.6.6,0,0,0,.064.228.419.419,0,0,0,.155.146.458.458,0,0,0,.216.049A.553.553,0,0,0,2.3-.872a1.043,1.043,0,0,0,.17-.635V-2.978h.951V0H2.468V-.432a1.5,1.5,0,0,1-.456.386A1.167,1.167,0,0,1,1.48.076.973.973,0,0,1,.7-.24a1.376,1.376,0,0,1-.27-.921Z" fill="#15605f"/>
      </g>
      <g id="Grupo_1473" data-name="Grupo 1473" transform="translate(54.226 130.696)">
        <path id="Caminho_2117" data-name="Caminho 2117" d="M3.452-1.814V0H2.495V-1.389a5.093,5.093,0,0,0-.018-.532.572.572,0,0,0-.061-.216.388.388,0,0,0-.152-.143.446.446,0,0,0-.216-.052A.55.55,0,0,0,1.58-2.1a1.04,1.04,0,0,0-.17.635V0H.459V-2.978H1.41v.435a1.52,1.52,0,0,1,.456-.383A1.158,1.158,0,0,1,2.4-3.051a.966.966,0,0,1,.784.319,1.389,1.389,0,0,1,.267.918Z" fill="#15605f"/>
      </g>
      <g id="Grupo_1474" data-name="Grupo 1474" transform="translate(59.998 130.696)">
        <path id="Caminho_2118" data-name="Caminho 2118" d="M.5-3.969H2.2a1.767,1.767,0,0,1,1.161.337,1.17,1.17,0,0,1,.407.957,1.177,1.177,0,0,1-.407.96A1.767,1.767,0,0,1,2.2-1.377H1.522V0H.5Zm1.021.741v1.109h.568a.662.662,0,0,0,.459-.146.52.52,0,0,0,.164-.41.516.516,0,0,0-.164-.41.672.672,0,0,0-.459-.143Z" fill="#15605f"/>
      </g>
      <g id="Grupo_1475" data-name="Grupo 1475" transform="translate(63.99 130.696)">
        <path id="Caminho_2119" data-name="Caminho 2119" d="M2.671-2.167a1.316,1.316,0,0,0-.252-.085,1.04,1.04,0,0,0-.246-.03.694.694,0,0,0-.565.237,1.012,1.012,0,0,0-.2.672V0H.459V-2.978H1.41v.489a1.209,1.209,0,0,1,.419-.425A1.134,1.134,0,0,1,2.4-3.051a1.013,1.013,0,0,1,.1.006c.038,0,.093.008.164.015Z" fill="#15605f"/>
      </g>
      <g id="Grupo_1476" data-name="Grupo 1476" transform="translate(66.674 130.696)">
        <path id="Caminho_2120" data-name="Caminho 2120" d="M1.875-2.37a.561.561,0,0,0-.483.228,1.1,1.1,0,0,0-.167.656,1.1,1.1,0,0,0,.167.656A.563.563,0,0,0,1.875-.6.55.55,0,0,0,2.349-.83a1.1,1.1,0,0,0,.167-.656,1.1,1.1,0,0,0-.167-.656A.548.548,0,0,0,1.875-2.37Zm0-.681a1.659,1.659,0,0,1,1.2.416,1.518,1.518,0,0,1,.432,1.149A1.522,1.522,0,0,1,3.075-.337a1.665,1.665,0,0,1-1.2.413A1.678,1.678,0,0,1,.669-.337,1.513,1.513,0,0,1,.234-1.486,1.508,1.508,0,0,1,.669-2.635,1.672,1.672,0,0,1,1.875-3.051Z" fill="#15605f"/>
      </g>
      <g id="Grupo_1477" data-name="Grupo 1477" transform="translate(70.416 130.696)">
        <path id="Caminho_2121" data-name="Caminho 2121" d="M.459-2.978H1.41V-.055A1.313,1.313,0,0,1,1.121.86a1.066,1.066,0,0,1-.833.316H-.182V.55h.167A.464.464,0,0,0,.356.429a.8.8,0,0,0,.1-.483Zm0-1.161H1.41v.778H.459Z" fill="#15605f"/>
      </g>
      <g id="Grupo_1478" data-name="Grupo 1478" transform="translate(72.282 130.696)">
        <path id="Caminho_2122" data-name="Caminho 2122" d="M3.431-1.5v.273H1.2a.708.708,0,0,0,.243.5.9.9,0,0,0,.58.167,2.241,2.241,0,0,0,.614-.088,3.249,3.249,0,0,0,.647-.27v.732a4.012,4.012,0,0,1-.675.191,3.5,3.5,0,0,1-.675.067A1.8,1.8,0,0,1,.681-.334,1.485,1.485,0,0,1,.234-1.486,1.5,1.5,0,0,1,.675-2.632a1.681,1.681,0,0,1,1.209-.419,1.515,1.515,0,0,1,1.124.425A1.527,1.527,0,0,1,3.431-1.5Zm-.979-.316a.6.6,0,0,0-.158-.435.545.545,0,0,0-.413-.167.649.649,0,0,0-.45.155.713.713,0,0,0-.216.447Z" fill="#15605f"/>
      </g>
      <g id="Grupo_1479" data-name="Grupo 1479" transform="translate(75.976 130.696)">
        <path id="Caminho_2123" data-name="Caminho 2123" d="M2.863-2.884v.775a1.48,1.48,0,0,0-.389-.2,1.289,1.289,0,0,0-.4-.064.823.823,0,0,0-.623.234.9.9,0,0,0-.222.65.905.905,0,0,0,.222.65A.827.827,0,0,0,2.07-.6a1.387,1.387,0,0,0,.422-.064,1.247,1.247,0,0,0,.371-.2v.778A2.574,2.574,0,0,1,2.41.033a2.536,2.536,0,0,1-.462.043A1.807,1.807,0,0,1,.687-.337,1.474,1.474,0,0,1,.234-1.486,1.479,1.479,0,0,1,.687-2.638a1.811,1.811,0,0,1,1.261-.413,2.536,2.536,0,0,1,.462.043,2.543,2.543,0,0,1,.453.125Z" fill="#15605f"/>
      </g>
      <g id="Grupo_1480" data-name="Grupo 1480" transform="translate(79.204 130.696)">
        <path id="Caminho_2124" data-name="Caminho 2124" d="M1.5-3.823v.845H2.48V-2.3H1.5v1.264a.368.368,0,0,0,.082.28.512.512,0,0,0,.325.073h.489V0H1.58a1.118,1.118,0,0,1-.8-.234,1.112,1.112,0,0,1-.234-.8V-2.3H.073v-.681H.544v-.845Z" fill="#15605f"/>
      </g>
    </g>
  </g>
</svg>
