<svg xmlns="http://www.w3.org/2000/svg" xmlns:xlink="http://www.w3.org/1999/xlink" width="699.829" height="699.829" viewBox="0 0 699.829 699.829">
  <defs>
    <clipPath id="clip-path">
      <rect id="Retângulo_9" data-name="Retângulo 9" width="699.829" height="699.829" transform="translate(155 1871)" fill="#fff" stroke="#707070" stroke-width="1"/>
    </clipPath>
    <linearGradient id="linear-gradient" x1="0.5" y1="1" x2="0.5" gradientUnits="objectBoundingBox">
      <stop offset="0" stop-color="gray" stop-opacity="0.251"/>
      <stop offset="0.54" stop-color="gray" stop-opacity="0.122"/>
      <stop offset="1" stop-color="gray" stop-opacity="0.102"/>
    </linearGradient>
    <linearGradient id="linear-gradient-2" x1="0.5" y1="1" x2="0.5" y2="0" xlink:href="#linear-gradient"/>
  </defs>
  <g id="Grupo_de_máscara_2" data-name="Grupo de máscara 2" transform="translate(-155 -1871)" clip-path="url(#clip-path)">
    <g id="undraw_doctors_hwty" transform="translate(155.291 1962.326)">
      <path id="Caminho_6" data-name="Caminho 6" d="M55.377,213.884H116.2v82.911H59.824c-.144.857-.288,1.708-.45,2.565H116.2v66.854a.857.857,0,0,1-.282-.108q-2.4-.953-4.795-2.02c-.342-.156-.677-.318-1.025-.468q-2.4-1.133-4.795-2.4c-.557-.294-1.115-.6-1.66-.911A99.754,99.754,0,0,1,79.73,341.694c-.21-.2-.4-.414-.6-.6-.971-1.055-1.924-2.122-2.847-3.213-.348-.4-.683-.809-1.025-1.2-1.091-1.331-2.146-2.709-3.165-4.094-.156-.21-.3-.414-.45-.6a88.539,88.539,0,0,1-10.309-18.64c-.084-.2-.162-.414-.24-.6-.827-2.1-1.576-4.226-2.224-6.4-.276-.905-.545-1.8-.773-2.739-.084-.27-.15-.545-.222-.815-3.368-13.276-3.758-27.074-3.758-40.805V257.2q.072-8.409.2-16.8.048-2.158.09-4.333.126-5.508.36-11.04c.036-1.019.084-2.044.138-3.057q.036-.881.09-1.762Q55.155,217.025,55.377,213.884Z" transform="translate(-9.867 -11.178)" fill="#016968" opacity="0.1"/>
      <path id="Caminho_7" data-name="Caminho 7" d="M116.208,121.536H82.841a253.978,253.978,0,0,1,17.747-24.418c4.963-6.09,10.189-12.023,15.62-17.741Z" transform="translate(-9.874 -11.146)" fill="#016968" opacity="0.1"/>
      <path id="Caminho_8" data-name="Caminho 8" d="M116.2,124.1v87.2H55.569c0-.252.036-.509.06-.761.054-.689.108-1.373.168-2.062.06-.8.138-1.606.216-2.4s.156-1.75.252-2.619.174-1.75.27-2.619.192-1.738.3-2.6.2-1.738.324-2.6c.09-.713.18-1.433.282-2.152.138-1.013.282-2.026.432-3.033a2.884,2.884,0,0,1,.072-.456A209.139,209.139,0,0,1,62.4,168.106a162.072,162.072,0,0,1,7.522-22.177A166.548,166.548,0,0,1,81.24,124.1Z" transform="translate(-9.867 -11.156)" fill="#016968" opacity="0.1"/>
      <path id="Caminho_9" data-name="Caminho 9" d="M130.749,213.834v82.911h129.92V213.834Zm0,85.476v71.205c.743.15,1.474.3,2.212.426.989.192,1.984.366,3,.515l.6.084c.4.066.8.12,1.2.168,1,.144,2,.252,3,.348.467.048.953.084,1.427.126l1.157.084h0c.629.048,1.253.084,1.876.108.384,0,.767.03,1.157.042s.6,0,.911,0h3.333c.515,0,1.031,0,1.54-.048h.03a9.172,9.172,0,0,0,1.073-.042,2.619,2.619,0,0,0,.306,0,7.224,7.224,0,0,0,.887-.036,1.255,1.255,0,0,1,.2,0c.665-.042,1.337-.1,2.014-.156s1.319-.132,2-.2l1.361-.168a119.355,119.355,0,0,0,16.453-3.5c12.125-3.38,23.975-8.109,36.094-11.568,15.656-4.465,32.965-6.665,48.094-1.229V299.311Zm129.92-177.791V11.139a166.943,166.943,0,0,0-42.208,4.945c-32.9,8.265-62.443,26.193-87.712,49.089v56.341h6.539v2.559h-6.539v87.2h129.92v-87.2H164.038v-2.565ZM427.581,84.232a53.784,53.784,0,0,1-23.555-6.845c-13.989-7.606-25.174-19.366-37.664-29.279-25.953-20.66-58.139-33.133-91.158-36.226V121.519H460.655l.462-.485Zm16.9-3L462.393,100.9V76.063c-6.03.761-11.28,2.529-17.915,5.149ZM462.393,388.2V299.311h-38.2c-.1-.378-.2-.761-.324-1.145.114.384.216.767.318,1.145H275.2v64.277c1.415,1.049,2.811,2.158,4.2,3.273h0q2.242,1.834,4.453,3.71l1.486,1.229c.713.6,1.438,1.2,2.158,1.768q2.164,1.744,4.357,3.452,1.1.863,2.206,1.7A300.923,300.923,0,0,0,331,402.876c2.889,1.612,5.808,3.165,8.745,4.681q2.931,1.51,5.9,2.961,4.459,2.176,8.991,4.2h0A330.012,330.012,0,0,0,442.152,440.2q10.057,1.48,20.2,2.338V388.185h.6ZM275.2,124.073v87.2h187.19v-87.2Zm0,89.75v82.923h187.19V213.834ZM476.922,75.943v27.751l22.86-25.1Q488.418,76.722,476.922,75.943Zm0,137.891v82.911H658.981V213.834ZM658.34,394.773l.641-95.462H476.922V443.5a328.032,328.032,0,0,0,35.183-.426h.2q8.391-.54,16.7-1.534h.126a307.172,307.172,0,0,0,85.848-22.932M694.1,227.452q-1.037-2.4-2.128-4.795c-1.355-3-2.781-5.91-4.255-8.817H673.516v82.905h35.908c-.03-23.483-5.976-47.458-15.32-69.293Zm-20.588,71.859v82.114a117.5,117.5,0,0,0,24.814-33.469c7.4-15.278,10.789-31.809,11.07-48.651Zm0-109.637v21.577H686.39a234.452,234.452,0,0,0-12.874-21.577ZM550.045,92.216c-.947-.366-1.9-.731-2.853-1.079a259.013,259.013,0,0,0-30.748-9.242l-34.991,38.4h0l-.683.737.449.485H605.757a266.061,266.061,0,0,0-55.711-29.3Zm59.368,31.857H479.475l-2.553,2.332v84.865H658.981V170.152a259.22,259.22,0,0,0-49.568-46.08Z" transform="translate(-9.886 -11.129)" fill="#016968" opacity="0.1"/>
      <path id="Caminho_10" data-name="Caminho 10" d="M116.2,168.1v43.209H55.569c0-.252.036-.509.06-.761.054-.689.108-1.373.168-2.062.06-.8.138-1.606.216-2.4s.156-1.75.252-2.619.174-1.75.27-2.619.192-1.738.3-2.6.2-1.738.324-2.6c.09-.713.18-1.433.282-2.152.138-1.013.282-2.026.432-3.033a2.884,2.884,0,0,1,.072-.456A209.14,209.14,0,0,1,62.4,168.117Z" transform="translate(-9.867 -11.167)" fill="#016968" opacity="0.1"/>
      <path id="Caminho_11" data-name="Caminho 11" d="M55.377,213.884H116.2v82.911H59.824c-.144.857-.288,1.708-.45,2.565H116.2v66.854a.857.857,0,0,1-.282-.108q-2.4-.953-4.795-2.02c-.342-.156-.677-.318-1.025-.468q-2.4-1.133-4.795-2.4c-.557-.294-1.115-.6-1.66-.911A99.754,99.754,0,0,1,79.73,341.694c-.21-.2-.4-.414-.6-.6-.971-1.055-1.924-2.122-2.847-3.213-.348-.4-.683-.809-1.025-1.2-1.091-1.331-2.146-2.709-3.165-4.094-.156-.21-.3-.414-.45-.6a88.539,88.539,0,0,1-10.309-18.64c-.084-.2-.162-.414-.24-.6-.827-2.1-1.576-4.226-2.224-6.4-.276-.905-.545-1.8-.773-2.739-.084-.27-.15-.545-.222-.815-3.368-13.276-3.758-27.074-3.758-40.805V257.2q.072-8.409.2-16.8.048-2.158.09-4.333.126-5.508.36-11.04c.036-1.019.084-2.044.138-3.057q.036-.881.09-1.762Q55.155,217.025,55.377,213.884Z" transform="translate(-9.867 -11.178)" fill="#016968" opacity="0.1"/>
      <path id="Caminho_12" data-name="Caminho 12" d="M166.919,125.461v74.706H121.18V125.461H127.7V100.167H154.47v25.293Z" transform="translate(-0.323 -0.026)" fill="#016968" opacity="0.1"/>
      <rect id="Retângulo_12" data-name="Retângulo 12" width="45.732" height="82.911" transform="translate(120.857 202.699)" fill="#016968" opacity="0.1"/>
      <path id="Caminho_13" data-name="Caminho 13" d="M130.749,299.381h45.732v68.928a118.461,118.461,0,0,1-16.453,3.494c-.456.066-.905.12-1.361.168-.671.078-1.337.15-2,.21l-2.008.162h-.2l-.887.048h-.306c-.36,0-.713.042-1.073.048h-.03c-.515,0-1.025.036-1.54.048h-4.244a9.428,9.428,0,0,1-1.163-.048q-.923-.036-1.87-.108h0l-1.157-.084c-.48-.036-.959-.084-1.433-.132q-1.51-.132-3-.342l-1.2-.168-.6-.084c-1-.15-2-.318-3-.509-.743-.132-1.474-.282-2.212-.438Z" transform="translate(-9.886 -11.199)" fill="#016968" opacity="0.1"/>
      <rect id="Retângulo_13" data-name="Retângulo 13" width="37.712" height="83.522" transform="translate(414.789 116.612)" fill="#016968" opacity="0.1"/>
      <path id="Caminho_14" data-name="Caminho 14" d="M452.866,202.751v82.917H265.676V249.9h99.705V271h49.766v-68.25Z" transform="translate(-0.358 -0.051)" fill="#016968" opacity="0.1"/>
      <path id="Caminho_15" data-name="Caminho 15" d="M463.022,388.286a3.386,3.386,0,0,1-.6-.036v54.393q-10.135-.833-20.2-2.332a330.451,330.451,0,0,1-87.544-25.473q-12.065-5.442-23.639-11.862A302.028,302.028,0,0,1,294.1,378.815q-4.423-3.38-8.715-6.911c-1.984-1.642-3.95-3.321-5.952-4.945-1.379-1.121-2.775-2.23-4.2-3.285V299.381h148.98c-.108-.384-.2-.761-.312-1.145.114.384.222.761.318,1.145h38.2v88.863C462.626,388.25,462.824,388.268,463.022,388.286Z" transform="translate(-9.921 -11.199)" fill="#016968" opacity="0.1"/>
      <path id="Caminho_16" data-name="Caminho 16" d="M560.849,121.539H536.274V113.9h11.01V91.157q1.433.527,2.853,1.079V113.9h10.7Z" transform="translate(-9.984 -11.148)" fill="#016968" opacity="0.1"/>
      <path id="Caminho_17" data-name="Caminho 17" d="M620.046,211.3H499.393a.078.078,0,0,0,.036,0H477.006V127.774h6.341V189.51h28.974V152.948h23.945V124.1H560.84v28.866h23.933v36.562h35.279Z" transform="translate(-9.97 -11.157)" fill="#016968" opacity="0.1"/>
      <path id="Caminho_18" data-name="Caminho 18" d="M477.006,213.884v82.911H620.052V213.884Zm181.855,180.5.2-65.631H620.052V299.384H477.006V443.551a328.024,328.024,0,0,0,35.183-.426h.2q8.391-.54,16.7-1.534h.126a307.171,307.171,0,0,0,85.848-22.932" transform="translate(-9.97 -11.178)" fill="#016968" opacity="0.1"/>
      <path id="Caminho_19" data-name="Caminho 19" d="M676.165,299.381h33.367c-.288,16.836-3.668,33.373-11.07,48.645A117.447,117.447,0,0,1,673.648,381.5V328.756h2.517Z" transform="translate(-10.018 -11.199)" fill="#016968" opacity="0.1"/>
      <path id="Caminho_20" data-name="Caminho 20" d="M709.557,296.8H676.166V227.5h18.071C703.581,249.34,709.527,273.315,709.557,296.8Z" transform="translate(-10.019 -11.182)" fill="#016968" opacity="0.1"/>
      <rect id="Retângulo_14" data-name="Retângulo 14" width="20.205" height="26.187" transform="translate(432.303 139.831)" fill="#016968" opacity="0.1"/>
      <rect id="Retângulo_15" data-name="Retângulo 15" width="20.205" height="6.03" transform="translate(432.303 194.11)" fill="#016968" opacity="0.1"/>
      <rect id="Retângulo_16" data-name="Retângulo 16" width="20.205" height="17.592" transform="translate(432.303 202.699)" fill="#016968" opacity="0.1"/>
      <rect id="Retângulo_17" data-name="Retângulo 17" width="20.205" height="26.187" transform="translate(432.303 248.39)" fill="#016968" opacity="0.1"/>
      <rect id="Retângulo_18" data-name="Retângulo 18" width="20.205" height="26.187" transform="translate(432.303 302.669)" fill="#016968" opacity="0.1"/>
      <path id="Caminho_21" data-name="Caminho 21" d="M462.469,388.261a2.909,2.909,0,0,1,.6.042,3.389,3.389,0,0,1-.6-.036v6.084h-20.2V368.164h20.2Z" transform="translate(-9.961 -11.216)" fill="#016968" opacity="0.1"/>
      <path id="Caminho_22" data-name="Caminho 22" d="M462.469,422.45v20.223q-10.141-.833-20.2-2.332V422.45Z" transform="translate(-9.961 -11.229)" fill="#016968" opacity="0.1"/>
      <rect id="Retângulo_19" data-name="Retângulo 19" width="86.591" height="1.924" transform="translate(265.318 283.693)" fill="#016968" opacity="0.1"/>
      <rect id="Retângulo_20" data-name="Retângulo 20" width="86.591" height="7.372" transform="translate(265.318 288.176)" fill="#016968" opacity="0.1"/>
      <rect id="Retângulo_21" data-name="Retângulo 21" width="86.591" height="11.856" transform="translate(265.318 319.715)" fill="#016968" opacity="0.1"/>
      <path id="Caminho_23" data-name="Caminho 23" d="M361.831,366.953v11.856H294.1q-4.423-3.368-8.715-6.917c-1.99-1.636-3.956-3.315-5.952-4.939Z" transform="translate(-9.922 -11.216)" fill="#016968" opacity="0.1"/>
      <path id="Caminho_24" data-name="Caminho 24" d="M361.843,402.978v11.886h-7.151Q342.628,409.421,331.054,403Z" transform="translate(-9.934 -11.225)" fill="#016968" opacity="0.1"/>
      <rect id="Retângulo_22" data-name="Retângulo 22" width="17.046" height="17.046" transform="translate(502.219 210.737)" fill="#016968" opacity="0.1"/>
      <rect id="Retângulo_23" data-name="Retângulo 23" width="17.046" height="17.046" transform="translate(133.138 131.314)" fill="#016968" opacity="0.1"/>
      <rect id="Retângulo_24" data-name="Retângulo 24" width="17.046" height="17.046" transform="translate(133.138 170.909)" fill="#016968" opacity="0.1"/>
      <rect id="Retângulo_25" data-name="Retângulo 25" width="17.046" height="17.046" transform="translate(133.138 210.503)" fill="#016968" opacity="0.1"/>
      <rect id="Retângulo_26" data-name="Retângulo 26" width="17.046" height="17.046" transform="translate(133.138 250.092)" fill="#016968" opacity="0.1"/>
      <rect id="Retângulo_27" data-name="Retângulo 27" width="17.046" height="17.046" transform="translate(133.138 289.686)" fill="#016968" opacity="0.1"/>
      <rect id="Retângulo_28" data-name="Retângulo 28" width="17.046" height="17.046" transform="translate(133.138 329.281)" fill="#016968" opacity="0.1"/>
      <rect id="Retângulo_29" data-name="Retângulo 29" width="17.046" height="17.046" transform="translate(567.293 210.737)" fill="#016968" opacity="0.1"/>
      <rect id="Retângulo_30" data-name="Retângulo 30" width="17.046" height="17.046" transform="translate(502.219 252.783)" fill="#016968" opacity="0.1"/>
      <rect id="Retângulo_31" data-name="Retângulo 31" width="17.046" height="17.046" transform="translate(567.293 252.783)" fill="#016968" opacity="0.1"/>
      <rect id="Retângulo_32" data-name="Retângulo 32" width="17.046" height="17.046" transform="translate(502.219 294.823)" fill="#016968" opacity="0.1"/>
      <rect id="Retângulo_33" data-name="Retângulo 33" width="17.046" height="17.046" transform="translate(567.293 294.823)" fill="#016968" opacity="0.1"/>
      <rect id="Retângulo_34" data-name="Retângulo 34" width="17.046" height="17.046" transform="translate(502.219 336.869)" fill="#016968" opacity="0.1"/>
      <rect id="Retângulo_35" data-name="Retângulo 35" width="17.046" height="17.046" transform="translate(567.293 336.869)" fill="#016968" opacity="0.1"/>
      <rect id="Retângulo_36" data-name="Retângulo 36" width="17.046" height="17.046" transform="translate(502.219 378.915)" fill="#016968" opacity="0.1"/>
      <rect id="Retângulo_37" data-name="Retângulo 37" width="17.046" height="17.046" transform="translate(567.293 378.915)" fill="#016968" opacity="0.1"/>
      <path id="Caminho_25" data-name="Caminho 25" d="M502.636,432.052V421.059h17.04v9.428Z" transform="translate(-0.416 -0.105)" fill="#016968" opacity="0.1"/>
      <path id="Caminho_26" data-name="Caminho 26" d="M57.871,189.993v9.752H116.2v-9.752Zm5.808,9.14H58.884V190.61h4.795Zm5.808,0H64.692V190.61h4.795Zm5.8,0H70.488V190.61h4.795Zm5.808,0H76.3V190.61h4.795Zm5.8,0H82.1V190.61h4.795Zm5.808,0H87.906V190.61H92.7Zm5.808,0H93.714V190.61h4.795Zm5.8,0H99.516V190.61h4.795Zm5.8,0h-4.795V190.61h4.795Zm5.808,0h-4.795V190.61h4.795Z" transform="translate(-9.868 -11.173)" fill="#016968" opacity="0.1"/>
      <path id="Caminho_27" data-name="Caminho 27" d="M57.871,218.386v9.752H116.2v-9.752Zm5.808,9.14H58.884V219h4.795Zm5.808,0H64.692V219h4.795Zm5.8,0H70.488V219h4.795Zm5.808,0H76.3V219h4.795Zm5.8,0H82.1V219h4.795Zm5.808,0H87.906V219H92.7Zm5.808,0H93.714V219h4.795Zm5.8,0H99.516V219h4.795Zm5.8,0h-4.795V219h4.795Zm5.808,0h-4.795V219h4.795Z" transform="translate(-9.868 -11.18)" fill="#016968" opacity="0.1"/>
      <path id="Caminho_28" data-name="Caminho 28" d="M57.871,246.785v9.746H116.2v-9.746Zm5.808,9.128H58.884v-8.523h4.795Zm5.808,0H64.692v-8.523h4.795Zm5.8,0H70.488v-8.523h4.795Zm5.808,0H76.3v-8.523h4.795Zm5.8,0H82.1v-8.523h4.795Zm5.808,0H87.906v-8.523H92.7Zm5.808,0H93.714v-8.523h4.795Zm5.8,0H99.516v-8.523h4.795Zm5.8,0h-4.795v-8.523h4.795Zm5.808,0h-4.795v-8.523h4.795Z" transform="translate(-9.868 -11.186)" fill="#016968" opacity="0.1"/>
      <path id="Caminho_29" data-name="Caminho 29" d="M57.871,275.179v9.746H116.2v-9.746Zm5.808,9.134H58.884v-8.535h4.795Zm5.808,0H64.692v-8.535h4.795Zm5.8,0H70.488v-8.535h4.795Zm5.808,0H76.3v-8.535h4.795Zm5.8,0H82.1v-8.535h4.795Zm5.808,0H87.906v-8.535H92.7Zm5.808,0H93.714v-8.535h4.795Zm5.8,0H99.516v-8.535h4.795Zm5.8,0h-4.795v-8.535h4.795Zm5.808,0h-4.795v-8.535h4.795Z" transform="translate(-9.868 -11.193)" fill="#016968" opacity="0.1"/>
      <path id="Caminho_30" data-name="Caminho 30" d="M58.153,303.56c.228.923.5,1.834.773,2.739v-2.122h4.795v8.517H61.15c.072.2.15.414.234.6h54.842V303.56Zm11.388,9.134H64.746v-8.517h4.795Zm5.8,0H70.542v-8.517h4.795Zm5.808,0H76.35v-8.517h4.795Zm5.8,0H82.152v-8.517h4.795Zm5.808,0H87.96v-8.517h4.795Zm5.808,0H93.768v-8.517h4.795Zm5.8,0H99.57v-8.517h4.795Zm5.8,0h-4.795v-8.517h4.795Zm5.808,0H111.18v-8.517h4.795Z" transform="translate(-9.868 -11.2)" fill="#016968" opacity="0.1"/>
      <path id="Caminho_31" data-name="Caminho 31" d="M71.666,331.953c.156.192.3.408.45.6h3.171v4.094l1.025,1.2v-5.316h4.795v8.6H79.134c.192.2.378.408.6.6h36.46v-9.77Zm15.26,9.17H82.131v-8.559h4.795Zm5.808,0H87.939v-8.559h4.795Zm5.808,0H93.747v-8.559h4.795Zm5.8,0H99.549v-8.559h4.795Zm5.8,0h-4.795v-8.559h4.795Zm5.808,0h-4.795v-8.559h4.795Z" transform="translate(-9.871 -11.207)" fill="#016968" opacity="0.1"/>
      <path id="Caminho_32" data-name="Caminho 32" d="M103.675,360.346c.551.312,1.109.6,1.666.905v-.3h4.795v2.7c.348.15.677.312,1.019.467v-3.171h4.795v5.191a1.949,1.949,0,0,0,.282.1v-5.9Z" transform="translate(-9.879 -11.214)" fill="#016968" opacity="0.1"/>
      <path id="Caminho_33" data-name="Caminho 33" d="M499.31,211.3ZM462.389,388.2Zm-38.522-90.008c.114.384.216.767.318,1.145h0C424.095,298.96,423.987,298.576,423.867,298.193Zm75.443-86.9Zm-362.02-89.75V124.1h26.774v-2.565ZM462.395,388.2Zm-38.528-90.008c.114.384.216.767.318,1.145h0C424.095,298.96,423.987,298.576,423.867,298.193Zm75.443-86.9ZM462.389,388.2Zm-38.522-90.008c.114.384.216.767.318,1.145h0C424.095,298.96,423.987,298.576,423.867,298.193Z" transform="translate(-9.887 -11.156)" fill="#016968" opacity="0.1"/>
      <ellipse id="Elipse_1" data-name="Elipse 1" cx="58.403" cy="9.38" rx="58.403" ry="9.38" transform="translate(468.409 498.417)" fill="#016968" opacity="0.1"/>
      <ellipse id="Elipse_2" data-name="Elipse 2" cx="58.403" cy="9.38" rx="58.403" ry="9.38" transform="translate(205.009 489.037)" fill="#016968" opacity="0.1"/>
      <path id="Caminho_34" data-name="Caminho 34" d="M340.56,261.552a.317.317,0,0,0-.09-.156c-.893-.881-12.281-16.986-12.281-16.986s-.6-1.8-1.57-4.136a4.111,4.111,0,0,0,.689-1.349,4.632,4.632,0,0,0,.114-.629c0-.066.048-.12.066-.186a4.549,4.549,0,0,0-.06-2.469,4.268,4.268,0,0,1-.246.6,10.023,10.023,0,0,0-.9-2c-1.51-2.6-3.668-4.8-5.257-7.33a19.833,19.833,0,0,1-2.7-13.162c0,.234,0,.473,0,.707a20.525,20.525,0,0,1,.36-2.7,18.72,18.72,0,0,1,1-2.961c1.426-3.267,3.734-6.114,5.137-9.392a17.8,17.8,0,0,0,1.067-3.434,19.239,19.239,0,0,0,.533-6.024,9.6,9.6,0,0,1-.15,1.433,19.509,19.509,0,0,0-5.508-12.988c-4.9-4.921-11.928-6.833-18.652-7.84a17.088,17.088,0,0,1-7.852-3,13.65,13.65,0,0,0-8.943-1.708,14.75,14.75,0,0,0-9.1,4.5c-3.195,3.512-4.579,8.487-8.307,11.448-2.26,1.8-5.125,2.637-7.756,3.86s-5.119,3-5.964,5.622v.1l-.036.1c-.875,3.1.815,6.263,1.7,9.362a37.935,37.935,0,0,1,1.025,9.908c.066,4.052.126,8.109.06,12.167-.03,1.594-.084,3.207-.2,4.795a25.122,25.122,0,0,0-4.118,1.654c-1.343.875-6.365,6.3-6.365,6.3l-9.824,37.533.132.15-.132.509.5-.114a50.573,50.573,0,0,0,10.027,8.427l.42,7.36s.5,7.384,7.294,10.435c.156,2.559.641,12.952-1.606,17.07a19.18,19.18,0,0,0-2.122,9.758s.785,6.245-.108,9.53a15.584,15.584,0,0,0-.114,6.689h0v1.972c0,6.647.078,27.949,0,30.358-.114,2.847,0,44.953,0,44.953s-.557,21.044-2.344,26.744-1.337,24.574-1.337,24.574-1.121,22.482,2.841,26.918c0,.2-.036.4-.042.6v.282c-.048,1.708.282,3.524,1.75,4.082a25.079,25.079,0,0,1,7.708,5.592c.749.989,5.107,3.452,10.789,2.793a81.23,81.23,0,0,1,10.723-.491h0s2.242-.408,1.516-3.195h0a24.959,24.959,0,0,0-3.464-6.168c.228.06.45.108.659.15l.216.042h.168a2.283,2.283,0,0,0,.276,0h.12a2.047,2.047,0,0,0,.336,0h0c1.5-.144,7.115,2.469,8.115,4.2s4.531,3.039,7.192,3.368a51.091,51.091,0,0,0,8.925-.563,32.848,32.848,0,0,0,5-.911c.791-.3.959-1.259.731-2.338h0a6.083,6.083,0,0,0-2.074-3.5,16.832,16.832,0,0,1-3.2-3.992l-.252-.4c1.672-1.594,4.693-6.809,5.61-7.888,1.115-1.313-1.8-49.316-1.8-49.316V416.8l4.465-22.776,3.123-12.053,2.679-18.2s4.687-21.254,3.243-23.34h0c0-.042-1.2-21.925-2.457-27.181-.545-2.343-.408-7.618-.084-12.749a2.517,2.517,0,0,0,.6-2.625,5.454,5.454,0,0,0-.348-.893v-.276a41.274,41.274,0,0,1,8.074-2.745c4.465-.875,3.35-3.177,3.35-3.177s1.007-1.972,1.672-3.177.114-11.838,0-12.713c-.042-.354-.318-2.308-.635-4.525,1.432-1.019,3.3-2.284,5.328-3.482C341.747,264.6,340.878,262.181,340.56,261.552ZM282.3,413.511s-3.35,8.547-2.008,10.735-.222,10.309-.222,10.309l-1.121,12.053s-3.123,22.357-2.008,27.613c.875,4.124,1.2,16.441,1.3,21.577h0a1.513,1.513,0,0,0-.222.108l-.15.078c.515-2.02.3-6.108-2.26-14.331l-.216-33.966s-.4-39.235,2.7-43.622,4.2-11.838,4.2-11.838-.671,10.747-1.109,13.594S282.3,413.511,282.3,413.511Zm-6.24,84.427c-.03.072-.066.144-.09.21l-.168-.216a1.763,1.763,0,0,0,.258.006Z" transform="translate(-9.911 -11.167)" fill="url(#linear-gradient)"/>
      <path id="Caminho_35" data-name="Caminho 35" d="M310.242,511.481c-1.732.665-11.124,1.8-13.75,1.48s-6.1-1.648-7.091-3.386-6.533-4.363-8.02-4.2a5.394,5.394,0,0,1-1.8-.252,22.141,22.141,0,0,1-3-1.151,5.562,5.562,0,0,1,.066-2.278,3.644,3.644,0,0,1,.132-.443,3.962,3.962,0,0,1,2.014-2.242l.216-.1a6.1,6.1,0,0,1,1.295-.4c4.711-.905,24.149.911,24.149.911s.545.977,1.295,2.188a16.728,16.728,0,0,0,3.165,4.016,6.143,6.143,0,0,1,2.044,3.524C311.189,510.216,311.021,511.187,310.242,511.481Z" transform="translate(-9.921 -11.248)" fill="#fff"/>
      <path id="Caminho_36" data-name="Caminho 36" d="M310.242,511.482c-1.732.665-11.118,1.8-13.744,1.48s-6.1-1.654-7.1-3.386-6.527-4.364-8.014-4.2-4.795-1.4-4.795-1.4a4.969,4.969,0,0,1,.983-4.034l3,2.128s8.02,2.487,9.506,4.8,4.2,3.6,8.109,3.83c2.925.192,9.644-.947,12.791-1.516C311.189,510.217,311.027,511.188,310.242,511.482Z" transform="translate(-9.921 -11.248)" opacity="0.1"/>
      <path id="Caminho_37" data-name="Caminho 37" d="M281.544,514.538a79.766,79.766,0,0,0-10.585.5c-5.628.659-9.926-1.8-10.675-2.811a25.011,25.011,0,0,0-7.606-5.634c-1.456-.563-1.8-2.4-1.732-4.112V502.2a16.785,16.785,0,0,1,.48-3.219l23.322-.5,2.02,2.739.312.42,1.229,1.672s.557.731,1.289,1.8c1.235,1.8,2.961,4.453,3.422,6.209h0C283.756,514.13,281.544,514.538,281.544,514.538Z" transform="translate(-9.915 -11.248)" fill="#fff"/>
      <path id="Caminho_38" data-name="Caminho 38" d="M281.544,514.539a79.8,79.8,0,0,0-10.585.5c-5.622.659-9.926-1.8-10.669-2.811a24.307,24.307,0,0,0-7.612-5.622c-1.456-.563-1.8-2.4-1.732-4.112,1.666.39,5.167,1.385,6.539,3.117,1.8,2.314,5.017,6.2,9.59,6.449,3.692.2,12.683-.461,15.979-.725C283.762,514.131,281.544,514.539,281.544,514.539Z" transform="translate(-9.915 -11.249)" opacity="0.1"/>
      <path id="Caminho_39" data-name="Caminho 39" d="M278.769,498.99c-.27,2-1.1,2.541-1.7,2.661a1.154,1.154,0,0,1-.444,0,1.461,1.461,0,0,1-.234-.036s-20.942,4.627-25.174.881a2.935,2.935,0,0,1-.3-.312,16.785,16.785,0,0,1,.479-3.219l23.322-.5,2.02,2.739a3.962,3.962,0,0,1,2.014-2.242Z" transform="translate(-9.915 -11.248)" opacity="0.1"/>
      <path id="Caminho_40" data-name="Caminho 40" d="M305.747,501.592c-.468.515-.857.809-1.1.707-1.1-.444-10.141-1.984-13.012-.659s-12.587.216-12.587.216,0-1.151-.054-3a6.1,6.1,0,0,1,1.295-.4c4.711-.905,24.149.911,24.149.911S305,500.381,305.747,501.592Z" transform="translate(-9.922 -11.248)" opacity="0.1"/>
      <path id="Caminho_41" data-name="Caminho 41" d="M319.418,365.974l-2.649,18.3-3.081,12.131-4.411,22.932v24.275s2.865,48.3,1.762,49.616-5.292,8.829-6.4,8.391-10.141-1.984-13.012-.665-12.587.222-12.587.222-.222-18.742-1.325-24.035,1.984-27.787,1.984-27.787l1.1-12.125s1.546-8.163.222-10.369,1.984-10.789,1.984-10.789-1.54-4.861-1.1-7.726,1.1-13.672,1.1-13.672-1.1,7.5-4.16,11.909-2.673,43.886-2.673,43.886l.216,34.164c5.52,18.089,0,16.321,0,16.321s-20.942,4.633-25.174.881-3.021-27.367-3.021-27.367-.438-18.964,1.325-24.694,2.32-26.906,2.32-26.906-.114-42.346,0-45.2c.084-2.4,0-23.861,0-30.568v-1.984l2.529-6.281,29.969-3.752h14.337s21.577,5.071,23.807,7.258a.5.5,0,0,1,.12.132C324.051,344.588,319.418,365.974,319.418,365.974Z" transform="translate(-9.914 -11.208)" fill="#016968"/>
      <path id="Caminho_42" data-name="Caminho 42" d="M283.038,462.156s6.593,15.877,9.7,16.98S283.038,462.156,283.038,462.156Z" transform="translate(-9.923 -11.239)" opacity="0.1"/>
      <path id="Caminho_43" data-name="Caminho 43" d="M285.478,485.537s22.261,1.1,22.039,3.53S285.478,485.537,285.478,485.537Z" transform="translate(-9.923 -11.245)" opacity="0.1"/>
      <path id="Caminho_44" data-name="Caminho 44" d="M255.688,479.188c.881.833,16.98,2.4,15.656,3.92s-14.331,4.483-14.331,4.483Z" transform="translate(-9.916 -11.243)" opacity="0.1"/>
      <path id="Caminho_45" data-name="Caminho 45" d="M253.044,451.79c0,.659,3.308,21.17,4.2,22.051S265.4,475.6,265.4,475.6Z" transform="translate(-9.915 -11.237)" opacity="0.1"/>
      <path id="Caminho_46" data-name="Caminho 46" d="M277.049,171.371c-3.159,3.53-4.525,8.535-8.205,11.52-2.236,1.8-5.065,2.655-7.666,3.878s-5.179,3.087-5.952,5.856c-.863,3.117.8,6.3,1.678,9.416a38.98,38.98,0,0,1,1.013,9.968c.06,4.082.126,8.163.054,12.245-.108,6.359-.635,13.012-4.01,18.4,12.185,3.878,25.144,4.405,37.922,4.9a38.26,38.26,0,0,0,7.366-.186,63.218,63.218,0,0,0,6.275-1.588,48.115,48.115,0,0,1,12.5-1.6,20.993,20.993,0,0,0,5.49-.366,5.417,5.417,0,0,0,3.962-3.482,6.469,6.469,0,0,0-1.013-4.723c-1.486-2.613-3.6-4.795-5.191-7.372a20.259,20.259,0,0,1-1.3-18.215c1.415-3.291,3.692-6.156,5.083-9.452a19.935,19.935,0,0,0-4.016-21.146c-4.837-4.951-11.778-6.869-18.419-7.888a16.729,16.729,0,0,1-7.756-3,13.275,13.275,0,0,0-8.835-1.714,14.421,14.421,0,0,0-8.985,4.543Z" transform="translate(-9.916 -11.167)" fill="#3f3d56"/>
      <g id="Grupo_1" data-name="Grupo 1" transform="translate(244.286 179.899)" opacity="0.1">
        <path id="Caminho_47" data-name="Caminho 47" d="M320.178,206.572a19.942,19.942,0,0,0-1.528,9.152,19.6,19.6,0,0,1,1.528-6.5c1.409-3.291,3.686-6.156,5.077-9.452a19.124,19.124,0,0,0,1.4-8.7,18.639,18.639,0,0,1-1.4,6.054C323.864,200.422,321.587,203.281,320.178,206.572Z" transform="translate(-254.217 -191.072)"/>
        <path id="Caminho_48" data-name="Caminho 48" d="M258.1,211.2c.036,2.35.072,4.705.078,7.055q0-4.855-.078-9.7a38.9,38.9,0,0,0-1.013-9.974,49.4,49.4,0,0,1-1.8-6.2c-.533,2.937.983,5.916,1.8,8.847A38.718,38.718,0,0,1,258.1,211.2Z" transform="translate(-254.202 -191.073)"/>
        <path id="Caminho_49" data-name="Caminho 49" d="M323.723,240.406a20.268,20.268,0,0,1-5.484.366,48.083,48.083,0,0,0-12.5,1.57,63.663,63.663,0,0,1-6.275,1.582,37.87,37.87,0,0,1-7.372.192c-12.347-.485-24.868-1.007-36.694-4.537a20.349,20.349,0,0,1-1.2,2.278c12.185,3.872,25.144,4.405,37.916,4.9a37.864,37.864,0,0,0,7.372-.192,61.979,61.979,0,0,0,6.251-1.576,48.081,48.081,0,0,1,12.473-1.588,20.7,20.7,0,0,0,5.484-.372,5.422,5.422,0,0,0,3.962-3.476,4.758,4.758,0,0,0-.06-2.493A5.6,5.6,0,0,1,323.723,240.406Z" transform="translate(-254.201 -191.084)"/>
      </g>
      <path id="Caminho_50" data-name="Caminho 50" d="M305.972,233.294c-.444.995-2.314,9.59-2.757,10.471s-2.865,14.984-3.087,15.775-15.961-3.309-15.961-3.309l-9.476-7.942-9.74-9.692s-.288-8.745,6.887-11.55a10.947,10.947,0,0,1,1.5-.468c8.7-2.092,7.828-28.554,7.828-28.554l17.861,7.714s-3.309,15.44-3.195,18.419c.03,1,.815,1.624,1.84,2a14.548,14.548,0,0,0,4.879.527S306.415,232.3,305.972,233.294Z" transform="translate(-9.918 -11.175)" fill="#fbbebe"/>
      <path id="Caminho_51" data-name="Caminho 51" d="M337.96,262.307l2.535.665s1.876,2.853-2.535,5.508a76.424,76.424,0,0,0-8.05,5.628l-13.036,3.968-2.511-7.882,12.131-9.206Z" transform="translate(-9.93 -11.19)" fill="#016968"/>
      <path id="Caminho_52" data-name="Caminho 52" d="M337.96,262.307l2.535.665s1.876,2.853-2.535,5.508a76.424,76.424,0,0,0-8.05,5.628l-13.036,3.968-2.511-7.882,12.131-9.206Z" transform="translate(-9.93 -11.19)" opacity="0.1"/>
      <path id="Caminho_53" data-name="Caminho 53" d="M242.8,269.92l-5.071,4.963s9.146,10.585,16.183,11.244,11.574-8.05,11.574-8.05l-6.09-9.59Z" transform="translate(-9.912 -11.192)" fill="#016968"/>
      <path id="Caminho_54" data-name="Caminho 54" d="M242.8,269.92l-5.071,4.963s9.146,10.585,16.183,11.244,11.574-8.05,11.574-8.05l-6.09-9.59Z" transform="translate(-9.912 -11.192)" opacity="0.1"/>
      <ellipse id="Elipse_3" data-name="Elipse 3" cx="17.64" cy="17.639" rx="17.64" ry="17.639" transform="translate(263.418 168.865)" opacity="0.1"/>
      <ellipse id="Elipse_4" data-name="Elipse 4" cx="17.64" cy="17.639" rx="17.64" ry="17.639" transform="translate(263.418 167.54)" fill="#fbbebe"/>
      <path id="Caminho_55" data-name="Caminho 55" d="M322.619,344.475a56.943,56.943,0,0,0-11.8,2.643c-6.593,2.194-58.259.036-58.978,0v-1.984l2.529-6.281,29.969-3.752h14.337s21.577,5.071,23.807,7.258C322.571,343.677,322.619,344.475,322.619,344.475Z" transform="translate(-9.915 -11.208)" opacity="0.1"/>
      <path id="Caminho_56" data-name="Caminho 56" d="M305.972,233.3c-.444.995-2.314,9.59-2.757,10.471s-2.865,14.984-3.087,15.775-15.961-3.309-15.961-3.309l-9.476-7.942-9.74-9.692s-.288-8.745,6.887-11.55l17.813,20.481,8.02-21.368a14.548,14.548,0,0,0,4.879.527S306.415,232.312,305.972,233.3Z" transform="translate(-9.918 -11.181)" opacity="0.1"/>
      <path id="Caminho_57" data-name="Caminho 57" d="M289.647,248.195l-18.233-20.978a7.642,7.642,0,0,0-7.234-.533c-4.082,1.768-9.152,3.2-10.477,4.082s-6.287,6.335-6.287,6.335L262.2,275.766l-6.509,25.467s.995,13.012-1.54,17.753a19.485,19.485,0,0,0-2.1,9.812s.773,6.287-.108,9.59a15.973,15.973,0,0,0-.114,6.725s52.379,2.206,58.99,0a56.453,56.453,0,0,1,11.8-2.643s-1.2-22.057-2.4-27.349.995-25.467.995-25.467l-1.433-21.613,8.595-22.177s-4.657-14.217-9.512-15.65c0,0-8.817-2.1-10.693-3.087s-7.39-1.876-7.39-1.876l-2.895.971Z" transform="translate(-9.914 -11.181)" fill="#016968"/>
      <rect id="Retângulo_38" data-name="Retângulo 38" width="41.98" height="64.241" rx="1.763" transform="matrix(0.998, 0.068, -0.068, 0.998, 265.048, 253.401)" opacity="0.1"/>
      <rect id="Retângulo_39" data-name="Retângulo 39" width="41.98" height="64.241" rx="1.763" transform="matrix(0.998, 0.068, -0.068, 0.998, 266.369, 252.086)" fill="#3f3d56"/>
      <rect id="Retângulo_40" data-name="Retângulo 40" width="36.574" height="55.274" transform="matrix(0.998, 0.068, -0.068, 0.998, 268.738, 257.081)" fill="#fff"/>
      <rect id="Retângulo_41" data-name="Retângulo 41" width="29.88" height="8.328" transform="translate(272.148 271.551) rotate(4.004)" opacity="0.1"/>
      <rect id="Retângulo_42" data-name="Retângulo 42" width="4.741" height="4.339" transform="matrix(0.998, 0.068, -0.068, 0.998, 296.147, 306.329)" opacity="0.1"/>
      <rect id="Retângulo_43" data-name="Retângulo 43" width="24.269" height="4.339" transform="matrix(0.998, 0.068, -0.068, 0.998, 271.999, 294.556)" opacity="0.1"/>
      <rect id="Retângulo_44" data-name="Retângulo 44" width="25.27" height="6.671" transform="matrix(0.998, 0.068, -0.068, 0.998, 275.5, 255.786)" fill="#3f3d56"/>
      <rect id="Retângulo_45" data-name="Retângulo 45" width="25.27" height="6.671" transform="matrix(0.998, 0.068, -0.068, 0.998, 275.5, 255.786)" opacity="0.1"/>
      <path id="Caminho_58" data-name="Caminho 58" d="M291.861,343.26s-.222,32.642-8.823,51.384c0,0,10.369-24.7,10.369-25.689s5.73-11.358,4.2-14.445S291.861,343.26,291.861,343.26Z" transform="translate(-9.923 -11.21)" opacity="0.1"/>
      <path id="Caminho_59" data-name="Caminho 59" d="M292.326,191.937a12.269,12.269,0,0,1,2-8.217,10.123,10.123,0,0,0,7.828,10.669,1.325,1.325,0,0,1-.378-1.451,44.381,44.381,0,0,0,3.56,4.261c1.391,1.223,3.476,1.954,5.113,1.085,2.224-1.2,2.248-4.357,1.672-6.815a32.006,32.006,0,0,0-7.366-14.067,9.746,9.746,0,0,0-7.732-3.932,19.02,19.02,0,0,0-9.992,1.564,26.555,26.555,0,0,0-4.8,3.35l-8.391,6.845a7.966,7.966,0,0,0-2.038,2.146,5.874,5.874,0,0,0-.635,2.248,12.113,12.113,0,0,0,5.646,11.43,8.937,8.937,0,0,1,5.352-8.391,2.326,2.326,0,0,1,.833,1.732l1.768-3.153a3.47,3.47,0,0,1,1.2-1.421c1.091-.6,2.451.108,3.38.953s1.834,1.9,3.081,2.032l.048-4.693" transform="translate(-9.92 -11.169)" opacity="0.1"/>
      <path id="Caminho_60" data-name="Caminho 60" d="M292.326,191.278a12.275,12.275,0,0,1,2-8.223,10.129,10.129,0,0,0,7.834,10.669,1.313,1.313,0,0,1-.378-1.444,45.138,45.138,0,0,0,3.56,4.262c1.391,1.229,3.476,1.954,5.113,1.079,2.224-1.2,2.248-4.357,1.672-6.809a32.006,32.006,0,0,0-7.366-14.067,11.789,11.789,0,0,0-4.118-3.2,11.988,11.988,0,0,0-3.6-.731,19.017,19.017,0,0,0-9.992,1.558,26.889,26.889,0,0,0-4.795,3.356l-8.391,6.845a7.881,7.881,0,0,0-2.038,2.146,5.845,5.845,0,0,0-.635,2.248,12.107,12.107,0,0,0,5.646,11.424A8.949,8.949,0,0,1,282.19,192a2.343,2.343,0,0,1,.833,1.732l1.762-3.141a3.434,3.434,0,0,1,1.2-1.421c1.091-.6,2.451.108,3.38.953s1.834,1.894,3.081,2.032l.048-4.7" transform="translate(-9.92 -11.168)" fill="#3f3d56"/>
      <path id="Caminho_61" data-name="Caminho 61" d="M300.675,302.562c-1.54-.779-27.014,3.195-27.014,3.195a145.779,145.779,0,0,0-14.337-2.865c-10.141-1.666-10.789-11.58-10.789-11.58l-1.109-19.845,3.422-3,14.661,9.59a47.366,47.366,0,0,1,0,5.724,8.071,8.071,0,0,0-.491,1.8.6.6,0,0,0,.491.539c.995.252,14.553,2.445,14.553,2.445s31.425-2.152,39.259,8.433a7.958,7.958,0,0,1,1.385,2.613C322.648,306.848,302.072,303.251,300.675,302.562Z" transform="translate(-9.914 -11.192)" fill="#fbbebe"/>
      <path id="Caminho_62" data-name="Caminho 62" d="M320.728,299.659c-1.2.533-1.942.917-1.942.917s-11.244-.33-17.562-2.619-14-1.882-14-1.882-26.324-4.531-22.243-10.447a.6.6,0,0,0,.491.539c.995.252,14.553,2.445,14.553,2.445s31.425-2.152,39.259,8.433a7.959,7.959,0,0,1,1.439,2.613Z" transform="translate(-9.918 -11.196)" opacity="0.1"/>
      <path id="Caminho_63" data-name="Caminho 63" d="M331.661,264.735s1.546,10.915,1.654,11.8.665,11.574,0,12.791-1.654,3.195-1.654,3.195,1.1,2.314-3.308,3.2a45.277,45.277,0,0,0-9.59,3.524s-11.25-.33-17.532-2.643-14-1.876-14-1.876-33.415-5.736-19.078-12.737,24.478,2.481,24.478,2.481l15.985-.989s5.958-3.644,7.612-3.309a6.12,6.12,0,0,0,3.416-.551l.114-11.58Z" transform="translate(-9.918 -11.191)" fill="#fbbebe"/>
      <path id="Caminho_64" data-name="Caminho 64" d="M250.6,237.936l-3.2-.168-9.7,37.76s10.471-2.649,14.984,0,12.791,3.195,12.791,3.195l-3.087-30.1Z" transform="translate(-9.912 -11.184)" opacity="0.1"/>
      <path id="Caminho_65" data-name="Caminho 65" d="M250.6,237.271l-3.2-.168-9.7,37.76s10.471-2.649,14.984,0,12.791,3.195,12.791,3.195l-3.087-30.1Z" transform="translate(-9.912 -11.184)" fill="#016968"/>
      <path id="Caminho_66" data-name="Caminho 66" d="M323.96,245.544l4.405.995s11.25,16.183,12.131,17.088-4.2,4.2-6.287,4.2-12.347,1.2-15.326,3.968-1.738-11.166-1.738-11.484,3.7-9.11,3.7-9.11Z" transform="translate(-9.931 -11.186)" opacity="0.1"/>
      <path id="Caminho_67" data-name="Caminho 67" d="M323.96,244.885l4.405.989s11.25,16.213,12.131,17.094-4.2,4.2-6.287,4.2-12.347,1.2-15.326,3.968-1.738-11.166-1.738-11.484,3.722-9.14,3.722-9.14Z" transform="translate(-9.931 -11.186)" fill="#016968"/>
      <g id="Grupo_2" data-name="Grupo 2" transform="translate(261.216 170.561)" opacity="0.1">
        <path id="Caminho_68" data-name="Caminho 68" d="M294.292,183.11a8.837,8.837,0,0,1,.03-1.379,12.27,12.27,0,0,0-1.846,4.525v1.672c0,.971,0,1.948-.03,2.919h-.084v.45a2.39,2.39,0,0,0-.03-.462c-1.2-.192-2.056-1.2-2.949-2s-2.29-1.57-3.38-.953a3.434,3.434,0,0,0-1.2,1.42l-1.78,3.141a2.32,2.32,0,0,0-.833-1.726,8.937,8.937,0,0,0-5.352,8.391,12.179,12.179,0,0,1-5.688-9.548,12.119,12.119,0,0,0,5.688,10.867,8.949,8.949,0,0,1,5.352-8.391,2.344,2.344,0,0,1,.833,1.732l1.762-3.141a3.435,3.435,0,0,1,1.2-1.42c1.091-.6,2.451.108,3.38.953s1.834,1.894,3.081,2.032q0-2.3.048-4.591a12.207,12.207,0,0,1,1.8-4.489Z" transform="translate(-271.136 -181.732)"/>
        <path id="Caminho_69" data-name="Caminho 69" d="M292.271,189.147c.03-.408.078-.815.138-1.2l.066-1.654A12.13,12.13,0,0,0,292.271,189.147Z" transform="translate(-271.141 -181.733)"/>
        <path id="Caminho_70" data-name="Caminho 70" d="M310.458,196.3c-1.636.875-3.722.144-5.113-1.079a44.383,44.383,0,0,1-3.56-4.262,1.324,1.324,0,0,0,.378,1.45,1.413,1.413,0,0,1-.348-.09,39.609,39.609,0,0,0,3.53,4.2c1.379,1.2,3.476,1.954,5.113,1.079s2.1-2.925,1.96-4.921A4.161,4.161,0,0,1,310.458,196.3Z" transform="translate(-271.143 -181.734)"/>
        <path id="Caminho_71" data-name="Caminho 71" d="M301.777,192.305a10.189,10.189,0,0,1-7.468-8.907,10.124,10.124,0,0,0,7.852,10.327A1.319,1.319,0,0,1,301.777,192.305Z" transform="translate(-271.141 -181.732)"/>
      </g>
      <path id="Caminho_72" data-name="Caminho 72" d="M589.66,290.26s-2.361-.33-2.361-3.764-1.69-9.866-1.69-9.866h0s-1.463-11.19-3.482-12.964-4.615-12.191-4.615-12.191-.443-5.652-1.349-6.869-2.128-4.2-3.932-8.445S562.922,229,562.922,229s-13.6-7.888-17.454-10.459h0a5.956,5.956,0,0,1-.983-.743c-.671-.875-3.6-.893-3.6-.893a59.229,59.229,0,0,1-.7-6.162v-.647a20.739,20.739,0,0,0,9.117-11.28c.072-.228.132-.462.2-.7a1.948,1.948,0,0,0,1.2-1.055,21.153,21.153,0,0,1,.785-2.4,8.887,8.887,0,0,1,2.218-1.942c1.906-1.624,2.4-4.351,2.308-6.827-.06-2.014-.384-4.04-.258-6.036a2.371,2.371,0,0,1,.036-.5c.036-.294.078-.6.132-.887.294-1.486.935-2.889,1.295-4.363a5.614,5.614,0,0,0-.444-4.405c-1.229-1.864-3.788-2.236-6.036-2.4-2.547-.216-4.8.06-6.455-2.056a22.6,22.6,0,0,0-2.565-3.093c-.336-.312-3.6-2.308-3.6-2.433a14.571,14.571,0,0,0-10.189-.785c-1.7.491-3.285,1.295-5,1.7-3.692.875-7.948-.072-11.088,2.044a13.084,13.084,0,0,0-3.782,4.963q-1.2,2.29-2.433,4.585a29.5,29.5,0,0,0-3.231,7.846,13.291,13.291,0,0,0-.222,1.84h0v.953a3.284,3.284,0,0,0,.036.6,3.437,3.437,0,0,0,.042.372c.042.126.054.408.09.6s.108.533.18.791a1.217,1.217,0,0,0,.108.336c.036.114.132.4.21.6s.084.21.132.312a5.615,5.615,0,0,0,.306.6c.048.078.084.156.132.234a6.794,6.794,0,0,0,.551.8c1.277,1.6,3.171,2.619,4.567,4.118v.671a20.517,20.517,0,0,0,9.4,16.722c0,.228.03.461.042.7a34.225,34.225,0,0,1-.066,5.334,2.529,2.529,0,0,0-1.99-.887,2.854,2.854,0,0,0-.767.066l-.054-.042h0v.054c-1.319.324-2.943,1.7-4.5,5.6,0,0-4.723,5.322-8.319,5.1s-12.7,5.544-12.7,5.544-8.883,5.76-10.789,11.634a81.329,81.329,0,0,1-3.83,9.758l-11.01,22.608h0l-2.02,17.981s1.121,7.978.9,9.2,4.609,12.191,4.609,12.191S483.4,342.5,489.919,343.934l.468-.324a4.083,4.083,0,0,0,.881.324l1.343-.941a14.028,14.028,0,0,1-.108,3.159c-.893,2.775.342,20.84,1.912,24.382s1.013,49.994,1.013,49.994l-.222,4.094a1.736,1.736,0,0,0,.054.36l-.054.971.162.084a11.585,11.585,0,0,1-.162,3.908,43.326,43.326,0,0,0-.791,6.875s-4.5,28.7-2.362,34.464,3.938,12.083,3.938,12.083,2.248,7.192.108,8.391-8.2,3.327-6.965,6.317c1.139,2.769,5.46,10.189,6.1,11.274l-.054.6L494.3,519.5a11.984,11.984,0,0,0,1.013,3.644,6.267,6.267,0,0,0,6.407,4c.6-.042,1.289-.108,1.966-.2a85.178,85.178,0,0,0,14.559-3.794,5.739,5.739,0,0,1-1.133-.941h0a3.291,3.291,0,0,1-1-2.4c.1-1.744-3.159-10.021-3.974-12.065l-.186-.456s7.42-7.762,6.185-14.631c0,0-8.211-4.795-5.508-7.432s7.534-10.189,7.534-10.189.222-28.26,0-32.474a35.007,35.007,0,0,1,.414-8.775c.09-.432.2-.857.312-1.283a76.559,76.559,0,0,0,11.3.857q2.074,0,4.2-.084,0,.6.054,1.295c.312,7,.893,19.282,1.367,23.843.671,6.533,4.381,24.161,4.381,24.161s-7.079,4.537,1.235,15.74c0,0,0,4.052-.551,4.645h0a50.76,50.76,0,0,0-1.421,5.856c-.348,2.1-.491,4.244.072,5.346,1.349,2.649,9.44,2.433,9.44,2.433h0a1.266,1.266,0,0,1,.2-.03,11.55,11.55,0,0,1,8.565,2.577c3.075,2.469,14.739,1.391,21.062.6,2.475-.318,4.13-.6,4.13-.6a2.427,2.427,0,0,0,.084-.863h0c-.066-1.552-1.283-4.957-9.53-8,0,0-7.756-5.214-7.648-9.758h-1.067c.563-.018.959-.018.959-.018s-3.039-11.082-1.8-11.987-2.475-13.186-2.475-13.186-2.128-20.618-2.247-22.057a12.673,12.673,0,0,1,.563-3.656l-.563-11.31s-.108-3.758,0-4.981a23.435,23.435,0,0,0-.252-3.171c-.054-.42-.108-.857-.168-1.289,2.907-.737,4.8-1.415,4.8-1.415l-.336-39.349c2.469-4.795,2.925-15.32,2.913-22.776,0-4.795-.216-8.343-.216-8.343l3.374-5.508s.779-6.593-.455-8.038a1.384,1.384,0,0,1,.15-1.888,6.277,6.277,0,0,1,.749-.527.936.936,0,0,1-.078-.132,5.952,5.952,0,0,1,.749-.533s-1.2-1.858-.126-2.643c1.007.683,1.906,1.229,2.589,1.618-.048.438-.1.689-.1.689l.288-.6,1.061.6s5.286-10.531,5.173-12.077,3.6-8.092,3.6-8.092.45-3.44,2.475-4.879,1.57-11.862,1.57-11.862.563-5.43,1.912-7.642S589.66,290.26,589.66,290.26Zm-101.15-4.621.1,2.511c-.6-.965-1.031-1.654-1.031-1.654Z" transform="translate(-9.966 -11.165)" fill="url(#linear-gradient-2)"/>
      <path id="Caminho_73" data-name="Caminho 73" d="M576.475,335.516l-1.295,5.514s-10.369-5.3-12.233-12.017,3.123-9.272,3.123-9.272l9.668,4.088Z" transform="translate(-9.991 -11.204)" fill="#fff"/>
      <path id="Caminho_74" data-name="Caminho 74" d="M576.475,335.516l-1.295,5.514s-10.369-5.3-12.233-12.017,3.123-9.272,3.123-9.272l9.668,4.088Z" transform="translate(-9.991 -11.204)" opacity="0.1"/>
      <path id="Caminho_75" data-name="Caminho 75" d="M518.265,523.23s-9.59,3.524-16.183,3.968a6.157,6.157,0,0,1-6.287-3.98,12.166,12.166,0,0,1-.995-3.6l.869-9.5.456-5.053,14.007-3.644,1.984,6.072.186.456c.791,2.032,3.992,10.267,3.9,11.987a3.291,3.291,0,0,0,.977,2.4A5.572,5.572,0,0,0,518.265,523.23Z" transform="translate(-9.974 -11.249)" fill="#fff"/>
      <path id="Caminho_76" data-name="Caminho 76" d="M583.752,518.4a2.4,2.4,0,0,1-.084.863s-20.51,3.416-24.706,0a11.106,11.106,0,0,0-8.607-2.535s-7.936.216-9.26-2.4c-.551-1.1-.407-3.225-.066-5.316a51,51,0,0,1,1.391-5.826l.318-.252,1.888-1.516,22.1-.653h.168c-.108,4.519,7.5,9.7,7.5,9.7C582.493,513.466,583.686,516.852,583.752,518.4Z" transform="translate(-9.985 -11.248)" fill="#fff"/>
      <path id="Caminho_77" data-name="Caminho 77" d="M583.758,518.4a2.472,2.472,0,0,1-.09.863s-20.51,3.416-24.7,0a11.106,11.106,0,0,0-8.613-2.535s-7.942.216-9.266-2.4c-.545-1.1-.408-3.225-.066-5.322,3.057.306,7.882,1.067,9.776,2.889,2.865,2.757,7.72,5.514,10.693,5.736C563.841,517.777,577.812,518.221,583.758,518.4Z" transform="translate(-9.985 -11.25)" opacity="0.1"/>
      <path id="Caminho_78" data-name="Caminho 78" d="M518.265,523.235s-9.59,3.524-16.183,3.968a6.157,6.157,0,0,1-6.287-3.98c2.445.821,5.832,1.678,7.612.893,2.11-.941,9.59-1.54,13.785-1.8a5.445,5.445,0,0,0,1.073.917Z" transform="translate(-9.975 -11.254)" opacity="0.1"/>
      <path id="Caminho_79" data-name="Caminho 79" d="M532.5,239.121c-7.912-3.075-18.089-13.234-15.548-17.981a10.747,10.747,0,0,0,.989-3.812,34.814,34.814,0,0,0,.072-5.394,74.087,74.087,0,0,0-1.061-8.781s24.7.557,23.262,4.2a13.5,13.5,0,0,0-.372,4.993c.12,2.068.414,4.423.725,6.407.426,2.715.863,4.795.863,4.795s-1.516,2.116-2.4,2.23S543.852,243.526,532.5,239.121Z" transform="translate(-9.98 -11.176)" fill="#cf6f80"/>
      <path id="Caminho_80" data-name="Caminho 80" d="M512.278,507.922l-.186.2c-7.384-8.931-16.315,2.206-16.315,2.206l-.132-.24.456-5.053,14.007-3.644,1.984,6.072Z" transform="translate(-9.974 -11.249)" opacity="0.1"/>
      <path id="Caminho_81" data-name="Caminho 81" d="M566.91,501.394s-5.394-.108-8.271,2.433-16.782.545-16.183,0a2.076,2.076,0,0,0,.312-.917l1.888-1.517,22.1-.653C566.844,501.161,566.91,501.394,566.91,501.394Z" transform="translate(-9.986 -11.248)" opacity="0.1"/>
      <path id="Caminho_82" data-name="Caminho 82" d="M521.465,431.242a16.814,16.814,0,0,0-.911,3.075,35.185,35.185,0,0,0-.414,8.727c.222,4.2,0,32.312,0,32.312s-4.741,7.5-7.39,10.141,5.394,7.39,5.394,7.39c1.2,6.839-6.066,14.559-6.066,14.559-7.384-8.931-16.315,2.2-16.315,2.2s-4.855-8.391-6.066-11.388,4.741-5.065,6.833-6.287-.108-8.391-.108-8.391-1.762-6.287-3.86-12.023,2.314-34.284,2.314-34.284a44.3,44.3,0,0,1,.773-6.845,11.6,11.6,0,0,0,.162-3.884c-.036-.438-.078-.8-.108-1.049s-.054-.36-.054-.36l.084-.144,3-5.586S522.9,427.724,521.465,431.242Z" transform="translate(-9.973 -11.229)" fill="#016968"/>
      <path id="Caminho_83" data-name="Caminho 83" d="M566.908,500.717s-5.394-.114-8.271,2.4-16.782.551-16.183,0,.545-4.627.545-4.627c-8.157-11.142-1.2-15.662-1.2-15.662s-3.638-17.532-4.3-24.035c-.461-4.537-1.031-16.782-1.337-23.717-.132-3-.21-5.065-.21-5.065l6.605-1.313.857-.168,16.075-3.231s.444,3,.743,5.448a23.924,23.924,0,0,1,.246,3.159c-.1,1.2,0,4.957,0,4.957l.551,11.244a12.97,12.97,0,0,0-.551,3.638c.114,1.438,2.206,21.943,2.206,21.943s3.638,12.239,2.4,13.12S566.908,500.717,566.908,500.717Z" transform="translate(-9.984 -11.23)" fill="#016968"/>
      <path id="Caminho_84" data-name="Caminho 84" d="M540.214,207.366a13.5,13.5,0,0,0-.372,4.993,20.528,20.528,0,0,1-21.829-.408,74.088,74.088,0,0,0-1.061-8.781S541.652,203.728,540.214,207.366Z" transform="translate(-9.98 -11.176)" opacity="0.1"/>
      <path id="Caminho_85" data-name="Caminho 85" d="M549.748,194.125a20.506,20.506,0,0,1-41.009.491v-.491a20.511,20.511,0,0,1,41.021,0Z" transform="translate(-9.978 -11.169)" fill="#cf6f80"/>
      <path id="Caminho_86" data-name="Caminho 86" d="M532.5,239.124c-7.912-3.075-18.089-13.234-15.548-17.981a10.747,10.747,0,0,0,.989-3.812l10.831,8.907,6.7,5.5,5.095-12.964c.426,2.715.863,4.795.863,4.795s-1.516,2.116-2.4,2.23S543.852,243.53,532.5,239.124Z" transform="translate(-9.98 -11.179)" opacity="0.1"/>
      <path id="Caminho_87" data-name="Caminho 87" d="M550.944,267.358,541.9,419.3l-11.8.773-30.55-88.1,5.011-104.6,1.061-22.1,13.582,11.154,6.7,5.5,5.245-13.348,9.752,8.5Z" transform="translate(-0.415 -0.052)" fill="#016968"/>
      <path id="Caminho_88" data-name="Caminho 88" d="M521.466,431.242a16.817,16.817,0,0,0-.911,3.075,86.91,86.91,0,0,1-24.754-7.726l-.162-.084.054-.965v-.5l3-5.586S522.9,427.724,521.466,431.242Z" transform="translate(-9.974 -11.229)" opacity="0.1"/>
      <path id="Caminho_89" data-name="Caminho 89" d="M542.76,434.343a60.741,60.741,0,0,1-6.629.761c-.132-3-.21-5.065-.21-5.065l6.641-1.343Z" transform="translate(-9.984 -11.231)" opacity="0.1"/>
      <path id="Caminho_90" data-name="Caminho 90" d="M560.263,430.746c-4.261,1.109-10.849,2.356-16.734,1.576l-.084-3.794L559.52,425.3S559.945,428.271,560.263,430.746Z" transform="translate(-9.986 -11.23)" opacity="0.1"/>
      <path id="Caminho_91" data-name="Caminho 91" d="M543.4,432.967c-24.574,4.2-47.081-7.834-47.081-7.834l.216-4.076s.557-46.206-.989-49.748-2.751-21.482-1.876-24.221-3.195-44.1-3.195-44.1l-.659-16.782L465.669,276.4,476.458,253.9a81.277,81.277,0,0,0,3.752-9.71c1.876-5.844,10.585-11.58,10.585-11.58s8.931-5.73,12.461-5.514,8.157-5.071,8.157-5.071c3.416-8.709,6.509-4.795,6.509-4.795a7.7,7.7,0,0,1-.168,1.289c-1.2,9.56,19.384,39.768,19.677,40.308h0l1.984,47.746L541.4,367Z" transform="translate(-9.967 -11.179)" opacity="0.1"/>
      <path id="Caminho_92" data-name="Caminho 92" d="M542.742,432.967c-24.574,4.2-47.087-7.834-47.087-7.834l.222-4.076s.551-46.206-.995-49.748-2.751-21.5-1.87-24.263-3.213-44.078-3.213-44.078l-.665-16.782-24.143-9.812,10.789-22.494a82.538,82.538,0,0,0,3.752-9.7c1.876-5.826,10.615-11.568,10.615-11.568s8.931-5.73,12.455-5.514,8.175-5.065,8.175-5.065c3.422-8.709,7.193-4.795,7.193-4.795,0,.42-.36.6-.168,1.289,2.637,9.272,18.724,39.768,19.018,40.308h0l1.984,47.746,1.942,60.453Z" transform="translate(-9.967 -11.179)" fill="#fff"/>
      <path id="Caminho_93" data-name="Caminho 93" d="M536.131,260.18c-2.643-1.1-16.644-17.088-16.644-17.088v-3.638c-.51-1.2-3.542-.467-5.994.372l1.055-22.1,1.2.995C518.366,227.988,535.843,259.647,536.131,260.18Z" transform="translate(-9.979 -11.179)" opacity="0.1"/>
      <path id="Caminho_94" data-name="Caminho 94" d="M536.8,258.861c-2.649-1.109-16.651-17.088-16.651-17.088v-3.644c-.509-1.2-3.536-.468-5.994.372l1.037-22.075,1.2.989C519.031,226.669,536.5,258.322,536.8,258.861Z" transform="translate(-9.979 -11.179)" fill="#fff"/>
      <path id="Caminho_95" data-name="Caminho 95" d="M496.328,338.607c.33,0,17.088-1.762,17.088-1.762s10.147,19.959,9.482,24.808-1.87,9.152-5.952,8.391-21.967.6-21.967.6Z" transform="translate(-9.974 -11.208)" opacity="0.1"/>
      <path id="Caminho_96" data-name="Caminho 96" d="M495.663,337.282c.336,0,17.094-1.762,17.094-1.762s10.141,19.989,9.482,24.784-1.876,9.152-5.952,8.391-21.973.6-21.973.6Z" transform="translate(-9.974 -11.208)" fill="#fff"/>
      <path id="Caminho_97" data-name="Caminho 97" d="M508.293,327.936s15.38,8.271,15.71,10.789-7.828-1.1-9.59-1.546a22.867,22.867,0,0,0-3.53-.551l-11.754.318Z" transform="translate(-9.975 -11.206)" fill="#cf6f80"/>
      <ellipse id="Elipse_5" data-name="Elipse 5" cx="1.618" cy="1.618" rx="1.618" ry="1.618" transform="translate(520.236 246.795)" opacity="0.1"/>
      <ellipse id="Elipse_6" data-name="Elipse 6" cx="1.618" cy="1.618" rx="1.618" ry="1.618" transform="translate(520.236 246.136)" fill="#3f3d56"/>
      <ellipse id="Elipse_7" data-name="Elipse 7" cx="1.618" cy="1.618" rx="1.618" ry="1.618" transform="translate(523.215 316.85)" opacity="0.1"/>
      <ellipse id="Elipse_8" data-name="Elipse 8" cx="1.618" cy="1.618" rx="1.618" ry="1.618" transform="translate(523.215 316.184)" fill="#3f3d56"/>
      <ellipse id="Elipse_9" data-name="Elipse 9" cx="1.618" cy="1.618" rx="1.618" ry="1.618" transform="translate(521.855 281.822)" opacity="0.1"/>
      <ellipse id="Elipse_10" data-name="Elipse 10" cx="1.618" cy="1.618" rx="1.618" ry="1.618" transform="translate(521.855 281.163)" fill="#3f3d56"/>
      <path id="Caminho_98" data-name="Caminho 98" d="M570.763,336.265s1.1,1.654,0,2.4.108,2.649.108,2.649-2.751,1.606-1.54,3.063.444,8,.444,8l-3.309,5.508s.2,3.53.21,8.3c0,7.444-.438,17.909-2.859,22.68L564.14,428s-11.586,4.238-21.284,2.943l-1.439-62.814s2.1-35.621,2.871-42.453a71.119,71.119,0,0,0,.551-10.7s-.33-10.693-1.439-15.65c0,0-1.2-21.505-1.319-27.457-.054-2.847.1-11.154.264-19.054.186-8.637.4-16.782.4-16.782l-2.188-17.316s2.188-.216,2.847.659a6.31,6.31,0,0,0,.959.737h0c3.782,2.553,17.124,10.405,17.124,10.405s7.384,2.937,9.152,7.145,3,7.192,3.854,8.391,1.325,6.833,1.325,6.833,2.541,10.369,4.525,12.125,3.41,12.9,3.41,12.9L566.22,291.707s-1.54,22.932-1.87,23.819S570.763,336.265,570.763,336.265Z" transform="translate(-9.985 -11.18)" fill="#fff"/>
      <path id="Caminho_99" data-name="Caminho 99" d="M571.429,336.265s1.1,1.654,0,2.4.1,2.649.1,2.649-2.751,1.606-1.54,3.063.443,8,.443,8l-3.3,5.508s.2,3.53.216,8.3c0,7.444-.438,17.909-2.859,22.68l.33,39.145s-11.586,4.238-21.284,2.943l-1.432-62.814s2.092-35.621,2.871-42.453a70.479,70.479,0,0,0,.545-10.7s-.33-10.693-1.433-15.65c0,0-1.2-21.505-1.325-27.457-.054-2.847.1-11.154.264-19.054.186-8.637.4-16.782.4-16.782l-2.889-17.55s2.889,0,3.554.893a5.69,5.69,0,0,0,.959.737h0c3.776,2.553,17.118,10.405,17.118,10.405s7.366,2.937,9.165,7.144,3,7.192,3.854,8.391,1.325,6.833,1.325,6.833,2.541,10.369,4.525,12.125,3.416,12.9,3.416,12.9l-17.532,13.786s-1.54,22.932-1.876,23.819S571.429,336.265,571.429,336.265Z" transform="translate(-9.985 -11.18)" fill="#fff"/>
      <path id="Caminho_100" data-name="Caminho 100" d="M550.433,241.127l1.588,4.615-8.337,8.391c.186-8.637.4-16.782.4-16.782l-2.889-17.544s2.889,0,3.554.893a5.689,5.689,0,0,0,.959.737h0l7.085,20.433Z" transform="translate(-9.986 -11.18)" opacity="0.1"/>
      <path id="Caminho_101" data-name="Caminho 101" d="M549.755,239.8l1.588,4.609-8.331,8.391c.18-8.637.4-16.782.4-16.782l-2.895-17.55s2.895,0,3.554.893a5.989,5.989,0,0,0,.959.737h0l7.126,20.451Z" transform="translate(-9.985 -11.18)" fill="#fff"/>
      <path id="Caminho_102" data-name="Caminho 102" d="M549.748,194.125a20.443,20.443,0,0,1-1.007,6.359.851.851,0,0,1-.647-.156c-.162-5.394-2.811-10.465-6.078-14.775a15.647,15.647,0,0,0-3.3-3.416,6.455,6.455,0,0,0-4.471-1.265c-1.8.246-3.387,1.468-5.2,1.624-2.4.2-4.543-1.462-6.923-1.54a6.785,6.785,0,0,0-5.089,2.362,13.882,13.882,0,0,0-2.727,5.053,29.6,29.6,0,0,0-1.522,8.727c-.03,1.678-.192,3.782-1.75,4.393a8.93,8.93,0,0,0-2.26-6.833l-.036-.042v-.492a20.511,20.511,0,0,1,41.021,0Z" transform="translate(-9.978 -11.169)" opacity="0.1"/>
      <path id="Caminho_103" data-name="Caminho 103" d="M537.759,161.558a14.121,14.121,0,0,0-9.962-.779c-1.66.491-3.225,1.289-4.909,1.69-3.6.869-7.792-.072-10.879,2.032a12.983,12.983,0,0,0-3.7,4.939l-2.4,4.561a29.636,29.636,0,0,0-3.171,7.792,9.966,9.966,0,0,0,1.528,8.05c1.265,1.606,3.147,2.619,4.525,4.136a8.99,8.99,0,0,1,2.254,6.851c1.558-.6,1.714-2.715,1.75-4.393a29.637,29.637,0,0,1,1.522-8.727,13.883,13.883,0,0,1,2.727-5.053,6.79,6.79,0,0,1,5.089-2.368c2.4.084,4.549,1.744,6.923,1.54,1.8-.15,3.392-1.373,5.2-1.618a6.425,6.425,0,0,1,4.471,1.265,15.357,15.357,0,0,1,3.291,3.416c3.272,4.316,5.928,9.362,6.084,14.775.677.491,1.654-.156,1.99-.923a21.913,21.913,0,0,1,.773-2.4,8.863,8.863,0,0,1,2.17-1.936c1.87-1.612,2.338-4.327,2.266-6.791s-.551-4.963-.084-7.384c.282-1.48.917-2.877,1.265-4.345a5.682,5.682,0,0,0-.432-4.381c-1.2-1.852-3.722-2.224-5.922-2.4-2.5-.216-4.735.06-6.329-2.044a23.429,23.429,0,0,0-2.517-3.081C540.953,163.667,537.759,161.69,537.759,161.558Z" transform="translate(-9.976 -11.165)" fill="#512e4e"/>
      <path id="Caminho_104" data-name="Caminho 104" d="M472.586,287.981l-6.257-11.574-1.984,17.861s1.1,7.936.881,9.152,4.519,12.125,4.519,12.125,15.662,27.9,22.057,29.333l21.577-15.44-5.73-7.276s-1.984-.773-2.482,0c0,0-10.645-18.3-11.742-19.623s-.887-3.974-.887-3.974-1.654-1.762-1.1-3.416-3.165-7.384-3.165-7.384l3.416-3.195Z" transform="translate(-9.967 -11.194)" opacity="0.1"/>
      <path id="Caminho_105" data-name="Caminho 105" d="M466.658,275.083,465,276.407l-1.984,17.861s1.1,7.936.881,9.152,4.525,12.125,4.525,12.125,15.656,27.9,22.051,29.333l21.613-15.44-5.736-7.276s-1.984-.773-2.481,0c0,0-10.639-18.3-11.742-19.623s-.881-3.974-.881-3.974-1.654-1.762-1.1-3.416-3.2-7.384-3.2-7.384l3.416-3.195Z" transform="translate(-9.967 -11.193)" fill="#fff"/>
      <path id="Caminho_106" data-name="Caminho 106" d="M569.335,345.092c1.2,1.456.444,8,.444,8l-3.309,5.472s.2,3.536.21,8.307l-5.562,1.738a3.309,3.309,0,0,1-4.292-3.261l.965-30.928,12.976,4.957c-1.1.767.108,2.649.108,2.649S568.124,343.635,569.335,345.092Z" transform="translate(-9.989 -11.208)" opacity="0.1"/>
      <path id="Caminho_107" data-name="Caminho 107" d="M569.994,344.432c1.2,1.45.443,8,.443,8l-3.3,5.478s.2,3.53.216,8.3l-5.664,1.768a3.231,3.231,0,0,1-4.2-3.183l.965-31.035,12.97,4.969c-1.109.767.1,2.649.1,2.649S568.784,342.976,569.994,344.432Z" transform="translate(-9.99 -11.208)" fill="#fff"/>
      <path id="Caminho_108" data-name="Caminho 108" d="M574.3,329.674s-.881,5.628-3.087,5.958-3.195,9.1-5.394,8.8-.743-8.163-.665-9.686-2.4-7.828-.552-9.26,7.72,0,7.72,0Z" transform="translate(-9.991 -11.205)" fill="#cf6f80"/>
      <path id="Caminho_109" data-name="Caminho 109" d="M578.962,286.328l4.154-8.391s1.66,6.4,1.66,9.812,2.314,3.752,2.314,3.752,2.535,3,1.2,5.185-1.87,7.606-1.87,7.606.438,10.363-1.546,11.8-2.427,4.855-2.427,4.855-3.638,6.5-3.524,8.05-5.071,12.017-5.071,12.017S576.385,328,561.61,322.374c0,0-.114-4.411.989-5.622s2.823-1.8,1.744-7.888-.312-13.432-.312-14.9,3.308-10.621,3.308-10.621Z" transform="translate(-9.991 -11.194)" opacity="0.1"/>
      <path id="Caminho_110" data-name="Caminho 110" d="M580.808,276.737l3.632,1.2s1.66,6.4,1.66,9.812,2.314,3.752,2.314,3.752,2.535,3,1.2,5.185-1.876,7.606-1.876,7.606.444,10.363-1.54,11.8-2.4,4.855-2.4,4.855-3.638,6.5-3.524,8.05-5.077,12.017-5.077,12.017,2.535-13.012-12.239-18.634c0,0-.108-4.411.995-5.622s2.823-1.8,1.744-7.888-.312-13.432-.312-14.9,3.309-10.621,3.309-10.621Z" transform="translate(-9.991 -11.194)" fill="#fff"/>
      <path id="Caminho_111" data-name="Caminho 111" d="M500.549,494.284s5.79-3.638,9.59-.995S500.549,494.284,500.549,494.284Z" transform="translate(-9.976 -11.246)" opacity="0.1"/>
      <path id="Caminho_112" data-name="Caminho 112" d="M545.561,483.031a11.721,11.721,0,0,1,9.428,3.974C559.293,491.638,545.561,483.031,545.561,483.031Z" transform="translate(-9.987 -11.244)" opacity="0.1"/>
      <g id="Grupo_3" data-name="Grupo 3" transform="translate(492.512 162.248)" opacity="0.1">
        <path id="Caminho_113" data-name="Caminho 113" d="M553.039,193.1c-.737.641-1.684,1.091-2.176,1.936a22.358,22.358,0,0,0-.767,2.4c-.336.773-1.313,1.415-2,.923-.156-5.394-2.811-10.459-6.078-14.775a15.329,15.329,0,0,0-3.291-3.41,6.443,6.443,0,0,0-4.477-1.271c-1.8.246-3.38,1.468-5.2,1.624-2.4.2-4.549-1.462-6.929-1.54a6.761,6.761,0,0,0-5.083,2.362,13.879,13.879,0,0,0-2.727,5.053,29.636,29.636,0,0,0-1.522,8.727c-.036,1.672-.192,3.758-1.738,4.381a8.3,8.3,0,0,1,0,1.337c1.564-.6,1.72-2.715,1.756-4.393a29.631,29.631,0,0,1,1.522-8.727,13.881,13.881,0,0,1,2.727-5.053,6.785,6.785,0,0,1,5.083-2.367c2.4.084,4.555,1.744,6.929,1.54,1.8-.15,3.392-1.373,5.2-1.618a6.444,6.444,0,0,1,4.477,1.265,15.356,15.356,0,0,1,3.291,3.416c3.267,4.315,5.922,9.362,6.078,14.774.683.491,1.66-.156,2-.923a23.24,23.24,0,0,1,.767-2.4,8.891,8.891,0,0,1,2.176-1.936c1.87-1.612,2.338-4.327,2.266-6.791V187.4A7.882,7.882,0,0,1,553.039,193.1Z" transform="translate(-502.491 -173.418)"/>
        <path id="Caminho_114" data-name="Caminho 114" d="M508.785,192.677c-1.373-1.516-3.255-2.535-4.519-4.142a8.7,8.7,0,0,1-1.744-4.9,9.236,9.236,0,0,0,1.744,6.227c1.265,1.606,3.147,2.619,4.519,4.136a8.991,8.991,0,0,1,2.266,5.346A8.99,8.99,0,0,0,508.785,192.677Z" transform="translate(-502.489 -173.419)"/>
        <path id="Caminho_115" data-name="Caminho 115" d="M556.5,174.573c-.354,1.468-.983,2.865-1.271,4.345a13.887,13.887,0,0,0-.186,3.033,11.657,11.657,0,0,1,.186-1.708c.288-1.48.917-2.877,1.271-4.345a7.53,7.53,0,0,0,.2-2.481,8.323,8.323,0,0,1-.2,1.157Z" transform="translate(-502.501 -173.416)"/>
      </g>
      <ellipse id="Elipse_11" data-name="Elipse 11" cx="58.403" cy="9.38" rx="58.403" ry="9.38" transform="translate(20.858 484.038)" fill="#016968" opacity="0.1"/>
      <rect id="Retângulo_46" data-name="Retângulo 46" width="3.758" height="84.613" transform="translate(77.385 313.721)" fill="#535461"/>
      <path id="Caminho_116" data-name="Caminho 116" d="M114.633,409.307l-.24,3.812-.33,5.394-.138,2.242-.336,5.394-.144,2.242-.33,5.394-3.794,61.178a10.357,10.357,0,0,1-10.339,9.722h-19.7a10.351,10.351,0,0,1-10.339-9.764l-3.794-61.178-.33-5.394-.138-2.242-.342-5.394-.138-2.242-.33-5.394-.24-3.812a5.394,5.394,0,0,1,5.358-5.7h40.29a5.394,5.394,0,0,1,5.352,5.742Z" transform="translate(-9.869 -11.225)" fill="#3f3d56"/>
      <path id="Caminho_117" data-name="Caminho 117" d="M104.831,401.989l-.336,5.382H54.64l-.336-5.382Z" transform="translate(-0.307 -0.1)" fill="#9d9cb5"/>
      <path id="Caminho_118" data-name="Caminho 118" d="M104.358,409.614l-.33,5.382H55.114l-.336-5.382Z" transform="translate(-0.307 -0.102)" fill="#9d9cb5"/>
      <path id="Caminho_119" data-name="Caminho 119" d="M103.885,417.246l-.33,5.376H55.587l-.336-5.376Z" transform="translate(-0.307 -0.104)" fill="#9d9cb5"/>
      <path id="Caminho_120" data-name="Caminho 120" d="M58.141,356.649c21.889,15.835,31.005,40.6,31.005,40.6s-26.372-.905-48.267-16.74S9.856,339.926,9.856,339.926,36.228,340.814,58.141,356.649Z" transform="translate(-9.856 -11.209)" fill="#016968"/>
      <path id="Caminho_121" data-name="Caminho 121" d="M9.856,339.926S37.229,355.12,46.01,367.7s43.113,29.561,43.113,29.561" transform="translate(-9.856 -11.209)" fill="none" stroke="#535461" stroke-miterlimit="10" stroke-width="1.199"/>
      <path id="Caminho_122" data-name="Caminho 122" d="M72.253,324.744c11.916,8.613,16.878,22.093,16.878,22.093s-14.385-.491-26.27-9.1-16.878-22.1-16.878-22.1S60.344,316.126,72.253,324.744Z" transform="translate(-9.865 -11.203)" fill="#016968"/>
      <path id="Caminho_123" data-name="Caminho 123" d="M45.983,315.634s14.9,8.271,19.683,15.116,23.465,16.087,23.465,16.087" transform="translate(-9.865 -11.203)" fill="none" stroke="#535461" stroke-miterlimit="10" stroke-width="1.199"/>
      <path id="Caminho_124" data-name="Caminho 124" d="M106.452,346.157c-13.684,15.038-16.579,34.692-16.579,34.692s19.294-4.735,32.965-19.779,16.579-34.692,16.579-34.692S120.136,331.118,106.452,346.157Z" transform="translate(-9.876 -11.206)" fill="#016968"/>
      <path id="Caminho_125" data-name="Caminho 125" d="M139.43,326.383S121.6,341.8,117.073,352.42s-27.2,28.428-27.2,28.428" transform="translate(-9.876 -11.206)" fill="none" stroke="#535461" stroke-miterlimit="10" stroke-width="1.199"/>
    </g>
  </g>
</svg>
