<svg xmlns="http://www.w3.org/2000/svg" xmlns:xlink="http://www.w3.org/1999/xlink" width="716.292" height="512.842" viewBox="0 0 716.292 512.842">
  <defs>
    <linearGradient id="linear-gradient" x1="0.5" y1="1" x2="0.5" gradientUnits="objectBoundingBox">
      <stop offset="0" stop-color="gray" stop-opacity="0.251"/>
      <stop offset="0.54" stop-color="gray" stop-opacity="0.122"/>
      <stop offset="1" stop-color="gray" stop-opacity="0.102"/>
    </linearGradient>
    <linearGradient id="linear-gradient-2" x1="0.5" y1="1" x2="0.5" y2="0" xlink:href="#linear-gradient"/>
  </defs>
  <g id="Grupo_1481" data-name="Grupo 1481" transform="translate(-1041.708 -2894.079)">
    <g id="undraw_medicine_b-1-ol_1_" data-name="undraw_medicine_b-1-ol (1)" transform="translate(1034.003 2894.083)">
      <ellipse id="Elipse_12" data-name="Elipse 12" cx="63.841" cy="10.254" rx="63.841" ry="10.254" transform="translate(176.86 492.042)" fill="#016968" opacity="0.1"/>
      <ellipse id="Elipse_13" data-name="Elipse 13" cx="79.664" cy="10.254" rx="79.664" ry="10.254" transform="translate(508.068 492.331)" fill="#016968" opacity="0.1"/>
      <path id="Caminho_378" data-name="Caminho 378" d="M40.019,260h66.494v90.631H44.887c-.164.93-.321,1.867-.491,2.8h62.118v73.092c-.111-.033-.21-.072-.314-.111-1.756-.694-3.5-1.428-5.241-2.215l-1.114-.5q-2.621-1.238-5.241-2.621c-.609-.321-1.219-.655-1.821-1a109.036,109.036,0,0,1-26.129-20.415c-.223-.216-.432-.446-.655-.655-1.061-1.153-2.1-2.319-3.112-3.512l-1.114-1.31c-1.192-1.461-2.346-2.961-3.466-4.481-.164-.223-.321-.446-.491-.655a97.544,97.544,0,0,1-11.269-20.376c-.092-.216-.17-.452-.256-.655q-1.35-3.472-2.391-7.01c-.3-.989-.59-1.966-.839-2.994-.092-.3-.17-.6-.242-.891-3.721-14.525-4.16-29.614-4.16-44.6v-5.241c0-6.06.072-12.16.177-18.253,0-1.579.066-3.151.1-4.737q.138-6.034.393-12.068c.039-1.12.092-2.234.151-3.348a18.963,18.963,0,0,1,.1-1.926C39.73,264.615,39.861,262.3,40.019,260Z" transform="translate(-30.951 -38.413)" fill="#016968" opacity="0.1"/>
      <path id="Caminho_379" data-name="Caminho 379" d="M106.513,159.085H70.039a276.5,276.5,0,0,1,19.4-26.705c5.418-6.657,11.138-13.143,17.074-19.393Z" transform="translate(-30.951 -38.413)" fill="#016968" opacity="0.1"/>
      <path id="Caminho_380" data-name="Caminho 380" d="M106.513,161.889v95.3H40.228c0-.275.046-.557.066-.832.059-.753.118-1.507.183-2.254.072-.878.151-1.762.236-2.621s.177-1.907.275-2.857.19-1.913.3-2.863.21-1.9.328-2.843.223-1.9.347-2.843c.1-.786.2-1.566.308-2.352.151-1.107.308-2.221.478-3.322a3.064,3.064,0,0,1,.072-.491A226.627,226.627,0,0,1,47.7,209.986a176.952,176.952,0,0,1,8.223-24.242A181.982,181.982,0,0,1,68.3,161.922Z" transform="translate(-30.951 -38.413)" fill="#016968" opacity="0.1"/>
      <path id="Caminho_381" data-name="Caminho 381" d="M122.388,259.99v90.638H264.412V259.99Zm0,93.436v77.836c.812.17,1.618.334,2.418.472,1.088.21,2.169.4,3.276.563.21.033.426.065.655.085.432.072.878.131,1.31.19,1.094.151,2.182.275,3.276.373.518.052,1.042.1,1.566.138l1.264.1h0c.688.052,1.369.092,2.044.111.419,0,.839.039,1.271.052h4.671c.563,0,1.127,0,1.684-.052h.039a8.829,8.829,0,0,0,1.173-.052,2.741,2.741,0,0,0,.328,0,6.773,6.773,0,0,0,.97-.046h.229l2.195-.17c.721-.066,1.448-.151,2.182-.229l1.494-.177a130.673,130.673,0,0,0,17.985-3.826c13.248-3.7,26.207-8.865,39.449-12.652,17.12-4.881,36.035-7.279,52.578-1.31v-61.4Zm142.024-194.34V38.42a182.581,182.581,0,0,0-46.145,5.412c-35.963,9.035-68.231,28.631-95.879,53.659v61.587h7.128v2.8h-7.128v95.316H264.412V161.883H158.784v-2.8Zm182.423-40.759a58.827,58.827,0,0,1-25.742-7.482c-15.3-8.321-27.518-21.169-41.172-32.012-28.369-22.584-63.553-36.212-99.647-39.593V159.085H483.02l.5-.531Zm18.47-3.276,19.583,21.49V109.416c-6.558.812-12.3,2.745-19.557,5.608Zm19.583,335.539V353.425H443.159c-.111-.413-.223-.832-.354-1.251.124.419.229.839.347,1.251H280.3v70.268c1.546,1.147,3.073,2.352,4.586,3.577h0c1.631,1.31,3.243,2.693,4.861,4.049l1.631,1.35c.78.655,1.566,1.31,2.359,1.926q2.359,1.913,4.763,3.774c.793.655,1.605,1.245,2.411,1.861a328.39,328.39,0,0,0,40.379,26.41q4.737,2.621,9.559,5.117c2.142,1.094,4.3,2.182,6.46,3.237q4.875,2.378,9.828,4.586h0a360.9,360.9,0,0,0,95.657,27.865q11,1.625,22.086,2.555V450.582h.655ZM280.3,161.883v95.309H484.914V161.883Zm0,98.107v90.638H484.914V259.99ZM500.8,109.3v30.256l25-27.426q-12.422-2-25-2.863Zm0,150.725v90.605H699.807V259.99ZM699.08,457.783l.7-104.357H500.8V511.043a356.879,356.879,0,0,0,38.459-.459h.223q9.172-.577,18.26-1.677h.138A336.267,336.267,0,0,0,651.7,483.872m86.484-208.957c-.747-1.762-1.527-3.512-2.319-5.241-1.481-3.276-3.047-6.46-4.658-9.644H715.676v90.6h39.259c-.02-25.657-6.513-51.864-16.734-75.746Zm-22.505,78.543v89.76a128.585,128.585,0,0,0,27.131-36.592c8.091-16.694,11.793-34.771,12.095-53.181Zm0-119.846V257.2h14.073A255.521,255.521,0,0,0,715.7,233.579ZM580.708,127.079c-1.035-.393-2.07-.793-3.112-1.179a284.094,284.094,0,0,0-33.617-10.1l-38.25,41.978h0l-.734.78.491.537H641.62a291.168,291.168,0,0,0-60.893-32.045Zm64.9,34.836H503.587l-2.791,2.555v92.721H699.833V212.279a283.564,283.564,0,0,0-54.2-50.4Z" transform="translate(-30.951 -38.413)" fill="#016968" opacity="0.1"/>
      <path id="Caminho_382" data-name="Caminho 382" d="M106.513,209.96v47.232H40.228c0-.275.046-.557.066-.832.059-.753.118-1.507.183-2.254.072-.878.151-1.762.236-2.621s.177-1.907.275-2.857.19-1.913.3-2.863.21-1.9.328-2.843.223-1.9.347-2.843c.1-.786.2-1.566.308-2.352.151-1.107.308-2.221.478-3.322a3.064,3.064,0,0,1,.072-.491A226.627,226.627,0,0,1,47.7,209.986Z" transform="translate(-30.951 -38.413)" fill="#016968" opacity="0.1"/>
      <path id="Caminho_383" data-name="Caminho 383" d="M40.019,260h66.494v90.631H44.887c-.164.93-.321,1.867-.491,2.8h62.118v73.092c-.111-.033-.21-.072-.314-.111-1.756-.694-3.5-1.428-5.241-2.215l-1.114-.5q-2.621-1.238-5.241-2.621c-.609-.321-1.219-.655-1.821-1a109.036,109.036,0,0,1-26.129-20.415c-.223-.216-.432-.446-.655-.655-1.061-1.153-2.1-2.319-3.112-3.512l-1.114-1.31c-1.192-1.461-2.346-2.961-3.466-4.481-.164-.223-.321-.446-.491-.655a97.544,97.544,0,0,1-11.269-20.376c-.092-.216-.17-.452-.256-.655q-1.35-3.472-2.391-7.01c-.3-.989-.59-1.966-.839-2.994-.092-.3-.17-.6-.242-.891-3.721-14.525-4.16-29.614-4.16-44.6v-5.241c0-6.06.072-12.16.177-18.253,0-1.579.066-3.151.1-4.737q.138-6.034.393-12.068c.039-1.12.092-2.234.151-3.348a18.963,18.963,0,0,1,.1-1.926C39.73,264.615,39.861,262.3,40.019,260Z" transform="translate(-30.951 -38.413)" fill="#016968" opacity="0.1"/>
      <path id="Caminho_384" data-name="Caminho 384" d="M141.434,137.117v81.662h-50V137.117h7.128V109.468h29.26v27.649Z" fill="#016968" opacity="0.1"/>
      <rect id="Retângulo_89" data-name="Retângulo 89" width="49.99" height="90.631" transform="translate(91.444 221.576)" fill="#016968" opacity="0.1"/>
      <path id="Caminho_385" data-name="Caminho 385" d="M122.388,353.432h50v75.346A130.456,130.456,0,0,1,154.4,432.6l-1.494.183c-.734.085-1.461.157-2.182.229s-1.468.124-2.195.17H148.3c-.314,0-.655.039-.963.046H147c-.393,0-.786.039-1.179.052h0c-.557.033-1.114.039-1.684.046H139.5l-1.264-.046c-.655,0-1.363-.072-2.044-.118h0l-1.258-.092-1.566-.144c-1.1-.1-2.195-.223-3.276-.373l-1.31-.183-.655-.092c-1.094-.17-2.175-.354-3.276-.563-.806-.138-1.605-.308-2.418-.472Z" transform="translate(-30.951 -38.413)" fill="#016968" opacity="0.1"/>
      <rect id="Retângulo_90" data-name="Retângulo 90" width="41.224" height="91.3" transform="translate(412.739 127.472)" fill="#016968" opacity="0.1"/>
      <path id="Caminho_386" data-name="Caminho 386" d="M453.97,221.576v90.638H249.349V273.119h108.99v23.062h54.4V221.576Z" fill="#016968" opacity="0.1"/>
      <path id="Caminho_387" data-name="Caminho 387" d="M485.569,450.608h-.655v59.458q-11.073-.937-22.08-2.549a360.919,360.919,0,0,1-95.7-27.924q-13.189-5.936-25.84-12.96a329.734,329.734,0,0,1-40.385-26.41q-4.822-3.7-9.52-7.561c-2.169-1.789-4.324-3.623-6.506-5.405-1.513-1.225-3.04-2.431-4.586-3.584V353.432H443.146c-.111-.419-.223-.839-.341-1.251.124.413.242.832.354,1.251h41.755v97.137C485.137,450.576,485.353,450.6,485.569,450.608Z" transform="translate(-30.951 -38.413)" fill="#016968" opacity="0.1"/>
      <path id="Caminho_388" data-name="Caminho 388" d="M592.429,159.085H565.567v-8.347h12.042V125.874q1.566.57,3.119,1.173v23.691h11.7Z" transform="translate(-30.951 -38.413)" fill="#016968" opacity="0.1"/>
      <path id="Caminho_389" data-name="Caminho 389" d="M657.148,257.192H525.273l.046.033-.059-.033H500.8v-91.3h6.932v67.484h31.678V193.41h26.168V161.889h26.862v31.547H618.6V233.4h38.544Z" transform="translate(-30.951 -38.413)" fill="#016968" opacity="0.1"/>
      <path id="Caminho_390" data-name="Caminho 390" d="M500.8,259.99v90.638H657.148V259.99Zm198.8,197.328.216-71.742H657.148v-32.1H500.8V511.043a356.879,356.879,0,0,0,38.459-.459h.223q9.172-.577,18.26-1.677h.138A336.267,336.267,0,0,0,651.7,483.872" transform="translate(-30.951 -38.413)" fill="#016968" opacity="0.1"/>
      <path id="Caminho_391" data-name="Caminho 391" d="M718.454,353.432h36.474c-.321,18.4-4.016,36.481-12.1,53.175A128.627,128.627,0,0,1,715.7,443.2V385.542h2.752Z" transform="translate(-30.951 -38.413)" fill="#016968" opacity="0.1"/>
      <path id="Caminho_392" data-name="Caminho 392" d="M754.947,350.628H718.454V274.882H738.2C748.422,298.763,754.915,324.971,754.947,350.628Z" transform="translate(-30.951 -38.413)" fill="#016968" opacity="0.1"/>
      <rect id="Retângulo_91" data-name="Retângulo 91" width="22.086" height="28.625" transform="translate(431.883 152.854)" fill="#016968" opacity="0.1"/>
      <rect id="Retângulo_92" data-name="Retângulo 92" width="22.086" height="6.591" transform="translate(431.883 212.187)" fill="#016968" opacity="0.1"/>
      <rect id="Retângulo_93" data-name="Retângulo 93" width="22.086" height="19.23" transform="translate(431.883 221.576)" fill="#016968" opacity="0.1"/>
      <rect id="Retângulo_94" data-name="Retângulo 94" width="22.086" height="28.625" transform="translate(431.883 271.521)" fill="#016968" opacity="0.1"/>
      <rect id="Retângulo_95" data-name="Retângulo 95" width="22.086" height="28.625" transform="translate(431.883 330.854)" fill="#016968" opacity="0.1"/>
      <path id="Caminho_393" data-name="Caminho 393" d="M484.914,450.569a3.631,3.631,0,0,1,.655.039h-.655v6.65h-22.08V428.6h22.08Z" transform="translate(-30.951 -38.413)" fill="#016968" opacity="0.1"/>
      <path id="Caminho_394" data-name="Caminho 394" d="M484.914,487.921v22.112q-11.073-.937-22.08-2.549V487.921Z" transform="translate(-30.951 -38.413)" fill="#016968" opacity="0.1"/>
      <rect id="Retângulo_96" data-name="Retângulo 96" width="94.654" height="2.103" transform="translate(249.349 310.111)" fill="#016968" opacity="0.1"/>
      <rect id="Retângulo_97" data-name="Retângulo 97" width="94.654" height="8.059" transform="translate(249.349 315.012)" fill="#016968" opacity="0.1"/>
      <rect id="Retângulo_98" data-name="Retângulo 98" width="94.654" height="12.96" transform="translate(249.349 349.488)" fill="#016968" opacity="0.1"/>
      <path id="Caminho_395" data-name="Caminho 395" d="M374.948,427.277v12.96H300.912q-4.822-3.682-9.526-7.561c-2.169-1.789-4.318-3.623-6.506-5.4Z" transform="translate(-30.951 -38.413)" fill="#016968" opacity="0.1"/>
      <path id="Caminho_396" data-name="Caminho 396" d="M374.948,466.647v12.946h-7.816q-13.176-5.943-25.834-12.966Z" transform="translate(-30.951 -38.413)" fill="#016968" opacity="0.1"/>
      <rect id="Retângulo_99" data-name="Retângulo 99" width="18.633" height="18.633" transform="translate(508.31 230.362)" fill="#016968" opacity="0.1"/>
      <rect id="Retângulo_100" data-name="Retângulo 100" width="18.633" height="18.633" transform="translate(104.862 143.544)" fill="#016968" opacity="0.1"/>
      <rect id="Retângulo_101" data-name="Retângulo 101" width="18.633" height="18.633" transform="translate(104.862 186.825)" fill="#016968" opacity="0.1"/>
      <rect id="Retângulo_102" data-name="Retângulo 102" width="18.633" height="18.633" transform="translate(104.862 230.107)" fill="#016968" opacity="0.1"/>
      <rect id="Retângulo_103" data-name="Retângulo 103" width="18.633" height="18.633" transform="translate(104.862 273.382)" fill="#016968" opacity="0.1"/>
      <rect id="Retângulo_104" data-name="Retângulo 104" width="18.633" height="18.633" transform="translate(104.862 316.663)" fill="#016968" opacity="0.1"/>
      <rect id="Retângulo_105" data-name="Retângulo 105" width="18.633" height="18.633" transform="translate(104.862 359.944)" fill="#016968" opacity="0.1"/>
      <rect id="Retângulo_106" data-name="Retângulo 106" width="18.633" height="18.633" transform="translate(579.444 230.362)" fill="#016968" opacity="0.1"/>
      <rect id="Retângulo_107" data-name="Retângulo 107" width="18.633" height="18.633" transform="translate(508.31 276.323)" fill="#016968" opacity="0.1"/>
      <rect id="Retângulo_108" data-name="Retângulo 108" width="18.633" height="18.633" transform="translate(579.444 276.323)" fill="#016968" opacity="0.1"/>
      <rect id="Retângulo_109" data-name="Retângulo 109" width="18.633" height="18.633" transform="translate(508.31 322.278)" fill="#016968" opacity="0.1"/>
      <rect id="Retângulo_110" data-name="Retângulo 110" width="18.633" height="18.633" transform="translate(579.444 322.278)" fill="#016968" opacity="0.1"/>
      <rect id="Retângulo_111" data-name="Retângulo 111" width="18.633" height="18.633" transform="translate(508.31 368.239)" fill="#016968" opacity="0.1"/>
      <rect id="Retângulo_112" data-name="Retângulo 112" width="18.633" height="18.633" transform="translate(579.444 368.239)" fill="#016968" opacity="0.1"/>
      <rect id="Retângulo_113" data-name="Retângulo 113" width="18.633" height="18.633" transform="translate(508.31 414.2)" fill="#016968" opacity="0.1"/>
      <rect id="Retângulo_114" data-name="Retângulo 114" width="18.633" height="18.633" transform="translate(579.444 414.2)" fill="#016968" opacity="0.1"/>
      <path id="Caminho_397" data-name="Caminho 397" d="M508.31,472.171V460.154h18.627v10.306Z" fill="#016968" opacity="0.1"/>
      <path id="Caminho_398" data-name="Caminho 398" d="M42.744,233.9v10.66h63.769V233.9Zm6.355,9.992H43.9v-9.336h5.241Zm6.349,0H50.207v-9.336h5.241Zm6.336,0H56.542v-9.336h5.241Zm6.349,0H62.9v-9.336h5.241Zm6.342,0H69.233v-9.336h5.241Zm6.349,0H75.582v-9.336h5.241Zm6.349,0H81.931v-9.336h5.241Zm6.342,0H88.273v-9.336h5.241Zm6.342,0H94.615v-9.336h5.241Zm6.342,0h-5.241v-9.336H106.2Z" transform="translate(-30.951 -38.413)" fill="#016968" opacity="0.1"/>
      <path id="Caminho_399" data-name="Caminho 399" d="M42.744,264.917v10.66h63.769v-10.66ZM49.1,274.9H43.9v-9.31h5.241Zm6.349,0H50.207v-9.31h5.241Zm6.336,0H56.542v-9.31h5.241Zm6.349,0H62.9v-9.31h5.241Zm6.342,0H69.233v-9.31h5.241Zm6.349,0H75.582v-9.31h5.241Zm6.349,0H81.931v-9.31h5.241Zm6.342,0H88.273v-9.31h5.241Zm6.342,0H94.615v-9.31h5.241Zm6.342,0h-5.241v-9.31H106.2Z" transform="translate(-30.951 -38.413)" fill="#016968" opacity="0.1"/>
      <path id="Caminho_400" data-name="Caminho 400" d="M42.744,295.946v10.679h63.769V295.946Zm6.355,9.985H43.9v-9.317h5.241Zm6.349,0H50.207v-9.317h5.241Zm6.336,0H56.542v-9.317h5.241Zm6.349,0H62.9v-9.317h5.241Zm6.342,0H69.233v-9.317h5.241Zm6.349,0H75.582v-9.317h5.241Zm6.349,0H81.931v-9.317h5.241Zm6.342,0H88.273v-9.317h5.241Zm6.342,0H94.615v-9.317h5.241Zm6.342,0h-5.241v-9.317H106.2Z" transform="translate(-30.951 -38.413)" fill="#016968" opacity="0.1"/>
      <path id="Caminho_402" data-name="Caminho 402" d="M43.019,358c.256,1,.544,2,.845,2.994v-2.326h5.241v9.317H46.3c.085.216.17.452.256.655h59.956V358Zm12.448,9.985H50.226v-9.317h5.241Zm6.336,0H56.562v-9.317H61.8Zm6.349,0H62.9v-9.317h5.241Zm6.342,0H69.253v-9.317h5.241Zm6.349,0H75.6v-9.317h5.241Zm6.349,0H81.95v-9.317h5.241Zm6.342,0H88.292v-9.317h5.241Zm6.342,0H94.635v-9.317h5.241Zm6.342,0h-5.241v-9.317h5.241Z" transform="translate(-30.951 -38.413)" fill="#016968" opacity="0.1"/>
      <path id="Caminho_403" data-name="Caminho 403" d="M57.826,389.028c.164.21.321.446.491.655h3.466v4.475c.373.445.74.891,1.12,1.31v-5.811h5.241v9.349H66.023c.21.216.413.445.655.655h39.855V389.028Zm16.648,9.978H69.233V389.7h5.241Zm6.349,0H75.582V389.7h5.241Zm6.349,0H81.931V389.7h5.241Zm6.342,0H88.273V389.7h5.241Zm6.342,0H94.615V389.7h5.241Zm6.342,0h-5.241V389.7H106.2Z" transform="translate(-30.951 -38.413)" fill="#016968" opacity="0.1"/>
      <path id="Caminho_404" data-name="Caminho 404" d="M92.807,420.051c.6.341,1.206.655,1.821,1v-.328h5.241v2.948l1.114.518v-3.466h5.241v5.667a1.641,1.641,0,0,0,.314.118v-6.454Z" transform="translate(-30.951 -38.413)" fill="#016968" opacity="0.1"/>
      <path id="Caminho_405" data-name="Caminho 405" d="M525.273,257.192ZM484.914,450.563Zm-42.109-98.389c.124.419.229.839.347,1.251h0C443.048,353.012,442.936,352.593,442.805,352.174Zm82.468-95Zm-395.73-98.107v2.8H158.81v-2.8Zm355.371,291.5Zm-42.109-98.389c.124.419.229.839.347,1.251h0C443.048,353.012,442.936,352.593,442.805,352.174Zm82.468-95ZM484.914,450.543Zm-42.109-98.369c.124.419.229.839.347,1.251h0C443.048,353.012,442.936,352.593,442.805,352.174Z" transform="translate(-30.951 -38.413)" fill="#016968" opacity="0.1"/>
      <path id="Caminho_406" data-name="Caminho 406" d="M333.383,287.167s-2.581-.36-2.581-4.121-1.848-10.784-1.848-10.784h0c0-.033-1.6-12.232-3.807-14.172s-5.045-13.326-5.045-13.326-.485-6.178-1.474-7.508-2.326-4.586-4.3-9.232-10.195-7.862-10.195-7.862-14.866-8.622-19.079-11.433h0a6.461,6.461,0,0,1-1.068-.806c-.734-.963-3.931-.983-3.931-.983a64.42,64.42,0,0,1-.76-6.729,5.119,5.119,0,0,0-.033-.708,22.669,22.669,0,0,0,9.965-12.331c.079-.249.144-.511.216-.76a2.129,2.129,0,0,0,1.278-1.153,24.046,24.046,0,0,1,.858-2.621,9.871,9.871,0,0,1,2.424-2.129c2.083-1.769,2.621-4.75,2.522-7.463-.066-2.195-.419-4.409-.282-6.591l.039-.55c.039-.328.085-.655.144-.97.321-1.625,1.022-3.158,1.415-4.77a6.136,6.136,0,0,0-.485-4.816c-1.343-2.038-4.141-2.444-6.6-2.653-2.785-.236-5.274.072-7.056-2.241a25.154,25.154,0,0,0-2.8-3.387c-.367-.341-3.931-2.516-3.931-2.66a15.928,15.928,0,0,0-11.105-.852c-1.848.537-3.59,1.415-5.464,1.854-4.042.957-8.694-.079-12.127,2.234-1.913,1.31-3.06,3.394-4.134,5.425q-1.31,2.509-2.66,5.012a32.469,32.469,0,0,0-3.531,8.576,13.616,13.616,0,0,0-.236,2h0v1.068a3.524,3.524,0,0,0,.039.655c.039.2.033.269.052.406s.052.446.092.655.118.577.2.865c.033.124.079.242.118.36.066.223.144.439.229.655.046.111.092.229.144.341a6.132,6.132,0,0,0,.334.655c.052.092.092.177.144.262a8.694,8.694,0,0,0,.6.878c1.4,1.749,3.466,2.863,4.992,4.5v.734a22.427,22.427,0,0,0,10.208,18.312c0,.249.033.5.046.753a37.49,37.49,0,0,1-.072,5.838,2.752,2.752,0,0,0-2.175-.97,3.137,3.137,0,0,0-.839.072l-.059-.046h0v.059c-1.441.354-3.217,1.854-4.914,6.119,0,0-5.163,5.818-9.094,5.576s-13.883,6.054-13.883,6.054-9.71,6.3-11.793,12.724a89.668,89.668,0,0,1-4.18,10.666l-12,24.733h0l-2.215,19.623s1.225,8.727.983,10.057,5.038,13.326,5.038,13.326,17.448,30.656,24.576,32.228l.511-.36a4.179,4.179,0,0,0,.963.36l1.468-1.035a15.993,15.993,0,0,1-.111,3.459c-.983,3.027.367,22.781,2.083,26.653s1.107,54.642,1.107,54.642l-.242,4.481a1.9,1.9,0,0,0,.059.393l-.059,1.061.177.092a12.619,12.619,0,0,1-.177,4.265,47.428,47.428,0,0,0-.865,7.521s-4.907,31.37-2.581,37.673,4.3,13.208,4.3,13.208,2.457,7.862.118,9.205-8.989,3.6-7.62,6.873c1.245,3.027,5.969,11.138,6.67,12.324l-.059.622-.963,10.437a13.1,13.1,0,0,0,1.107,3.984,6.864,6.864,0,0,0,7,4.377c.655-.046,1.415-.125,2.149-.223a92.867,92.867,0,0,0,15.921-4.141A6.49,6.49,0,0,1,254,540.67h0a3.6,3.6,0,0,1-1.094-2.621c.1-1.9-3.453-10.955-4.337-13.182-.138-.321-.21-.5-.21-.5s8.111-8.478,6.761-15.993c0,0-8.976-5.241-6.021-8.118s8.236-11.138,8.236-11.138.242-30.892,0-35.5a38.2,38.2,0,0,1,.452-9.585c.1-.478.216-.943.341-1.4a85.529,85.529,0,0,0,12.344.937c1.507,0,3.04,0,4.586-.092q0,.655.059,1.415c.341,7.653.976,21.071,1.494,26.057.734,7.148,4.789,26.41,4.789,26.41s-7.738,4.966,1.35,17.205c0,0,0,4.436-.6,5.078h0a55.54,55.54,0,0,0-1.553,6.395c-.38,2.306-.537,4.639.079,5.851,1.474,2.9,10.319,2.66,10.319,2.66h0l.216-.039a12.678,12.678,0,0,1,9.363,2.824c3.361,2.7,16.118,1.513,23.023.655,2.706-.341,4.514-.655,4.514-.655a2.621,2.621,0,0,0,.092-.943h0c-.072-1.7-1.4-5.418-10.417-8.74,0,0-8.478-5.7-8.36-10.666h-1.16a9.242,9.242,0,0,1,1.173,0s-3.322-12.121-1.966-13.1-2.706-14.414-2.706-14.414-2.326-22.538-2.45-24.117a13.761,13.761,0,0,1,.609-4l-.609-12.357s-.118-4.108,0-5.445a27.192,27.192,0,0,0-.282-3.466c-.059-.459-.118-.937-.183-1.409,3.178-.806,5.241-1.553,5.241-1.553l-.367-43.013c2.7-5.241,3.2-16.74,3.184-24.9,0-5.241-.236-9.12-.236-9.12l3.689-6.021s.852-7.207-.5-8.786a1.513,1.513,0,0,1,.164-2.064,6.854,6.854,0,0,1,.806-.55s-.039-.059-.085-.144a6.509,6.509,0,0,1,.819-.583s-1.31-2.031-.138-2.889c1.1.747,2.083,1.31,2.83,1.769-.052.478-.1.753-.1.753l.315-.655,1.16.655s5.779-11.512,5.654-13.208,3.931-8.845,3.931-8.845.491-3.754,2.706-5.327,1.717-12.966,1.717-12.966.616-5.936,2.09-8.36S333.383,287.167,333.383,287.167Zm-110.569-5.051.111,2.745-1.127-1.815Z" transform="translate(-30.951 -38.413)" fill="url(#linear-gradient)"/>
      <path id="Caminho_407" data-name="Caminho 407" d="M318.943,336.594l-1.415,6.028s-11.335-5.785-13.379-13.136,3.42-10.142,3.42-10.142l10.562,4.475Z" transform="translate(-30.951 -38.413)" fill="#fff"/>
      <path id="Caminho_408" data-name="Caminho 408" d="M318.943,336.594l-1.415,6.028s-11.335-5.785-13.379-13.136,3.42-10.142,3.42-10.142l10.562,4.475Z" transform="translate(-30.951 -38.413)" opacity="0.1"/>
      <path id="Caminho_409" data-name="Caminho 409" d="M255.331,541.738s-10.483,3.852-17.69,4.337c-3.826.255-5.838-2.09-6.873-4.35a13.169,13.169,0,0,1-1.081-3.964l.937-10.385.5-5.53,15.312-3.977,2.169,6.63.2.5c.871,2.215,4.364,11.223,4.259,13.1a3.577,3.577,0,0,0,1.075,2.588,6.232,6.232,0,0,0,1.192,1.042Z" transform="translate(-30.951 -38.413)" fill="#fff"/>
      <path id="Caminho_410" data-name="Caminho 410" d="M326.936,536.457a2.621,2.621,0,0,1-.092.937s-22.42,3.741-27.007,0a12.147,12.147,0,0,0-9.435-2.765s-8.675.236-10.123-2.621c-.6-1.2-.446-3.525-.072-5.818a55.438,55.438,0,0,1,1.52-6.362l.347-.275,2.064-1.658,24.163-.714h.183c-.118,4.94,8.2,10.607,8.2,10.607C325.528,531.065,326.831,534.767,326.936,536.457Z" transform="translate(-30.951 -38.413)" fill="#fff"/>
      <path id="Caminho_411" data-name="Caminho 411" d="M326.936,536.457a2.673,2.673,0,0,1-.1.937s-22.414,3.741-27,0a12.147,12.147,0,0,0-9.428-2.765s-8.681.236-10.123-2.621c-.6-1.206-.452-3.525-.079-5.818,3.341.334,8.616,1.166,10.686,3.151,3.132,3.02,8.439,6.034,11.7,6.27C305.138,535.776,320.384,536.26,326.936,536.457Z" transform="translate(-30.951 -38.413)" opacity="0.1"/>
      <path id="Caminho_412" data-name="Caminho 412" d="M255.331,541.738s-10.483,3.852-17.69,4.337c-3.826.255-5.838-2.09-6.866-4.357,2.667.9,6.368,1.841,8.314.976,2.306-1.022,10.483-1.684,15.069-1.966a6.455,6.455,0,0,0,1.173,1.009Z" transform="translate(-30.951 -38.413)" opacity="0.1"/>
      <path id="Caminho_413" data-name="Caminho 413" d="M270.885,231.279c-8.648-3.361-19.773-14.466-17-19.655a11.61,11.61,0,0,0,1.081-4.167,38.047,38.047,0,0,0,.079-5.9,80.758,80.758,0,0,0-1.16-9.592s27,.609,25.428,4.586a14.869,14.869,0,0,0-.406,5.458c.124,2.267.452,4.829.793,7,.472,2.975.943,5.241.943,5.241s-1.651,2.313-2.621,2.437S283.294,236.069,270.885,231.279Z" transform="translate(-30.951 -38.413)" fill="#f9cdd5"/>
      <path id="Caminho_414" data-name="Caminho 414" d="M248.786,525l-.2.223c-8.072-9.762-17.834,2.4-17.834,2.4l-.144-.256.5-5.53,15.312-3.977,2.169,6.63Z" transform="translate(-30.951 -38.413)" opacity="0.1"/>
      <path id="Caminho_415" data-name="Caminho 415" d="M308.493,517.87s-5.9-.124-9.042,2.654-18.345.6-17.69,0a2.156,2.156,0,0,0,.341-1l2.064-1.658,24.163-.714C308.421,517.594,308.493,517.87,308.493,517.87Z" transform="translate(-30.951 -38.413)" opacity="0.1"/>
      <path id="Caminho_416" data-name="Caminho 416" d="M258.83,441.207a18.23,18.23,0,0,0-1,3.361,38.464,38.464,0,0,0-.452,9.539c.242,4.586,0,35.321,0,35.321s-5.183,8.2-8.072,11.086,5.9,8.078,5.9,8.078c1.31,7.469-6.63,15.908-6.63,15.908-8.072-9.762-17.834,2.411-17.834,2.411s-5.307-9.173-6.63-12.448,5.182-5.543,7.469-6.873-.111-9.173-.111-9.173-1.933-6.873-4.226-13.143,2.529-37.483,2.529-37.483a48.371,48.371,0,0,1,.845-7.476,12.5,12.5,0,0,0,.177-4.246c-.039-.478-.085-.878-.118-1.147s-.059-.393-.059-.393l.092-.157,3.276-6.106S260.4,437.361,258.83,441.207Z" transform="translate(-30.951 -38.413)" fill="#016968"/>
      <path id="Caminho_417" data-name="Caminho 417" d="M308.493,517.149s-5.9-.124-9.042,2.621-18.345.6-17.69,0,.6-5.065.6-5.065c-8.917-12.173-1.31-17.113-1.31-17.113s-3.983-19.164-4.7-26.273c-.5-4.966-1.127-18.312-1.461-25.932-.144-3.276-.229-5.53-.229-5.53l7.286-1.468.937-.19,17.572-3.525s.485,3.276.812,5.956a27.839,27.839,0,0,1,.275,3.453c-.118,1.31,0,5.412,0,5.412l.6,12.3a13.968,13.968,0,0,0-.6,3.977c.118,1.566,2.4,23.986,2.4,23.986s3.977,13.379,2.621,14.342S308.493,517.149,308.493,517.149Z" transform="translate(-30.951 -38.413)" fill="#016968"/>
      <path id="Caminho_418" data-name="Caminho 418" d="M279.318,196.555a14.869,14.869,0,0,0-.406,5.458,22.44,22.44,0,0,1-23.862-.445,80.749,80.749,0,0,0-1.16-9.6S280.89,192.565,279.318,196.555Z" transform="translate(-30.951 -38.413)" opacity="0.1"/>
      <path id="Caminho_419" data-name="Caminho 419" d="M289.755,182.075a22.191,22.191,0,0,1-1.1,6.951,22.42,22.42,0,0,1-43.727-6.414v-.537a22.419,22.419,0,1,1,44.837,0Z" transform="translate(-30.951 -38.413)" fill="#f9cdd5"/>
      <path id="Caminho_420" data-name="Caminho 420" d="M270.885,231.279c-8.648-3.361-19.773-14.466-17-19.655a11.61,11.61,0,0,0,1.081-4.167l11.839,9.729,7.325,6.008,5.569-14.178c.472,2.975.943,5.241.943,5.241s-1.651,2.313-2.621,2.437S283.294,236.069,270.885,231.279Z" transform="translate(-30.951 -38.413)" opacity="0.1"/>
      <path id="Caminho_421" data-name="Caminho 421" d="M270.551,235.866l-9.887,166.089-12.894.845-33.388-96.305,5.477-114.336L221.013,168l14.846,12.193,7.331,6.008,5.733-14.591,10.66,9.29Z" fill="#016968"/>
      <path id="Caminho_422" data-name="Caminho 422" d="M258.83,441.207a18.23,18.23,0,0,0-1,3.361,95,95,0,0,1-27.033-8.445l-.177-.092.059-1.055.033-.55,3.276-6.106S260.4,437.361,258.83,441.207Z" transform="translate(-30.951 -38.413)" opacity="0.1"/>
      <path id="Caminho_423" data-name="Caminho 423" d="M282.1,444.594a66.34,66.34,0,0,1-7.246.826c-.144-3.276-.229-5.53-.229-5.53l7.286-1.468Z" transform="translate(-30.951 -38.413)" opacity="0.1"/>
      <path id="Caminho_424" data-name="Caminho 424" d="M301.227,440.663c-4.658,1.212-11.852,2.575-18.293,1.723l-.092-4.154,17.572-3.525S300.9,437.95,301.227,440.663Z" transform="translate(-30.951 -38.413)" opacity="0.1"/>
      <path id="Caminho_425" data-name="Caminho 425" d="M282.816,443.146c-26.862,4.586-51.465-8.563-51.465-8.563l.236-4.455s.609-50.508-1.081-54.38-3.007-23.508-2.051-26.522-3.492-48.208-3.492-48.208l-.721-18.345-26.378-10.686L209.658,247.4a88.712,88.712,0,0,0,4.1-10.614c2.051-6.381,11.571-12.652,11.571-12.652s9.762-6.264,13.621-6.028,8.917-5.543,8.917-5.543c3.735-9.52,7.115-5.209,7.115-5.209a8.5,8.5,0,0,1-.183,1.409c-1.31,10.45,21.189,43.471,21.51,44.054h0l2.142,52.192,2.169,66.049Z" transform="translate(-30.951 -38.413)" opacity="0.1"/>
      <path id="Caminho_426" data-name="Caminho 426" d="M282.1,443.146c-26.862,4.586-51.471-8.563-51.471-8.563l.242-4.455s.609-50.508-1.088-54.38-3.007-23.508-2.044-26.522-3.492-48.208-3.492-48.208l-.727-18.345-26.391-10.725,11.793-24.582a90.1,90.1,0,0,0,4.1-10.614c2.044-6.381,11.571-12.652,11.571-12.652s9.762-6.264,13.615-6.028,8.917-5.543,8.917-5.543c3.741-9.52,7.862-5.209,7.862-5.209,0,.452-.393.655-.183,1.409,2.883,10.136,20.468,43.471,20.789,44.054h0l2.169,52.192,2.169,66.049Z" transform="translate(-30.951 -38.413)" fill="#fff"/>
      <path id="Caminho_427" data-name="Caminho 427" d="M274.856,254.27c-2.889-1.206-18.194-18.679-18.194-18.679v-3.977c-.557-1.31-3.866-.511-6.552.406l1.153-24.157,1.31,1.088C255.443,219.08,274.522,253.687,274.856,254.27Z" transform="translate(-30.951 -38.413)" opacity="0.1"/>
      <path id="Caminho_428" data-name="Caminho 428" d="M275.583,252.822c-2.9-1.206-18.2-18.679-18.2-18.679v-3.977c-.557-1.31-3.866-.511-6.552.406l1.16-24.157,1.31,1.088C256.176,217.632,275.262,252.245,275.583,252.822Z" transform="translate(-30.951 -38.413)" fill="#fff"/>
      <path id="Caminho_429" data-name="Caminho 429" d="M231.352,339.968c.36,0,18.679-1.926,18.679-1.926s11.092,21.811,10.365,27.118-2.044,10-6.506,9.173-24.012.655-24.012.655Z" transform="translate(-30.951 -38.413)" opacity="0.1"/>
      <path id="Caminho_430" data-name="Caminho 430" d="M230.624,338.52c.36,0,18.679-1.926,18.679-1.926s11.086,21.818,10.365,27.118-2.051,10-6.506,9.173-24.012.655-24.012.655Z" transform="translate(-30.951 -38.413)" fill="#fff"/>
      <path id="Caminho_431" data-name="Caminho 431" d="M244.429,328.279s16.812,9.035,17.172,11.793-8.557-1.206-10.483-1.684a23.987,23.987,0,0,0-3.859-.6l-12.848.347Z" transform="translate(-30.951 -38.413)" fill="#f9cdd5"/>
      <circle id="Elipse_14" data-name="Elipse 14" cx="1.769" cy="1.769" r="1.769" transform="translate(237.445 213.445)" opacity="0.1"/>
      <circle id="Elipse_15" data-name="Elipse 15" cx="1.769" cy="1.769" r="1.769" transform="translate(237.445 212.725)" fill="#3f3d56"/>
      <circle id="Elipse_16" data-name="Elipse 16" cx="1.769" cy="1.769" r="1.769" transform="translate(240.701 290.023)" opacity="0.1"/>
      <circle id="Elipse_17" data-name="Elipse 17" cx="1.769" cy="1.769" r="1.769" transform="translate(240.701 289.296)" fill="#3f3d56"/>
      <circle id="Elipse_18" data-name="Elipse 18" cx="1.769" cy="1.769" r="1.769" transform="translate(239.207 251.734)" opacity="0.1"/>
      <circle id="Elipse_19" data-name="Elipse 19" cx="1.769" cy="1.769" r="1.769" transform="translate(239.207 251.014)" fill="#3f3d56"/>
      <path id="Caminho_432" data-name="Caminho 432" d="M312.706,337.419s1.206,1.808,0,2.653.118,2.889.118,2.889-3.007,1.762-1.684,3.348.485,8.747.485,8.747l-3.617,5.988s.216,3.859.229,9.074c0,8.137-.478,19.577-3.125,24.792l.367,42.79s-12.665,4.626-23.266,3.217l-1.572-68.663s2.293-38.938,3.138-46.407a77.763,77.763,0,0,0,.6-11.695s-.36-11.689-1.572-17.113c0,0-1.31-23.5-1.441-30.007-.059-3.112.1-12.193.288-20.828.2-9.441.432-18.345.432-18.345L279.7,208.938s2.391-.242,3.112.721a6.9,6.9,0,0,0,1.048.806h0c4.128,2.791,18.712,11.374,18.712,11.374s8.072,3.21,10,7.81,3.276,7.862,4.213,9.173,1.448,7.469,1.448,7.469,2.778,11.335,4.947,13.254,3.754,14.132,3.754,14.132l-19.164,15.069s-1.684,25.067-2.044,26.037S312.706,337.419,312.706,337.419Z" transform="translate(-30.951 -38.413)" fill="#fff"/>
      <path id="Caminho_433" data-name="Caminho 433" d="M313.433,337.419s1.2,1.808,0,2.653.111,2.889.111,2.889-2.988,1.782-1.677,3.368.485,8.747.485,8.747l-3.617,5.988s.216,3.859.236,9.074c0,8.137-.478,19.577-3.125,24.792l.36,42.79s-12.684,4.626-23.272,3.217l-1.566-68.663s2.293-38.938,3.138-46.407a77.035,77.035,0,0,0,.6-11.7s-.36-11.688-1.566-17.113c0,0-1.31-23.5-1.448-30.007-.059-3.112.111-12.193.288-20.828.2-9.441.432-18.345.432-18.345L279.652,208.7s3.158,0,3.885.976a6.218,6.218,0,0,0,1.048.806h0c4.128,2.791,18.719,11.374,18.719,11.374s8.065,3.21,10,7.81,3.276,7.862,4.219,9.173,1.441,7.469,1.441,7.469,2.778,11.335,4.947,13.254,3.735,14.106,3.735,14.106L308.48,288.739s-1.684,25.067-2.051,26.037S313.433,337.419,313.433,337.419Z" transform="translate(-30.951 -38.413)" fill="#fff"/>
      <path id="Caminho_434" data-name="Caminho 434" d="M290.482,233.442l1.73,5.045-9.107,9.173c.2-9.435.432-18.345.432-18.345l-3.158-19.177s3.158,0,3.885.976a5.977,5.977,0,0,0,1.048.8h0l7.744,22.342Z" transform="translate(-30.951 -38.413)" opacity="0.1"/>
      <path id="Caminho_435" data-name="Caminho 435" d="M289.755,231.994l1.736,5.045-9.107,9.173c.2-9.441.432-18.345.432-18.345l-3.165-19.177s3.165,0,3.885.976a6.554,6.554,0,0,0,1.048.806h0l7.751,22.335Z" transform="translate(-30.951 -38.413)" fill="#fff"/>
      <path id="Caminho_436" data-name="Caminho 436" d="M289.755,182.075a22.191,22.191,0,0,1-1.1,6.951.937.937,0,0,1-.708-.177c-.17-5.9-3.073-11.433-6.644-16.144a16.962,16.962,0,0,0-3.6-3.735,7.05,7.05,0,0,0-4.888-1.382c-1.966.269-3.7,1.605-5.687,1.776-2.621.216-4.966-1.6-7.567-1.69a7.436,7.436,0,0,0-5.562,2.581,15.259,15.259,0,0,0-2.981,5.53,32.353,32.353,0,0,0-1.664,9.539c-.033,1.835-.21,4.134-1.913,4.8a9.788,9.788,0,0,0-2.47-7.476l-.039-.039v-.537a22.419,22.419,0,1,1,44.837,0Z" transform="translate(-30.951 -38.413)" opacity="0.1"/>
      <path id="Caminho_437" data-name="Caminho 437" d="M276.625,146.479a15.436,15.436,0,0,0-10.889-.852c-1.815.537-3.525,1.409-5.366,1.848-3.931.95-8.517-.079-11.892,2.221-1.874,1.31-3,3.381-4.049,5.392l-2.621,4.992a32.4,32.4,0,0,0-3.466,8.517,10.875,10.875,0,0,0,1.671,8.793c1.389,1.762,3.44,2.87,4.947,4.527a9.828,9.828,0,0,1,2.464,7.469c1.71-.655,1.874-2.961,1.913-4.8A32.353,32.353,0,0,1,251,175.052a15.207,15.207,0,0,1,2.981-5.53,7.45,7.45,0,0,1,5.563-2.581c2.621.092,4.973,1.9,7.567,1.684,1.966-.164,3.708-1.507,5.687-1.769a7.024,7.024,0,0,1,4.888,1.382,16.786,16.786,0,0,1,3.6,3.735c3.577,4.711,6.48,10.234,6.65,16.144.74.544,1.808-.164,2.175-1a23.951,23.951,0,0,1,.845-2.621,9.664,9.664,0,0,1,2.372-2.11c2.044-1.762,2.555-4.73,2.477-7.423s-.6-5.425-.092-8.072c.308-1.625,1-3.145,1.382-4.75a6.211,6.211,0,0,0-.472-4.789c-1.31-2.031-4.069-2.431-6.473-2.621-2.732-.236-5.176.066-6.919-2.234a25.1,25.1,0,0,0-2.752-3.368C280.13,148.785,276.625,146.623,276.625,146.479Z" transform="translate(-30.951 -38.413)" fill="#744d00"/>
      <path id="Caminho_438" data-name="Caminho 438" d="M205.413,284.644l-6.847-12.658L196.4,291.517s1.206,8.675.963,10,4.94,13.254,4.94,13.254,17.12,30.492,24.111,32.065l23.619-16.878-6.264-7.954s-2.169-.845-2.712,0c0,0-11.629-20.009-12.835-21.457s-.97-4.337-.97-4.337-1.808-1.926-1.206-3.735-3.492-8.078-3.492-8.078l3.735-3.492Z" transform="translate(-30.951 -38.413)" opacity="0.1"/>
      <path id="Caminho_439" data-name="Caminho 439" d="M198.927,270.545l-1.808,1.441-2.169,19.531s1.206,8.675.963,10,4.947,13.254,4.947,13.254,17.113,30.492,24.1,32.065l23.626-16.878-6.27-7.954s-2.169-.845-2.712,0c0,0-11.629-20.009-12.835-21.457s-.963-4.337-.963-4.337S224,294.288,224.6,292.48s-3.5-8.078-3.5-8.078l3.735-3.492Z" transform="translate(-30.951 -38.413)" fill="#fff"/>
      <path id="Caminho_440" data-name="Caminho 440" d="M311.14,347.057c1.31,1.592.485,8.74.485,8.74l-3.617,5.988s.216,3.866.229,9.074l-6.08,1.9a3.61,3.61,0,0,1-4.685-3.558l1.048-33.814,14.185,5.425c-1.206.839.118,2.9.118,2.9S309.816,345.465,311.14,347.057Z" transform="translate(-30.951 -38.413)" opacity="0.1"/>
      <path id="Caminho_441" data-name="Caminho 441" d="M311.867,346.33c1.31,1.592.485,8.747.485,8.747l-3.617,5.988s.216,3.859.236,9.074l-6.191,1.933a3.538,3.538,0,0,1-4.586-3.486l1.055-33.919,14.191,5.425c-1.212.839.111,2.889.111,2.889S310.557,344.744,311.867,346.33Z" transform="translate(-30.951 -38.413)" fill="#fff"/>
      <path id="Caminho_442" data-name="Caminho 442" d="M316.565,330.212s-.963,6.152-3.374,6.513-3.492,9.952-5.9,9.612-.812-8.917-.727-10.581-2.621-8.557-.6-10.123,8.432,0,8.432,0Z" transform="translate(-30.951 -38.413)" fill="#f9cdd5"/>
      <path id="Caminho_443" data-name="Caminho 443" d="M321.695,282.836l4.547-9.173s1.808,6.991,1.808,10.725,2.529,4.1,2.529,4.1,2.771,3.276,1.31,5.661-2.051,8.321-2.051,8.321.478,11.328-1.69,12.894-2.621,5.307-2.621,5.307-3.983,7.109-3.859,8.8-5.543,13.136-5.543,13.136,2.771-14.224-13.379-20.37c0,0-.124-4.829,1.081-6.152s3.086-1.926,1.907-8.616-.341-14.683-.341-16.288,3.617-11.616,3.617-11.616Z" transform="translate(-30.951 -38.413)" opacity="0.1"/>
      <path id="Caminho_444" data-name="Caminho 444" d="M323.66,272.353l3.97,1.31s1.815,6.991,1.815,10.725,2.529,4.1,2.529,4.1,2.771,3.276,1.31,5.661-2.044,8.321-2.044,8.321.478,11.328-1.69,12.894-2.653,5.307-2.653,5.307-3.977,7.109-3.852,8.8-5.549,13.136-5.549,13.136,2.778-14.224-13.379-20.37c0,0-.118-4.829,1.088-6.152s3.086-1.926,1.907-8.616-.341-14.683-.341-16.288,3.617-11.616,3.617-11.616Z" transform="translate(-30.951 -38.413)" fill="#fff"/>
      <path id="Caminho_445" data-name="Caminho 445" d="M235.964,510.1s6.329-3.977,10.483-1.088S235.964,510.1,235.964,510.1Z" transform="translate(-30.951 -38.413)" opacity="0.1"/>
      <path id="Caminho_446" data-name="Caminho 446" d="M285.142,497.8a12.812,12.812,0,0,1,10.306,4.344C300.152,507.21,285.142,497.8,285.142,497.8Z" transform="translate(-30.951 -38.413)" opacity="0.1"/>
      <g id="Grupo_224" data-name="Grupo 224" opacity="0.1">
        <path id="Caminho_447" data-name="Caminho 447" d="M293.338,180.948a9.72,9.72,0,0,0-2.378,2.116,23.984,23.984,0,0,0-.839,2.621c-.367.852-1.435,1.546-2.175,1.009-.17-5.9-3.079-11.433-6.65-16.15a16.785,16.785,0,0,0-3.6-3.735,7.043,7.043,0,0,0-4.894-1.382c-1.966.269-3.7,1.605-5.68,1.769-2.621.223-4.973-1.592-7.574-1.684a7.417,7.417,0,0,0-5.556,2.588,15.174,15.174,0,0,0-2.981,5.523,32.392,32.392,0,0,0-1.664,9.539c-.039,1.828-.21,4.108-1.9,4.789a8.973,8.973,0,0,1,0,1.455c1.7-.655,1.874-2.961,1.913-4.8a32.353,32.353,0,0,1,1.664-9.539,15.207,15.207,0,0,1,2.981-5.53,7.436,7.436,0,0,1,5.556-2.581c2.621.092,4.979,1.9,7.574,1.684,1.966-.164,3.708-1.507,5.68-1.769a7.043,7.043,0,0,1,4.894,1.382,16.786,16.786,0,0,1,3.6,3.735c3.571,4.711,6.48,10.234,6.65,16.144.74.544,1.808-.164,2.175-1a25.415,25.415,0,0,1,.839-2.621,9.7,9.7,0,0,1,2.378-2.11c2.044-1.762,2.555-4.73,2.477-7.423v-.249C295.7,177.063,295.081,179.441,293.338,180.948Z" transform="translate(-30.951 -38.413)"/>
        <path id="Caminho_448" data-name="Caminho 448" d="M244.973,180.483c-1.507-1.658-3.564-2.765-4.947-4.521a9.592,9.592,0,0,1-1.907-5.366,10.09,10.09,0,0,0,1.907,6.807c1.382,1.762,3.44,2.87,4.947,4.527a9.828,9.828,0,0,1,2.47,5.844,9.828,9.828,0,0,0-2.47-7.292Z" transform="translate(-30.951 -38.413)"/>
        <path id="Caminho_449" data-name="Caminho 449" d="M297.106,160.7c-.387,1.605-1.075,3.132-1.389,4.75a15.13,15.13,0,0,0-.2,3.276,12.723,12.723,0,0,1,.2-1.861c.314-1.625,1-3.145,1.389-4.75a8.06,8.06,0,0,0,.216-2.712,9.107,9.107,0,0,1-.216,1.3Z" transform="translate(-30.951 -38.413)"/>
      </g>
      <path id="Caminho_460" data-name="Caminho 460" d="M685.917,347.476s-10.817-53.817-6.676-60.513c0,0,.151-6.224-.1-14.158v-.911a20.15,20.15,0,0,0,2.273,1.31,18.4,18.4,0,0,0,12.383,1.6l-3.276-3.649a6.048,6.048,0,0,1-1.776-2.968,6.218,6.218,0,0,1,.708-3.21c3.112-7.862,3.276-17.749-2.719-23.75-5.065-5.045-6.3-11.557-11.793-16.163-4.016-3.374-6.224-8.321-8.308-13.1a73.7,73.7,0,0,1-4.547-12.4c-.786-3.348-1.1-6.814-2.182-10.083s-3.106-6.447-6.27-7.908a23.664,23.664,0,0,1-3.407-1.5c-1.35-.911-2.162-2.391-3.138-3.689-4.96-6.552-21.569-2.693-29.431-.033a16.556,16.556,0,0,0-5.818,3.224l.072-.118c.059-.1.131-.2.2-.295a10.338,10.338,0,0,0-2.2,2.457c-1.147,1.815-1.625,3.931-2.581,5.9-1.153,2.326-7.567,8.819-4.809,11.433a2.326,2.326,0,0,0,.655.419,5.667,5.667,0,0,0,3.276.328l-.118.282a19.151,19.151,0,0,0-1.422,7.266,19.665,19.665,0,0,0,19.839,19.492,20.028,20.028,0,0,0,6.074-.937c.046.249.085.5.131.747a2.292,2.292,0,0,0,.046.295h0l-.347.485a.658.658,0,0,0-.059-.085l-10.286,14.375c-1.572,1.107-10.627,7.659-11.138,12.573-.537,5.379-1.075,11.675-1.075,11.675l-.072,1.35a4.049,4.049,0,0,1-3.276.885c-3.21-.524-3.21,11.793-3.21,11.793s-2.136,1.966-3.6.262-5.346,4.069-5.346,4.069l-24.307,1.048h0l-.557.033-1.31-4.056a1.71,1.71,0,0,0-2.142-1.094,1.969,1.969,0,0,0-.295.124l-.092.052-.17.118-.085.079a1.311,1.311,0,0,0-.131.138l-.079.092-.039.039h0a1.651,1.651,0,0,0-.236,1.468l1.127,3.479c-4.691.943-9.487,3.6-5.576,10.928L538.868,293l6.414,5.386,33.113,6.834c-.439.786-.151,1.926,1.219,3.531,5.9,6.925,16.642,8.806,20.966,9.29a37.22,37.22,0,0,0,4.252,7.207l-.374,6.9S593.51,384.73,591.505,387.4a31.169,31.169,0,0,0,2.771-3.649c-3.178,10.8-7.62,25.591-8.786,27.806-1.874,3.538-3.61,17.854-1.474,18.771.655.282,2.529.144,5.2-.059v1.186L589.1,476.39s.537,27.564-.937,30.191-1.867,8.137-1.867,8.137-5.9,10.87-10.568,15.24a.7.7,0,0,1-.1.092l-.144-1.022s-5.615,7.089-18.037,6.689c0,0-7.476,4.861,3.61,5.124s25.244-.393,25.244-.393,9.887-15.069,18.168-13.1v11.42H607v-11.6a10.4,10.4,0,0,0,4.514-6.833,8.308,8.308,0,0,0-2.961-7.685,4.914,4.914,0,0,1-1.618-3.59l-.092.079a6.917,6.917,0,0,0-.085-.708c-.727-5.9-1.638-18.063,1.579-27.066,4.409-12.344,5.746-29.536,2.536-39.77a91.454,91.454,0,0,1-2.549-9.965c-.079-.426-.151-.832-.216-1.212a51.652,51.652,0,0,1,6.506,1.31c7.436,2.051,23.7,2.431,37.594,2.319.033.38.072.78.118,1.179a42.918,42.918,0,0,0,1.546,8.2c1.743,5.241,2.542,28.35,2.542,28.35s2.247,19,1.022,26.731c-.655,4.3-1.31,8.616-1.684,12.953v.085s-3.682,10.483-6.375,16.176c-.065.144-.138.288-.2.426a8.516,8.516,0,0,0-2.1.465s-3.61,7.207-7.207,8.4-2.4,5.117,5.739,3.676,20.442-2.621,20.442-2.621l.531-7.351,2.5-3.132-.655,7.332,2.667-.524-.354-8.917,4.095-5.124s4.947-4.4-2.4-13.064v.19c-.079-.124-.151-.256-.236-.38v-.039c-1.219-1.887-2.188-5.405-.413-11.649,3.21-11.282,5.078-21.523,5.078-21.523s7.168-27.432-1.448-40.412h.38a21.829,21.829,0,0,1-1.854-5.766q-.065-.354-.118-.727c6.375-.367,12.632-1.52,17.736-4.01C691.532,422.94,688.459,357.841,685.917,347.476Zm-80.935-45.4v.131l-1.31.066Zm-4.495.622a1.449,1.449,0,0,0-.59.282,5.818,5.818,0,0,0-1.029,2.693l-2.044-.459s-1.435-.308-3.5-.655l-.976-.983C595.037,303.35,597.828,303.022,600.488,302.694Z" transform="translate(-30.951 -38.413)" fill="url(#linear-gradient-2)"/>
      <path id="Caminho_461" data-name="Caminho 461" d="M637.172,487.148l-.78,9.284,2.614-.524-.393-10.07Z" fill="#1d2366"/>
      <path id="Caminho_462" data-name="Caminho 462" d="M608.481,481.481c-3.151,8.976-2.26,21.09-1.553,26.974.262,2.175.5,3.5.5,3.5s-4.711,10.732-5.1,11.138-13.864,8.629-13.864,8.629l-9.415,5.5s-9.553-4.187-4.973-5.628a6.952,6.952,0,0,0,2.47-1.684c4.586-4.357,10.345-15.187,10.345-15.187s.393-5.5,1.834-8.111.917-30.086.917-30.086l.111-44.782V425.9l17.919.131a40.545,40.545,0,0,0,.773,5.9,90.141,90.141,0,0,0,2.5,9.933C614.1,452.076,612.792,469.183,608.481,481.481Z" transform="translate(-30.951 -38.413)" fill="#ffb0b1"/>
      <path id="Caminho_463" data-name="Caminho 463" d="M607.433,511.953s-4.711,10.732-5.1,11.138-13.864,8.629-13.864,8.629l-9.415,5.5s-9.553-4.187-4.973-5.628a6.952,6.952,0,0,0,2.47-1.684l.406,2.863,3.138-.131,26.862-24.17C607.191,510.63,607.433,511.953,607.433,511.953Z" transform="translate(-30.951 -38.413)" opacity="0.1"/>
      <path id="Caminho_464" data-name="Caminho 464" d="M607.105,509.077,580.092,533.41l-3.138.131-.655-4.586s-5.49,7.063-17.69,6.67c0,0-7.325,4.842,3.531,5.1s24.72-.393,24.72-.393,9.684-15.069,17.788-13.1v11.38h2.49V527.127a10.345,10.345,0,0,0,4.416-6.814,8.347,8.347,0,0,0-2.889-7.653,4.933,4.933,0,0,1-1.559-3.584Z" transform="translate(-30.951 -38.413)" fill="#1d2366"/>
      <path id="Caminho_465" data-name="Caminho 465" d="M670.612,495.475c-1.743,6.224-.793,9.729.4,11.61v.039a21.459,21.459,0,0,1,3.132,7.646l.1.59-12.291,17.919-6.67,2.621s-10.725-3.662-8.766-4.711c.491-.255,1.258-1.618,2.136-3.5,2.621-5.667,6.237-16.124,6.237-16.124v-.085c.38-4.318.983-8.622,1.651-12.907,1.2-7.712-1-26.64-1-26.64s-.786-23.017-2.49-28.251a43.2,43.2,0,0,1-1.527-8.15c-.354-3.276-.432-5.975-.432-5.975s7.063-9.828,20.009.786a14.242,14.242,0,0,1,2.706,2.935c8.943,12.724,1.743,40.752,1.743,40.752S673.751,484.226,670.612,495.475Z" transform="translate(-30.951 -38.413)" fill="#ffb0b1"/>
      <path id="Caminho_466" data-name="Caminho 466" d="M674.268,515.36l-12.291,17.919-6.67,2.621s-10.725-3.662-8.766-4.711c.491-.256,1.258-1.618,2.136-3.5,4.54-.039,6.893,4.285,6.893,4.285l5.753-.917s7.587-14.912,9.29-15.823.262-6.807.262-6.807v-1.5c.046.052.085.111.138.164v.039a21.455,21.455,0,0,1,3.132,7.646Z" transform="translate(-30.951 -38.413)" opacity="0.1"/>
      <path id="Caminho_467" data-name="Caminho 467" d="M655.962,532.362s-3.276-6.015-9.553-3.794c0,0-3.531,7.207-7.063,8.373s-2.352,5.1,5.628,3.663,20.009-2.621,20.009-2.621l.524-7.331,8.111-10.332s4.835-4.383-2.359-13.012v1.5s1.441,5.9-.262,6.807-9.264,15.829-9.264,15.829Z" transform="translate(-30.951 -38.413)" fill="#1d2366"/>
      <path id="Caminho_468" data-name="Caminho 468" d="M607.7,426.019a40.554,40.554,0,0,0,.773,5.9,82.194,82.194,0,0,0-18.712-.19v-5.838Z" transform="translate(-30.951 -38.413)" opacity="0.1"/>
      <path id="Caminho_469" data-name="Caminho 469" d="M674.537,434.91s-10.483.511-22.984.616c-.354-3.276-.432-5.975-.432-5.975s7.063-9.828,20.009.786a14.244,14.244,0,0,1,2.706,2.935,15.985,15.985,0,0,0,.7,1.638Z" transform="translate(-30.951 -38.413)" opacity="0.1"/>
      <path id="Caminho_470" data-name="Caminho 470" d="M674.537,433.731s-45.915,2.221-59.91-1.7-27.865-.524-29.955-1.435-.393-15.174,1.441-18.705,11.9-39.245,11.9-39.245l9.684-50.488,10.2-2.811.721-.2,17.775-4.9,13.025-3.6s25.9,101.114,23.678,108.57a19.092,19.092,0,0,0-.38,8.773A21.9,21.9,0,0,0,674.537,433.731Z" transform="translate(-30.951 -38.413)" fill="#1d2366"/>
      <path id="Caminho_471" data-name="Caminho 471" d="M573.94,287.625s-9.173,9.828-2.228,15.305,11.512.524,11.512.524Z" transform="translate(-30.951 -38.413)" fill="#c7daf5"/>
      <path id="Caminho_472" data-name="Caminho 472" d="M573.94,287.625s-9.173,9.828-2.228,15.305,11.512.524,11.512.524Z" transform="translate(-30.951 -38.413)" opacity="0.1"/>
      <path id="Caminho_473" data-name="Caminho 473" d="M648.048,223.011s-1.075,1.022-2.693,2.529c-2.306,2.156-5.72,5.307-8.747,7.947-4.193,3.649-7.653,6.329-6.414,4.042s1-6.27.387-10c-.046-.249-.085-.5-.131-.74a68.657,68.657,0,0,0-2.024-8.1s6.775-8.753,10.522-12.206c1.4-1.31,2.372-1.848,2.431-.937a30.441,30.441,0,0,0,2.123,6.8c.033.092.065.177.1.269.76,1.966,1.618,3.984,2.372,5.726C647.131,221.019,648.048,223.011,648.048,223.011Z" transform="translate(-30.951 -38.413)" fill="#ffb0b1"/>
      <path id="Caminho_474" data-name="Caminho 474" d="M643.606,212.62a19.446,19.446,0,0,1-13.025,14.912,68.188,68.188,0,0,0-2.155-8.838s12.756-16.478,12.953-13.143C641.424,206.815,642.42,209.619,643.606,212.62Z" transform="translate(-30.951 -38.413)" opacity="0.1"/>
      <path id="Caminho_475" data-name="Caminho 475" d="M629.31,231.935l1.651-2.326s1.094,6.67,5.117,3.728,4.219,22.139,4.219,22.139l-4.318,64.555-31.2-1.867.884-31.193,3.531-15.724,8.734-22.859,5.2-7.554Z" transform="translate(-30.951 -38.413)" opacity="0.1"/>
      <path id="Caminho_476" data-name="Caminho 476" d="M640.3,255.875l-3.931,58.37-.413,6.185-17.4-1.042-.655-.039-13.1-.786.884-31.2,3.531-15.724,8.734-22.859,5.2-7.554,6.185-8.93,1.651-2.319s1.094,6.67,5.117,3.728l.085-.059h0C640.114,231.155,640.3,255.875,640.3,255.875Z" transform="translate(-30.951 -38.413)" fill="#1d2366"/>
      <path id="Caminho_477" data-name="Caminho 477" d="M609.654,266.175s-1.566,3.276-4.711,2.745-3.138,11.793-3.138,11.793-2.09,1.966-3.531.262-5.241,4.056-5.241,4.056l-23.809,1.048s10.594,4.842,8.517,19.492c0,0,35.97-2.228,37.149-5.628S609.654,266.175,609.654,266.175Z" transform="translate(-30.951 -38.413)" fill="#fff"/>
      <path id="Caminho_478" data-name="Caminho 478" d="M609.654,266.175s-1.566,3.276-4.711,2.745-3.138,11.793-3.138,11.793-2.09,1.966-3.531.262-5.241,4.056-5.241,4.056l-23.809,1.048s10.594,4.842,8.517,19.492c0,0,35.97-2.228,37.149-5.628S609.654,266.175,609.654,266.175Z" transform="translate(-30.951 -38.413)" opacity="0.03"/>
      <path id="Caminho_479" data-name="Caminho 479" d="M509.509,255.364l6.277,5.359,51.668,10.856-6.408-6.539Z" fill="#fff"/>
      <path id="Caminho_480" data-name="Caminho 480" d="M629.408,234c-.858,1.31-3.315,8.019-5.366,13.877-1.71,4.881-3.138,9.173-3.138,9.173s-3.335,21.713-5.038,25.637-.78,19.23-.78,19.23l-6.349,37.8s-2.876,19.492-7.318,31.134c-4.383,11.459-9.264,16.832-9.415,17,1.966-2.66,12.678-55.035,12.678-55.035l3.538-66.056s.518-6.277,1.042-11.643S620.4,242.424,620.4,242.424l10.234-14.552C631.662,229.248,630.974,231.646,629.408,234Z" transform="translate(-30.951 -38.413)" fill="#fff"/>
      <path id="Caminho_481" data-name="Caminho 481" d="M602.722,318.891s-15.069-.655-22.368-9.422,16.871-3.5,16.871-3.5l6.283,1.441Z" transform="translate(-30.951 -38.413)" fill="#ffb0b1"/>
      <path id="Caminho_482" data-name="Caminho 482" d="M673.1,419.219a19.092,19.092,0,0,0-.38,8.773c-16.439,1.166-34.024-3.276-34.024-3.276-3.276,3.014-11.9,7.456-11.9,7.456l-4.7-58.311c-3.007-7.862-4.187-49.054-4.187-49.054s.269-2.156.655-5.386a.62.62,0,0,1,.033-.242c1.173-9.022,3.5-25.958,4.639-28.245,1.573-3.145-4.835-11.512-4.835-11.512l2.916-24.864.354-3c6.146-2.745,10.856-11.512,10.856-11.512l3.617-6.336h0c3.931-2.522,4.134,22.2,4.134,22.2l-3.931,58.37,13.025-3.6S675.316,411.763,673.1,419.219Z" transform="translate(-30.951 -38.413)" opacity="0.1"/>
      <path id="Caminho_483" data-name="Caminho 483" d="M689.966,423.248c-17.919,8.9-50.488.655-50.488.655-3.276,3.014-11.9,7.456-11.9,7.456l-4.711-58.311c-3-7.862-4.18-49.054-4.18-49.054s3.787-30.735,5.359-33.873c.459-.917.236-2.28-.308-3.748a47.422,47.422,0,0,1-2.87-21.942l1.258-10.686.347-2.994c6.152-2.752,10.863-11.518,10.863-11.518l3.276-5.739,6.028-10.575,2.857-5.006.485.439,3.7,3.355,3.931,3.276c5.13,4.324,13.995,11.937,18.568,16.6,4.023,4.1,5.294,20.055,5.661,32.065.242,7.908.1,14.106.1,14.106-4.056,6.676,6.552,60.277,6.552,60.277C686.959,358.385,689.966,423.248,689.966,423.248Z" transform="translate(-30.951 -38.413)" fill="#fff"/>
      <path id="Caminho_484" data-name="Caminho 484" d="M655.569,239.1s-12.3,23.41-10.87,32.307,5.49,18.968,3.531,21.32a7.24,7.24,0,0,1-5.759,2.876c-1.966.131-7.207,3.793-7.207,4.187s-4.842.393-9.173,2.228a57.112,57.112,0,0,1-10.725,2.876s-12.448-.393-13.608.786-2.352,8.236.131,13.864,5.241,9.828,7.325,10.594,15.305-3.662,26.03-4.711,22.368-9.546,22.368-9.546,12.822-4.586,15.069-12.3-2.745-50.1-2.745-50.1S666.164,233.736,655.569,239.1Z" transform="translate(-30.951 -38.413)" opacity="0.03"/>
      <path id="Caminho_485" data-name="Caminho 485" d="M654,237.137s-12.3,23.416-10.856,32.307,5.49,18.968,3.525,21.326a7.207,7.207,0,0,1-5.753,2.876c-1.966.131-7.207,3.793-7.207,4.187s-4.842.393-9.173,2.221a57.672,57.672,0,0,1-10.725,2.876s-12.448-.393-13.6.786-2.359,8.242.131,13.864,5.241,9.828,7.325,10.594,15.305-3.662,26.03-4.7,22.368-9.553,22.368-9.553,12.815-4.586,15.036-12.291-2.745-50.1-2.745-50.1S664.591,231.777,654,237.137Z" transform="translate(-30.951 -38.413)" opacity="0.03"/>
      <path id="Caminho_486" data-name="Caminho 486" d="M655.183,237.923s-12.3,23.416-10.856,32.307,5.49,18.968,3.531,21.32a7.207,7.207,0,0,1-5.759,2.883c-1.966.131-7.207,3.793-7.207,4.18s-4.835.393-9.173,2.228a57.244,57.244,0,0,1-10.725,2.876s-12.448-.393-13.608.786-2.352,8.242.131,13.864,5.241,9.828,7.325,10.594,15.305-3.662,26.03-4.711S657.24,314.7,657.24,314.7s12.822-4.586,15.069-12.3-2.712-50.1-2.712-50.1S665.77,232.59,655.183,237.923Z" transform="translate(-30.951 -38.413)" fill="#fff"/>
      <path id="Caminho_487" data-name="Caminho 487" d="M654.914,300.729s-9.828-1.966-6.408,1.31,3.4,6.146,7.587,6.015S654.914,300.729,654.914,300.729Z" transform="translate(-30.951 -38.413)" opacity="0.1"/>
      <path id="Caminho_488" data-name="Caminho 488" d="M671.523,371.213s-4.442,3.007,4.056,9.939S671.523,371.213,671.523,371.213Z" transform="translate(-30.951 -38.413)" opacity="0.1"/>
      <path id="Caminho_489" data-name="Caminho 489" d="M663.045,395.933c0,.393-1.572,14.414,4.311,17.919S663.045,395.933,663.045,395.933Z" transform="translate(-30.951 -38.413)" opacity="0.1"/>
      <path id="Caminho_490" data-name="Caminho 490" d="M569.629,286.046c-4.744.164-14.991,1.612-9.677,11.525,4.7,8.773,12.593,2.909,17.035-1.54a16.74,16.74,0,0,0-7.358-9.985Z" transform="translate(-30.951 -38.413)" fill="#ffb0b1"/>
      <path id="Caminho_491" data-name="Caminho 491" d="M577.471,295.487Z" transform="translate(-30.951 -38.413)" fill="#ffb0b1"/>
      <path id="Caminho_492" data-name="Caminho 492" d="M577.046,295.953l.2-.2Z" transform="translate(-30.951 -38.413)" fill="#ffb0b1"/>
      <path id="Caminho_493" data-name="Caminho 493" d="M653.61,225.383c-5.032,3.44-9.251,6.342-10.077,6.945-2.254,1.671-6.552,11.479-9.323,16.484-2.208,4.029-9.382,5.065-12.088,5.32l.347-2.994c6.152-2.752,10.863-11.518,10.863-11.518l12.16-21.32,4.187,3.807Z" transform="translate(-30.951 -38.413)" opacity="0.1"/>
      <path id="Caminho_494" data-name="Caminho 494" d="M653.61,224.99c-5.032,3.44-9.251,6.342-10.077,6.951-2.254,1.664-6.552,11.472-9.323,16.478-2.208,4.029-9.382,5.065-12.088,5.32l.347-2.994c6.152-2.752,10.863-11.518,10.863-11.518l12.16-21.32,4.187,3.794S651.252,223,653.61,224.99Z" transform="translate(-30.951 -38.413)" fill="#dce7ff"/>
      <path id="Caminho_495" data-name="Caminho 495" d="M643.927,208.3a19.433,19.433,0,1,1-16.52-19.21,19.4,19.4,0,0,1,16.52,19.21Z" transform="translate(-30.951 -38.413)" fill="#ffb0b1"/>
      <path id="Caminho_496" data-name="Caminho 496" d="M677.839,273.65a17.271,17.271,0,0,1-6.27-6.735c-1.094-2.162-1.821-4.658-3.689-6.191-1.684-1.376-3.931-1.71-6.028-2.326-6.893-2.038-12.671-8.327-12.887-15.508-.1-3.381.95-6.755.472-10.1a11.191,11.191,0,0,0-2.188-5.209,17.935,17.935,0,0,0-1.894-2.038c-.917-.865-1.88-1.7-2.719-2.621a10.173,10.173,0,0,1-1.376-1.867,8.98,8.98,0,0,1-.754-1.736c-1.31-4.01-.118-8.766-1.559-12.822l-.079-.223c-.544-1.441-1.651-2.883-3.191-2.994s-2.857,1.166-4.324,1.736c-3.073,1.192-6.388-.839-8.95-2.909s-5.451-4.436-8.707-3.977c-2.156.308-3.859,1.776-5.844,2.536a8.2,8.2,0,0,1-1.382.4,19.426,19.426,0,0,1,37.457,7.24,19.226,19.226,0,0,1-.426,4.056c.033.092.065.177.1.269.76,1.966,1.618,3.984,2.372,5.726l3.7,3.355,3.931,3.276c5.13,4.324,13.995,11.937,18.568,16.6C676.2,245.694,677.459,261.641,677.839,273.65Z" transform="translate(-30.951 -38.413)" opacity="0.1"/>
      <path id="Caminho_497" data-name="Caminho 497" d="M607.623,188.693c.937-1.907,1.4-4.042,2.522-5.851,1.644-2.621,4.514-4.3,7.463-5.314,7.7-2.653,23.967-6.506,28.828,0a14.182,14.182,0,0,0,3.073,3.669,22.819,22.819,0,0,0,3.335,1.5c3.1,1.455,5.078,4.626,6.133,7.862s1.369,6.709,2.142,10.044a73.868,73.868,0,0,0,4.455,12.363c2.038,4.757,4.2,9.69,8.131,13.051,5.366,4.586,6.552,11.079,11.531,16.111,5.9,5.975,5.707,15.836,2.667,23.665a6.5,6.5,0,0,0-.695,3.2,6.27,6.27,0,0,0,1.736,2.961l3.224,3.636a18.126,18.126,0,0,1-19.806-9.133c-1.094-2.162-1.821-4.652-3.7-6.191-1.677-1.376-3.931-1.7-6.021-2.319-6.893-2.044-12.671-8.34-12.887-15.521-.1-3.374.95-6.748.472-10.09a11.139,11.139,0,0,0-2.195-5.241c-1.8-2.352-4.521-3.931-5.988-6.552-2.483-4.383-.6-10.077-2.385-14.781-.55-1.441-1.651-2.883-3.191-2.994s-2.857,1.166-4.331,1.736c-3.066,1.192-6.381-.832-8.943-2.909s-5.451-4.436-8.714-3.97c-2.156.3-3.852,1.769-5.838,2.536-1.468.563-4.442,1.068-5.726-.17C600.206,197.492,606.49,191.025,607.623,188.693Z" transform="translate(-30.951 -38.413)" fill="#591d4b"/>
      <path id="Caminho_498" data-name="Caminho 498" d="M674.183,264.294c-1.1-2.162-1.821-4.652-3.7-6.185-1.677-1.376-3.931-1.71-6.028-2.326-6.886-2.038-12.665-8.334-12.887-15.515-.1-3.374.95-6.755.478-10.1a11.2,11.2,0,0,0-2.195-5.209c-1.808-2.352-4.527-3.931-5.988-6.552-2.483-4.377-.6-10.07-2.391-14.781-.544-1.435-1.651-2.876-3.184-2.994s-2.863,1.173-4.331,1.743c-3.066,1.192-6.388-.839-8.943-2.909s-5.458-4.436-8.714-3.977c-2.156.308-3.859,1.776-5.838,2.536-1.468.563-4.449,1.075-5.733-.164-2.7-2.621,3.584-9.074,4.711-11.394.937-1.913,1.4-4.042,2.529-5.851.059-.1.125-.2.19-.295a10.4,10.4,0,0,0-2.156,2.45c-1.12,1.808-1.586,3.931-2.522,5.851-1.133,2.319-7.417,8.793-4.711,11.394,1.31,1.245,4.259.734,5.726.17,1.966-.767,3.682-2.234,5.838-2.536,3.276-.465,6.159,1.9,8.714,3.97s5.9,4.1,8.95,2.909c1.468-.57,2.752-1.854,4.324-1.736s2.621,1.553,3.191,2.994c1.789,4.7-.1,10.4,2.385,14.781,1.468,2.575,4.187,4.187,5.988,6.552a11.138,11.138,0,0,1,2.195,5.241c.478,3.341-.577,6.716-.472,10.09.216,7.207,5.995,13.477,12.887,15.521,2.077.616,4.344.943,6.021,2.319,1.88,1.54,2.621,4.029,3.7,6.191a18.126,18.126,0,0,0,19.806,9.133l-1.52-1.717A18.322,18.322,0,0,1,674.183,264.294Z" transform="translate(-30.951 -38.413)" opacity="0.1"/>
      <path id="Caminho_499" data-name="Caminho 499" d="M629.015,234.392c-.858,1.31-3.315,8.019-5.366,13.877-1.92-.747-3.662-5.51-3.662-5.51L630.22,228.2C631.269,229.642,630.581,232.033,629.015,234.392Z" transform="translate(-30.951 -38.413)" opacity="0.1"/>
      <path id="Caminho_500" data-name="Caminho 500" d="M629.408,234c-.858,1.31-3.315,8.019-5.366,13.877-1.92-.74-3.662-5.51-3.662-5.51l10.234-14.552C631.662,229.248,630.974,231.646,629.408,234Z" transform="translate(-30.951 -38.413)" fill="#dce7ff"/>
      <path id="Caminho_501" data-name="Caminho 501" d="M569.9,300.932l-5.674-17.893a1.671,1.671,0,0,1,1.088-2.1h0a1.677,1.677,0,0,1,2.1,1.088l5.674,17.873-.563,3.741Z" transform="translate(-30.951 -38.413)" fill="#be8b87"/>
      <path id="Caminho_502" data-name="Caminho 502" d="M564.768,281.466h0a1.677,1.677,0,0,1,2.1,1.088l5.674,17.873-.426,2.8.413.432.563-3.741-5.707-17.873a1.677,1.677,0,0,0-2.1-1.088h0a1.677,1.677,0,0,0-.871.655A2.282,2.282,0,0,1,564.768,281.466Z" transform="translate(-30.951 -38.413)" fill="#fff" opacity="0.1"/>
      <path id="Caminho_503" data-name="Caminho 503" d="M538.953,262.519l3.184-1.009-.465,3.066-.1.675-.93-.97Z" fill="#efc8c4"/>
      <path id="Caminho_504" data-name="Caminho 504" d="M571.594,302.694a.656.656,0,0,1,.2-.17.288.288,0,0,1,.308,0,.815.815,0,0,1,.111.177.564.564,0,0,0,.406.269l-.1.655Z" transform="translate(-30.951 -38.413)" fill="#727a9c"/>
      <path id="Caminho_505" data-name="Caminho 505" d="M564.2,289.394s11.38-.066,8.7,4.776a10.236,10.236,0,0,1-6.866,5.425Z" transform="translate(-30.951 -38.413)" fill="#ffb0b1"/>
      <path id="Caminho_506" data-name="Caminho 506" d="M493.418,72.1h-.491A56.04,56.04,0,0,0,446.14,97.714,56.04,56.04,0,0,0,399.353,72.1h-.491a55.691,55.691,0,0,0-55.16,55.658c0,18.221,7.98,44.074,23.541,65.348,29.647,40.536,78.9,76,78.9,76s49.25-35.458,78.891-76c15.567-21.274,23.541-47.127,23.541-65.348A55.691,55.691,0,0,0,493.418,72.1Zm-7.03,124.124a11.04,11.04,0,0,1-10.267-7.089H464.433a3.7,3.7,0,0,1-3.479-2.516l-3.59-10.817L446,215.5a3.676,3.676,0,0,1-3.525,2.653h-.229a3.63,3.63,0,0,1-3.407-3.04L427.133,144.7l-8.557,41.67a3.649,3.649,0,0,1-3.544,2.771H398.567a3.662,3.662,0,1,1,0-7.318h13.582L424.27,125.8a3.676,3.676,0,0,1,7.207.3l11.957,71.834,10.182-35.517a3.6,3.6,0,0,1,3.427-2.621h.072a3.656,3.656,0,0,1,3.472,2.516l6.493,19.531h8.9a10.981,10.981,0,1,1,10.431,14.414Z" transform="translate(-30.951 -38.413)" fill="#016968"/>
    </g>
  </g>
</svg>
