<svg xmlns="http://www.w3.org/2000/svg" xmlns:xlink="http://www.w3.org/1999/xlink" width="33.957" height="57" viewBox="0 0 33.957 57">
  <defs>
    <clipPath id="clip-path">
      <rect id="Ret칙ngulo_53" data-name="Ret칙ngulo 53" width="33.957" height="57" transform="translate(964 2011)" fill="#0f504f" stroke="#707070" stroke-width="1"/>
    </clipPath>
  </defs>
  <g id="Grupo_de_m치scara_3" data-name="Grupo de m치scara 3" transform="translate(-964 -2011)" clip-path="url(#clip-path)">
    <g id="noun-orthopedics-3176428" transform="translate(949.092 2011)">
      <path id="Caminho_126" data-name="Caminho 126" d="M46.06,28.135a3.044,3.044,0,0,0-2.529-.632A10.65,10.65,0,0,1,36.2,26.3a3.06,3.06,0,0,0-3.035-.063,16.181,16.181,0,0,1-3.035.822,20.386,20.386,0,0,0-4.616,1.328c-1.707.822-4.679,2.466-5.311,5a4.373,4.373,0,0,0,.948,3.794A47.072,47.072,0,0,0,24.5,41.1a6.524,6.524,0,0,1,2.15,3.414,33.417,33.417,0,0,1,.063,7.525,1.709,1.709,0,0,0,.443,1.328,1.592,1.592,0,0,0,1.265.569H40.053a2.007,2.007,0,0,0,1.265-.506,1.765,1.765,0,0,0,.506-1.265c-.063-1.328-.063-4.047.063-7.271.127-3.035,1.328-3.731,3.92-5.375.885-.569,1.9-1.2,3.035-2.024a3.572,3.572,0,0,0,1.644-2.845c0-2.339-2.4-4.868-4.425-6.512Zm2.719,6.513a1.87,1.87,0,0,1-.948,1.518c-1.075.822-2.087,1.391-2.972,1.96-2.656,1.644-4.553,2.782-4.742,6.7-.127,3.225-.063,6.007-.063,7.4v.063H39.99l-11.634-.063h-.063v-.063a31.169,31.169,0,0,0-.127-8.03,7.9,7.9,0,0,0-2.529-4.173c-.822-.885-1.833-1.96-3.225-3.731a2.728,2.728,0,0,1-.632-2.4c.316-1.328,1.96-2.719,4.426-3.857a25.5,25.5,0,0,1,4.236-1.2,17.266,17.266,0,0,0,3.478-.948,1.37,1.37,0,0,1,1.391,0,11.989,11.989,0,0,0,8.536,1.391,1.467,1.467,0,0,1,1.138.253c2.465,1.96,3.793,3.857,3.793,5.185Z" transform="translate(-3.692 1.709)" fill="#0f504f"/>
      <path id="Caminho_127" data-name="Caminho 127" d="M21.6,27.346a8.563,8.563,0,0,0,3.731,3.6,6,6,0,0,0,2.024.379,7.244,7.244,0,0,0,2.782-.569,20.88,20.88,0,0,0,3.1-1.644c.253-.19.569-.316.822-.506.19-.127.443-.253.632-.379a8.074,8.074,0,0,0,6.639,2.276,7.871,7.871,0,0,0,3.351-1.2c.127-.063,3.1-2.339,3.288-5.5A6.609,6.609,0,0,0,45.5,18.684c-5.185-4.679-5.185-5.059-5.248-7.145-.063-1.9,0-7.525,0-7.588V3.129H25.964l.127.948c.443,2.782.885,7.208.506,8.22a16.794,16.794,0,0,1-2.972,4.49,19.689,19.689,0,0,0-2.909,4.173,6.7,6.7,0,0,0-.7,2.909A9.125,9.125,0,0,0,21.6,27.346Zm.7-5.691a18.731,18.731,0,0,1,2.656-3.794,16.548,16.548,0,0,0,3.225-5c.506-1.454,0-5.944-.316-8.094H38.548V11.6c.063,2.782.443,3.478,5.754,8.347a4.9,4.9,0,0,1,1.96,3.794c-.127,2.276-2.4,4.11-2.593,4.3a7.736,7.736,0,0,1-2.593.885A6.252,6.252,0,0,1,36.334,27.6a5.313,5.313,0,0,1,1.96-.316.822.822,0,0,0,0-1.644,9.851,9.851,0,0,0-5.122,1.644c-.253.19-.569.316-.822.506a20.144,20.144,0,0,1-2.782,1.518,5.143,5.143,0,0,1-3.6.19,7.462,7.462,0,0,1-2.972-2.972,6.219,6.219,0,0,1-1.2-2.656,4.2,4.2,0,0,1,.507-2.213Z" transform="translate(-3.704 -3.129)" fill="#0f504f"/>
      <g id="Grupo_4" data-name="Grupo 4" transform="translate(0.097 66.575)">
        <path id="Caminho_128" data-name="Caminho 128" d="M2.091.285a1.5,1.5,0,0,1-.342.127,1.539,1.539,0,0,1-.37.044A1.266,1.266,0,0,1,.466.135,1.152,1.152,0,0,1,.13-.739a1.149,1.149,0,0,1,.337-.873,1.263,1.263,0,0,1,.912-.323,1.539,1.539,0,0,1,.37.044,1.5,1.5,0,0,1,.342.127v.476a1.356,1.356,0,0,0-.326-.164A1.076,1.076,0,0,0,1.426-1.5a.633.633,0,0,0-.5.2.811.811,0,0,0-.182.561.814.814,0,0,0,.182.561.635.635,0,0,0,.5.2,1.1,1.1,0,0,0,.339-.051,1.318,1.318,0,0,0,.326-.166Z" transform="translate(-0.13 1.935)" fill="#0f504f"/>
      </g>
      <g id="Grupo_5" data-name="Grupo 5" transform="translate(2.527 67.15)">
        <path id="Caminho_129" data-name="Caminho 129" d="M1.5-.947A.764.764,0,0,0,1.358-1a.6.6,0,0,0-.143-.018.4.4,0,0,0-.328.138.587.587,0,0,0-.115.39v.8H.22V-1.418H.772v.284a.7.7,0,0,1,.243-.247.658.658,0,0,1,.332-.079.588.588,0,0,1,.06,0l.1.009Z" transform="translate(-0.22 1.461)" fill="#0f504f"/>
      </g>
      <g id="Grupo_6" data-name="Grupo 6" transform="translate(3.955 67.15)">
        <path id="Caminho_130" data-name="Caminho 130" d="M1.968-.559V-.4H.675a.411.411,0,0,0,.141.291.521.521,0,0,0,.337.1,1.3,1.3,0,0,0,.356-.051A1.886,1.886,0,0,0,1.885-.22V.2a2.329,2.329,0,0,1-.392.111A2.033,2.033,0,0,1,1.1.355,1.043,1.043,0,0,1,.371.117.862.862,0,0,1,.112-.552a.871.871,0,0,1,.256-.665.976.976,0,0,1,.7-.243.88.88,0,0,1,.653.247.886.886,0,0,1,.245.655ZM1.4-.743a.35.35,0,0,0-.092-.252.316.316,0,0,0-.24-.1A.377.377,0,0,0,.807-1a.414.414,0,0,0-.125.259Z" transform="translate(-0.112 1.461)" fill="#0f504f"/>
      </g>
      <g id="Grupo_7" data-name="Grupo 7" transform="translate(6.099 67.15)">
        <path id="Caminho_131" data-name="Caminho 131" d="M1.017-.467a.476.476,0,0,0-.261.058A.2.2,0,0,0,.67-.236.205.205,0,0,0,.74-.07a.3.3,0,0,0,.194.058A.349.349,0,0,0,1.2-.123.391.391,0,0,0,1.3-.4V-.467ZM1.86-.675V.311H1.3V.055a.714.714,0,0,1-.251.229A.748.748,0,0,1,.715.355.614.614,0,0,1,.28.2.532.532,0,0,1,.112-.208.5.5,0,0,1,.32-.653,1.189,1.189,0,0,1,.978-.8H1.3V-.84a.2.2,0,0,0-.1-.191.656.656,0,0,0-.323-.062,1.486,1.486,0,0,0-.332.035,1.144,1.144,0,0,0-.282.106v-.422a3.362,3.362,0,0,1,.355-.065,2.9,2.9,0,0,1,.36-.023,1,1,0,0,1,.674.185.764.764,0,0,1,.208.6Z" transform="translate(-0.112 1.461)" fill="#0f504f"/>
      </g>
      <g id="Grupo_8" data-name="Grupo 8" transform="translate(8.139 66.702)">
        <path id="Caminho_132" data-name="Caminho 132" d="M.862-1.83v.49h.57v.4H.862V-.21A.213.213,0,0,0,.91-.048.3.3,0,0,0,1.1-.006h.284v.4H.91A.649.649,0,0,1,.444.254.645.645,0,0,1,.308-.21V-.944H.035v-.4H.308v-.49Z" transform="translate(-0.035 1.83)" fill="#0f504f"/>
      </g>
      <g id="Grupo_9" data-name="Grupo 9" transform="translate(9.744 67.15)">
        <path id="Caminho_133" data-name="Caminho 133" d="M1.968-.559V-.4H.675a.411.411,0,0,0,.141.291.521.521,0,0,0,.337.1,1.3,1.3,0,0,0,.356-.051A1.886,1.886,0,0,0,1.885-.22V.2a2.329,2.329,0,0,1-.392.111A2.033,2.033,0,0,1,1.1.355,1.043,1.043,0,0,1,.371.117.862.862,0,0,1,.112-.552a.871.871,0,0,1,.256-.665.976.976,0,0,1,.7-.243.88.88,0,0,1,.653.247.886.886,0,0,1,.245.655ZM1.4-.743a.35.35,0,0,0-.092-.252.316.316,0,0,0-.24-.1A.377.377,0,0,0,.807-1a.414.414,0,0,0-.125.259Z" transform="translate(-0.112 1.461)" fill="#0f504f"/>
      </g>
      <g id="Grupo_10" data-name="Grupo 10" transform="translate(11.895 66.519)">
        <path id="Caminho_134" data-name="Caminho 134" d="M1.416-1.055v-.926h.556v2.4H1.416V.171A.728.728,0,0,1,1.166.4.7.7,0,0,1,.847.466.643.643,0,0,1,.323.212a1.006,1.006,0,0,1-.2-.653,1.009,1.009,0,0,1,.2-.655A.643.643,0,0,1,.847-1.35a.674.674,0,0,1,.318.072.765.765,0,0,1,.252.222ZM1.053.065a.313.313,0,0,0,.27-.129.644.644,0,0,0,.094-.378.637.637,0,0,0-.094-.376.313.313,0,0,0-.27-.131.312.312,0,0,0-.27.131.634.634,0,0,0-.094.376.641.641,0,0,0,.094.378.312.312,0,0,0,.27.129Z" transform="translate(-0.118 1.981)" fill="#0f504f"/>
      </g>
      <g id="Grupo_11" data-name="Grupo 11" transform="translate(15.383 66.519)">
        <path id="Caminho_135" data-name="Caminho 135" d="M1.139.065a.315.315,0,0,0,.272-.129A.644.644,0,0,0,1.5-.441a.637.637,0,0,0-.094-.376.314.314,0,0,0-.272-.131.318.318,0,0,0-.273.131.639.639,0,0,0-.094.376.637.637,0,0,0,.094.376.317.317,0,0,0,.273.131ZM.772-1.055a.783.783,0,0,1,.252-.222.684.684,0,0,1,.319-.072.646.646,0,0,1,.526.254,1.012,1.012,0,0,1,.2.655,1.008,1.008,0,0,1-.2.653.646.646,0,0,1-.526.254A.7.7,0,0,1,1.024.4.764.764,0,0,1,.772.171V.422H.22v-2.4H.772Z" transform="translate(-0.22 1.981)" fill="#0f504f"/>
      </g>
      <g id="Grupo_12" data-name="Grupo 12" transform="translate(17.418 67.193)">
        <path id="Caminho_136" data-name="Caminho 136" d="M.032-1.426H.584L1.05-.252l.4-1.173H2L1.271.467a.924.924,0,0,1-.256.4A.6.6,0,0,1,.63.986H.309V.623H.482a.357.357,0,0,0,.2-.046.288.288,0,0,0,.1-.159L.8.37Z" transform="translate(-0.032 1.426)" fill="#0f504f"/>
      </g>
      <g id="Grupo_13" data-name="Grupo 13" transform="translate(20.832 66.618)">
        <path id="Caminho_137" data-name="Caminho 137" d="M.24-1.9H.833v.877H1.71V-1.9H2.3V.4H1.71V-.573H.833V.4H.24Z" transform="translate(-0.24 1.9)" fill="#0f504f"/>
      </g>
      <g id="Grupo_14" data-name="Grupo 14" transform="translate(23.323 67.15)">
        <path id="Caminho_138" data-name="Caminho 138" d="M1.017-.467a.476.476,0,0,0-.261.058A.2.2,0,0,0,.67-.236.205.205,0,0,0,.74-.07a.3.3,0,0,0,.194.058A.349.349,0,0,0,1.2-.123.391.391,0,0,0,1.3-.4V-.467ZM1.86-.675V.311H1.3V.055a.714.714,0,0,1-.251.229A.748.748,0,0,1,.715.355.614.614,0,0,1,.28.2.532.532,0,0,1,.112-.208.5.5,0,0,1,.32-.653,1.189,1.189,0,0,1,.978-.8H1.3V-.84a.2.2,0,0,0-.1-.191.656.656,0,0,0-.323-.062,1.486,1.486,0,0,0-.332.035,1.144,1.144,0,0,0-.282.106v-.422a3.362,3.362,0,0,1,.355-.065,2.9,2.9,0,0,1,.36-.023,1,1,0,0,1,.674.185.764.764,0,0,1,.208.6Z" transform="translate(-0.112 1.461)" fill="#0f504f"/>
      </g>
      <g id="Grupo_15" data-name="Grupo 15" transform="translate(25.485 67.15)">
        <path id="Caminho_139" data-name="Caminho 139" d="M1.587-1.364v.42a2.041,2.041,0,0,0-.342-.111,1.437,1.437,0,0,0-.312-.037A.549.549,0,0,0,.7-1.053a.128.128,0,0,0-.076.122.111.111,0,0,0,.058.1.552.552,0,0,0,.208.053l.1.014a1.182,1.182,0,0,1,.572.178A.479.479,0,0,1,1.7-.2a.47.47,0,0,1-.2.416A1.089,1.089,0,0,1,.892.355,2.491,2.491,0,0,1,.536.328,2.852,2.852,0,0,1,.162.247v-.42A1.543,1.543,0,0,0,.5-.051a1.621,1.621,0,0,0,.355.039A.524.524,0,0,0,1.1-.056.146.146,0,0,0,1.178-.19.12.12,0,0,0,1.121-.3.587.587,0,0,0,.9-.356L.8-.368A1.009,1.009,0,0,1,.283-.54.469.469,0,0,1,.135-.919a.465.465,0,0,1,.187-.408A1.007,1.007,0,0,1,.9-1.461a2.218,2.218,0,0,1,.319.025,3.526,3.526,0,0,1,.367.072Z" transform="translate(-0.135 1.461)" fill="#0f504f"/>
      </g>
      <g id="Grupo_16" data-name="Grupo 16" transform="translate(27.338 67.15)">
        <path id="Caminho_140" data-name="Caminho 140" d="M1.017-.467a.476.476,0,0,0-.261.058A.2.2,0,0,0,.67-.236.205.205,0,0,0,.74-.07a.3.3,0,0,0,.194.058A.349.349,0,0,0,1.2-.123.391.391,0,0,0,1.3-.4V-.467ZM1.86-.675V.311H1.3V.055a.714.714,0,0,1-.251.229A.748.748,0,0,1,.715.355.614.614,0,0,1,.28.2.532.532,0,0,1,.112-.208.5.5,0,0,1,.32-.653,1.189,1.189,0,0,1,.978-.8H1.3V-.84a.2.2,0,0,0-.1-.191.656.656,0,0,0-.323-.062,1.486,1.486,0,0,0-.332.035,1.144,1.144,0,0,0-.282.106v-.422a3.362,3.362,0,0,1,.355-.065,2.9,2.9,0,0,1,.36-.023,1,1,0,0,1,.674.185.764.764,0,0,1,.208.6Z" transform="translate(-0.112 1.461)" fill="#0f504f"/>
      </g>
      <g id="Grupo_17" data-name="Grupo 17" transform="translate(29.602 67.15)">
        <path id="Caminho_141" data-name="Caminho 141" d="M1.957-.743V.311H1.4V-.5A2.957,2.957,0,0,0,1.391-.8.332.332,0,0,0,1.356-.93a.225.225,0,0,0-.088-.083.259.259,0,0,0-.125-.03.319.319,0,0,0-.272.134.6.6,0,0,0-.1.369v.85H.22V-1.418H.772v.252a.883.883,0,0,1,.265-.222.672.672,0,0,1,.311-.072.561.561,0,0,1,.455.185.806.806,0,0,1,.155.533Z" transform="translate(-0.22 1.461)" fill="#0f504f"/>
      </g>
      <g id="Grupo_18" data-name="Grupo 18" transform="translate(31.833 67.193)">
        <path id="Caminho_142" data-name="Caminho 142" d="M.2-.371V-1.426H.759v.173c0,.094,0,.212,0,.353s0,.236,0,.282a2.971,2.971,0,0,0,.011.3A.348.348,0,0,0,.8-.184.243.243,0,0,0,.893-.1a.266.266,0,0,0,.125.028A.321.321,0,0,0,1.29-.2a.606.606,0,0,0,.1-.369v-.854h.552V.3H1.389V.053a.869.869,0,0,1-.265.224A.678.678,0,0,1,.816.347.565.565,0,0,1,.361.164.8.8,0,0,1,.2-.371Z" transform="translate(-0.204 1.426)" fill="#0f504f"/>
      </g>
      <g id="Grupo_19" data-name="Grupo 19" transform="translate(33.98 66.519)">
        <path id="Caminho_143" data-name="Caminho 143" d="M1.416-1.055v-.926h.556v2.4H1.416V.171A.728.728,0,0,1,1.166.4.7.7,0,0,1,.847.466.643.643,0,0,1,.323.212a1.006,1.006,0,0,1-.2-.653,1.009,1.009,0,0,1,.2-.655A.643.643,0,0,1,.847-1.35a.674.674,0,0,1,.318.072.765.765,0,0,1,.252.222ZM1.053.065a.313.313,0,0,0,.27-.129.644.644,0,0,0,.094-.378.637.637,0,0,0-.094-.376.313.313,0,0,0-.27-.131.312.312,0,0,0-.27.131.634.634,0,0,0-.094.376.641.641,0,0,0,.094.378.312.312,0,0,0,.27.129Z" transform="translate(-0.118 1.981)" fill="#0f504f"/>
      </g>
      <g id="Grupo_20" data-name="Grupo 20" transform="translate(36.367 66.519)">
        <path id="Caminho_144" data-name="Caminho 144" d="M.22-1.307H.772V.422H.22Zm0-.674H.772v.452H.22Z" transform="translate(-0.22 1.981)" fill="#0f504f"/>
      </g>
      <g id="Grupo_21" data-name="Grupo 21" transform="translate(37.45 67.15)">
        <path id="Caminho_145" data-name="Caminho 145" d="M1.957-.743V.311H1.4V-.5A2.957,2.957,0,0,0,1.391-.8.332.332,0,0,0,1.356-.93a.225.225,0,0,0-.088-.083.259.259,0,0,0-.125-.03.319.319,0,0,0-.272.134.6.6,0,0,0-.1.369v.85H.22V-1.418H.772v.252a.883.883,0,0,1,.265-.222.672.672,0,0,1,.311-.072.561.561,0,0,1,.455.185.806.806,0,0,1,.155.533Z" transform="translate(-0.22 1.461)" fill="#0f504f"/>
      </g>
      <g id="Grupo_22" data-name="Grupo 22" transform="translate(0 69.68)">
        <path id="Caminho_146" data-name="Caminho 146" d="M1.392-1.981v.363H1.087a.248.248,0,0,0-.164.042.2.2,0,0,0-.046.148v.12H1.35v.4H.877V.422H.325V-.912H.049v-.4H.325v-.12a.523.523,0,0,1,.157-.418A.735.735,0,0,1,.97-1.981Z" transform="translate(-0.049 1.981)" fill="#0f504f"/>
      </g>
      <g id="Grupo_23" data-name="Grupo 23" transform="translate(1.582 70.312)">
        <path id="Caminho_147" data-name="Caminho 147" d="M1.5-.947A.764.764,0,0,0,1.358-1a.6.6,0,0,0-.143-.018.4.4,0,0,0-.328.138.587.587,0,0,0-.115.39v.8H.22V-1.418H.772v.284a.7.7,0,0,1,.243-.247.658.658,0,0,1,.332-.079.588.588,0,0,1,.06,0l.1.009Z" transform="translate(-0.22 1.461)" fill="#0f504f"/>
      </g>
      <g id="Grupo_24" data-name="Grupo 24" transform="translate(3.011 70.312)">
        <path id="Caminho_148" data-name="Caminho 148" d="M1.065-1.065a.326.326,0,0,0-.281.132.636.636,0,0,0-.1.381.636.636,0,0,0,.1.381.327.327,0,0,0,.281.131A.319.319,0,0,0,1.34-.171a.64.64,0,0,0,.1-.381.64.64,0,0,0-.1-.381A.318.318,0,0,0,1.065-1.065Zm0-.4a.963.963,0,0,1,.7.242.881.881,0,0,1,.251.667.884.884,0,0,1-.251.667.966.966,0,0,1-.7.24.974.974,0,0,1-.7-.24A.878.878,0,0,1,.112-.552a.876.876,0,0,1,.252-.667A.971.971,0,0,1,1.065-1.461Z" transform="translate(-0.112 1.461)" fill="#0f504f"/>
      </g>
      <g id="Grupo_25" data-name="Grupo 25" transform="translate(5.31 70.312)">
        <path id="Caminho_149" data-name="Caminho 149" d="M1.822-1.131a.749.749,0,0,1,.249-.245.616.616,0,0,1,.318-.085.559.559,0,0,1,.453.185A.8.8,0,0,1,3-.743V.311H2.443V-.631c0-.015,0-.036,0-.064A.491.491,0,0,0,2.39-.96a.19.19,0,0,0-.173-.083.275.275,0,0,0-.243.131.678.678,0,0,0-.088.374V.311H1.33v-.9A.859.859,0,0,0,1.281-.96.189.189,0,0,0,1.1-1.042a.277.277,0,0,0-.245.131A.667.667,0,0,0,.773-.54v.85H.217V-1.418H.773v.252a.718.718,0,0,1,.233-.221A.586.586,0,0,1,1.3-1.461a.587.587,0,0,1,.318.086.544.544,0,0,1,.208.243Z" transform="translate(-0.217 1.461)" fill="#0f504f"/>
      </g>
      <g id="Grupo_26" data-name="Grupo 26" transform="translate(9.484 69.864)">
        <path id="Caminho_150" data-name="Caminho 150" d="M.862-1.83v.49h.57v.4H.862V-.21A.213.213,0,0,0,.91-.048.3.3,0,0,0,1.1-.006h.284v.4H.91A.649.649,0,0,1,.444.254.645.645,0,0,1,.308-.21V-.944H.035v-.4H.308v-.49Z" transform="translate(-0.035 1.83)" fill="#0f504f"/>
      </g>
      <g id="Grupo_27" data-name="Grupo 27" transform="translate(11.219 69.68)">
        <path id="Caminho_151" data-name="Caminho 151" d="M1.957-.632V.422H1.4v-.8a3,3,0,0,0-.011-.312.332.332,0,0,0-.035-.125A.225.225,0,0,0,1.268-.9a.259.259,0,0,0-.125-.03A.319.319,0,0,0,.871-.8a.6.6,0,0,0-.1.369v.85H.22v-2.4H.772v.926a.883.883,0,0,1,.265-.222.672.672,0,0,1,.311-.072.561.561,0,0,1,.455.185.806.806,0,0,1,.155.533Z" transform="translate(-0.22 1.981)" fill="#0f504f"/>
      </g>
      <g id="Grupo_28" data-name="Grupo 28" transform="translate(13.34 70.312)">
        <path id="Caminho_152" data-name="Caminho 152" d="M1.968-.559V-.4H.675a.411.411,0,0,0,.141.291.521.521,0,0,0,.337.1,1.3,1.3,0,0,0,.356-.051A1.886,1.886,0,0,0,1.885-.22V.2a2.329,2.329,0,0,1-.392.111A2.033,2.033,0,0,1,1.1.355,1.043,1.043,0,0,1,.371.117.862.862,0,0,1,.112-.552a.871.871,0,0,1,.256-.665.976.976,0,0,1,.7-.243.88.88,0,0,1,.653.247.886.886,0,0,1,.245.655ZM1.4-.743a.35.35,0,0,0-.092-.252.316.316,0,0,0-.24-.1A.377.377,0,0,0,.807-1a.414.414,0,0,0-.125.259Z" transform="translate(-0.112 1.461)" fill="#0f504f"/>
      </g>
      <g id="Grupo_29" data-name="Grupo 29" transform="translate(16.74 69.779)">
        <path id="Caminho_153" data-name="Caminho 153" d="M.24-1.9H.9L1.741-.319V-1.9H2.3V.4H1.641L.8-1.177V.4H.24Z" transform="translate(-0.24 1.9)" fill="#0f504f"/>
      </g>
      <g id="Grupo_30" data-name="Grupo 30" transform="translate(19.23 70.312)">
        <path id="Caminho_154" data-name="Caminho 154" d="M1.065-1.065a.326.326,0,0,0-.281.132.636.636,0,0,0-.1.381.636.636,0,0,0,.1.381.327.327,0,0,0,.281.131A.319.319,0,0,0,1.34-.171a.64.64,0,0,0,.1-.381.64.64,0,0,0-.1-.381A.318.318,0,0,0,1.065-1.065Zm0-.4a.963.963,0,0,1,.7.242.881.881,0,0,1,.251.667.884.884,0,0,1-.251.667.966.966,0,0,1-.7.24.974.974,0,0,1-.7-.24A.878.878,0,0,1,.112-.552a.876.876,0,0,1,.252-.667A.971.971,0,0,1,1.065-1.461Z" transform="translate(-0.112 1.461)" fill="#0f504f"/>
      </g>
      <g id="Grupo_31" data-name="Grupo 31" transform="translate(21.514 70.354)">
        <path id="Caminho_155" data-name="Caminho 155" d="M.2-.371V-1.426H.759v.173c0,.094,0,.212,0,.353s0,.236,0,.282a2.971,2.971,0,0,0,.011.3A.348.348,0,0,0,.8-.184.243.243,0,0,0,.893-.1a.266.266,0,0,0,.125.028A.321.321,0,0,0,1.29-.2a.606.606,0,0,0,.1-.369v-.854h.552V.3H1.389V.053a.869.869,0,0,1-.265.224A.678.678,0,0,1,.816.347.565.565,0,0,1,.361.164.8.8,0,0,1,.2-.371Z" transform="translate(-0.204 1.426)" fill="#0f504f"/>
      </g>
      <g id="Grupo_32" data-name="Grupo 32" transform="translate(23.784 70.312)">
        <path id="Caminho_156" data-name="Caminho 156" d="M1.957-.743V.311H1.4V-.5A2.957,2.957,0,0,0,1.391-.8.332.332,0,0,0,1.356-.93a.225.225,0,0,0-.088-.083.259.259,0,0,0-.125-.03.319.319,0,0,0-.272.134.6.6,0,0,0-.1.369v.85H.22V-1.418H.772v.252a.883.883,0,0,1,.265-.222.672.672,0,0,1,.311-.072.561.561,0,0,1,.455.185.806.806,0,0,1,.155.533Z" transform="translate(-0.22 1.461)" fill="#0f504f"/>
      </g>
      <g id="Grupo_33" data-name="Grupo 33" transform="translate(27.16 69.779)">
        <path id="Caminho_157" data-name="Caminho 157" d="M.24-1.9h.986a1.026,1.026,0,0,1,.674.2.679.679,0,0,1,.236.556A.683.683,0,0,1,1.9-.591a1.026,1.026,0,0,1-.674.2H.833V.4H.24Zm.593.43v.644h.33A.384.384,0,0,0,1.429-.91a.3.3,0,0,0,.1-.238.3.3,0,0,0-.1-.238.39.39,0,0,0-.266-.083Z" transform="translate(-0.24 1.9)" fill="#0f504f"/>
      </g>
      <g id="Grupo_34" data-name="Grupo 34" transform="translate(29.452 70.312)">
        <path id="Caminho_158" data-name="Caminho 158" d="M1.5-.947A.764.764,0,0,0,1.358-1a.6.6,0,0,0-.143-.018.4.4,0,0,0-.328.138.587.587,0,0,0-.115.39v.8H.22V-1.418H.772v.284a.7.7,0,0,1,.243-.247.658.658,0,0,1,.332-.079.588.588,0,0,1,.06,0l.1.009Z" transform="translate(-0.22 1.461)" fill="#0f504f"/>
      </g>
      <g id="Grupo_35" data-name="Grupo 35" transform="translate(30.881 70.312)">
        <path id="Caminho_159" data-name="Caminho 159" d="M1.065-1.065a.326.326,0,0,0-.281.132.636.636,0,0,0-.1.381.636.636,0,0,0,.1.381.327.327,0,0,0,.281.131A.319.319,0,0,0,1.34-.171a.64.64,0,0,0,.1-.381.64.64,0,0,0-.1-.381A.318.318,0,0,0,1.065-1.065Zm0-.4a.963.963,0,0,1,.7.242.881.881,0,0,1,.251.667.884.884,0,0,1-.251.667.966.966,0,0,1-.7.24.974.974,0,0,1-.7-.24A.878.878,0,0,1,.112-.552a.876.876,0,0,1,.252-.667A.971.971,0,0,1,1.065-1.461Z" transform="translate(-0.112 1.461)" fill="#0f504f"/>
      </g>
      <g id="Grupo_36" data-name="Grupo 36" transform="translate(32.811 69.68)">
        <path id="Caminho_160" data-name="Caminho 160" d="M.285-1.307H.837V.39A.762.762,0,0,1,.67.921.619.619,0,0,1,.186,1.1H-.087V.741h.1A.27.27,0,0,0,.225.67.462.462,0,0,0,.285.39Zm0-.674H.837v.452H.285Z" transform="translate(0.087 1.981)" fill="#0f504f"/>
      </g>
      <g id="Grupo_37" data-name="Grupo 37" transform="translate(34.137 70.312)">
        <path id="Caminho_161" data-name="Caminho 161" d="M1.968-.559V-.4H.675a.411.411,0,0,0,.141.291.521.521,0,0,0,.337.1,1.3,1.3,0,0,0,.356-.051A1.886,1.886,0,0,0,1.885-.22V.2a2.329,2.329,0,0,1-.392.111A2.033,2.033,0,0,1,1.1.355,1.043,1.043,0,0,1,.371.117.862.862,0,0,1,.112-.552a.871.871,0,0,1,.256-.665.976.976,0,0,1,.7-.243.88.88,0,0,1,.653.247.886.886,0,0,1,.245.655ZM1.4-.743a.35.35,0,0,0-.092-.252.316.316,0,0,0-.24-.1A.377.377,0,0,0,.807-1a.414.414,0,0,0-.125.259Z" transform="translate(-0.112 1.461)" fill="#0f504f"/>
      </g>
      <g id="Grupo_38" data-name="Grupo 38" transform="translate(36.281 70.312)">
        <path id="Caminho_162" data-name="Caminho 162" d="M1.638-1.364v.45a.859.859,0,0,0-.226-.115.748.748,0,0,0-.235-.037A.478.478,0,0,0,.816-.93a.523.523,0,0,0-.129.378.525.525,0,0,0,.129.378.48.48,0,0,0,.362.134.805.805,0,0,0,.245-.037.724.724,0,0,0,.215-.115V.26A1.494,1.494,0,0,1,1.375.33a1.472,1.472,0,0,1-.268.025A1.049,1.049,0,0,1,.375.115.856.856,0,0,1,.112-.552a.859.859,0,0,1,.263-.669,1.051,1.051,0,0,1,.732-.24,1.472,1.472,0,0,1,.268.025,1.476,1.476,0,0,1,.263.072Z" transform="translate(-0.112 1.461)" fill="#0f504f"/>
      </g>
      <g id="Grupo_39" data-name="Grupo 39" transform="translate(38.061 69.864)">
        <path id="Caminho_163" data-name="Caminho 163" d="M.862-1.83v.49h.57v.4H.862V-.21A.213.213,0,0,0,.91-.048.3.3,0,0,0,1.1-.006h.284v.4H.91A.649.649,0,0,1,.444.254.645.645,0,0,1,.308-.21V-.944H.035v-.4H.308v-.49Z" transform="translate(-0.035 1.83)" fill="#0f504f"/>
      </g>
    </g>
  </g>
</svg>
