<svg xmlns="http://www.w3.org/2000/svg" xmlns:xlink="http://www.w3.org/1999/xlink" width="49.27" height="41.879" viewBox="0 0 49.27 41.879">
  <defs>
    <clipPath id="clip-path">
      <rect id="Ret칙ngulo_60" data-name="Ret칙ngulo 60" width="49.27" height="41.879" transform="translate(976 2344)" fill="#15605f" stroke="#15605f" stroke-width="1"/>
    </clipPath>
  </defs>
  <g id="Grupo_de_m치scara_5" data-name="Grupo de m치scara 5" transform="translate(-976 -2344)" clip-path="url(#clip-path)">
    <g id="noun-pediatrics-4362557" transform="translate(979.456 2346.463)">
      <path id="Caminho_185" data-name="Caminho 185" d="M20.063,20.448A1.966,1.966,0,1,0,18.1,18.482,1.983,1.983,0,0,0,20.063,20.448Zm1.519,3.842a1.187,1.187,0,0,1,1.519.625,3.619,3.619,0,0,0,3.306,2.234,3.527,3.527,0,0,0,3.306-2.234,1.162,1.162,0,0,1,2.144.893,5.953,5.953,0,0,1-10.99,0,1.255,1.255,0,0,1,.715-1.519Zm11.259-3.842a1.966,1.966,0,1,0-1.966-1.966A1.955,1.955,0,0,0,32.841,20.448Zm11.527-2.278A17.921,17.921,0,0,0,26.586,3.917,17.953,17.953,0,0,0,8.849,17.991a4.691,4.691,0,0,0-2.5,4.11,4.624,4.624,0,0,0,2.9,4.244,17.985,17.985,0,0,0,17.335,12.6A18.02,18.02,0,0,0,43.965,26.211a4.647,4.647,0,0,0,2.547-4.11,4.573,4.573,0,0,0-2.145-3.931Zm-1.43,5.942-.893.447-.268.983A15.636,15.636,0,0,1,26.631,36.576a15.656,15.656,0,0,1-15.1-10.9L11.217,24.6l-1.027-.447a2.221,2.221,0,0,1-.179-4.11l.983-.536.223-1.072A15.49,15.49,0,0,1,26.586,6.285a17.67,17.67,0,0,1,5.138.8,5.487,5.487,0,0,1-.581,2.859,4.078,4.078,0,0,1-2.9,2.144,1.176,1.176,0,1,0,.581,2.279,6.587,6.587,0,0,0,4.423-3.351,7.127,7.127,0,0,0,.8-2.993,15.15,15.15,0,0,1,8,10.544l.179.983.849.536a2.3,2.3,0,0,1-.134,4.021Z" transform="translate(-4.156 -3.917)" fill="#15605f"/>
      <g id="Grupo_58" data-name="Grupo 58" transform="translate(0.069 44.895)">
        <path id="Caminho_186" data-name="Caminho 186" d="M1.476.222a1.061,1.061,0,0,1-.242.09A1.087,1.087,0,0,1,.973.343.894.894,0,0,1,.328.116.814.814,0,0,1,.09-.5a.812.812,0,0,1,.238-.617.892.892,0,0,1,.644-.228,1.087,1.087,0,0,1,.262.031,1.061,1.061,0,0,1,.242.09v.337A.958.958,0,0,0,1.246-1a.76.76,0,0,0-.239-.037A.448.448,0,0,0,.654-.9a.573.573,0,0,0-.128.4.575.575,0,0,0,.128.4.449.449,0,0,0,.353.143A.778.778,0,0,0,1.246,0a.931.931,0,0,0,.231-.117Z" transform="translate(-0.09 1.346)" fill="#15605f"/>
      </g>
      <g id="Grupo_59" data-name="Grupo 59" transform="translate(1.785 45.302)">
        <path id="Caminho_187" data-name="Caminho 187" d="M1.06-.653a.54.54,0,0,0-.1-.035A.427.427,0,0,0,.856-.7a.285.285,0,0,0-.232.1.415.415,0,0,0-.081.275V.235H.153V-.986h.39v.2A.5.5,0,0,1,.715-.96a.465.465,0,0,1,.234-.056l.042,0,.067.006Z" transform="translate(-0.153 1.016)" fill="#15605f"/>
      </g>
      <g id="Grupo_60" data-name="Grupo 60" transform="translate(2.794 45.302)">
        <path id="Caminho_188" data-name="Caminho 188" d="M1.389-.379v.112H.476a.291.291,0,0,0,.1.206A.368.368,0,0,0,.813.007a.919.919,0,0,0,.252-.036A1.333,1.333,0,0,0,1.331-.14v.3a1.646,1.646,0,0,1-.277.079A1.437,1.437,0,0,1,.777.267.737.737,0,0,1,.261.1.609.609,0,0,1,.078-.374a.615.615,0,0,1,.181-.47.69.69,0,0,1,.5-.172.621.621,0,0,1,.461.175.626.626,0,0,1,.173.462Zm-.4-.13A.247.247,0,0,0,.923-.687a.223.223,0,0,0-.17-.069.266.266,0,0,0-.184.064.292.292,0,0,0-.089.183Z" transform="translate(-0.078 1.016)" fill="#15605f"/>
      </g>
      <g id="Grupo_61" data-name="Grupo 61" transform="translate(4.31 45.302)">
        <path id="Caminho_189" data-name="Caminho 189" d="M.717-.314a.336.336,0,0,0-.184.041.138.138,0,0,0-.061.122.145.145,0,0,0,.05.117A.209.209,0,0,0,.659.007.246.246,0,0,0,.845-.071a.276.276,0,0,0,.076-.2V-.314Zm.6-.147v.7H.921V.055A.5.5,0,0,1,.744.217.529.529,0,0,1,.5.267.434.434,0,0,1,.2.157.376.376,0,0,1,.078-.131.353.353,0,0,1,.225-.445a.84.84,0,0,1,.465-.1H.921V-.577A.144.144,0,0,0,.847-.712.463.463,0,0,0,.619-.756a1.05,1.05,0,0,0-.234.025.809.809,0,0,0-.2.075v-.3A2.375,2.375,0,0,1,.436-1,2.049,2.049,0,0,1,.69-1.016a.7.7,0,0,1,.476.131.54.54,0,0,1,.147.424Z" transform="translate(-0.078 1.016)" fill="#15605f"/>
      </g>
      <g id="Grupo_62" data-name="Grupo 62" transform="translate(5.751 44.985)">
        <path id="Caminho_190" data-name="Caminho 190" d="M.609-1.273v.347h.4v.279h-.4v.519a.151.151,0,0,0,.034.115.21.21,0,0,0,.133.03h.2V.3H.643A.458.458,0,0,1,.313.2a.456.456,0,0,1-.1-.328V-.647H.024V-.927H.218v-.347Z" transform="translate(-0.024 1.273)" fill="#15605f"/>
      </g>
      <g id="Grupo_63" data-name="Grupo 63" transform="translate(6.885 45.302)">
        <path id="Caminho_191" data-name="Caminho 191" d="M1.389-.379v.112H.476a.291.291,0,0,0,.1.206A.368.368,0,0,0,.813.007a.919.919,0,0,0,.252-.036A1.333,1.333,0,0,0,1.331-.14v.3a1.646,1.646,0,0,1-.277.079A1.437,1.437,0,0,1,.777.267.737.737,0,0,1,.261.1.609.609,0,0,1,.078-.374a.615.615,0,0,1,.181-.47.69.69,0,0,1,.5-.172.621.621,0,0,1,.461.175.626.626,0,0,1,.173.462Zm-.4-.13A.247.247,0,0,0,.923-.687a.223.223,0,0,0-.17-.069.266.266,0,0,0-.184.064.292.292,0,0,0-.089.183Z" transform="translate(-0.078 1.016)" fill="#15605f"/>
      </g>
      <g id="Grupo_64" data-name="Grupo 64" transform="translate(8.405 44.855)">
        <path id="Caminho_192" data-name="Caminho 192" d="M1-.724v-.654h.393v1.7H1V.142A.514.514,0,0,1,.822.3.491.491,0,0,1,.6.351a.454.454,0,0,1-.37-.18A.711.711,0,0,1,.082-.29.713.713,0,0,1,.227-.753.454.454,0,0,1,.6-.932a.476.476,0,0,1,.224.051A.541.541,0,0,1,1-.724ZM.743.068A.221.221,0,0,0,.933-.023.455.455,0,0,0,1-.29.45.45,0,0,0,.933-.556.221.221,0,0,0,.743-.648a.22.22,0,0,0-.191.092A.448.448,0,0,0,.486-.29a.453.453,0,0,0,.066.267A.221.221,0,0,0,.743.068Z" transform="translate(-0.082 1.378)" fill="#15605f"/>
      </g>
      <g id="Grupo_65" data-name="Grupo 65" transform="translate(10.869 44.855)">
        <path id="Caminho_193" data-name="Caminho 193" d="M.8.068A.223.223,0,0,0,.994-.023.455.455,0,0,0,1.06-.29.45.45,0,0,0,.994-.556.222.222,0,0,0,.8-.648a.225.225,0,0,0-.193.092A.452.452,0,0,0,.543-.29a.45.45,0,0,0,.066.266A.224.224,0,0,0,.8.068ZM.543-.724A.553.553,0,0,1,.721-.881.483.483,0,0,1,.947-.932a.456.456,0,0,1,.371.18.715.715,0,0,1,.145.462.712.712,0,0,1-.145.461.456.456,0,0,1-.371.18A.5.5,0,0,1,.721.3.54.54,0,0,1,.543.142V.319H.153v-1.7h.39Z" transform="translate(-0.153 1.378)" fill="#15605f"/>
      </g>
      <g id="Grupo_66" data-name="Grupo 66" transform="translate(12.307 45.332)">
        <path id="Caminho_194" data-name="Caminho 194" d="M.022-.992h.39l.329.829.279-.829h.39L.9.346A.653.653,0,0,1,.717.63.424.424,0,0,1,.445.712H.218V.456H.34A.252.252,0,0,0,.485.423.2.2,0,0,0,.556.311L.567.277Z" transform="translate(-0.022 0.992)" fill="#15605f"/>
      </g>
      <g id="Grupo_67" data-name="Grupo 67" transform="translate(14.719 44.925)">
        <path id="Caminho_195" data-name="Caminho 195" d="M.167-1.322H.586V-.7h.62v-.62h.42V.306h-.42V-.384H.586V.306H.167Z" transform="translate(-0.167 1.322)" fill="#15605f"/>
      </g>
      <g id="Grupo_68" data-name="Grupo 68" transform="translate(16.479 45.302)">
        <path id="Caminho_196" data-name="Caminho 196" d="M.751-.737a.23.23,0,0,0-.2.093.45.45,0,0,0-.069.269A.45.45,0,0,0,.553-.1a.231.231,0,0,0,.2.092A.225.225,0,0,0,.946-.1a.452.452,0,0,0,.069-.269A.452.452,0,0,0,.946-.643.225.225,0,0,0,.751-.737Zm0-.279a.681.681,0,0,1,.492.171.623.623,0,0,1,.177.471A.625.625,0,0,1,1.243.1a.683.683,0,0,1-.492.17A.688.688,0,0,1,.256.1.621.621,0,0,1,.078-.374.619.619,0,0,1,.256-.845.686.686,0,0,1,.751-1.016Z" transform="translate(-0.078 1.016)" fill="#15605f"/>
      </g>
      <g id="Grupo_69" data-name="Grupo 69" transform="translate(18.014 45.302)">
        <path id="Caminho_197" data-name="Caminho 197" d="M.717-.314a.336.336,0,0,0-.184.041.138.138,0,0,0-.061.122.145.145,0,0,0,.05.117A.209.209,0,0,0,.659.007.246.246,0,0,0,.845-.071a.276.276,0,0,0,.076-.2V-.314Zm.6-.147v.7H.921V.055A.5.5,0,0,1,.744.217.529.529,0,0,1,.5.267.434.434,0,0,1,.2.157.376.376,0,0,1,.078-.131.353.353,0,0,1,.225-.445a.84.84,0,0,1,.465-.1H.921V-.577A.144.144,0,0,0,.847-.712.463.463,0,0,0,.619-.756a1.05,1.05,0,0,0-.234.025.809.809,0,0,0-.2.075v-.3A2.375,2.375,0,0,1,.436-1,2.049,2.049,0,0,1,.69-1.016a.7.7,0,0,1,.476.131.54.54,0,0,1,.147.424Z" transform="translate(-0.078 1.016)" fill="#15605f"/>
      </g>
      <g id="Grupo_70" data-name="Grupo 70" transform="translate(19.614 45.302)">
        <path id="Caminho_198" data-name="Caminho 198" d="M1.381-.509V.235H.988v-.57A2.089,2.089,0,0,0,.981-.552.235.235,0,0,0,.956-.641.159.159,0,0,0,.893-.7.183.183,0,0,0,.8-.721a.226.226,0,0,0-.192.095.426.426,0,0,0-.07.261v.6H.153V-.986h.39v.178A.624.624,0,0,1,.73-.965a.475.475,0,0,1,.219-.051.4.4,0,0,1,.322.131.57.57,0,0,1,.11.376Z" transform="translate(-0.153 1.016)" fill="#15605f"/>
      </g>
      <g id="Grupo_71" data-name="Grupo 71" transform="translate(21.117 45.304)">
        <path id="Caminho_199" data-name="Caminho 199" d="M1,.028A.536.536,0,0,1,.822.185.487.487,0,0,1,.6.235.459.459,0,0,1,.228.059.682.682,0,0,1,.082-.39.677.677,0,0,1,.228-.838.459.459,0,0,1,.6-1.014a.48.48,0,0,1,.226.051A.523.523,0,0,1,1-.806V-.987h.393v1.1a.555.555,0,0,1-.186.45.821.821,0,0,1-.54.156A1.381,1.381,0,0,1,.446.7,1.415,1.415,0,0,1,.23.646v-.3a.976.976,0,0,0,.2.087.707.707,0,0,0,.2.029A.4.4,0,0,0,.91.375.344.344,0,0,0,1,.112ZM.743-.732a.225.225,0,0,0-.189.09A.412.412,0,0,0,.486-.39a.421.421,0,0,0,.065.254.227.227,0,0,0,.192.086A.224.224,0,0,0,.932-.138.412.412,0,0,0,1-.39.412.412,0,0,0,.932-.643a.223.223,0,0,0-.189-.09Z" transform="translate(-0.082 1.014)" fill="#15605f"/>
      </g>
      <g id="Grupo_72" data-name="Grupo 72" transform="translate(23.598 44.925)">
        <path id="Caminho_200" data-name="Caminho 200" d="M.167-1.322H.586v1.31h.738V.306H.167Z" transform="translate(-0.167 1.322)" fill="#15605f"/>
      </g>
      <g id="Grupo_73" data-name="Grupo 73" transform="translate(24.912 45.302)">
        <path id="Caminho_201" data-name="Caminho 201" d="M.751-.737a.23.23,0,0,0-.2.093.45.45,0,0,0-.069.269A.45.45,0,0,0,.553-.1a.231.231,0,0,0,.2.092A.225.225,0,0,0,.946-.1a.452.452,0,0,0,.069-.269A.452.452,0,0,0,.946-.643.225.225,0,0,0,.751-.737Zm0-.279a.681.681,0,0,1,.492.171.623.623,0,0,1,.177.471A.625.625,0,0,1,1.243.1a.683.683,0,0,1-.492.17A.688.688,0,0,1,.256.1.621.621,0,0,1,.078-.374.619.619,0,0,1,.256-.845.686.686,0,0,1,.751-1.016Z" transform="translate(-0.078 1.016)" fill="#15605f"/>
      </g>
      <g id="Grupo_74" data-name="Grupo 74" transform="translate(26.539 44.856)">
        <path id="Caminho_202" data-name="Caminho 202" d="M.153-.9h.39V.319H.153Zm0-.476h.39v.319H.153Z" transform="translate(-0.153 1.378)" fill="#15605f"/>
      </g>
      <g id="Grupo_75" data-name="Grupo 75" transform="translate(0 47.089)">
        <path id="Caminho_203" data-name="Caminho 203" d="M.983-1.378v.257H.767a.175.175,0,0,0-.116.03.138.138,0,0,0-.032.1V-.9H.953v.279H.619V.319H.229V-.623H.034V-.9H.229V-.987a.37.37,0,0,1,.111-.3.519.519,0,0,1,.345-.1Z" transform="translate(-0.034 1.378)" fill="#15605f"/>
      </g>
      <g id="Grupo_76" data-name="Grupo 76" transform="translate(1.118 47.536)">
        <path id="Caminho_204" data-name="Caminho 204" d="M1.06-.653a.54.54,0,0,0-.1-.035A.427.427,0,0,0,.856-.7a.285.285,0,0,0-.232.1.415.415,0,0,0-.081.275V.235H.153V-.986h.39v.2A.5.5,0,0,1,.715-.96a.465.465,0,0,1,.234-.056l.042,0,.067.006Z" transform="translate(-0.153 1.016)" fill="#15605f"/>
      </g>
      <g id="Grupo_77" data-name="Grupo 77" transform="translate(2.127 47.536)">
        <path id="Caminho_205" data-name="Caminho 205" d="M.751-.737a.23.23,0,0,0-.2.093.45.45,0,0,0-.069.269A.45.45,0,0,0,.553-.1a.231.231,0,0,0,.2.092A.225.225,0,0,0,.946-.1a.452.452,0,0,0,.069-.269A.452.452,0,0,0,.946-.643.225.225,0,0,0,.751-.737Zm0-.279a.681.681,0,0,1,.492.171.623.623,0,0,1,.177.471A.625.625,0,0,1,1.243.1a.683.683,0,0,1-.492.17A.688.688,0,0,1,.256.1.621.621,0,0,1,.078-.374.619.619,0,0,1,.256-.845.686.686,0,0,1,.751-1.016Z" transform="translate(-0.078 1.016)" fill="#15605f"/>
      </g>
      <g id="Grupo_78" data-name="Grupo 78" transform="translate(3.752 47.536)">
        <path id="Caminho_206" data-name="Caminho 206" d="M1.285-.783a.529.529,0,0,1,.176-.173.435.435,0,0,1,.224-.06.4.4,0,0,1,.32.131.565.565,0,0,1,.111.376V.235H1.724V-.43c0-.011,0-.026,0-.045a.347.347,0,0,0-.039-.187.134.134,0,0,0-.122-.059.2.2,0,0,0-.172.092.479.479,0,0,0-.062.264v.6H.937V-.4A.607.607,0,0,0,.9-.662.133.133,0,0,0,.778-.721.2.2,0,0,0,.6-.628a.471.471,0,0,0-.061.263v.6H.151V-.986H.543v.178A.508.508,0,0,1,.708-.964a.414.414,0,0,1,.206-.052.415.415,0,0,1,.224.061.385.385,0,0,1,.147.172Z" transform="translate(-0.151 1.016)" fill="#15605f"/>
      </g>
      <g id="Grupo_79" data-name="Grupo 79" transform="translate(6.701 47.219)">
        <path id="Caminho_207" data-name="Caminho 207" d="M.609-1.273v.347h.4v.279h-.4v.519a.151.151,0,0,0,.034.115.21.21,0,0,0,.133.03h.2V.3H.643A.458.458,0,0,1,.313.2a.456.456,0,0,1-.1-.328V-.647H.024V-.927H.218v-.347Z" transform="translate(-0.024 1.273)" fill="#15605f"/>
      </g>
      <g id="Grupo_80" data-name="Grupo 80" transform="translate(7.927 47.089)">
        <path id="Caminho_208" data-name="Caminho 208" d="M1.381-.425V.319H.988V-.248A2.122,2.122,0,0,0,.981-.468.235.235,0,0,0,.956-.557.159.159,0,0,0,.893-.616.183.183,0,0,0,.8-.637a.226.226,0,0,0-.192.095.426.426,0,0,0-.07.261v.6H.153v-1.7h.39v.654A.624.624,0,0,1,.73-.881.475.475,0,0,1,.949-.932.4.4,0,0,1,1.271-.8a.57.57,0,0,1,.11.376Z" transform="translate(-0.153 1.378)" fill="#15605f"/>
      </g>
      <g id="Grupo_81" data-name="Grupo 81" transform="translate(9.425 47.536)">
        <path id="Caminho_209" data-name="Caminho 209" d="M1.389-.379v.112H.476a.291.291,0,0,0,.1.206A.368.368,0,0,0,.813.007a.919.919,0,0,0,.252-.036A1.333,1.333,0,0,0,1.331-.14v.3a1.646,1.646,0,0,1-.277.079A1.437,1.437,0,0,1,.777.267.737.737,0,0,1,.261.1.609.609,0,0,1,.078-.374a.615.615,0,0,1,.181-.47.69.69,0,0,1,.5-.172.621.621,0,0,1,.461.175.626.626,0,0,1,.173.462Zm-.4-.13A.247.247,0,0,0,.923-.687a.223.223,0,0,0-.17-.069.266.266,0,0,0-.184.064.292.292,0,0,0-.089.183Z" transform="translate(-0.078 1.016)" fill="#15605f"/>
      </g>
      <g id="Grupo_82" data-name="Grupo 82" transform="translate(11.828 47.159)">
        <path id="Caminho_210" data-name="Caminho 210" d="M.167-1.322H.636L1.228-.2V-1.322h.4V.306H1.157L.565-.811V.306h-.4Z" transform="translate(-0.167 1.322)" fill="#15605f"/>
      </g>
      <g id="Grupo_83" data-name="Grupo 83" transform="translate(13.588 47.536)">
        <path id="Caminho_211" data-name="Caminho 211" d="M.751-.737a.23.23,0,0,0-.2.093.45.45,0,0,0-.069.269A.45.45,0,0,0,.553-.1a.231.231,0,0,0,.2.092A.225.225,0,0,0,.946-.1a.452.452,0,0,0,.069-.269A.452.452,0,0,0,.946-.643.225.225,0,0,0,.751-.737Zm0-.279a.681.681,0,0,1,.492.171.623.623,0,0,1,.177.471A.625.625,0,0,1,1.243.1a.683.683,0,0,1-.492.17A.688.688,0,0,1,.256.1.621.621,0,0,1,.078-.374.619.619,0,0,1,.256-.845.686.686,0,0,1,.751-1.016Z" transform="translate(-0.078 1.016)" fill="#15605f"/>
      </g>
      <g id="Grupo_84" data-name="Grupo 84" transform="translate(15.201 47.566)">
        <path id="Caminho_212" data-name="Caminho 212" d="M.142-.246V-.992H.534V-.87c0,.067,0,.15,0,.249s0,.166,0,.2a2.1,2.1,0,0,0,.007.213.246.246,0,0,0,.026.093.172.172,0,0,0,.064.06.188.188,0,0,0,.089.02A.227.227,0,0,0,.91-.128a.428.428,0,0,0,.07-.261v-.6h.39V.23H.979V.053A.614.614,0,0,1,.792.211a.479.479,0,0,1-.218.05A.4.4,0,0,1,.253.131.564.564,0,0,1,.142-.246Z" transform="translate(-0.142 0.992)" fill="#15605f"/>
      </g>
      <g id="Grupo_85" data-name="Grupo 85" transform="translate(16.805 47.536)">
        <path id="Caminho_213" data-name="Caminho 213" d="M1.381-.509V.235H.988v-.57A2.089,2.089,0,0,0,.981-.552.235.235,0,0,0,.956-.641.159.159,0,0,0,.893-.7.183.183,0,0,0,.8-.721a.226.226,0,0,0-.192.095.426.426,0,0,0-.07.261v.6H.153V-.986h.39v.178A.624.624,0,0,1,.73-.965a.475.475,0,0,1,.219-.051.4.4,0,0,1,.322.131.57.57,0,0,1,.11.376Z" transform="translate(-0.153 1.016)" fill="#15605f"/>
      </g>
      <g id="Grupo_86" data-name="Grupo 86" transform="translate(19.19 47.159)">
        <path id="Caminho_214" data-name="Caminho 214" d="M.167-1.322h.7a.725.725,0,0,1,.476.138.48.48,0,0,1,.167.393A.483.483,0,0,1,1.34-.4a.725.725,0,0,1-.476.138H.586V.306H.167Zm.419.3v.455H.819a.271.271,0,0,0,.188-.06.213.213,0,0,0,.067-.168.212.212,0,0,0-.067-.168.276.276,0,0,0-.188-.059Z" transform="translate(-0.167 1.322)" fill="#15605f"/>
      </g>
      <g id="Grupo_87" data-name="Grupo 87" transform="translate(20.81 47.536)">
        <path id="Caminho_215" data-name="Caminho 215" d="M1.06-.653a.54.54,0,0,0-.1-.035A.427.427,0,0,0,.856-.7a.285.285,0,0,0-.232.1.415.415,0,0,0-.081.275V.235H.153V-.986h.39v.2A.5.5,0,0,1,.715-.96a.465.465,0,0,1,.234-.056l.042,0,.067.006Z" transform="translate(-0.153 1.016)" fill="#15605f"/>
      </g>
      <g id="Grupo_88" data-name="Grupo 88" transform="translate(21.819 47.536)">
        <path id="Caminho_216" data-name="Caminho 216" d="M.751-.737a.23.23,0,0,0-.2.093.45.45,0,0,0-.069.269A.45.45,0,0,0,.553-.1a.231.231,0,0,0,.2.092A.225.225,0,0,0,.946-.1a.452.452,0,0,0,.069-.269A.452.452,0,0,0,.946-.643.225.225,0,0,0,.751-.737Zm0-.279a.681.681,0,0,1,.492.171.623.623,0,0,1,.177.471A.625.625,0,0,1,1.243.1a.683.683,0,0,1-.492.17A.688.688,0,0,1,.256.1.621.621,0,0,1,.078-.374.619.619,0,0,1,.256-.845.686.686,0,0,1,.751-1.016Z" transform="translate(-0.078 1.016)" fill="#15605f"/>
      </g>
      <g id="Grupo_89" data-name="Grupo 89" transform="translate(23.183 47.089)">
        <path id="Caminho_217" data-name="Caminho 217" d="M.2-.9h.39V.3A.539.539,0,0,1,.474.672.437.437,0,0,1,.132.8H-.061V.545H.008A.191.191,0,0,0,.16.5.326.326,0,0,0,.2.3Zm0-.476h.39v.319H.2Z" transform="translate(0.061 1.378)" fill="#15605f"/>
      </g>
      <g id="Grupo_90" data-name="Grupo 90" transform="translate(24.12 47.536)">
        <path id="Caminho_218" data-name="Caminho 218" d="M1.389-.379v.112H.476a.291.291,0,0,0,.1.206A.368.368,0,0,0,.813.007a.919.919,0,0,0,.252-.036A1.333,1.333,0,0,0,1.331-.14v.3a1.646,1.646,0,0,1-.277.079A1.437,1.437,0,0,1,.777.267.737.737,0,0,1,.261.1.609.609,0,0,1,.078-.374a.615.615,0,0,1,.181-.47.69.69,0,0,1,.5-.172.621.621,0,0,1,.461.175.626.626,0,0,1,.173.462Zm-.4-.13A.247.247,0,0,0,.923-.687a.223.223,0,0,0-.17-.069.266.266,0,0,0-.184.064.292.292,0,0,0-.089.183Z" transform="translate(-0.078 1.016)" fill="#15605f"/>
      </g>
      <g id="Grupo_91" data-name="Grupo 91" transform="translate(25.635 47.536)">
        <path id="Caminho_219" data-name="Caminho 219" d="M1.156-.948V-.63A.607.607,0,0,0,1-.711.529.529,0,0,0,.831-.737a.338.338,0,0,0-.256.1.369.369,0,0,0-.091.267.371.371,0,0,0,.091.267.339.339,0,0,0,.256.095A.569.569,0,0,0,1-.039.512.512,0,0,0,1.156-.12V.2A1.056,1.056,0,0,1,.97.249,1.04,1.04,0,0,1,.781.267.741.741,0,0,1,.264.1.6.6,0,0,1,.078-.374.607.607,0,0,1,.264-.847a.743.743,0,0,1,.517-.17A1.04,1.04,0,0,1,.97-1a1.043,1.043,0,0,1,.186.051Z" transform="translate(-0.078 1.016)" fill="#15605f"/>
      </g>
      <g id="Grupo_92" data-name="Grupo 92" transform="translate(26.893 47.219)">
        <path id="Caminho_220" data-name="Caminho 220" d="M.609-1.273v.347h.4v.279h-.4v.519a.151.151,0,0,0,.034.115.21.21,0,0,0,.133.03h.2V.3H.643A.458.458,0,0,1,.313.2a.456.456,0,0,1-.1-.328V-.647H.024V-.927H.218v-.347Z" transform="translate(-0.024 1.273)" fill="#15605f"/>
      </g>
    </g>
  </g>
</svg>
