<svg xmlns="http://www.w3.org/2000/svg" xmlns:xlink="http://www.w3.org/1999/xlink" width="45" height="56" viewBox="0 0 45 56">
  <defs>
    <clipPath id="clip-path">
      <rect id="Ret칙ngulo_332" data-name="Ret칙ngulo 332" width="45" height="56" transform="translate(898 2336)" fill="#15605f" stroke="#707070" stroke-width="1"/>
    </clipPath>
  </defs>
  <g id="Grupo_de_m치scara_60" data-name="Grupo de m치scara 60" transform="translate(-898 -2336)" clip-path="url(#clip-path)">
    <g id="noun-brain-2790495" transform="translate(879.916 2331.53)">
      <path id="Caminho_2125" data-name="Caminho 2125" d="M28.1,41.363a.763.763,0,0,0-.76.753.755.755,0,0,0,.76.753,3.977,3.977,0,0,1,3.974,3.967.756.756,0,1,0,1.513,0A5.494,5.494,0,0,0,28.1,41.363Z" fill="#15605f"/>
      <path id="Caminho_2126" data-name="Caminho 2126" d="M31.428,27.947a.763.763,0,0,0-.883-.6.772.772,0,0,0-.611.89,6.821,6.821,0,0,0,2.24,3.864.694.694,0,0,0-.039.286A3.983,3.983,0,0,1,28.415,36.6a.751.751,0,0,0-.708.8.758.758,0,0,0,.753.708h.045a5.462,5.462,0,0,0,5.11-5.013,6.812,6.812,0,0,0,3.078.74,6.409,6.409,0,0,0,1.312-.13.754.754,0,1,0-.286-1.481,5.372,5.372,0,0,1-6.292-4.273Z" fill="#15605f"/>
      <path id="Caminho_2127" data-name="Caminho 2127" d="M53.071,41.363a5.491,5.491,0,0,0-5.487,5.481.756.756,0,1,0,1.513,0,3.971,3.971,0,0,1,3.967-3.967.757.757,0,0,0,.007-1.513Z" fill="#15605f"/>
      <path id="Caminho_2128" data-name="Caminho 2128" d="M63.084,32.344A6.32,6.32,0,0,0,59.96,26.91a6.5,6.5,0,0,0,.24-1.623,6.3,6.3,0,0,0-4.656-6.052,5.37,5.37,0,0,0,.429-2.072,5.491,5.491,0,0,0-5.487-5.481c-.111,0-.2.013-.305.019a13.937,13.937,0,0,0-4.3-2.5,4.168,4.168,0,0,0-3.889.143,3.977,3.977,0,0,0-1.409,1.747,3.949,3.949,0,0,0-1.415-1.747A4.152,4.152,0,0,0,35.286,9.2a14.164,14.164,0,0,0-4.305,2.493c-.1-.006-.195-.019-.3-.019a5.467,5.467,0,0,0-5.065,7.559,6.312,6.312,0,0,0-4.643,6.058,6.491,6.491,0,0,0,.234,1.623,6.251,6.251,0,0,0-1.487,9.63,6.282,6.282,0,0,0,3.247,8.4,5.433,5.433,0,0,0-.357,1.9A5.494,5.494,0,0,0,28.1,52.338c.143,0,.292-.039.435-.052a6.366,6.366,0,0,0,6.13,3.857,6.562,6.562,0,0,0,5.922-3.325A6.552,6.552,0,0,0,46.5,56.143a6.372,6.372,0,0,0,6.13-3.857c.149.013.286.052.442.052a5.494,5.494,0,0,0,5.487-5.493,5.58,5.58,0,0,0-.351-1.9,6.32,6.32,0,0,0,3.818-5.786,6.233,6.233,0,0,0-.584-2.61,6.268,6.268,0,0,0,1.643-4.2ZM39.6,21.247a5.48,5.48,0,0,0-3.98-1.721.757.757,0,0,0,0,1.513,3.973,3.973,0,0,1,3.974,3.967V41.533a5.424,5.424,0,0,0-3.974-1.714.748.748,0,0,0-.753.747.759.759,0,0,0,.753.76,3.968,3.968,0,0,1,3.974,3.967v5.364c0,2.188-2.215,3.967-4.929,3.967-2.416,0-4.454-1.4-4.864-3.312a.753.753,0,0,0-.89-.578H28.9a3.724,3.724,0,0,1-.805.078,3.962,3.962,0,0,1-3.448-5.935.629.629,0,0,0,.033-.117c.006-.019.033-.033.039-.052s0-.052.006-.078a.281.281,0,0,0,.013-.1.817.817,0,0,0-.013-.182c-.013-.039-.026-.072-.039-.1a.815.815,0,0,0-.078-.149.394.394,0,0,0-.078-.1.97.97,0,0,0-.123-.1.287.287,0,0,0-.045-.039.526.526,0,0,1-.169-.072,4.682,4.682,0,0,1-3.24-6.169,6.163,6.163,0,0,0,3.429,1.033.753.753,0,1,0,0-1.507A4.791,4.791,0,0,1,22.37,28h.006c.013,0,.019-.013.033-.019a4.8,4.8,0,0,1,1.974-.422.76.76,0,0,0,0-1.52,6.246,6.246,0,0,0-1.773.286,4.987,4.987,0,0,1-.13-1.039,4.792,4.792,0,0,1,9.078-2.136.761.761,0,1,0,1.364-.675,6.277,6.277,0,0,0-5.643-3.481c-.026,0-.052.006-.078.006a3.953,3.953,0,1,1,7.455-1.838.753.753,0,1,0,1.507,0,5.488,5.488,0,0,0-3.312-5.032A14.26,14.26,0,0,1,35.8,10.624a2.8,2.8,0,0,1,2.546-.013A3.774,3.774,0,0,1,39.6,13.188ZM56.974,43.779c-.019.007-.045.026-.072.039a.6.6,0,0,0-.1.033.288.288,0,0,0-.045.039.69.69,0,0,0-.13.111.62.62,0,0,0-.071.091.551.551,0,0,0-.078.149c-.013.033-.026.065-.039.1a.882.882,0,0,0-.013.182.684.684,0,0,0,.006.111c.006.026,0,.052.006.078s.033.033.039.052c.019.039.019.084.039.117a3.971,3.971,0,0,1-3.448,5.935,3.659,3.659,0,0,1-.8-.078H52.26a.762.762,0,0,0-.9.578c-.4,1.916-2.441,3.312-4.857,3.312-2.714,0-4.922-1.779-4.922-3.967V45.3a3.967,3.967,0,0,1,3.967-3.967.759.759,0,0,0,.753-.76.749.749,0,0,0-.753-.754,5.424,5.424,0,0,0-3.967,1.721V25.013a3.971,3.971,0,0,1,3.967-3.967.76.76,0,0,0,0-1.52,5.431,5.431,0,0,0-3.967,1.727V13.188a3.786,3.786,0,0,1,1.247-2.578,2.8,2.8,0,0,1,2.546.013,14.47,14.47,0,0,1,2.941,1.506,5.463,5.463,0,0,0-2.623,2.37,5.525,5.525,0,0,0-.682,2.662.756.756,0,1,0,1.513,0,3.893,3.893,0,0,1,.5-1.922,3.969,3.969,0,0,1,7.442,1.922A4.019,4.019,0,0,1,53.975,19c-.033,0-.058-.006-.084-.006a6.279,6.279,0,0,0-5.636,3.481.754.754,0,0,0,.337,1.02.77.77,0,0,0,1.02-.344,4.784,4.784,0,0,1,9.065,2.136,4.6,4.6,0,0,1-.123,1.039,6.194,6.194,0,0,0-1.773-.286.757.757,0,0,0,0,1.513,4.787,4.787,0,0,1,1.974.422h.013a.051.051,0,0,0,.026.026h.013a4.791,4.791,0,0,1-2.02,9.136.753.753,0,0,0-.006,1.507,6.239,6.239,0,0,0,3.435-1.032,4.656,4.656,0,0,1,.292,1.545,4.8,4.8,0,0,1-3.533,4.623Z" fill="#15605f"/>
      <path id="Caminho_2129" data-name="Caminho 2129" d="M52.662,38.1h.045a.754.754,0,0,0,.046-1.507,3.992,3.992,0,0,1-3.727-4.214.553.553,0,0,0-.039-.292,6.8,6.8,0,0,0,2.247-3.864.758.758,0,0,0-.6-.883.769.769,0,0,0-.89.6,5.383,5.383,0,0,1-6.3,4.273.751.751,0,0,0-.877.6.735.735,0,0,0,.6.877,6.41,6.41,0,0,0,1.312.13,6.738,6.738,0,0,0,3.071-.74A5.48,5.48,0,0,0,52.662,38.1Z" fill="#15605f"/>
    </g>
  </g>
</svg>
