<svg xmlns="http://www.w3.org/2000/svg" width="481.6" height="481.6" viewBox="0 0 481.6 481.6">
  <g id="noun-question-727767" transform="translate(-109.2 -39.203)">
    <path id="Caminho_2173" data-name="Caminho 2173" d="M350,39.2c-132.79,0-240.8,108.01-240.8,240.8S217.21,520.8,350,520.8,590.8,412.793,590.8,280,482.79,39.2,350,39.2Zm0,33.6a207.2,207.2,0,1,1-207.2,207.2A206.946,206.946,0,0,1,350,72.805Zm0,50.4c-46.871,0-85.168,30.527-94.676,68.6v0a16.8,16.8,0,1,0,32.55,8.227C292.98,179.587,318.394,156.8,350,156.8c15.57,0,31.879,5.719,43.4,15.051S411.6,193.2,411.6,207.2c0,18.387-3.746,26.641-8.75,33.074s-13,11.438-23.449,18.9-22.852,17.766-31.852,34.477S333.2,332.735,333.2,364a16.8,16.8,0,0,0,33.6,0c0-27.535,4.625-43.836,10.324-54.426S389.846,293.188,399,286.649s20.758-13.262,30.449-25.727,15.75-30.113,15.75-53.727c0-25.2-12.938-46.957-30.8-61.426A102.765,102.765,0,0,0,350,123.195Zm.172,268.8a22.4,22.4,0,1,0,22.4,22.4A22.54,22.54,0,0,0,350.172,392Z" fill="#15605f"/>
  </g>
</svg>
