<svg xmlns="http://www.w3.org/2000/svg" xmlns:xlink="http://www.w3.org/1999/xlink" width="89" height="92" viewBox="0 0 89 92">
  <defs>
    <clipPath id="clip-path">
      <rect id="Ret칙ngulo_333" data-name="Ret칙ngulo 333" width="89" height="92" transform="translate(835 2839)" fill="#15605f" stroke="#707070" stroke-width="1"/>
    </clipPath>
  </defs>
  <g id="Grupo_de_m치scara_61" data-name="Grupo de m치scara 61" transform="translate(-835 -2839)" clip-path="url(#clip-path)">
    <g id="noun-x-ray-3868762" transform="translate(823.996 2838.781)">
      <path id="Caminho_2130" data-name="Caminho 2130" d="M96.654,2.219H16.488a2.952,2.952,0,0,0-2.946,2.955V85.349A2.959,2.959,0,0,0,16.5,88.3H96.655a2.959,2.959,0,0,0,2.955-2.955V5.174a2.965,2.965,0,0,0-2.955-2.955Zm2.059,83.122a2.07,2.07,0,0,1-2.068,2.068H16.487a2.07,2.07,0,0,1-2.068-2.068V5.175a2.07,2.07,0,0,1,2.068-2.068H96.645a2.07,2.07,0,0,1,2.068,2.068Z" fill="#15605f"/>
      <path id="Caminho_2131" data-name="Caminho 2131" d="M91.64,9.743H21.5a.439.439,0,0,0-.444.444V68.161a.439.439,0,0,0,.444.444h70.13a.439.439,0,0,0,.444-.444V10.187a.432.432,0,0,0-.435-.444ZM65.16,67.717,70.423,54.1a7.634,7.634,0,0,0,.515-2.8,7.812,7.812,0,0,0-5-7.268,3.676,3.676,0,0,0-4.765,2.112L52.853,67.726h-2.5l7.373-20.162a3,3,0,0,0,.213-1.074,3.1,3.1,0,0,0-1.961-2.919,3.138,3.138,0,0,0-4.029,1.775L43.712,67.717h-2.4a171.212,171.212,0,0,1,4.605-22.034,3.321,3.321,0,0,0-1-3.346C32.185,30.812,29.062,17.713,28.351,10.632H37.11L52.417,29.577A5.71,5.71,0,0,0,51.1,35.788,5.461,5.461,0,0,0,54.317,38.8a6.1,6.1,0,0,0,2.1.373,6.37,6.37,0,0,0,2.476-.506,6.134,6.134,0,0,0,3.718-4.694,6.384,6.384,0,0,0,3.292-.453A5.9,5.9,0,0,0,69.26,25.93a5.485,5.485,0,0,0-3.2-3.017,6.225,6.225,0,0,0-4.455.08l-10.55-12.36H64.6c6.158,8.616,13.577,20.081,14.332,26.188.834,6.691-4.934,22.1-8.537,30.9Zm-11.358,0,8.191-21.263a2.79,2.79,0,0,1,3.62-1.6A6.844,6.844,0,0,1,70.049,51.3a6.677,6.677,0,0,1-.462,2.484L64.2,67.716Zm-9.14,0,8.119-22.051a2.212,2.212,0,0,1,4.278.816,2.189,2.189,0,0,1-.16.781L49.409,67.718ZM65.56,32.7a5.4,5.4,0,0,1-3.248.319.45.45,0,0,0-.364.08.4.4,0,0,0-.169.328,5.2,5.2,0,0,1-3.221,4.419,5.31,5.31,0,0,1-3.922.116,4.638,4.638,0,0,1-2.7-2.52,4.857,4.857,0,0,1,1.393-5.493.444.444,0,0,0,.053-.612L38.255,10.632H49.88l11.261,13.2a.438.438,0,0,0,.568.089c.035-.018.071-.035.116-.053a5.334,5.334,0,0,1,3.931-.116,4.626,4.626,0,0,1,2.7,2.529A5.008,5.008,0,0,1,65.56,32.7ZM21.946,10.632h5.519c.7,7.2,3.851,20.6,16.869,32.363a2.408,2.408,0,0,1,.737,2.449,171.694,171.694,0,0,0-4.65,22.273H21.947ZM91.2,67.717H71.355c4.366-10.693,9.273-24.52,8.457-31.006-.763-6.176-7.986-17.447-14.127-26.081h25.5V67.716Z" fill="#15605f"/>
      <path id="Caminho_2132" data-name="Caminho 2132" d="M88.774,74.692A3.31,3.31,0,1,0,92.084,78,3.31,3.31,0,0,0,88.774,74.692Zm0,5.733A2.423,2.423,0,1,1,91.2,78,2.42,2.42,0,0,1,88.774,80.424Z" fill="#15605f"/>
      <path id="Caminho_2133" data-name="Caminho 2133" d="M78.7,74.692A3.31,3.31,0,1,0,82.013,78,3.31,3.31,0,0,0,78.7,74.692Zm0,5.733A2.423,2.423,0,1,1,81.126,78,2.426,2.426,0,0,1,78.7,80.424Z" fill="#15605f"/>
      <path id="Caminho_2134" data-name="Caminho 2134" d="M68.63,74.692A3.31,3.31,0,1,0,71.94,78,3.31,3.31,0,0,0,68.63,74.692Zm0,5.733A2.423,2.423,0,1,1,71.053,78,2.42,2.42,0,0,1,68.63,80.424Z" fill="#15605f"/>
      <path id="Caminho_2135" data-name="Caminho 2135" d="M49.721,74.7H24.368a3.31,3.31,0,1,0,0,6.619H49.721a3.31,3.31,0,1,0,0-6.619Zm0,5.724H24.368a2.423,2.423,0,0,1,0-4.845H49.721a2.423,2.423,0,1,1,0,4.845Z" fill="#15605f"/>
      <path id="Caminho_2136" data-name="Caminho 2136" d="M70.858,30.713a.447.447,0,0,0-.541.408,9.843,9.843,0,0,1-4.153,7.552.462.462,0,0,0-.186.364.446.446,0,0,0,.2.364A17.334,17.334,0,0,1,71.6,46.5a.452.452,0,0,0,.258.239.416.416,0,0,0,.151.027.527.527,0,0,0,.2-.044c2.307-1.18,3.088-5,2.84-8.253-.266-3.46-1.66-7.187-4.2-7.755Zm1.349,14.953a18.582,18.582,0,0,0-5.031-6.646,10.661,10.661,0,0,0,3.993-7.268c1.7.843,2.8,3.922,3.008,6.762C74.416,41.743,73.617,44.566,72.207,45.666Z" fill="#15605f"/>
      <g id="Grupo_1482" data-name="Grupo 1482" transform="translate(11.314 103.824)">
        <path id="Caminho_2137" data-name="Caminho 2137" d="M2.973-.177A2.125,2.125,0,0,1,2.493,0a2.173,2.173,0,0,1-.518.061A1.771,1.771,0,0,1,.695-.389,1.615,1.615,0,0,1,.222-1.614,1.619,1.619,0,0,1,.695-2.841a1.774,1.774,0,0,1,1.28-.452,2.173,2.173,0,0,1,.518.061,2.156,2.156,0,0,1,.48.179v.669a1.881,1.881,0,0,0-.457-.23,1.478,1.478,0,0,0-.475-.076.889.889,0,0,0-.7.288,1.14,1.14,0,0,0-.255.788,1.144,1.144,0,0,0,.255.788.892.892,0,0,0,.7.285,1.513,1.513,0,0,0,.475-.073,1.917,1.917,0,0,0,.457-.232Z" fill="#15605f"/>
      </g>
      <g id="Grupo_1483" data-name="Grupo 1483" transform="translate(14.57 103.824)">
        <path id="Caminho_2138" data-name="Caminho 2138" d="M2.174-1.765a1,1,0,0,0-.2-.071.922.922,0,0,0-.2-.023.568.568,0,0,0-.46.192.827.827,0,0,0-.162.548V0H.374V-2.427h.775v.4a.988.988,0,0,1,.341-.346.929.929,0,0,1,.467-.111.815.815,0,0,1,.083.005c.03,0,.074.006.131.013Z" fill="#15605f"/>
      </g>
      <g id="Grupo_1484" data-name="Grupo 1484" transform="translate(16.759 103.824)">
        <path id="Caminho_2139" data-name="Caminho 2139" d="M2.8-1.22V-1H.982a.572.572,0,0,0,.2.409.733.733,0,0,0,.472.136,1.8,1.8,0,0,0,.5-.073,2.6,2.6,0,0,0,.528-.22v.6A3.353,3.353,0,0,1,2.129.01a2.909,2.909,0,0,1-.551.053A1.463,1.463,0,0,1,.556-.27a1.213,1.213,0,0,1-.366-.942,1.22,1.22,0,0,1,.359-.932,1.374,1.374,0,0,1,.987-.341,1.235,1.235,0,0,1,.917.346A1.244,1.244,0,0,1,2.8-1.22ZM2-1.477a.493.493,0,0,0-.129-.356.442.442,0,0,0-.336-.136.526.526,0,0,0-.369.129.59.59,0,0,0-.174.364Z" fill="#15605f"/>
      </g>
      <g id="Grupo_1485" data-name="Grupo 1485" transform="translate(19.768 103.824)">
        <path id="Caminho_2140" data-name="Caminho 2140" d="M1.46-1.091a.657.657,0,0,0-.366.083.27.27,0,0,0-.121.24.287.287,0,0,0,.1.232.413.413,0,0,0,.275.083.485.485,0,0,0,.366-.157A.549.549,0,0,0,1.864-1v-.088Zm1.187-.293V0H1.864V-.359a1.012,1.012,0,0,1-.351.321,1.027,1.027,0,0,1-.475.1.866.866,0,0,1-.614-.22A.746.746,0,0,1,.189-.727a.7.7,0,0,1,.293-.626,1.685,1.685,0,0,1,.924-.2h.457v-.061a.292.292,0,0,0-.146-.27.918.918,0,0,0-.452-.086A2.036,2.036,0,0,0,.8-1.919a1.609,1.609,0,0,0-.4.149v-.591a4.222,4.222,0,0,1,.5-.091,3.983,3.983,0,0,1,.505-.033,1.406,1.406,0,0,1,.947.26,1.069,1.069,0,0,1,.293.841Z" fill="#15605f"/>
      </g>
      <g id="Grupo_1486" data-name="Grupo 1486" transform="translate(22.762 103.824)">
        <path id="Caminho_2141" data-name="Caminho 2141" d="M1.22-3.116v.689h.8v.556h-.8V-.843a.307.307,0,0,0,.066.23.432.432,0,0,0,.268.058h.4V0H1.288A.9.9,0,0,1,.636-.192.9.9,0,0,1,.444-.843V-1.871H.058v-.556H.444v-.689Z" fill="#15605f"/>
      </g>
      <g id="Grupo_1487" data-name="Grupo 1487" transform="translate(24.883 103.824)">
        <path id="Caminho_2142" data-name="Caminho 2142" d="M2.8-1.22V-1H.982a.572.572,0,0,0,.2.409.733.733,0,0,0,.472.136,1.8,1.8,0,0,0,.5-.073,2.6,2.6,0,0,0,.528-.22v.6A3.353,3.353,0,0,1,2.129.01a2.909,2.909,0,0,1-.551.053A1.463,1.463,0,0,1,.556-.27a1.213,1.213,0,0,1-.366-.942,1.22,1.22,0,0,1,.359-.932,1.374,1.374,0,0,1,.987-.341,1.235,1.235,0,0,1,.917.346A1.244,1.244,0,0,1,2.8-1.22ZM2-1.477a.493.493,0,0,0-.129-.356.442.442,0,0,0-.336-.136.526.526,0,0,0-.369.129.59.59,0,0,0-.174.364Z" fill="#15605f"/>
      </g>
      <g id="Grupo_1488" data-name="Grupo 1488" transform="translate(27.892 103.824)">
        <path id="Caminho_2143" data-name="Caminho 2143" d="M2.023-2.071v-1.3H2.8V0h-.78V-.351a1.043,1.043,0,0,1-.354.316.962.962,0,0,1-.444.1A.906.906,0,0,1,.487-.293,1.416,1.416,0,0,1,.2-1.212a1.412,1.412,0,0,1,.288-.917.906.906,0,0,1,.737-.356.957.957,0,0,1,.444.1,1.061,1.061,0,0,1,.354.313ZM1.513-.5a.439.439,0,0,0,.379-.182.9.9,0,0,0,.131-.53.9.9,0,0,0-.131-.528.439.439,0,0,0-.379-.182.438.438,0,0,0-.379.182A.894.894,0,0,0,1-1.212a.9.9,0,0,0,.131.53A.438.438,0,0,0,1.513-.5Z" fill="#15605f"/>
      </g>
      <g id="Grupo_1489" data-name="Grupo 1489" transform="translate(32.613 103.824)">
        <path id="Caminho_2144" data-name="Caminho 2144" d="M1.664-.5a.435.435,0,0,0,.379-.182.9.9,0,0,0,.131-.53.9.9,0,0,0-.131-.528.435.435,0,0,0-.379-.182.446.446,0,0,0-.384.184.889.889,0,0,0-.131.525.9.9,0,0,0,.131.53A.448.448,0,0,0,1.664-.5ZM1.149-2.071A1.055,1.055,0,0,1,1.5-2.384a.976.976,0,0,1,.45-.1.907.907,0,0,1,.737.356,1.412,1.412,0,0,1,.288.917,1.416,1.416,0,0,1-.288.919.907.907,0,0,1-.737.356.976.976,0,0,1-.45-.1,1.048,1.048,0,0,1-.354-.313V0H.374V-3.371h.775Z" fill="#15605f"/>
      </g>
      <g id="Grupo_1490" data-name="Grupo 1490" transform="translate(35.789 103.824)">
        <path id="Caminho_2145" data-name="Caminho 2145" d="M.053-2.427H.831L1.482-.78l.553-1.647h.778L1.791.23A1.278,1.278,0,0,1,1.432.8a.85.85,0,0,1-.54.162H.444V.45H.687A.5.5,0,0,0,.972.386.418.418,0,0,0,1.114.159L1.136.093Z" fill="#15605f"/>
      </g>
      <g id="Grupo_1491" data-name="Grupo 1491" transform="translate(40.226 103.824)">
        <path id="Caminho_2146" data-name="Caminho 2146" d="M2.371-.588H1.066L.861,0H.023l1.2-3.235h1L3.412,0H2.573Zm-1.1-.6h.886L1.717-2.478Z" fill="#15605f"/>
      </g>
      <g id="Grupo_1492" data-name="Grupo 1492" transform="translate(43.659 103.824)">
        <path id="Caminho_2147" data-name="Caminho 2147" d="M.253-2.427H2.371v.543L1.091-.556h1.28V0H.2v-.54L1.477-1.871H.252Z" fill="#15605f"/>
      </g>
      <g id="Grupo_1493" data-name="Grupo 1493" transform="translate(46.242 103.824)">
        <path id="Caminho_2148" data-name="Caminho 2148" d="M1.46-1.091a.657.657,0,0,0-.366.083.27.27,0,0,0-.121.24.287.287,0,0,0,.1.232.413.413,0,0,0,.275.083.485.485,0,0,0,.366-.157A.549.549,0,0,0,1.864-1v-.088Zm1.187-.293V0H1.864V-.359a1.012,1.012,0,0,1-.351.321,1.027,1.027,0,0,1-.475.1.866.866,0,0,1-.614-.22A.746.746,0,0,1,.189-.727a.7.7,0,0,1,.293-.626,1.685,1.685,0,0,1,.924-.2h.457v-.061a.292.292,0,0,0-.146-.27.918.918,0,0,0-.452-.086A2.036,2.036,0,0,0,.8-1.919a1.609,1.609,0,0,0-.4.149v-.591a4.222,4.222,0,0,1,.5-.091,3.983,3.983,0,0,1,.505-.033,1.406,1.406,0,0,1,.947.26,1.069,1.069,0,0,1,.293.841Z" fill="#15605f"/>
      </g>
      <g id="Grupo_1494" data-name="Grupo 1494" transform="translate(49.236 103.824)">
        <path id="Caminho_2149" data-name="Caminho 2149" d="M2.622-2.023a1.021,1.021,0,0,1,.349-.343.877.877,0,0,1,.447-.119.787.787,0,0,1,.636.258,1.126,1.126,0,0,1,.22.75V0h-.78V-1.265c0-.018,0-.038,0-.058s0-.049,0-.086a.7.7,0,0,0-.076-.374A.272.272,0,0,0,3.177-1.9a.389.389,0,0,0-.343.182.986.986,0,0,0-.124.525V0H1.93V-1.265a1.183,1.183,0,0,0-.071-.518A.261.261,0,0,0,1.614-1.9a.388.388,0,0,0-.343.184.936.936,0,0,0-.121.52V0H.369V-2.427h.78v.356a.985.985,0,0,1,.326-.311.831.831,0,0,1,.409-.1.816.816,0,0,1,.444.121.756.756,0,0,1,.293.341Z" fill="#15605f"/>
      </g>
      <g id="Grupo_1495" data-name="Grupo 1495" transform="translate(55.404 103.824)">
        <path id="Caminho_2150" data-name="Caminho 2150" d="M.407-3.235h.836V0H.407Z" fill="#15605f"/>
      </g>
      <g id="Grupo_1496" data-name="Grupo 1496" transform="translate(57.055 103.824)">
        <path id="Caminho_2151" data-name="Caminho 2151" d="M2.268-2.351v.591a2.7,2.7,0,0,0-.48-.157,1.983,1.983,0,0,0-.439-.053.753.753,0,0,0-.328.056.18.18,0,0,0-.106.169A.159.159,0,0,0,.995-1.6a.744.744,0,0,0,.293.073l.136.02a1.628,1.628,0,0,1,.8.25.668.668,0,0,1,.207.543.661.661,0,0,1-.288.583A1.521,1.521,0,0,1,1.29.063a3.415,3.415,0,0,1-.5-.038A4.248,4.248,0,0,1,.268-.088V-.679A2.221,2.221,0,0,0,.74-.508a2.226,2.226,0,0,0,.5.056.719.719,0,0,0,.341-.063A.2.2,0,0,0,1.695-.7a.17.17,0,0,0-.081-.154A.859.859,0,0,0,1.3-.937L1.164-.952a1.45,1.45,0,0,1-.727-.24A.664.664,0,0,1,.23-1.727.653.653,0,0,1,.492-2.3,1.418,1.418,0,0,1,1.3-2.485a3.322,3.322,0,0,1,.45.033,5.219,5.219,0,0,1,.515.1Z" fill="#15605f"/>
      </g>
      <g id="Grupo_1497" data-name="Grupo 1497" transform="translate(59.696 103.824)">
        <path id="Caminho_2152" data-name="Caminho 2152" d="M2.813-1.477V0h-.78V-1.126a4.116,4.116,0,0,0-.015-.437A.434.434,0,0,0,1.97-1.74a.309.309,0,0,0-.124-.116A.364.364,0,0,0,1.669-1.9a.449.449,0,0,0-.381.187.852.852,0,0,0-.139.518V0H.374V-3.371h.775v1.3a1.2,1.2,0,0,1,.371-.313.947.947,0,0,1,.437-.1.787.787,0,0,1,.636.258,1.126,1.126,0,0,1,.22.75Z" fill="#15605f"/>
      </g>
      <g id="Grupo_1498" data-name="Grupo 1498" transform="translate(62.854 103.824)">
        <path id="Caminho_2153" data-name="Caminho 2153" d="M1.46-1.091a.657.657,0,0,0-.366.083.27.27,0,0,0-.121.24.287.287,0,0,0,.1.232.413.413,0,0,0,.275.083.485.485,0,0,0,.366-.157A.549.549,0,0,0,1.864-1v-.088Zm1.187-.293V0H1.864V-.359a1.012,1.012,0,0,1-.351.321,1.027,1.027,0,0,1-.475.1.866.866,0,0,1-.614-.22A.746.746,0,0,1,.189-.727a.7.7,0,0,1,.293-.626,1.685,1.685,0,0,1,.924-.2h.457v-.061a.292.292,0,0,0-.146-.27.918.918,0,0,0-.452-.086A2.036,2.036,0,0,0,.8-1.919a1.609,1.609,0,0,0-.4.149v-.591a4.222,4.222,0,0,1,.5-.091,3.983,3.983,0,0,1,.505-.033,1.406,1.406,0,0,1,.947.26,1.069,1.069,0,0,1,.293.841Z" fill="#15605f"/>
      </g>
      <g id="Grupo_1499" data-name="Grupo 1499" transform="translate(65.849 103.824)">
        <path id="Caminho_2154" data-name="Caminho 2154" d="M1.513-1.922a.438.438,0,0,0-.379.182A.894.894,0,0,0,1-1.212a.9.9,0,0,0,.131.53A.438.438,0,0,0,1.513-.5a.439.439,0,0,0,.379-.182.9.9,0,0,0,.131-.53.9.9,0,0,0-.131-.528A.439.439,0,0,0,1.513-1.922Zm.51,1.571a1.043,1.043,0,0,1-.354.316.962.962,0,0,1-.444.1A.906.906,0,0,1,.487-.293,1.416,1.416,0,0,1,.2-1.212a1.4,1.4,0,0,1,.288-.914.909.909,0,0,1,.737-.354.947.947,0,0,1,.444.1,1.028,1.028,0,0,1,.354.313v-.361H2.8V.922h-.78Z" fill="#15605f"/>
      </g>
      <g id="Grupo_1500" data-name="Grupo 1500" transform="translate(11.314 108.262)">
        <path id="Caminho_2155" data-name="Caminho 2155" d="M1.97-3.371v.51H1.541a.338.338,0,0,0-.23.061.263.263,0,0,0-.066.2v.169h.664v.556H1.245V0H.47V-1.871H.083v-.556H.47V-2.6a.733.733,0,0,1,.22-.586,1.041,1.041,0,0,1,.687-.189Z" fill="#15605f"/>
      </g>
      <g id="Grupo_1501" data-name="Grupo 1501" transform="translate(13.244 108.262)">
        <path id="Caminho_2156" data-name="Caminho 2156" d="M2.174-1.765a1,1,0,0,0-.2-.071.922.922,0,0,0-.2-.023.568.568,0,0,0-.46.192.827.827,0,0,0-.162.548V0H.374V-2.427h.775v.4a.988.988,0,0,1,.341-.346.929.929,0,0,1,.467-.111.815.815,0,0,1,.083.005c.03,0,.074.006.131.013Z" fill="#15605f"/>
      </g>
      <g id="Grupo_1502" data-name="Grupo 1502" transform="translate(15.433 108.262)">
        <path id="Caminho_2157" data-name="Caminho 2157" d="M1.528-1.93a.461.461,0,0,0-.394.184A.887.887,0,0,0,1-1.212a.89.89,0,0,0,.136.535.46.46,0,0,0,.394.184.449.449,0,0,0,.386-.184.89.89,0,0,0,.136-.535.887.887,0,0,0-.136-.533A.45.45,0,0,0,1.528-1.93Zm0-.556a1.352,1.352,0,0,1,.977.338,1.234,1.234,0,0,1,.354.934,1.236,1.236,0,0,1-.354.937,1.349,1.349,0,0,1-.977.338A1.37,1.37,0,0,1,.543-.275a1.234,1.234,0,0,1-.354-.937,1.232,1.232,0,0,1,.354-.934A1.373,1.373,0,0,1,1.528-2.485Z" fill="#15605f"/>
      </g>
      <g id="Grupo_1503" data-name="Grupo 1503" transform="translate(18.481 108.262)">
        <path id="Caminho_2158" data-name="Caminho 2158" d="M2.622-2.023a1.021,1.021,0,0,1,.349-.343.877.877,0,0,1,.447-.119.787.787,0,0,1,.636.258,1.126,1.126,0,0,1,.22.75V0h-.78V-1.265c0-.018,0-.038,0-.058s0-.049,0-.086a.7.7,0,0,0-.076-.374A.272.272,0,0,0,3.177-1.9a.389.389,0,0,0-.343.182.986.986,0,0,0-.124.525V0H1.93V-1.265a1.183,1.183,0,0,0-.071-.518A.261.261,0,0,0,1.614-1.9a.388.388,0,0,0-.343.184.936.936,0,0,0-.121.52V0H.369V-2.427h.78v.356a.985.985,0,0,1,.326-.311.831.831,0,0,1,.409-.1.816.816,0,0,1,.444.121.756.756,0,0,1,.293.341Z" fill="#15605f"/>
      </g>
      <g id="Grupo_1504" data-name="Grupo 1504" transform="translate(24.649 108.262)">
        <path id="Caminho_2159" data-name="Caminho 2159" d="M1.22-3.116v.689h.8v.556h-.8V-.843a.307.307,0,0,0,.066.23.432.432,0,0,0,.268.058h.4V0H1.288A.9.9,0,0,1,.636-.192.9.9,0,0,1,.444-.843V-1.871H.058v-.556H.444v-.689Z" fill="#15605f"/>
      </g>
      <g id="Grupo_1505" data-name="Grupo 1505" transform="translate(26.77 108.262)">
        <path id="Caminho_2160" data-name="Caminho 2160" d="M2.813-1.477V0h-.78V-1.126a4.116,4.116,0,0,0-.015-.437A.434.434,0,0,0,1.97-1.74a.309.309,0,0,0-.124-.116A.364.364,0,0,0,1.669-1.9a.449.449,0,0,0-.381.187.852.852,0,0,0-.139.518V0H.374V-3.371h.775v1.3a1.2,1.2,0,0,1,.371-.313.947.947,0,0,1,.437-.1.787.787,0,0,1,.636.258,1.126,1.126,0,0,1,.22.75Z" fill="#15605f"/>
      </g>
      <g id="Grupo_1506" data-name="Grupo 1506" transform="translate(29.928 108.262)">
        <path id="Caminho_2161" data-name="Caminho 2161" d="M2.8-1.22V-1H.982a.572.572,0,0,0,.2.409.733.733,0,0,0,.472.136,1.8,1.8,0,0,0,.5-.073,2.6,2.6,0,0,0,.528-.22v.6A3.353,3.353,0,0,1,2.129.01a2.909,2.909,0,0,1-.551.053A1.463,1.463,0,0,1,.556-.27a1.213,1.213,0,0,1-.366-.942,1.22,1.22,0,0,1,.359-.932,1.374,1.374,0,0,1,.987-.341,1.235,1.235,0,0,1,.917.346A1.244,1.244,0,0,1,2.8-1.22ZM2-1.477a.493.493,0,0,0-.129-.356.442.442,0,0,0-.336-.136.526.526,0,0,0-.369.129.59.59,0,0,0-.174.364Z" fill="#15605f"/>
      </g>
      <g id="Grupo_1507" data-name="Grupo 1507" transform="translate(34.482 108.262)">
        <path id="Caminho_2162" data-name="Caminho 2162" d="M.407-3.235h.932l1.177,2.22v-2.22h.79V0H2.374L1.2-2.22V0H.407Z" fill="#15605f"/>
      </g>
      <g id="Grupo_1508" data-name="Grupo 1508" transform="translate(38.196 108.262)">
        <path id="Caminho_2163" data-name="Caminho 2163" d="M1.528-1.93a.461.461,0,0,0-.394.184A.887.887,0,0,0,1-1.212a.89.89,0,0,0,.136.535.46.46,0,0,0,.394.184.449.449,0,0,0,.386-.184.89.89,0,0,0,.136-.535.887.887,0,0,0-.136-.533A.45.45,0,0,0,1.528-1.93Zm0-.556a1.352,1.352,0,0,1,.977.338,1.234,1.234,0,0,1,.354.934,1.236,1.236,0,0,1-.354.937,1.349,1.349,0,0,1-.977.338A1.37,1.37,0,0,1,.543-.275a1.234,1.234,0,0,1-.354-.937,1.232,1.232,0,0,1,.354-.934A1.373,1.373,0,0,1,1.528-2.485Z" fill="#15605f"/>
      </g>
      <g id="Grupo_1509" data-name="Grupo 1509" transform="translate(41.244 108.262)">
        <path id="Caminho_2164" data-name="Caminho 2164" d="M.346-.945V-2.427h.78v.242c0,.131,0,.3,0,.495s0,.332,0,.4a4.072,4.072,0,0,0,.015.422.451.451,0,0,0,.053.187.321.321,0,0,0,.124.116.376.376,0,0,0,.177.04A.451.451,0,0,0,1.871-.71a.854.854,0,0,0,.139-.518v-1.2h.775V0H2.01V-.351a1.188,1.188,0,0,1-.371.313.938.938,0,0,1-.432.1A.8.8,0,0,1,.566-.194a1.126,1.126,0,0,1-.22-.75Z" fill="#15605f"/>
      </g>
      <g id="Grupo_1510" data-name="Grupo 1510" transform="translate(44.403 108.262)">
        <path id="Caminho_2165" data-name="Caminho 2165" d="M2.813-1.477V0h-.78V-1.131a4.051,4.051,0,0,0-.015-.432A.434.434,0,0,0,1.97-1.74a.309.309,0,0,0-.124-.116A.364.364,0,0,0,1.669-1.9a.449.449,0,0,0-.381.187.852.852,0,0,0-.139.518V0H.374V-2.427h.775v.356a1.2,1.2,0,0,1,.371-.313.947.947,0,0,1,.437-.1.787.787,0,0,1,.636.258,1.126,1.126,0,0,1,.22.75Z" fill="#15605f"/>
      </g>
      <g id="Grupo_1511" data-name="Grupo 1511" transform="translate(49.106 108.262)">
        <path id="Caminho_2166" data-name="Caminho 2166" d="M.407-3.235H1.791a1.451,1.451,0,0,1,.95.275.955.955,0,0,1,.331.78.964.964,0,0,1-.331.785,1.458,1.458,0,0,1-.95.273H1.243V0H.407Zm.836.6v.9H1.7a.545.545,0,0,0,.374-.116A.425.425,0,0,0,2.21-2.18a.419.419,0,0,0-.134-.333A.54.54,0,0,0,1.7-2.632Z" fill="#15605f"/>
      </g>
      <g id="Grupo_1512" data-name="Grupo 1512" transform="translate(52.358 108.262)">
        <path id="Caminho_2167" data-name="Caminho 2167" d="M2.174-1.765a1,1,0,0,0-.2-.071.922.922,0,0,0-.2-.023.568.568,0,0,0-.46.192.827.827,0,0,0-.162.548V0H.374V-2.427h.775v.4a.988.988,0,0,1,.341-.346.929.929,0,0,1,.467-.111.815.815,0,0,1,.083.005c.03,0,.074.006.131.013Z" fill="#15605f"/>
      </g>
      <g id="Grupo_1513" data-name="Grupo 1513" transform="translate(54.546 108.262)">
        <path id="Caminho_2168" data-name="Caminho 2168" d="M1.528-1.93a.461.461,0,0,0-.394.184A.887.887,0,0,0,1-1.212a.89.89,0,0,0,.136.535.46.46,0,0,0,.394.184.449.449,0,0,0,.386-.184.89.89,0,0,0,.136-.535.887.887,0,0,0-.136-.533A.45.45,0,0,0,1.528-1.93Zm0-.556a1.352,1.352,0,0,1,.977.338,1.234,1.234,0,0,1,.354.934,1.236,1.236,0,0,1-.354.937,1.349,1.349,0,0,1-.977.338A1.37,1.37,0,0,1,.543-.275a1.234,1.234,0,0,1-.354-.937,1.232,1.232,0,0,1,.354-.934A1.373,1.373,0,0,1,1.528-2.485Z" fill="#15605f"/>
      </g>
      <g id="Grupo_1514" data-name="Grupo 1514" transform="translate(57.594 108.262)">
        <path id="Caminho_2169" data-name="Caminho 2169" d="M.374-2.427h.775V-.043A1.061,1.061,0,0,1,.914.7.87.87,0,0,1,.237.957H-.146V.449h.134a.378.378,0,0,0,.3-.1A.643.643,0,0,0,.374-.043Zm0-.945h.775v.634H.374Z" fill="#15605f"/>
      </g>
      <g id="Grupo_1515" data-name="Grupo 1515" transform="translate(59.115 108.262)">
        <path id="Caminho_2170" data-name="Caminho 2170" d="M2.8-1.22V-1H.982a.572.572,0,0,0,.2.409.733.733,0,0,0,.472.136,1.8,1.8,0,0,0,.5-.073,2.6,2.6,0,0,0,.528-.22v.6A3.353,3.353,0,0,1,2.129.01a2.909,2.909,0,0,1-.551.053A1.463,1.463,0,0,1,.556-.27a1.213,1.213,0,0,1-.366-.942,1.22,1.22,0,0,1,.359-.932,1.374,1.374,0,0,1,.987-.341,1.235,1.235,0,0,1,.917.346A1.244,1.244,0,0,1,2.8-1.22ZM2-1.477a.493.493,0,0,0-.129-.356.442.442,0,0,0-.336-.136.526.526,0,0,0-.369.129.59.59,0,0,0-.174.364Z" fill="#15605f"/>
      </g>
      <g id="Grupo_1516" data-name="Grupo 1516" transform="translate(62.125 108.262)">
        <path id="Caminho_2171" data-name="Caminho 2171" d="M2.334-2.351v.634a1.25,1.25,0,0,0-.318-.159,1.04,1.04,0,0,0-.331-.053.666.666,0,0,0-.505.189A.731.731,0,0,0,1-1.212a.735.735,0,0,0,.182.53.667.667,0,0,0,.505.189,1.106,1.106,0,0,0,.346-.053,1.047,1.047,0,0,0,.3-.162v.636a2.175,2.175,0,0,1-.371.1,2.03,2.03,0,0,1-.374.035A1.475,1.475,0,0,1,.561-.273a1.207,1.207,0,0,1-.371-.939,1.2,1.2,0,0,1,.371-.934,1.47,1.47,0,0,1,1.028-.338,2,2,0,0,1,.374.035,2.337,2.337,0,0,1,.371.1Z" fill="#15605f"/>
      </g>
      <g id="Grupo_1517" data-name="Grupo 1517" transform="translate(64.755 108.262)">
        <path id="Caminho_2172" data-name="Caminho 2172" d="M1.22-3.116v.689h.8v.556h-.8V-.843a.307.307,0,0,0,.066.23.432.432,0,0,0,.268.058h.4V0H1.288A.9.9,0,0,1,.636-.192.9.9,0,0,1,.444-.843V-1.871H.058v-.556H.444v-.689Z" fill="#15605f"/>
      </g>
    </g>
  </g>
</svg>
