<svg xmlns="http://www.w3.org/2000/svg" xmlns:xlink="http://www.w3.org/1999/xlink" width="68.362" height="54.689" viewBox="0 0 68.362 54.689">
  <defs>
    <clipPath id="clip-path">
      <rect id="Ret칙ngulo_334" data-name="Ret칙ngulo 334" width="68.362" height="54.689" transform="translate(-814 7608)" fill="#368f48" stroke="#707070" stroke-width="1"/>
    </clipPath>
  </defs>
  <g id="Grupo_de_m치scara_62" data-name="Grupo de m치scara 62" transform="translate(814 -7608)" clip-path="url(#clip-path)">
    <g id="noun-whatsapp-988426" transform="translate(-807.711 7608)">
      <path id="Caminho_2174" data-name="Caminho 2174" d="M22.16,10a1.166,1.166,0,0,0-.26.056,8.987,8.987,0,0,0-5.532,4.121,9.32,9.32,0,0,0-.705,6.293c.869,4.457,3.952,9.247,7.852,13.235s8.6,7.182,13.088,8.113a9.494,9.494,0,0,0,6.4-.668,9.637,9.637,0,0,0,4.418-5.588,1.188,1.188,0,0,0-.482-1.392l-8.465-5.309-.019-.018a2.239,2.239,0,0,0-.538-.242h-.037c-.031-.007-.062-.013-.093-.018h-.019a1.182,1.182,0,0,0-.575.111,1.134,1.134,0,0,0-.186.111,1.187,1.187,0,0,0-.111.075l-.037.056a1.241,1.241,0,0,0-.13.13l-1.856,1.875c-3.366-1.694-5.954-4.534-8.28-8.372l1.708-1.689h0a1.09,1.09,0,0,0,.093-.093c.026-.024.051-.048.075-.074v-.018c.026-.024.051-.048.074-.075V20.6c.013-.018.025-.037.037-.056l.037-.037c.014-.03.026-.061.037-.093v-.018l.018-.037c.013-.024.026-.049.037-.074s.014-.062.019-.093V20.17c.008-.036.014-.074.019-.111v-.019c0-.031,0-.062,0-.093v-.018c0-.031,0-.062,0-.093V19.8c0-.031-.011-.062-.019-.093v-.019a1.223,1.223,0,0,0-.074-.2v-.019a1.241,1.241,0,0,0-.075-.148l-.019-.037h0l-.019-.019-5.291-8.688A1.188,1.188,0,0,0,22.272,10c-.037,0-.074,0-.111,0Zm-.427,2.618,4.325,7.147-1.8,1.782a1.188,1.188,0,0,0-.186,1.429c2.748,4.759,6,8.461,10.563,10.47a1.187,1.187,0,0,0,1.318-.241l1.912-1.912,6.98,4.362a6.6,6.6,0,0,1-2.933,3.379,7.123,7.123,0,0,1-4.827.445c-3.722-.772-8.217-3.7-11.881-7.444s-6.5-8.3-7.221-12.011a6.975,6.975,0,0,1,.483-4.715,6.012,6.012,0,0,1,3.267-2.692Z" transform="translate(-1.817 0.107)" fill="#368f48" fill-rule="evenodd"/>
      <path id="Caminho_2175" data-name="Caminho 2175" d="M34.176,2.607A26.132,26.132,0,0,0,12.33,43.088L9.407,52.842a1.188,1.188,0,0,0,1.526,1.464l9.548-3.3a26.139,26.139,0,1,0,13.7-48.4Zm0,2.376a23.762,23.762,0,1,1-12.9,43.722h0a1.187,1.187,0,0,0-1.034-.126l-7.9,2.725,2.418-8.069a1.189,1.189,0,0,0-.156-1.01A23.761,23.761,0,0,1,34.175,4.983Z" transform="translate(-4.53 -2.607)" fill="#368f48" fill-rule="evenodd"/>
      <g id="Grupo_1518" data-name="Grupo 1518" transform="translate(0.091 80.315)">
        <path id="Caminho_2176" data-name="Caminho 2176" d="M1.951.473a1.411,1.411,0,0,1-.322.119,1.446,1.446,0,0,1-.348.041,1.189,1.189,0,0,1-.857-.3,1.082,1.082,0,0,1-.317-.82,1.079,1.079,0,0,1,.317-.82,1.186,1.186,0,0,1,.857-.3,1.446,1.446,0,0,1,.348.041,1.411,1.411,0,0,1,.322.119V-1a1.274,1.274,0,0,0-.307-.154,1.011,1.011,0,0,0-.318-.05.6.6,0,0,0-.469.192.762.762,0,0,0-.171.527A.765.765,0,0,0,.857.039a.6.6,0,0,0,.469.191A1.035,1.035,0,0,0,1.644.181,1.238,1.238,0,0,0,1.951.025Z" transform="translate(-0.108 1.612)" fill="#368f48"/>
      </g>
      <g id="Grupo_1519" data-name="Grupo 1519" transform="translate(2.374 80.856)">
        <path id="Caminho_2177" data-name="Caminho 2177" d="M1.39-.735a.718.718,0,0,0-.138-.046A.567.567,0,0,0,1.118-.8.378.378,0,0,0,.81-.669.552.552,0,0,0,.7-.3V.447H.183V-1.177H.7V-.91a.659.659,0,0,1,.229-.232.618.618,0,0,1,.312-.075.552.552,0,0,1,.056,0l.09.008Z" transform="translate(-0.183 1.217)" fill="#368f48"/>
      </g>
      <g id="Grupo_1520" data-name="Grupo 1520" transform="translate(3.716 80.856)">
        <path id="Caminho_2178" data-name="Caminho 2178" d="M1.837-.37v.149H.622A.386.386,0,0,0,.755.052a.49.49,0,0,0,.317.091A1.222,1.222,0,0,0,1.406.1a1.772,1.772,0,0,0,.353-.148v.4a2.188,2.188,0,0,1-.368.1,1.91,1.91,0,0,1-.368.036A.98.98,0,0,1,.337.265.81.81,0,0,1,.093-.364a.818.818,0,0,1,.24-.625.917.917,0,0,1,.66-.229.826.826,0,0,1,.613.232.833.833,0,0,1,.23.615ZM1.3-.543A.329.329,0,0,0,1.217-.78.3.3,0,0,0,.992-.871a.354.354,0,0,0-.245.085.389.389,0,0,0-.118.244Z" transform="translate(-0.093 1.217)" fill="#368f48"/>
      </g>
      <g id="Grupo_1521" data-name="Grupo 1521" transform="translate(5.73 80.856)">
        <path id="Caminho_2179" data-name="Caminho 2179" d="M.944-.284A.447.447,0,0,0,.7-.229a.183.183,0,0,0-.081.162A.193.193,0,0,0,.683.089.277.277,0,0,0,.866.144a.327.327,0,0,0,.247-.1.367.367,0,0,0,.1-.264v-.06Zm.792-.2V.447H1.214V.207A.671.671,0,0,1,.978.422.7.7,0,0,1,.66.488.577.577,0,0,1,.251.343.5.5,0,0,1,.093-.04a.469.469,0,0,1,.2-.418A1.117,1.117,0,0,1,.907-.592h.307V-.634a.192.192,0,0,0-.1-.179.616.616,0,0,0-.3-.058A1.4,1.4,0,0,0,.5-.838a1.075,1.075,0,0,0-.265.1v-.4A3.159,3.159,0,0,1,.569-1.2a2.724,2.724,0,0,1,.338-.022.937.937,0,0,1,.633.174.718.718,0,0,1,.2.564Z" transform="translate(-0.093 1.217)" fill="#368f48"/>
      </g>
      <g id="Grupo_1522" data-name="Grupo 1522" transform="translate(7.647 80.435)">
        <path id="Caminho_2180" data-name="Caminho 2180" d="M.806-1.525v.461h.535v.371H.806V0A.2.2,0,0,0,.851.149a.279.279,0,0,0,.177.04H1.3V.56H.851A.61.61,0,0,1,.414.432.606.606,0,0,1,.286,0v-.69H.029v-.371H.286v-.461Z" transform="translate(-0.029 1.525)" fill="#368f48"/>
      </g>
      <g id="Grupo_1523" data-name="Grupo 1523" transform="translate(9.155 80.856)">
        <path id="Caminho_2181" data-name="Caminho 2181" d="M1.837-.37v.149H.622A.386.386,0,0,0,.755.052a.49.49,0,0,0,.317.091A1.222,1.222,0,0,0,1.406.1a1.772,1.772,0,0,0,.353-.148v.4a2.188,2.188,0,0,1-.368.1,1.91,1.91,0,0,1-.368.036A.98.98,0,0,1,.337.265.81.81,0,0,1,.093-.364a.818.818,0,0,1,.24-.625.917.917,0,0,1,.66-.229.826.826,0,0,1,.613.232.833.833,0,0,1,.23.615ZM1.3-.543A.329.329,0,0,0,1.217-.78.3.3,0,0,0,.992-.871a.354.354,0,0,0-.245.085.389.389,0,0,0-.118.244Z" transform="translate(-0.093 1.217)" fill="#368f48"/>
      </g>
      <g id="Grupo_1524" data-name="Grupo 1524" transform="translate(11.176 80.262)">
        <path id="Caminho_2182" data-name="Caminho 2182" d="M1.318-.781v-.87H1.84V.606H1.318V.371a.684.684,0,0,1-.235.211.653.653,0,0,1-.3.066A.6.6,0,0,1,.29.409.945.945,0,0,1,.1-.2.948.948,0,0,1,.29-.819a.6.6,0,0,1,.492-.239.634.634,0,0,1,.3.068.719.719,0,0,1,.237.209ZM.977.272A.294.294,0,0,0,1.23.151.6.6,0,0,0,1.318-.2.6.6,0,0,0,1.23-.557.294.294,0,0,0,.977-.68a.293.293,0,0,0-.254.123A.6.6,0,0,0,.635-.2.6.6,0,0,0,.723.151.293.293,0,0,0,.977.272Z" transform="translate(-0.098 1.651)" fill="#368f48"/>
      </g>
      <g id="Grupo_1525" data-name="Grupo 1525" transform="translate(14.452 80.262)">
        <path id="Caminho_2183" data-name="Caminho 2183" d="M1.047.272A.3.3,0,0,0,1.3.151.6.6,0,0,0,1.39-.2.6.6,0,0,0,1.3-.557.3.3,0,0,0,1.047-.68.3.3,0,0,0,.79-.557.6.6,0,0,0,.7-.2.6.6,0,0,0,.79.149a.3.3,0,0,0,.257.123ZM.7-.781A.735.735,0,0,1,.939-.99a.643.643,0,0,1,.3-.068.607.607,0,0,1,.494.239A.951.951,0,0,1,1.925-.2a.947.947,0,0,1-.192.613.607.607,0,0,1-.494.239.658.658,0,0,1-.3-.066A.718.718,0,0,1,.7.371V.606H.183V-1.651H.7Z" transform="translate(-0.183 1.651)" fill="#368f48"/>
      </g>
      <g id="Grupo_1526" data-name="Grupo 1526" transform="translate(16.364 80.895)">
        <path id="Caminho_2184" data-name="Caminho 2184" d="M.027-1.188H.545l.438,1.1.371-1.1h.519L1.19.591A.868.868,0,0,1,.95.968a.564.564,0,0,1-.361.109h-.3V.736H.449A.335.335,0,0,0,.642.693.271.271,0,0,0,.736.544L.751.5Z" transform="translate(-0.027 1.188)" fill="#368f48"/>
      </g>
      <g id="Grupo_1527" data-name="Grupo 1527" transform="translate(19.426 80.856)">
        <path id="Caminho_2185" data-name="Caminho 2185" d="M.944-.284A.447.447,0,0,0,.7-.229a.183.183,0,0,0-.081.162A.193.193,0,0,0,.683.089.277.277,0,0,0,.866.144a.327.327,0,0,0,.247-.1.367.367,0,0,0,.1-.264v-.06Zm.792-.2V.447H1.214V.207A.671.671,0,0,1,.978.422.7.7,0,0,1,.66.488.577.577,0,0,1,.251.343.5.5,0,0,1,.093-.04a.469.469,0,0,1,.2-.418A1.117,1.117,0,0,1,.907-.592h.307V-.634a.192.192,0,0,0-.1-.179.616.616,0,0,0-.3-.058A1.4,1.4,0,0,0,.5-.838a1.075,1.075,0,0,0-.265.1v-.4A3.159,3.159,0,0,1,.569-1.2a2.724,2.724,0,0,1,.338-.022.937.937,0,0,1,.633.174.718.718,0,0,1,.2.564Z" transform="translate(-0.093 1.217)" fill="#368f48"/>
      </g>
      <g id="Grupo_1528" data-name="Grupo 1528" transform="translate(21.552 80.856)">
        <path id="Caminho_2186" data-name="Caminho 2186" d="M1.816-.543v.99H1.294V-.31a2.778,2.778,0,0,0-.01-.29A.312.312,0,0,0,1.25-.718.212.212,0,0,0,1.168-.8.243.243,0,0,0,1.05-.824.3.3,0,0,0,.795-.7.567.567,0,0,0,.7-.352v.8H.183V-1.177H.7V-.94A.829.829,0,0,1,.95-1.149a.631.631,0,0,1,.292-.068.527.527,0,0,1,.428.174.758.758,0,0,1,.146.5Z" transform="translate(-0.183 1.217)" fill="#368f48"/>
      </g>
      <g id="Grupo_1529" data-name="Grupo 1529" transform="translate(23.551 80.262)">
        <path id="Caminho_2187" data-name="Caminho 2187" d="M1.318-.781v-.87H1.84V.606H1.318V.371a.684.684,0,0,1-.235.211.653.653,0,0,1-.3.066A.6.6,0,0,1,.29.409.945.945,0,0,1,.1-.2.948.948,0,0,1,.29-.819a.6.6,0,0,1,.492-.239.634.634,0,0,1,.3.068.719.719,0,0,1,.237.209ZM.977.272A.294.294,0,0,0,1.23.151.6.6,0,0,0,1.318-.2.6.6,0,0,0,1.23-.557.294.294,0,0,0,.977-.68a.293.293,0,0,0-.254.123A.6.6,0,0,0,.635-.2.6.6,0,0,0,.723.151.293.293,0,0,0,.977.272Z" transform="translate(-0.098 1.651)" fill="#368f48"/>
      </g>
      <g id="Grupo_1530" data-name="Grupo 1530" transform="translate(25.793 80.856)">
        <path id="Caminho_2188" data-name="Caminho 2188" d="M1.39-.735a.718.718,0,0,0-.138-.046A.567.567,0,0,0,1.118-.8.378.378,0,0,0,.81-.669.552.552,0,0,0,.7-.3V.447H.183V-1.177H.7V-.91a.659.659,0,0,1,.229-.232.618.618,0,0,1,.312-.075.552.552,0,0,1,.056,0l.09.008Z" transform="translate(-0.183 1.217)" fill="#368f48"/>
      </g>
      <g id="Grupo_1531" data-name="Grupo 1531" transform="translate(27.258 80.262)">
        <path id="Caminho_2189" data-name="Caminho 2189" d="M.183-1.018H.7V.606H.183Zm0-.633H.7v.424H.183Z" transform="translate(-0.183 1.651)" fill="#368f48"/>
      </g>
      <g id="Grupo_1532" data-name="Grupo 1532" transform="translate(28.13 80.895)">
        <path id="Caminho_2190" data-name="Caminho 2190" d="M.076-1.188H.582L.854-.069l.273-1.119h.434L1.835-.081l.273-1.107h.5L2.185.436H1.618L1.344-.681,1.071.436H.5Z" transform="translate(-0.076 1.188)" fill="#368f48"/>
      </g>
      <g id="Grupo_1533" data-name="Grupo 1533" transform="translate(31.02 80.262)">
        <path id="Caminho_2191" data-name="Caminho 2191" d="M.183-1.018H.7V.606H.183Zm0-.633H.7v.424H.183Z" transform="translate(-0.183 1.651)" fill="#368f48"/>
      </g>
      <g id="Grupo_1534" data-name="Grupo 1534" transform="translate(31.922 80.262)">
        <path id="Caminho_2192" data-name="Caminho 2192" d="M1.318-.781v-.87H1.84V.606H1.318V.371a.684.684,0,0,1-.235.211.653.653,0,0,1-.3.066A.6.6,0,0,1,.29.409.945.945,0,0,1,.1-.2.948.948,0,0,1,.29-.819a.6.6,0,0,1,.492-.239.634.634,0,0,1,.3.068.719.719,0,0,1,.237.209ZM.977.272A.294.294,0,0,0,1.23.151.6.6,0,0,0,1.318-.2.6.6,0,0,0,1.23-.557.294.294,0,0,0,.977-.68a.293.293,0,0,0-.254.123A.6.6,0,0,0,.635-.2.6.6,0,0,0,.723.151.293.293,0,0,0,.977.272Z" transform="translate(-0.098 1.651)" fill="#368f48"/>
      </g>
      <g id="Grupo_1535" data-name="Grupo 1535" transform="translate(34.041 80.855)">
        <path id="Caminho_2193" data-name="Caminho 2193" d="M.988-.846a.306.306,0,0,0-.264.124.6.6,0,0,0-.091.358.6.6,0,0,0,.091.358A.307.307,0,0,0,.988.117a.3.3,0,0,0,.259-.123.6.6,0,0,0,.091-.358.6.6,0,0,0-.091-.358A.3.3,0,0,0,.988-.846Zm0-.371a.905.905,0,0,1,.655.227.828.828,0,0,1,.235.627.83.83,0,0,1-.235.627A.908.908,0,0,1,.988.488.915.915,0,0,1,.33.263.825.825,0,0,1,.093-.364.823.823,0,0,1,.33-.99.912.912,0,0,1,.988-1.217Z" transform="translate(-0.093 1.217)" fill="#368f48"/>
      </g>
      <g id="Grupo_1536" data-name="Grupo 1536" transform="translate(36.089 80.262)">
        <path id="Caminho_2194" data-name="Caminho 2194" d="M1.318-.781v-.87H1.84V.606H1.318V.371a.684.684,0,0,1-.235.211.653.653,0,0,1-.3.066A.6.6,0,0,1,.29.409.945.945,0,0,1,.1-.2.948.948,0,0,1,.29-.819a.6.6,0,0,1,.492-.239.634.634,0,0,1,.3.068.719.719,0,0,1,.237.209ZM.977.272A.294.294,0,0,0,1.23.151.6.6,0,0,0,1.318-.2.6.6,0,0,0,1.23-.557.294.294,0,0,0,.977-.68a.293.293,0,0,0-.254.123A.6.6,0,0,0,.635-.2.6.6,0,0,0,.723.151.293.293,0,0,0,.977.272Z" transform="translate(-0.098 1.651)" fill="#368f48"/>
      </g>
      <g id="Grupo_1537" data-name="Grupo 1537" transform="translate(38.208 80.855)">
        <path id="Caminho_2195" data-name="Caminho 2195" d="M.988-.846a.306.306,0,0,0-.264.124.6.6,0,0,0-.091.358.6.6,0,0,0,.091.358A.307.307,0,0,0,.988.117a.3.3,0,0,0,.259-.123.6.6,0,0,0,.091-.358.6.6,0,0,0-.091-.358A.3.3,0,0,0,.988-.846Zm0-.371a.905.905,0,0,1,.655.227.828.828,0,0,1,.235.627.83.83,0,0,1-.235.627A.908.908,0,0,1,.988.488.915.915,0,0,1,.33.263.825.825,0,0,1,.093-.364.823.823,0,0,1,.33-.99.912.912,0,0,1,.988-1.217Z" transform="translate(-0.093 1.217)" fill="#368f48"/>
      </g>
      <g id="Grupo_1538" data-name="Grupo 1538" transform="translate(0 83.232)">
        <path id="Caminho_2196" data-name="Caminho 2196" d="M1.3-1.651v.341H1.016a.233.233,0,0,0-.154.04.183.183,0,0,0-.043.139v.113h.444v.371H.819V.606H.3V-.647H.041v-.371H.3v-.113a.492.492,0,0,1,.148-.393.69.69,0,0,1,.459-.128Z" transform="translate(-0.041 1.651)" fill="#368f48"/>
      </g>
      <g id="Grupo_1539" data-name="Grupo 1539" transform="translate(1.486 83.826)">
        <path id="Caminho_2197" data-name="Caminho 2197" d="M1.39-.735a.718.718,0,0,0-.138-.046A.567.567,0,0,0,1.118-.8.378.378,0,0,0,.81-.669.552.552,0,0,0,.7-.3V.447H.183V-1.177H.7V-.91a.659.659,0,0,1,.229-.232.618.618,0,0,1,.312-.075.552.552,0,0,1,.056,0l.09.008Z" transform="translate(-0.183 1.217)" fill="#368f48"/>
      </g>
      <g id="Grupo_1540" data-name="Grupo 1540" transform="translate(2.828 83.826)">
        <path id="Caminho_2198" data-name="Caminho 2198" d="M.988-.846a.306.306,0,0,0-.264.124.6.6,0,0,0-.091.358.6.6,0,0,0,.091.358A.307.307,0,0,0,.988.117a.3.3,0,0,0,.259-.123.6.6,0,0,0,.091-.358.6.6,0,0,0-.091-.358A.3.3,0,0,0,.988-.846Zm0-.371a.905.905,0,0,1,.655.227.828.828,0,0,1,.235.627.83.83,0,0,1-.235.627A.908.908,0,0,1,.988.488.915.915,0,0,1,.33.263.825.825,0,0,1,.093-.364.823.823,0,0,1,.33-.99.912.912,0,0,1,.988-1.217Z" transform="translate(-0.093 1.217)" fill="#368f48"/>
      </g>
      <g id="Grupo_1541" data-name="Grupo 1541" transform="translate(4.988 83.826)">
        <path id="Caminho_2199" data-name="Caminho 2199" d="M1.689-.907a.7.7,0,0,1,.234-.23.578.578,0,0,1,.3-.08.525.525,0,0,1,.426.174.751.751,0,0,1,.148.5v.99H2.272V-.438c0-.014,0-.034,0-.06a.462.462,0,0,0-.051-.249A.178.178,0,0,0,2.06-.824.259.259,0,0,0,1.831-.7a.637.637,0,0,0-.083.351v.8H1.227V-.4A.807.807,0,0,0,1.18-.746a.177.177,0,0,0-.166-.078A.26.26,0,0,0,.784-.7.626.626,0,0,0,.7-.352v.8H.181V-1.177H.7V-.94a.675.675,0,0,1,.219-.207.55.55,0,0,1,.273-.07.551.551,0,0,1,.3.081.511.511,0,0,1,.2.229Z" transform="translate(-0.181 1.217)" fill="#368f48"/>
      </g>
      <g id="Grupo_1542" data-name="Grupo 1542" transform="translate(8.91 83.405)">
        <path id="Caminho_2200" data-name="Caminho 2200" d="M.806-1.525v.461h.535v.371H.806V0A.2.2,0,0,0,.851.149a.279.279,0,0,0,.177.04H1.3V.56H.851A.61.61,0,0,1,.414.432.606.606,0,0,1,.286,0v-.69H.029v-.371H.286v-.461Z" transform="translate(-0.029 1.525)" fill="#368f48"/>
      </g>
      <g id="Grupo_1543" data-name="Grupo 1543" transform="translate(10.54 83.232)">
        <path id="Caminho_2201" data-name="Caminho 2201" d="M1.816-.383v.99H1.294V-.148a2.821,2.821,0,0,0-.01-.293A.312.312,0,0,0,1.25-.559a.212.212,0,0,0-.083-.078A.243.243,0,0,0,1.05-.665a.3.3,0,0,0-.255.126A.567.567,0,0,0,.7-.193v.8H.183V-1.651H.7v.87A.829.829,0,0,1,.95-.99a.631.631,0,0,1,.292-.068.527.527,0,0,1,.428.174.758.758,0,0,1,.146.5Z" transform="translate(-0.183 1.651)" fill="#368f48"/>
      </g>
      <g id="Grupo_1544" data-name="Grupo 1544" transform="translate(12.532 83.826)">
        <path id="Caminho_2202" data-name="Caminho 2202" d="M1.837-.37v.149H.622A.386.386,0,0,0,.755.052a.49.49,0,0,0,.317.091A1.222,1.222,0,0,0,1.406.1a1.772,1.772,0,0,0,.353-.148v.4a2.188,2.188,0,0,1-.368.1,1.91,1.91,0,0,1-.368.036A.98.98,0,0,1,.337.265.81.81,0,0,1,.093-.364a.818.818,0,0,1,.24-.625.917.917,0,0,1,.66-.229.826.826,0,0,1,.613.232.833.833,0,0,1,.23.615ZM1.3-.543A.329.329,0,0,0,1.217-.78.3.3,0,0,0,.992-.871a.354.354,0,0,0-.245.085.389.389,0,0,0-.118.244Z" transform="translate(-0.093 1.217)" fill="#368f48"/>
      </g>
      <g id="Grupo_1545" data-name="Grupo 1545" transform="translate(15.726 83.325)">
        <path id="Caminho_2203" data-name="Caminho 2203" d="M.2-1.583H.823L1.611-.1V-1.583h.529V.581H1.516L.729-.9V.581H.2Z" transform="translate(-0.2 1.583)" fill="#368f48"/>
      </g>
      <g id="Grupo_1546" data-name="Grupo 1546" transform="translate(18.066 83.826)">
        <path id="Caminho_2204" data-name="Caminho 2204" d="M.988-.846a.306.306,0,0,0-.264.124.6.6,0,0,0-.091.358.6.6,0,0,0,.091.358A.307.307,0,0,0,.988.117a.3.3,0,0,0,.259-.123.6.6,0,0,0,.091-.358.6.6,0,0,0-.091-.358A.3.3,0,0,0,.988-.846Zm0-.371a.905.905,0,0,1,.655.227.828.828,0,0,1,.235.627.83.83,0,0,1-.235.627A.908.908,0,0,1,.988.488.915.915,0,0,1,.33.263.825.825,0,0,1,.093-.364.823.823,0,0,1,.33-.99.912.912,0,0,1,.988-1.217Z" transform="translate(-0.093 1.217)" fill="#368f48"/>
      </g>
      <g id="Grupo_1547" data-name="Grupo 1547" transform="translate(20.212 83.866)">
        <path id="Caminho_2205" data-name="Caminho 2205" d="M.17-.2v-.991H.692v.162c0,.089,0,.2,0,.331s0,.221,0,.265A2.791,2.791,0,0,0,.7-.145a.327.327,0,0,0,.035.124.228.228,0,0,0,.085.08A.25.25,0,0,0,.935.085a.3.3,0,0,0,.255-.124.569.569,0,0,0,.093-.346v-.8H1.8V.436H1.284V.2a.816.816,0,0,1-.249.211.637.637,0,0,1-.29.066A.531.531,0,0,1,.317.305.751.751,0,0,1,.17-.2Z" transform="translate(-0.17 1.188)" fill="#368f48"/>
      </g>
      <g id="Grupo_1548" data-name="Grupo 1548" transform="translate(22.344 83.826)">
        <path id="Caminho_2206" data-name="Caminho 2206" d="M1.816-.543v.99H1.294V-.31a2.778,2.778,0,0,0-.01-.29A.312.312,0,0,0,1.25-.718.212.212,0,0,0,1.168-.8.243.243,0,0,0,1.05-.824.3.3,0,0,0,.795-.7.567.567,0,0,0,.7-.352v.8H.183V-1.177H.7V-.94A.829.829,0,0,1,.95-1.149a.631.631,0,0,1,.292-.068.527.527,0,0,1,.428.174.758.758,0,0,1,.146.5Z" transform="translate(-0.183 1.217)" fill="#368f48"/>
      </g>
      <g id="Grupo_1549" data-name="Grupo 1549" transform="translate(25.516 83.325)">
        <path id="Caminho_2207" data-name="Caminho 2207" d="M.2-1.583h.927A.964.964,0,0,1,1.76-1.4a.638.638,0,0,1,.222.522.642.642,0,0,1-.222.524.964.964,0,0,1-.633.184H.757V.581H.2Zm.557.4v.6h.31a.361.361,0,0,0,.25-.08.284.284,0,0,0,.09-.224.281.281,0,0,0-.09-.224.367.367,0,0,0-.25-.078Z" transform="translate(-0.2 1.583)" fill="#368f48"/>
      </g>
      <g id="Grupo_1550" data-name="Grupo 1550" transform="translate(27.67 83.826)">
        <path id="Caminho_2208" data-name="Caminho 2208" d="M1.39-.735a.718.718,0,0,0-.138-.046A.567.567,0,0,0,1.118-.8.378.378,0,0,0,.81-.669.552.552,0,0,0,.7-.3V.447H.183V-1.177H.7V-.91a.659.659,0,0,1,.229-.232.618.618,0,0,1,.312-.075.552.552,0,0,1,.056,0l.09.008Z" transform="translate(-0.183 1.217)" fill="#368f48"/>
      </g>
      <g id="Grupo_1551" data-name="Grupo 1551" transform="translate(29.012 83.826)">
        <path id="Caminho_2209" data-name="Caminho 2209" d="M.988-.846a.306.306,0,0,0-.264.124.6.6,0,0,0-.091.358.6.6,0,0,0,.091.358A.307.307,0,0,0,.988.117a.3.3,0,0,0,.259-.123.6.6,0,0,0,.091-.358.6.6,0,0,0-.091-.358A.3.3,0,0,0,.988-.846Zm0-.371a.905.905,0,0,1,.655.227.828.828,0,0,1,.235.627.83.83,0,0,1-.235.627A.908.908,0,0,1,.988.488.915.915,0,0,1,.33.263.825.825,0,0,1,.093-.364.823.823,0,0,1,.33-.99.912.912,0,0,1,.988-1.217Z" transform="translate(-0.093 1.217)" fill="#368f48"/>
      </g>
      <g id="Grupo_1552" data-name="Grupo 1552" transform="translate(30.825 83.232)">
        <path id="Caminho_2210" data-name="Caminho 2210" d="M.277-1.018H.8V.577a.716.716,0,0,1-.157.5.582.582,0,0,1-.454.172H-.073V.906H.018A.253.253,0,0,0,.221.84.434.434,0,0,0,.277.577Zm0-.633H.8v.424H.277Z" transform="translate(0.073 1.651)" fill="#368f48"/>
      </g>
      <g id="Grupo_1553" data-name="Grupo 1553" transform="translate(32.07 83.826)">
        <path id="Caminho_2211" data-name="Caminho 2211" d="M1.837-.37v.149H.622A.386.386,0,0,0,.755.052a.49.49,0,0,0,.317.091A1.222,1.222,0,0,0,1.406.1a1.772,1.772,0,0,0,.353-.148v.4a2.188,2.188,0,0,1-.368.1,1.91,1.91,0,0,1-.368.036A.98.98,0,0,1,.337.265.81.81,0,0,1,.093-.364a.818.818,0,0,1,.24-.625.917.917,0,0,1,.66-.229.826.826,0,0,1,.613.232.833.833,0,0,1,.23.615ZM1.3-.543A.329.329,0,0,0,1.217-.78.3.3,0,0,0,.992-.871a.354.354,0,0,0-.245.085.389.389,0,0,0-.118.244Z" transform="translate(-0.093 1.217)" fill="#368f48"/>
      </g>
      <g id="Grupo_1554" data-name="Grupo 1554" transform="translate(34.085 83.826)">
        <path id="Caminho_2212" data-name="Caminho 2212" d="M1.527-1.126V-.7a.807.807,0,0,0-.212-.108.7.7,0,0,0-.22-.035.449.449,0,0,0-.34.128.491.491,0,0,0-.121.355.494.494,0,0,0,.121.355.451.451,0,0,0,.34.126.757.757,0,0,0,.23-.035.68.68,0,0,0,.2-.108V.4A1.4,1.4,0,0,1,1.28.465a1.383,1.383,0,0,1-.252.023A.986.986,0,0,1,.34.263.8.8,0,0,1,.093-.364.807.807,0,0,1,.34-.992a.988.988,0,0,1,.688-.225,1.383,1.383,0,0,1,.252.023,1.387,1.387,0,0,1,.247.068Z" transform="translate(-0.093 1.217)" fill="#368f48"/>
      </g>
      <g id="Grupo_1555" data-name="Grupo 1555" transform="translate(35.757 83.405)">
        <path id="Caminho_2213" data-name="Caminho 2213" d="M.806-1.525v.461h.535v.371H.806V0A.2.2,0,0,0,.851.149a.279.279,0,0,0,.177.04H1.3V.56H.851A.61.61,0,0,1,.414.432.606.606,0,0,1,.286,0v-.69H.029v-.371H.286v-.461Z" transform="translate(-0.029 1.525)" fill="#368f48"/>
      </g>
    </g>
  </g>
</svg>
